%TF.GenerationSoftware,KiCad,Pcbnew,7.0.8*%
%TF.CreationDate,2023-10-24T07:18:39+02:00*%
%TF.ProjectId,convertisseur-video-atari-2600-secam-kit,636f6e76-6572-4746-9973-736575722d76,rev?*%
%TF.SameCoordinates,Original*%
%TF.FileFunction,Drillmap*%
%TF.FilePolarity,Positive*%
%FSLAX45Y45*%
G04 Gerber Fmt 4.5, Leading zero omitted, Abs format (unit mm)*
G04 Created by KiCad (PCBNEW 7.0.8) date 2023-10-24 07:18:39*
%MOMM*%
%LPD*%
G01*
G04 APERTURE LIST*
%ADD10C,0.100000*%
%ADD11C,0.200000*%
%ADD12C,0.040000*%
%ADD13C,0.080000*%
%ADD14C,0.090000*%
%ADD15C,0.110000*%
%ADD16C,0.111760*%
%ADD17C,0.270000*%
G04 APERTURE END LIST*
D10*
X12636500Y-7620000D02*
X8001000Y-7620000D01*
X8001000Y-7620000D02*
X8001000Y-12573000D01*
X12636500Y-7620000D02*
X12636500Y-12573000D01*
X12636500Y-12573000D02*
X8001000Y-12573000D01*
D11*
D12*
X9251000Y-9187500D02*
X9291000Y-9227500D01*
X9291000Y-9187500D02*
X9251000Y-9227500D01*
D13*
X8993500Y-10731500D02*
G75*
G03*
X8993500Y-10731500I-40000J0D01*
G01*
X8993500Y-11747500D02*
G75*
G03*
X8993500Y-11747500I-40000J0D01*
G01*
X9184000Y-8386000D02*
G75*
G03*
X9184000Y-8386000I-40000J0D01*
G01*
X9184000Y-8886000D02*
G75*
G03*
X9184000Y-8886000I-40000J0D01*
G01*
X9374500Y-10731500D02*
G75*
G03*
X9374500Y-10731500I-40000J0D01*
G01*
X9374500Y-11747500D02*
G75*
G03*
X9374500Y-11747500I-40000J0D01*
G01*
X9628500Y-8382000D02*
G75*
G03*
X9628500Y-8382000I-40000J0D01*
G01*
X9628500Y-8763000D02*
G75*
G03*
X9628500Y-8763000I-40000J0D01*
G01*
X9628500Y-9144000D02*
G75*
G03*
X9628500Y-9144000I-40000J0D01*
G01*
X9755500Y-10731500D02*
G75*
G03*
X9755500Y-10731500I-40000J0D01*
G01*
X9755500Y-11747500D02*
G75*
G03*
X9755500Y-11747500I-40000J0D01*
G01*
X10136500Y-10731500D02*
G75*
G03*
X10136500Y-10731500I-40000J0D01*
G01*
X10136500Y-11747500D02*
G75*
G03*
X10136500Y-11747500I-40000J0D01*
G01*
X10517500Y-10731500D02*
G75*
G03*
X10517500Y-10731500I-40000J0D01*
G01*
X10517500Y-11747500D02*
G75*
G03*
X10517500Y-11747500I-40000J0D01*
G01*
X10644500Y-8382000D02*
G75*
G03*
X10644500Y-8382000I-40000J0D01*
G01*
X10644500Y-8763000D02*
G75*
G03*
X10644500Y-8763000I-40000J0D01*
G01*
X10644500Y-9144000D02*
G75*
G03*
X10644500Y-9144000I-40000J0D01*
G01*
X10898500Y-10731500D02*
G75*
G03*
X10898500Y-10731500I-40000J0D01*
G01*
X10898500Y-11747500D02*
G75*
G03*
X10898500Y-11747500I-40000J0D01*
G01*
X11025500Y-8191500D02*
G75*
G03*
X11025500Y-8191500I-40000J0D01*
G01*
X11025500Y-9207500D02*
G75*
G03*
X11025500Y-9207500I-40000J0D01*
G01*
X11220000Y-10033000D02*
G75*
G03*
X11220000Y-10033000I-40000J0D01*
G01*
X11470000Y-10033000D02*
G75*
G03*
X11470000Y-10033000I-40000J0D01*
G01*
D14*
X11366500Y-10559500D02*
X11366500Y-10649500D01*
X11321500Y-10604500D02*
X11411500Y-10604500D01*
X11366500Y-11575500D02*
X11366500Y-11665500D01*
X11321500Y-11620500D02*
X11411500Y-11620500D01*
X11747500Y-10559500D02*
X11747500Y-10649500D01*
X11702500Y-10604500D02*
X11792500Y-10604500D01*
X11747500Y-11575500D02*
X11747500Y-11665500D01*
X11702500Y-11620500D02*
X11792500Y-11620500D01*
D15*
X8293891Y-8357391D02*
X8293891Y-8279609D01*
X8216109Y-8279609D01*
X8216109Y-8357391D01*
X8293891Y-8357391D01*
X8293891Y-8674891D02*
X8293891Y-8597109D01*
X8216109Y-8597109D01*
X8216109Y-8674891D01*
X8293891Y-8674891D01*
X8293891Y-8992391D02*
X8293891Y-8914609D01*
X8216109Y-8914609D01*
X8216109Y-8992391D01*
X8293891Y-8992391D01*
X8293891Y-9309891D02*
X8293891Y-9232109D01*
X8216109Y-9232109D01*
X8216109Y-9309891D01*
X8293891Y-9309891D01*
X8293891Y-9627391D02*
X8293891Y-9549609D01*
X8216109Y-9549609D01*
X8216109Y-9627391D01*
X8293891Y-9627391D01*
X8293891Y-9944891D02*
X8293891Y-9867109D01*
X8216109Y-9867109D01*
X8216109Y-9944891D01*
X8293891Y-9944891D01*
X8293891Y-10262391D02*
X8293891Y-10184609D01*
X8216109Y-10184609D01*
X8216109Y-10262391D01*
X8293891Y-10262391D01*
X8293891Y-10579891D02*
X8293891Y-10502109D01*
X8216109Y-10502109D01*
X8216109Y-10579891D01*
X8293891Y-10579891D01*
X8293891Y-10897391D02*
X8293891Y-10819609D01*
X8216109Y-10819609D01*
X8216109Y-10897391D01*
X8293891Y-10897391D01*
X8293891Y-11405391D02*
X8293891Y-11327609D01*
X8216109Y-11327609D01*
X8216109Y-11405391D01*
X8293891Y-11405391D01*
X8293891Y-11786391D02*
X8293891Y-11708609D01*
X8216109Y-11708609D01*
X8216109Y-11786391D01*
X8293891Y-11786391D01*
X12421391Y-8166891D02*
X12421391Y-8089109D01*
X12343609Y-8089109D01*
X12343609Y-8166891D01*
X12421391Y-8166891D01*
X12421391Y-8484391D02*
X12421391Y-8406609D01*
X12343609Y-8406609D01*
X12343609Y-8484391D01*
X12421391Y-8484391D01*
X12421391Y-8801891D02*
X12421391Y-8724109D01*
X12343609Y-8724109D01*
X12343609Y-8801891D01*
X12421391Y-8801891D01*
X12421391Y-9119391D02*
X12421391Y-9041609D01*
X12343609Y-9041609D01*
X12343609Y-9119391D01*
X12421391Y-9119391D01*
X12421391Y-9436891D02*
X12421391Y-9359109D01*
X12343609Y-9359109D01*
X12343609Y-9436891D01*
X12421391Y-9436891D01*
X12421391Y-9754391D02*
X12421391Y-9676609D01*
X12343609Y-9676609D01*
X12343609Y-9754391D01*
X12421391Y-9754391D01*
X12421391Y-10071891D02*
X12421391Y-9994109D01*
X12343609Y-9994109D01*
X12343609Y-10071891D01*
X12421391Y-10071891D01*
X12421391Y-10389391D02*
X12421391Y-10311609D01*
X12343609Y-10311609D01*
X12343609Y-10389391D01*
X12421391Y-10389391D01*
X12421391Y-10706891D02*
X12421391Y-10629109D01*
X12343609Y-10629109D01*
X12343609Y-10706891D01*
X12421391Y-10706891D01*
X12421391Y-11024391D02*
X12421391Y-10946609D01*
X12343609Y-10946609D01*
X12343609Y-11024391D01*
X12421391Y-11024391D01*
X12421391Y-11341891D02*
X12421391Y-11264109D01*
X12343609Y-11264109D01*
X12343609Y-11341891D01*
X12421391Y-11341891D01*
X12421391Y-11659391D02*
X12421391Y-11581609D01*
X12343609Y-11581609D01*
X12343609Y-11659391D01*
X12421391Y-11659391D01*
X12421391Y-11976891D02*
X12421391Y-11899109D01*
X12343609Y-11899109D01*
X12343609Y-11976891D01*
X12421391Y-11976891D01*
X12421391Y-12294391D02*
X12421391Y-12216609D01*
X12343609Y-12216609D01*
X12343609Y-12294391D01*
X12421391Y-12294391D01*
D16*
X9080500Y-9580880D02*
X9136380Y-9525000D01*
X9080500Y-9469120D01*
X9024620Y-9525000D01*
X9080500Y-9580880D01*
X9080500Y-10342880D02*
X9136380Y-10287000D01*
X9080500Y-10231120D01*
X9024620Y-10287000D01*
X9080500Y-10342880D01*
X9334500Y-9580880D02*
X9390380Y-9525000D01*
X9334500Y-9469120D01*
X9278620Y-9525000D01*
X9334500Y-9580880D01*
X9334500Y-10342880D02*
X9390380Y-10287000D01*
X9334500Y-10231120D01*
X9278620Y-10287000D01*
X9334500Y-10342880D01*
X9588500Y-9580880D02*
X9644380Y-9525000D01*
X9588500Y-9469120D01*
X9532620Y-9525000D01*
X9588500Y-9580880D01*
X9588500Y-10342880D02*
X9644380Y-10287000D01*
X9588500Y-10231120D01*
X9532620Y-10287000D01*
X9588500Y-10342880D01*
X9842500Y-9580880D02*
X9898380Y-9525000D01*
X9842500Y-9469120D01*
X9786620Y-9525000D01*
X9842500Y-9580880D01*
X9842500Y-10342880D02*
X9898380Y-10287000D01*
X9842500Y-10231120D01*
X9786620Y-10287000D01*
X9842500Y-10342880D01*
X10096500Y-9580880D02*
X10152380Y-9525000D01*
X10096500Y-9469120D01*
X10040620Y-9525000D01*
X10096500Y-9580880D01*
X10096500Y-10342880D02*
X10152380Y-10287000D01*
X10096500Y-10231120D01*
X10040620Y-10287000D01*
X10096500Y-10342880D01*
X10350500Y-9580880D02*
X10406380Y-9525000D01*
X10350500Y-9469120D01*
X10294620Y-9525000D01*
X10350500Y-9580880D01*
X10350500Y-10342880D02*
X10406380Y-10287000D01*
X10350500Y-10231120D01*
X10294620Y-10287000D01*
X10350500Y-10342880D01*
X10604500Y-9580880D02*
X10660380Y-9525000D01*
X10604500Y-9469120D01*
X10548620Y-9525000D01*
X10604500Y-9580880D01*
X10604500Y-10342880D02*
X10660380Y-10287000D01*
X10604500Y-10231120D01*
X10548620Y-10287000D01*
X10604500Y-10342880D01*
D17*
X8628000Y-7929500D02*
X8898000Y-8199500D01*
X8898000Y-7929500D02*
X8628000Y-8199500D01*
X8898000Y-8064500D02*
G75*
G03*
X8898000Y-8064500I-135000J0D01*
G01*
X8755000Y-12057000D02*
X9025000Y-12327000D01*
X9025000Y-12057000D02*
X8755000Y-12327000D01*
X9025000Y-12192000D02*
G75*
G03*
X9025000Y-12192000I-135000J0D01*
G01*
X11485500Y-7929500D02*
X11755500Y-8199500D01*
X11755500Y-7929500D02*
X11485500Y-8199500D01*
X11755500Y-8064500D02*
G75*
G03*
X11755500Y-8064500I-135000J0D01*
G01*
X11485500Y-12057000D02*
X11755500Y-12327000D01*
X11755500Y-12057000D02*
X11485500Y-12327000D01*
X11755500Y-12192000D02*
G75*
G03*
X11755500Y-12192000I-135000J0D01*
G01*
D11*
X8256777Y-12889484D02*
X8256777Y-12689484D01*
X8256777Y-12689484D02*
X8304396Y-12689484D01*
X8304396Y-12689484D02*
X8332967Y-12699008D01*
X8332967Y-12699008D02*
X8352015Y-12718055D01*
X8352015Y-12718055D02*
X8361539Y-12737103D01*
X8361539Y-12737103D02*
X8371062Y-12775198D01*
X8371062Y-12775198D02*
X8371062Y-12803769D01*
X8371062Y-12803769D02*
X8361539Y-12841865D01*
X8361539Y-12841865D02*
X8352015Y-12860912D01*
X8352015Y-12860912D02*
X8332967Y-12879960D01*
X8332967Y-12879960D02*
X8304396Y-12889484D01*
X8304396Y-12889484D02*
X8256777Y-12889484D01*
X8456777Y-12889484D02*
X8456777Y-12756150D01*
X8456777Y-12794246D02*
X8466301Y-12775198D01*
X8466301Y-12775198D02*
X8475824Y-12765674D01*
X8475824Y-12765674D02*
X8494872Y-12756150D01*
X8494872Y-12756150D02*
X8513920Y-12756150D01*
X8580586Y-12889484D02*
X8580586Y-12756150D01*
X8580586Y-12689484D02*
X8571063Y-12699008D01*
X8571063Y-12699008D02*
X8580586Y-12708531D01*
X8580586Y-12708531D02*
X8590110Y-12699008D01*
X8590110Y-12699008D02*
X8580586Y-12689484D01*
X8580586Y-12689484D02*
X8580586Y-12708531D01*
X8704396Y-12889484D02*
X8685348Y-12879960D01*
X8685348Y-12879960D02*
X8675824Y-12860912D01*
X8675824Y-12860912D02*
X8675824Y-12689484D01*
X8809158Y-12889484D02*
X8790110Y-12879960D01*
X8790110Y-12879960D02*
X8780586Y-12860912D01*
X8780586Y-12860912D02*
X8780586Y-12689484D01*
X9037729Y-12889484D02*
X9037729Y-12689484D01*
X9037729Y-12689484D02*
X9104396Y-12832341D01*
X9104396Y-12832341D02*
X9171063Y-12689484D01*
X9171063Y-12689484D02*
X9171063Y-12889484D01*
X9352015Y-12889484D02*
X9352015Y-12784722D01*
X9352015Y-12784722D02*
X9342491Y-12765674D01*
X9342491Y-12765674D02*
X9323444Y-12756150D01*
X9323444Y-12756150D02*
X9285348Y-12756150D01*
X9285348Y-12756150D02*
X9266301Y-12765674D01*
X9352015Y-12879960D02*
X9332967Y-12889484D01*
X9332967Y-12889484D02*
X9285348Y-12889484D01*
X9285348Y-12889484D02*
X9266301Y-12879960D01*
X9266301Y-12879960D02*
X9256777Y-12860912D01*
X9256777Y-12860912D02*
X9256777Y-12841865D01*
X9256777Y-12841865D02*
X9266301Y-12822817D01*
X9266301Y-12822817D02*
X9285348Y-12813293D01*
X9285348Y-12813293D02*
X9332967Y-12813293D01*
X9332967Y-12813293D02*
X9352015Y-12803769D01*
X9447253Y-12756150D02*
X9447253Y-12956150D01*
X9447253Y-12765674D02*
X9466301Y-12756150D01*
X9466301Y-12756150D02*
X9504396Y-12756150D01*
X9504396Y-12756150D02*
X9523444Y-12765674D01*
X9523444Y-12765674D02*
X9532967Y-12775198D01*
X9532967Y-12775198D02*
X9542491Y-12794246D01*
X9542491Y-12794246D02*
X9542491Y-12851388D01*
X9542491Y-12851388D02*
X9532967Y-12870436D01*
X9532967Y-12870436D02*
X9523444Y-12879960D01*
X9523444Y-12879960D02*
X9504396Y-12889484D01*
X9504396Y-12889484D02*
X9466301Y-12889484D01*
X9466301Y-12889484D02*
X9447253Y-12879960D01*
X9628205Y-12870436D02*
X9637729Y-12879960D01*
X9637729Y-12879960D02*
X9628205Y-12889484D01*
X9628205Y-12889484D02*
X9618682Y-12879960D01*
X9618682Y-12879960D02*
X9628205Y-12870436D01*
X9628205Y-12870436D02*
X9628205Y-12889484D01*
X9628205Y-12765674D02*
X9637729Y-12775198D01*
X9637729Y-12775198D02*
X9628205Y-12784722D01*
X9628205Y-12784722D02*
X9618682Y-12775198D01*
X9618682Y-12775198D02*
X9628205Y-12765674D01*
X9628205Y-12765674D02*
X9628205Y-12784722D01*
D12*
X7956000Y-13198000D02*
X7996000Y-13238000D01*
X7996000Y-13198000D02*
X7956000Y-13238000D01*
D11*
X8294872Y-13109484D02*
X8313920Y-13109484D01*
X8313920Y-13109484D02*
X8332967Y-13119008D01*
X8332967Y-13119008D02*
X8342491Y-13128531D01*
X8342491Y-13128531D02*
X8352015Y-13147579D01*
X8352015Y-13147579D02*
X8361539Y-13185674D01*
X8361539Y-13185674D02*
X8361539Y-13233293D01*
X8361539Y-13233293D02*
X8352015Y-13271388D01*
X8352015Y-13271388D02*
X8342491Y-13290436D01*
X8342491Y-13290436D02*
X8332967Y-13299960D01*
X8332967Y-13299960D02*
X8313920Y-13309484D01*
X8313920Y-13309484D02*
X8294872Y-13309484D01*
X8294872Y-13309484D02*
X8275824Y-13299960D01*
X8275824Y-13299960D02*
X8266301Y-13290436D01*
X8266301Y-13290436D02*
X8256777Y-13271388D01*
X8256777Y-13271388D02*
X8247253Y-13233293D01*
X8247253Y-13233293D02*
X8247253Y-13185674D01*
X8247253Y-13185674D02*
X8256777Y-13147579D01*
X8256777Y-13147579D02*
X8266301Y-13128531D01*
X8266301Y-13128531D02*
X8275824Y-13119008D01*
X8275824Y-13119008D02*
X8294872Y-13109484D01*
X8447253Y-13290436D02*
X8456777Y-13299960D01*
X8456777Y-13299960D02*
X8447253Y-13309484D01*
X8447253Y-13309484D02*
X8437729Y-13299960D01*
X8437729Y-13299960D02*
X8447253Y-13290436D01*
X8447253Y-13290436D02*
X8447253Y-13309484D01*
X8628205Y-13176150D02*
X8628205Y-13309484D01*
X8580586Y-13099960D02*
X8532967Y-13242817D01*
X8532967Y-13242817D02*
X8656777Y-13242817D01*
X8771063Y-13109484D02*
X8790110Y-13109484D01*
X8790110Y-13109484D02*
X8809158Y-13119008D01*
X8809158Y-13119008D02*
X8818682Y-13128531D01*
X8818682Y-13128531D02*
X8828205Y-13147579D01*
X8828205Y-13147579D02*
X8837729Y-13185674D01*
X8837729Y-13185674D02*
X8837729Y-13233293D01*
X8837729Y-13233293D02*
X8828205Y-13271388D01*
X8828205Y-13271388D02*
X8818682Y-13290436D01*
X8818682Y-13290436D02*
X8809158Y-13299960D01*
X8809158Y-13299960D02*
X8790110Y-13309484D01*
X8790110Y-13309484D02*
X8771063Y-13309484D01*
X8771063Y-13309484D02*
X8752015Y-13299960D01*
X8752015Y-13299960D02*
X8742491Y-13290436D01*
X8742491Y-13290436D02*
X8732967Y-13271388D01*
X8732967Y-13271388D02*
X8723444Y-13233293D01*
X8723444Y-13233293D02*
X8723444Y-13185674D01*
X8723444Y-13185674D02*
X8732967Y-13147579D01*
X8732967Y-13147579D02*
X8742491Y-13128531D01*
X8742491Y-13128531D02*
X8752015Y-13119008D01*
X8752015Y-13119008D02*
X8771063Y-13109484D01*
X8961539Y-13109484D02*
X8980586Y-13109484D01*
X8980586Y-13109484D02*
X8999634Y-13119008D01*
X8999634Y-13119008D02*
X9009158Y-13128531D01*
X9009158Y-13128531D02*
X9018682Y-13147579D01*
X9018682Y-13147579D02*
X9028205Y-13185674D01*
X9028205Y-13185674D02*
X9028205Y-13233293D01*
X9028205Y-13233293D02*
X9018682Y-13271388D01*
X9018682Y-13271388D02*
X9009158Y-13290436D01*
X9009158Y-13290436D02*
X8999634Y-13299960D01*
X8999634Y-13299960D02*
X8980586Y-13309484D01*
X8980586Y-13309484D02*
X8961539Y-13309484D01*
X8961539Y-13309484D02*
X8942491Y-13299960D01*
X8942491Y-13299960D02*
X8932967Y-13290436D01*
X8932967Y-13290436D02*
X8923444Y-13271388D01*
X8923444Y-13271388D02*
X8913920Y-13233293D01*
X8913920Y-13233293D02*
X8913920Y-13185674D01*
X8913920Y-13185674D02*
X8923444Y-13147579D01*
X8923444Y-13147579D02*
X8932967Y-13128531D01*
X8932967Y-13128531D02*
X8942491Y-13119008D01*
X8942491Y-13119008D02*
X8961539Y-13109484D01*
X9113920Y-13309484D02*
X9113920Y-13176150D01*
X9113920Y-13195198D02*
X9123444Y-13185674D01*
X9123444Y-13185674D02*
X9142491Y-13176150D01*
X9142491Y-13176150D02*
X9171063Y-13176150D01*
X9171063Y-13176150D02*
X9190110Y-13185674D01*
X9190110Y-13185674D02*
X9199634Y-13204722D01*
X9199634Y-13204722D02*
X9199634Y-13309484D01*
X9199634Y-13204722D02*
X9209158Y-13185674D01*
X9209158Y-13185674D02*
X9228205Y-13176150D01*
X9228205Y-13176150D02*
X9256777Y-13176150D01*
X9256777Y-13176150D02*
X9275825Y-13185674D01*
X9275825Y-13185674D02*
X9285348Y-13204722D01*
X9285348Y-13204722D02*
X9285348Y-13309484D01*
X9380586Y-13309484D02*
X9380586Y-13176150D01*
X9380586Y-13195198D02*
X9390110Y-13185674D01*
X9390110Y-13185674D02*
X9409158Y-13176150D01*
X9409158Y-13176150D02*
X9437729Y-13176150D01*
X9437729Y-13176150D02*
X9456777Y-13185674D01*
X9456777Y-13185674D02*
X9466301Y-13204722D01*
X9466301Y-13204722D02*
X9466301Y-13309484D01*
X9466301Y-13204722D02*
X9475825Y-13185674D01*
X9475825Y-13185674D02*
X9494872Y-13176150D01*
X9494872Y-13176150D02*
X9523444Y-13176150D01*
X9523444Y-13176150D02*
X9542491Y-13185674D01*
X9542491Y-13185674D02*
X9552015Y-13204722D01*
X9552015Y-13204722D02*
X9552015Y-13309484D01*
X9942491Y-13099960D02*
X9771063Y-13357103D01*
X10199634Y-13109484D02*
X10218682Y-13109484D01*
X10218682Y-13109484D02*
X10237729Y-13119008D01*
X10237729Y-13119008D02*
X10247253Y-13128531D01*
X10247253Y-13128531D02*
X10256777Y-13147579D01*
X10256777Y-13147579D02*
X10266301Y-13185674D01*
X10266301Y-13185674D02*
X10266301Y-13233293D01*
X10266301Y-13233293D02*
X10256777Y-13271388D01*
X10256777Y-13271388D02*
X10247253Y-13290436D01*
X10247253Y-13290436D02*
X10237729Y-13299960D01*
X10237729Y-13299960D02*
X10218682Y-13309484D01*
X10218682Y-13309484D02*
X10199634Y-13309484D01*
X10199634Y-13309484D02*
X10180587Y-13299960D01*
X10180587Y-13299960D02*
X10171063Y-13290436D01*
X10171063Y-13290436D02*
X10161539Y-13271388D01*
X10161539Y-13271388D02*
X10152015Y-13233293D01*
X10152015Y-13233293D02*
X10152015Y-13185674D01*
X10152015Y-13185674D02*
X10161539Y-13147579D01*
X10161539Y-13147579D02*
X10171063Y-13128531D01*
X10171063Y-13128531D02*
X10180587Y-13119008D01*
X10180587Y-13119008D02*
X10199634Y-13109484D01*
X10352015Y-13290436D02*
X10361539Y-13299960D01*
X10361539Y-13299960D02*
X10352015Y-13309484D01*
X10352015Y-13309484D02*
X10342491Y-13299960D01*
X10342491Y-13299960D02*
X10352015Y-13290436D01*
X10352015Y-13290436D02*
X10352015Y-13309484D01*
X10485348Y-13109484D02*
X10504396Y-13109484D01*
X10504396Y-13109484D02*
X10523444Y-13119008D01*
X10523444Y-13119008D02*
X10532968Y-13128531D01*
X10532968Y-13128531D02*
X10542491Y-13147579D01*
X10542491Y-13147579D02*
X10552015Y-13185674D01*
X10552015Y-13185674D02*
X10552015Y-13233293D01*
X10552015Y-13233293D02*
X10542491Y-13271388D01*
X10542491Y-13271388D02*
X10532968Y-13290436D01*
X10532968Y-13290436D02*
X10523444Y-13299960D01*
X10523444Y-13299960D02*
X10504396Y-13309484D01*
X10504396Y-13309484D02*
X10485348Y-13309484D01*
X10485348Y-13309484D02*
X10466301Y-13299960D01*
X10466301Y-13299960D02*
X10456777Y-13290436D01*
X10456777Y-13290436D02*
X10447253Y-13271388D01*
X10447253Y-13271388D02*
X10437729Y-13233293D01*
X10437729Y-13233293D02*
X10437729Y-13185674D01*
X10437729Y-13185674D02*
X10447253Y-13147579D01*
X10447253Y-13147579D02*
X10456777Y-13128531D01*
X10456777Y-13128531D02*
X10466301Y-13119008D01*
X10466301Y-13119008D02*
X10485348Y-13109484D01*
X10742491Y-13309484D02*
X10628206Y-13309484D01*
X10685348Y-13309484D02*
X10685348Y-13109484D01*
X10685348Y-13109484D02*
X10666301Y-13138055D01*
X10666301Y-13138055D02*
X10647253Y-13157103D01*
X10647253Y-13157103D02*
X10628206Y-13166627D01*
X10923444Y-13109484D02*
X10828206Y-13109484D01*
X10828206Y-13109484D02*
X10818682Y-13204722D01*
X10818682Y-13204722D02*
X10828206Y-13195198D01*
X10828206Y-13195198D02*
X10847253Y-13185674D01*
X10847253Y-13185674D02*
X10894872Y-13185674D01*
X10894872Y-13185674D02*
X10913920Y-13195198D01*
X10913920Y-13195198D02*
X10923444Y-13204722D01*
X10923444Y-13204722D02*
X10932968Y-13223769D01*
X10932968Y-13223769D02*
X10932968Y-13271388D01*
X10932968Y-13271388D02*
X10923444Y-13290436D01*
X10923444Y-13290436D02*
X10913920Y-13299960D01*
X10913920Y-13299960D02*
X10894872Y-13309484D01*
X10894872Y-13309484D02*
X10847253Y-13309484D01*
X10847253Y-13309484D02*
X10828206Y-13299960D01*
X10828206Y-13299960D02*
X10818682Y-13290436D01*
X10999634Y-13109484D02*
X11132968Y-13109484D01*
X11132968Y-13109484D02*
X11047253Y-13309484D01*
X11199634Y-13109484D02*
X11199634Y-13147579D01*
X11275825Y-13109484D02*
X11275825Y-13147579D01*
X11571063Y-13385674D02*
X11561539Y-13376150D01*
X11561539Y-13376150D02*
X11542491Y-13347579D01*
X11542491Y-13347579D02*
X11532968Y-13328531D01*
X11532968Y-13328531D02*
X11523444Y-13299960D01*
X11523444Y-13299960D02*
X11513920Y-13252341D01*
X11513920Y-13252341D02*
X11513920Y-13214246D01*
X11513920Y-13214246D02*
X11523444Y-13166627D01*
X11523444Y-13166627D02*
X11532968Y-13138055D01*
X11532968Y-13138055D02*
X11542491Y-13119008D01*
X11542491Y-13119008D02*
X11561539Y-13090436D01*
X11561539Y-13090436D02*
X11571063Y-13080912D01*
X11752015Y-13309484D02*
X11637729Y-13309484D01*
X11694872Y-13309484D02*
X11694872Y-13109484D01*
X11694872Y-13109484D02*
X11675825Y-13138055D01*
X11675825Y-13138055D02*
X11656777Y-13157103D01*
X11656777Y-13157103D02*
X11637729Y-13166627D01*
X11990110Y-13309484D02*
X11990110Y-13109484D01*
X12075825Y-13309484D02*
X12075825Y-13204722D01*
X12075825Y-13204722D02*
X12066301Y-13185674D01*
X12066301Y-13185674D02*
X12047253Y-13176150D01*
X12047253Y-13176150D02*
X12018682Y-13176150D01*
X12018682Y-13176150D02*
X11999634Y-13185674D01*
X11999634Y-13185674D02*
X11990110Y-13195198D01*
X12199634Y-13309484D02*
X12180587Y-13299960D01*
X12180587Y-13299960D02*
X12171063Y-13290436D01*
X12171063Y-13290436D02*
X12161539Y-13271388D01*
X12161539Y-13271388D02*
X12161539Y-13214246D01*
X12161539Y-13214246D02*
X12171063Y-13195198D01*
X12171063Y-13195198D02*
X12180587Y-13185674D01*
X12180587Y-13185674D02*
X12199634Y-13176150D01*
X12199634Y-13176150D02*
X12228206Y-13176150D01*
X12228206Y-13176150D02*
X12247253Y-13185674D01*
X12247253Y-13185674D02*
X12256777Y-13195198D01*
X12256777Y-13195198D02*
X12266301Y-13214246D01*
X12266301Y-13214246D02*
X12266301Y-13271388D01*
X12266301Y-13271388D02*
X12256777Y-13290436D01*
X12256777Y-13290436D02*
X12247253Y-13299960D01*
X12247253Y-13299960D02*
X12228206Y-13309484D01*
X12228206Y-13309484D02*
X12199634Y-13309484D01*
X12380587Y-13309484D02*
X12361539Y-13299960D01*
X12361539Y-13299960D02*
X12352015Y-13280912D01*
X12352015Y-13280912D02*
X12352015Y-13109484D01*
X12532968Y-13299960D02*
X12513920Y-13309484D01*
X12513920Y-13309484D02*
X12475825Y-13309484D01*
X12475825Y-13309484D02*
X12456777Y-13299960D01*
X12456777Y-13299960D02*
X12447253Y-13280912D01*
X12447253Y-13280912D02*
X12447253Y-13204722D01*
X12447253Y-13204722D02*
X12456777Y-13185674D01*
X12456777Y-13185674D02*
X12475825Y-13176150D01*
X12475825Y-13176150D02*
X12513920Y-13176150D01*
X12513920Y-13176150D02*
X12532968Y-13185674D01*
X12532968Y-13185674D02*
X12542491Y-13204722D01*
X12542491Y-13204722D02*
X12542491Y-13223769D01*
X12542491Y-13223769D02*
X12447253Y-13242817D01*
X12609158Y-13385674D02*
X12618682Y-13376150D01*
X12618682Y-13376150D02*
X12637730Y-13347579D01*
X12637730Y-13347579D02*
X12647253Y-13328531D01*
X12647253Y-13328531D02*
X12656777Y-13299960D01*
X12656777Y-13299960D02*
X12666301Y-13252341D01*
X12666301Y-13252341D02*
X12666301Y-13214246D01*
X12666301Y-13214246D02*
X12656777Y-13166627D01*
X12656777Y-13166627D02*
X12647253Y-13138055D01*
X12647253Y-13138055D02*
X12637730Y-13119008D01*
X12637730Y-13119008D02*
X12618682Y-13090436D01*
X12618682Y-13090436D02*
X12609158Y-13080912D01*
D13*
X7996000Y-13482000D02*
G75*
G03*
X7996000Y-13482000I-40000J0D01*
G01*
D11*
X8294872Y-13373484D02*
X8313920Y-13373484D01*
X8313920Y-13373484D02*
X8332967Y-13383008D01*
X8332967Y-13383008D02*
X8342491Y-13392531D01*
X8342491Y-13392531D02*
X8352015Y-13411579D01*
X8352015Y-13411579D02*
X8361539Y-13449674D01*
X8361539Y-13449674D02*
X8361539Y-13497293D01*
X8361539Y-13497293D02*
X8352015Y-13535388D01*
X8352015Y-13535388D02*
X8342491Y-13554436D01*
X8342491Y-13554436D02*
X8332967Y-13563960D01*
X8332967Y-13563960D02*
X8313920Y-13573484D01*
X8313920Y-13573484D02*
X8294872Y-13573484D01*
X8294872Y-13573484D02*
X8275824Y-13563960D01*
X8275824Y-13563960D02*
X8266301Y-13554436D01*
X8266301Y-13554436D02*
X8256777Y-13535388D01*
X8256777Y-13535388D02*
X8247253Y-13497293D01*
X8247253Y-13497293D02*
X8247253Y-13449674D01*
X8247253Y-13449674D02*
X8256777Y-13411579D01*
X8256777Y-13411579D02*
X8266301Y-13392531D01*
X8266301Y-13392531D02*
X8275824Y-13383008D01*
X8275824Y-13383008D02*
X8294872Y-13373484D01*
X8447253Y-13554436D02*
X8456777Y-13563960D01*
X8456777Y-13563960D02*
X8447253Y-13573484D01*
X8447253Y-13573484D02*
X8437729Y-13563960D01*
X8437729Y-13563960D02*
X8447253Y-13554436D01*
X8447253Y-13554436D02*
X8447253Y-13573484D01*
X8571063Y-13459198D02*
X8552015Y-13449674D01*
X8552015Y-13449674D02*
X8542491Y-13440150D01*
X8542491Y-13440150D02*
X8532967Y-13421103D01*
X8532967Y-13421103D02*
X8532967Y-13411579D01*
X8532967Y-13411579D02*
X8542491Y-13392531D01*
X8542491Y-13392531D02*
X8552015Y-13383008D01*
X8552015Y-13383008D02*
X8571063Y-13373484D01*
X8571063Y-13373484D02*
X8609158Y-13373484D01*
X8609158Y-13373484D02*
X8628205Y-13383008D01*
X8628205Y-13383008D02*
X8637729Y-13392531D01*
X8637729Y-13392531D02*
X8647253Y-13411579D01*
X8647253Y-13411579D02*
X8647253Y-13421103D01*
X8647253Y-13421103D02*
X8637729Y-13440150D01*
X8637729Y-13440150D02*
X8628205Y-13449674D01*
X8628205Y-13449674D02*
X8609158Y-13459198D01*
X8609158Y-13459198D02*
X8571063Y-13459198D01*
X8571063Y-13459198D02*
X8552015Y-13468722D01*
X8552015Y-13468722D02*
X8542491Y-13478246D01*
X8542491Y-13478246D02*
X8532967Y-13497293D01*
X8532967Y-13497293D02*
X8532967Y-13535388D01*
X8532967Y-13535388D02*
X8542491Y-13554436D01*
X8542491Y-13554436D02*
X8552015Y-13563960D01*
X8552015Y-13563960D02*
X8571063Y-13573484D01*
X8571063Y-13573484D02*
X8609158Y-13573484D01*
X8609158Y-13573484D02*
X8628205Y-13563960D01*
X8628205Y-13563960D02*
X8637729Y-13554436D01*
X8637729Y-13554436D02*
X8647253Y-13535388D01*
X8647253Y-13535388D02*
X8647253Y-13497293D01*
X8647253Y-13497293D02*
X8637729Y-13478246D01*
X8637729Y-13478246D02*
X8628205Y-13468722D01*
X8628205Y-13468722D02*
X8609158Y-13459198D01*
X8771063Y-13373484D02*
X8790110Y-13373484D01*
X8790110Y-13373484D02*
X8809158Y-13383008D01*
X8809158Y-13383008D02*
X8818682Y-13392531D01*
X8818682Y-13392531D02*
X8828205Y-13411579D01*
X8828205Y-13411579D02*
X8837729Y-13449674D01*
X8837729Y-13449674D02*
X8837729Y-13497293D01*
X8837729Y-13497293D02*
X8828205Y-13535388D01*
X8828205Y-13535388D02*
X8818682Y-13554436D01*
X8818682Y-13554436D02*
X8809158Y-13563960D01*
X8809158Y-13563960D02*
X8790110Y-13573484D01*
X8790110Y-13573484D02*
X8771063Y-13573484D01*
X8771063Y-13573484D02*
X8752015Y-13563960D01*
X8752015Y-13563960D02*
X8742491Y-13554436D01*
X8742491Y-13554436D02*
X8732967Y-13535388D01*
X8732967Y-13535388D02*
X8723444Y-13497293D01*
X8723444Y-13497293D02*
X8723444Y-13449674D01*
X8723444Y-13449674D02*
X8732967Y-13411579D01*
X8732967Y-13411579D02*
X8742491Y-13392531D01*
X8742491Y-13392531D02*
X8752015Y-13383008D01*
X8752015Y-13383008D02*
X8771063Y-13373484D01*
X8961539Y-13373484D02*
X8980586Y-13373484D01*
X8980586Y-13373484D02*
X8999634Y-13383008D01*
X8999634Y-13383008D02*
X9009158Y-13392531D01*
X9009158Y-13392531D02*
X9018682Y-13411579D01*
X9018682Y-13411579D02*
X9028205Y-13449674D01*
X9028205Y-13449674D02*
X9028205Y-13497293D01*
X9028205Y-13497293D02*
X9018682Y-13535388D01*
X9018682Y-13535388D02*
X9009158Y-13554436D01*
X9009158Y-13554436D02*
X8999634Y-13563960D01*
X8999634Y-13563960D02*
X8980586Y-13573484D01*
X8980586Y-13573484D02*
X8961539Y-13573484D01*
X8961539Y-13573484D02*
X8942491Y-13563960D01*
X8942491Y-13563960D02*
X8932967Y-13554436D01*
X8932967Y-13554436D02*
X8923444Y-13535388D01*
X8923444Y-13535388D02*
X8913920Y-13497293D01*
X8913920Y-13497293D02*
X8913920Y-13449674D01*
X8913920Y-13449674D02*
X8923444Y-13411579D01*
X8923444Y-13411579D02*
X8932967Y-13392531D01*
X8932967Y-13392531D02*
X8942491Y-13383008D01*
X8942491Y-13383008D02*
X8961539Y-13373484D01*
X9113920Y-13573484D02*
X9113920Y-13440150D01*
X9113920Y-13459198D02*
X9123444Y-13449674D01*
X9123444Y-13449674D02*
X9142491Y-13440150D01*
X9142491Y-13440150D02*
X9171063Y-13440150D01*
X9171063Y-13440150D02*
X9190110Y-13449674D01*
X9190110Y-13449674D02*
X9199634Y-13468722D01*
X9199634Y-13468722D02*
X9199634Y-13573484D01*
X9199634Y-13468722D02*
X9209158Y-13449674D01*
X9209158Y-13449674D02*
X9228205Y-13440150D01*
X9228205Y-13440150D02*
X9256777Y-13440150D01*
X9256777Y-13440150D02*
X9275825Y-13449674D01*
X9275825Y-13449674D02*
X9285348Y-13468722D01*
X9285348Y-13468722D02*
X9285348Y-13573484D01*
X9380586Y-13573484D02*
X9380586Y-13440150D01*
X9380586Y-13459198D02*
X9390110Y-13449674D01*
X9390110Y-13449674D02*
X9409158Y-13440150D01*
X9409158Y-13440150D02*
X9437729Y-13440150D01*
X9437729Y-13440150D02*
X9456777Y-13449674D01*
X9456777Y-13449674D02*
X9466301Y-13468722D01*
X9466301Y-13468722D02*
X9466301Y-13573484D01*
X9466301Y-13468722D02*
X9475825Y-13449674D01*
X9475825Y-13449674D02*
X9494872Y-13440150D01*
X9494872Y-13440150D02*
X9523444Y-13440150D01*
X9523444Y-13440150D02*
X9542491Y-13449674D01*
X9542491Y-13449674D02*
X9552015Y-13468722D01*
X9552015Y-13468722D02*
X9552015Y-13573484D01*
X9942491Y-13363960D02*
X9771063Y-13621103D01*
X10199634Y-13373484D02*
X10218682Y-13373484D01*
X10218682Y-13373484D02*
X10237729Y-13383008D01*
X10237729Y-13383008D02*
X10247253Y-13392531D01*
X10247253Y-13392531D02*
X10256777Y-13411579D01*
X10256777Y-13411579D02*
X10266301Y-13449674D01*
X10266301Y-13449674D02*
X10266301Y-13497293D01*
X10266301Y-13497293D02*
X10256777Y-13535388D01*
X10256777Y-13535388D02*
X10247253Y-13554436D01*
X10247253Y-13554436D02*
X10237729Y-13563960D01*
X10237729Y-13563960D02*
X10218682Y-13573484D01*
X10218682Y-13573484D02*
X10199634Y-13573484D01*
X10199634Y-13573484D02*
X10180587Y-13563960D01*
X10180587Y-13563960D02*
X10171063Y-13554436D01*
X10171063Y-13554436D02*
X10161539Y-13535388D01*
X10161539Y-13535388D02*
X10152015Y-13497293D01*
X10152015Y-13497293D02*
X10152015Y-13449674D01*
X10152015Y-13449674D02*
X10161539Y-13411579D01*
X10161539Y-13411579D02*
X10171063Y-13392531D01*
X10171063Y-13392531D02*
X10180587Y-13383008D01*
X10180587Y-13383008D02*
X10199634Y-13373484D01*
X10352015Y-13554436D02*
X10361539Y-13563960D01*
X10361539Y-13563960D02*
X10352015Y-13573484D01*
X10352015Y-13573484D02*
X10342491Y-13563960D01*
X10342491Y-13563960D02*
X10352015Y-13554436D01*
X10352015Y-13554436D02*
X10352015Y-13573484D01*
X10485348Y-13373484D02*
X10504396Y-13373484D01*
X10504396Y-13373484D02*
X10523444Y-13383008D01*
X10523444Y-13383008D02*
X10532968Y-13392531D01*
X10532968Y-13392531D02*
X10542491Y-13411579D01*
X10542491Y-13411579D02*
X10552015Y-13449674D01*
X10552015Y-13449674D02*
X10552015Y-13497293D01*
X10552015Y-13497293D02*
X10542491Y-13535388D01*
X10542491Y-13535388D02*
X10532968Y-13554436D01*
X10532968Y-13554436D02*
X10523444Y-13563960D01*
X10523444Y-13563960D02*
X10504396Y-13573484D01*
X10504396Y-13573484D02*
X10485348Y-13573484D01*
X10485348Y-13573484D02*
X10466301Y-13563960D01*
X10466301Y-13563960D02*
X10456777Y-13554436D01*
X10456777Y-13554436D02*
X10447253Y-13535388D01*
X10447253Y-13535388D02*
X10437729Y-13497293D01*
X10437729Y-13497293D02*
X10437729Y-13449674D01*
X10437729Y-13449674D02*
X10447253Y-13411579D01*
X10447253Y-13411579D02*
X10456777Y-13392531D01*
X10456777Y-13392531D02*
X10466301Y-13383008D01*
X10466301Y-13383008D02*
X10485348Y-13373484D01*
X10618682Y-13373484D02*
X10742491Y-13373484D01*
X10742491Y-13373484D02*
X10675825Y-13449674D01*
X10675825Y-13449674D02*
X10704396Y-13449674D01*
X10704396Y-13449674D02*
X10723444Y-13459198D01*
X10723444Y-13459198D02*
X10732968Y-13468722D01*
X10732968Y-13468722D02*
X10742491Y-13487769D01*
X10742491Y-13487769D02*
X10742491Y-13535388D01*
X10742491Y-13535388D02*
X10732968Y-13554436D01*
X10732968Y-13554436D02*
X10723444Y-13563960D01*
X10723444Y-13563960D02*
X10704396Y-13573484D01*
X10704396Y-13573484D02*
X10647253Y-13573484D01*
X10647253Y-13573484D02*
X10628206Y-13563960D01*
X10628206Y-13563960D02*
X10618682Y-13554436D01*
X10932968Y-13573484D02*
X10818682Y-13573484D01*
X10875825Y-13573484D02*
X10875825Y-13373484D01*
X10875825Y-13373484D02*
X10856777Y-13402055D01*
X10856777Y-13402055D02*
X10837729Y-13421103D01*
X10837729Y-13421103D02*
X10818682Y-13430627D01*
X11113920Y-13373484D02*
X11018682Y-13373484D01*
X11018682Y-13373484D02*
X11009158Y-13468722D01*
X11009158Y-13468722D02*
X11018682Y-13459198D01*
X11018682Y-13459198D02*
X11037729Y-13449674D01*
X11037729Y-13449674D02*
X11085349Y-13449674D01*
X11085349Y-13449674D02*
X11104396Y-13459198D01*
X11104396Y-13459198D02*
X11113920Y-13468722D01*
X11113920Y-13468722D02*
X11123444Y-13487769D01*
X11123444Y-13487769D02*
X11123444Y-13535388D01*
X11123444Y-13535388D02*
X11113920Y-13554436D01*
X11113920Y-13554436D02*
X11104396Y-13563960D01*
X11104396Y-13563960D02*
X11085349Y-13573484D01*
X11085349Y-13573484D02*
X11037729Y-13573484D01*
X11037729Y-13573484D02*
X11018682Y-13563960D01*
X11018682Y-13563960D02*
X11009158Y-13554436D01*
X11199634Y-13373484D02*
X11199634Y-13411579D01*
X11275825Y-13373484D02*
X11275825Y-13411579D01*
X11571063Y-13649674D02*
X11561539Y-13640150D01*
X11561539Y-13640150D02*
X11542491Y-13611579D01*
X11542491Y-13611579D02*
X11532968Y-13592531D01*
X11532968Y-13592531D02*
X11523444Y-13563960D01*
X11523444Y-13563960D02*
X11513920Y-13516341D01*
X11513920Y-13516341D02*
X11513920Y-13478246D01*
X11513920Y-13478246D02*
X11523444Y-13430627D01*
X11523444Y-13430627D02*
X11532968Y-13402055D01*
X11532968Y-13402055D02*
X11542491Y-13383008D01*
X11542491Y-13383008D02*
X11561539Y-13354436D01*
X11561539Y-13354436D02*
X11571063Y-13344912D01*
X11637729Y-13392531D02*
X11647253Y-13383008D01*
X11647253Y-13383008D02*
X11666301Y-13373484D01*
X11666301Y-13373484D02*
X11713920Y-13373484D01*
X11713920Y-13373484D02*
X11732968Y-13383008D01*
X11732968Y-13383008D02*
X11742491Y-13392531D01*
X11742491Y-13392531D02*
X11752015Y-13411579D01*
X11752015Y-13411579D02*
X11752015Y-13430627D01*
X11752015Y-13430627D02*
X11742491Y-13459198D01*
X11742491Y-13459198D02*
X11628206Y-13573484D01*
X11628206Y-13573484D02*
X11752015Y-13573484D01*
X11923444Y-13440150D02*
X11923444Y-13573484D01*
X11875825Y-13363960D02*
X11828206Y-13506817D01*
X11828206Y-13506817D02*
X11952015Y-13506817D01*
X12180587Y-13573484D02*
X12180587Y-13373484D01*
X12266301Y-13573484D02*
X12266301Y-13468722D01*
X12266301Y-13468722D02*
X12256777Y-13449674D01*
X12256777Y-13449674D02*
X12237730Y-13440150D01*
X12237730Y-13440150D02*
X12209158Y-13440150D01*
X12209158Y-13440150D02*
X12190110Y-13449674D01*
X12190110Y-13449674D02*
X12180587Y-13459198D01*
X12390110Y-13573484D02*
X12371063Y-13563960D01*
X12371063Y-13563960D02*
X12361539Y-13554436D01*
X12361539Y-13554436D02*
X12352015Y-13535388D01*
X12352015Y-13535388D02*
X12352015Y-13478246D01*
X12352015Y-13478246D02*
X12361539Y-13459198D01*
X12361539Y-13459198D02*
X12371063Y-13449674D01*
X12371063Y-13449674D02*
X12390110Y-13440150D01*
X12390110Y-13440150D02*
X12418682Y-13440150D01*
X12418682Y-13440150D02*
X12437730Y-13449674D01*
X12437730Y-13449674D02*
X12447253Y-13459198D01*
X12447253Y-13459198D02*
X12456777Y-13478246D01*
X12456777Y-13478246D02*
X12456777Y-13535388D01*
X12456777Y-13535388D02*
X12447253Y-13554436D01*
X12447253Y-13554436D02*
X12437730Y-13563960D01*
X12437730Y-13563960D02*
X12418682Y-13573484D01*
X12418682Y-13573484D02*
X12390110Y-13573484D01*
X12571063Y-13573484D02*
X12552015Y-13563960D01*
X12552015Y-13563960D02*
X12542491Y-13544912D01*
X12542491Y-13544912D02*
X12542491Y-13373484D01*
X12723444Y-13563960D02*
X12704396Y-13573484D01*
X12704396Y-13573484D02*
X12666301Y-13573484D01*
X12666301Y-13573484D02*
X12647253Y-13563960D01*
X12647253Y-13563960D02*
X12637730Y-13544912D01*
X12637730Y-13544912D02*
X12637730Y-13468722D01*
X12637730Y-13468722D02*
X12647253Y-13449674D01*
X12647253Y-13449674D02*
X12666301Y-13440150D01*
X12666301Y-13440150D02*
X12704396Y-13440150D01*
X12704396Y-13440150D02*
X12723444Y-13449674D01*
X12723444Y-13449674D02*
X12732968Y-13468722D01*
X12732968Y-13468722D02*
X12732968Y-13487769D01*
X12732968Y-13487769D02*
X12637730Y-13506817D01*
X12809158Y-13563960D02*
X12828206Y-13573484D01*
X12828206Y-13573484D02*
X12866301Y-13573484D01*
X12866301Y-13573484D02*
X12885349Y-13563960D01*
X12885349Y-13563960D02*
X12894872Y-13544912D01*
X12894872Y-13544912D02*
X12894872Y-13535388D01*
X12894872Y-13535388D02*
X12885349Y-13516341D01*
X12885349Y-13516341D02*
X12866301Y-13506817D01*
X12866301Y-13506817D02*
X12837730Y-13506817D01*
X12837730Y-13506817D02*
X12818682Y-13497293D01*
X12818682Y-13497293D02*
X12809158Y-13478246D01*
X12809158Y-13478246D02*
X12809158Y-13468722D01*
X12809158Y-13468722D02*
X12818682Y-13449674D01*
X12818682Y-13449674D02*
X12837730Y-13440150D01*
X12837730Y-13440150D02*
X12866301Y-13440150D01*
X12866301Y-13440150D02*
X12885349Y-13449674D01*
X12961539Y-13649674D02*
X12971063Y-13640150D01*
X12971063Y-13640150D02*
X12990111Y-13611579D01*
X12990111Y-13611579D02*
X12999634Y-13592531D01*
X12999634Y-13592531D02*
X13009158Y-13563960D01*
X13009158Y-13563960D02*
X13018682Y-13516341D01*
X13018682Y-13516341D02*
X13018682Y-13478246D01*
X13018682Y-13478246D02*
X13009158Y-13430627D01*
X13009158Y-13430627D02*
X12999634Y-13402055D01*
X12999634Y-13402055D02*
X12990111Y-13383008D01*
X12990111Y-13383008D02*
X12971063Y-13354436D01*
X12971063Y-13354436D02*
X12961539Y-13344912D01*
D14*
X7951000Y-13701000D02*
X7951000Y-13791000D01*
X7906000Y-13746000D02*
X7996000Y-13746000D01*
D11*
X8294872Y-13637484D02*
X8313920Y-13637484D01*
X8313920Y-13637484D02*
X8332967Y-13647008D01*
X8332967Y-13647008D02*
X8342491Y-13656531D01*
X8342491Y-13656531D02*
X8352015Y-13675579D01*
X8352015Y-13675579D02*
X8361539Y-13713674D01*
X8361539Y-13713674D02*
X8361539Y-13761293D01*
X8361539Y-13761293D02*
X8352015Y-13799388D01*
X8352015Y-13799388D02*
X8342491Y-13818436D01*
X8342491Y-13818436D02*
X8332967Y-13827960D01*
X8332967Y-13827960D02*
X8313920Y-13837484D01*
X8313920Y-13837484D02*
X8294872Y-13837484D01*
X8294872Y-13837484D02*
X8275824Y-13827960D01*
X8275824Y-13827960D02*
X8266301Y-13818436D01*
X8266301Y-13818436D02*
X8256777Y-13799388D01*
X8256777Y-13799388D02*
X8247253Y-13761293D01*
X8247253Y-13761293D02*
X8247253Y-13713674D01*
X8247253Y-13713674D02*
X8256777Y-13675579D01*
X8256777Y-13675579D02*
X8266301Y-13656531D01*
X8266301Y-13656531D02*
X8275824Y-13647008D01*
X8275824Y-13647008D02*
X8294872Y-13637484D01*
X8447253Y-13818436D02*
X8456777Y-13827960D01*
X8456777Y-13827960D02*
X8447253Y-13837484D01*
X8447253Y-13837484D02*
X8437729Y-13827960D01*
X8437729Y-13827960D02*
X8447253Y-13818436D01*
X8447253Y-13818436D02*
X8447253Y-13837484D01*
X8552015Y-13837484D02*
X8590110Y-13837484D01*
X8590110Y-13837484D02*
X8609158Y-13827960D01*
X8609158Y-13827960D02*
X8618682Y-13818436D01*
X8618682Y-13818436D02*
X8637729Y-13789865D01*
X8637729Y-13789865D02*
X8647253Y-13751769D01*
X8647253Y-13751769D02*
X8647253Y-13675579D01*
X8647253Y-13675579D02*
X8637729Y-13656531D01*
X8637729Y-13656531D02*
X8628205Y-13647008D01*
X8628205Y-13647008D02*
X8609158Y-13637484D01*
X8609158Y-13637484D02*
X8571063Y-13637484D01*
X8571063Y-13637484D02*
X8552015Y-13647008D01*
X8552015Y-13647008D02*
X8542491Y-13656531D01*
X8542491Y-13656531D02*
X8532967Y-13675579D01*
X8532967Y-13675579D02*
X8532967Y-13723198D01*
X8532967Y-13723198D02*
X8542491Y-13742246D01*
X8542491Y-13742246D02*
X8552015Y-13751769D01*
X8552015Y-13751769D02*
X8571063Y-13761293D01*
X8571063Y-13761293D02*
X8609158Y-13761293D01*
X8609158Y-13761293D02*
X8628205Y-13751769D01*
X8628205Y-13751769D02*
X8637729Y-13742246D01*
X8637729Y-13742246D02*
X8647253Y-13723198D01*
X8771063Y-13637484D02*
X8790110Y-13637484D01*
X8790110Y-13637484D02*
X8809158Y-13647008D01*
X8809158Y-13647008D02*
X8818682Y-13656531D01*
X8818682Y-13656531D02*
X8828205Y-13675579D01*
X8828205Y-13675579D02*
X8837729Y-13713674D01*
X8837729Y-13713674D02*
X8837729Y-13761293D01*
X8837729Y-13761293D02*
X8828205Y-13799388D01*
X8828205Y-13799388D02*
X8818682Y-13818436D01*
X8818682Y-13818436D02*
X8809158Y-13827960D01*
X8809158Y-13827960D02*
X8790110Y-13837484D01*
X8790110Y-13837484D02*
X8771063Y-13837484D01*
X8771063Y-13837484D02*
X8752015Y-13827960D01*
X8752015Y-13827960D02*
X8742491Y-13818436D01*
X8742491Y-13818436D02*
X8732967Y-13799388D01*
X8732967Y-13799388D02*
X8723444Y-13761293D01*
X8723444Y-13761293D02*
X8723444Y-13713674D01*
X8723444Y-13713674D02*
X8732967Y-13675579D01*
X8732967Y-13675579D02*
X8742491Y-13656531D01*
X8742491Y-13656531D02*
X8752015Y-13647008D01*
X8752015Y-13647008D02*
X8771063Y-13637484D01*
X8961539Y-13637484D02*
X8980586Y-13637484D01*
X8980586Y-13637484D02*
X8999634Y-13647008D01*
X8999634Y-13647008D02*
X9009158Y-13656531D01*
X9009158Y-13656531D02*
X9018682Y-13675579D01*
X9018682Y-13675579D02*
X9028205Y-13713674D01*
X9028205Y-13713674D02*
X9028205Y-13761293D01*
X9028205Y-13761293D02*
X9018682Y-13799388D01*
X9018682Y-13799388D02*
X9009158Y-13818436D01*
X9009158Y-13818436D02*
X8999634Y-13827960D01*
X8999634Y-13827960D02*
X8980586Y-13837484D01*
X8980586Y-13837484D02*
X8961539Y-13837484D01*
X8961539Y-13837484D02*
X8942491Y-13827960D01*
X8942491Y-13827960D02*
X8932967Y-13818436D01*
X8932967Y-13818436D02*
X8923444Y-13799388D01*
X8923444Y-13799388D02*
X8913920Y-13761293D01*
X8913920Y-13761293D02*
X8913920Y-13713674D01*
X8913920Y-13713674D02*
X8923444Y-13675579D01*
X8923444Y-13675579D02*
X8932967Y-13656531D01*
X8932967Y-13656531D02*
X8942491Y-13647008D01*
X8942491Y-13647008D02*
X8961539Y-13637484D01*
X9113920Y-13837484D02*
X9113920Y-13704150D01*
X9113920Y-13723198D02*
X9123444Y-13713674D01*
X9123444Y-13713674D02*
X9142491Y-13704150D01*
X9142491Y-13704150D02*
X9171063Y-13704150D01*
X9171063Y-13704150D02*
X9190110Y-13713674D01*
X9190110Y-13713674D02*
X9199634Y-13732722D01*
X9199634Y-13732722D02*
X9199634Y-13837484D01*
X9199634Y-13732722D02*
X9209158Y-13713674D01*
X9209158Y-13713674D02*
X9228205Y-13704150D01*
X9228205Y-13704150D02*
X9256777Y-13704150D01*
X9256777Y-13704150D02*
X9275825Y-13713674D01*
X9275825Y-13713674D02*
X9285348Y-13732722D01*
X9285348Y-13732722D02*
X9285348Y-13837484D01*
X9380586Y-13837484D02*
X9380586Y-13704150D01*
X9380586Y-13723198D02*
X9390110Y-13713674D01*
X9390110Y-13713674D02*
X9409158Y-13704150D01*
X9409158Y-13704150D02*
X9437729Y-13704150D01*
X9437729Y-13704150D02*
X9456777Y-13713674D01*
X9456777Y-13713674D02*
X9466301Y-13732722D01*
X9466301Y-13732722D02*
X9466301Y-13837484D01*
X9466301Y-13732722D02*
X9475825Y-13713674D01*
X9475825Y-13713674D02*
X9494872Y-13704150D01*
X9494872Y-13704150D02*
X9523444Y-13704150D01*
X9523444Y-13704150D02*
X9542491Y-13713674D01*
X9542491Y-13713674D02*
X9552015Y-13732722D01*
X9552015Y-13732722D02*
X9552015Y-13837484D01*
X9942491Y-13627960D02*
X9771063Y-13885103D01*
X10199634Y-13637484D02*
X10218682Y-13637484D01*
X10218682Y-13637484D02*
X10237729Y-13647008D01*
X10237729Y-13647008D02*
X10247253Y-13656531D01*
X10247253Y-13656531D02*
X10256777Y-13675579D01*
X10256777Y-13675579D02*
X10266301Y-13713674D01*
X10266301Y-13713674D02*
X10266301Y-13761293D01*
X10266301Y-13761293D02*
X10256777Y-13799388D01*
X10256777Y-13799388D02*
X10247253Y-13818436D01*
X10247253Y-13818436D02*
X10237729Y-13827960D01*
X10237729Y-13827960D02*
X10218682Y-13837484D01*
X10218682Y-13837484D02*
X10199634Y-13837484D01*
X10199634Y-13837484D02*
X10180587Y-13827960D01*
X10180587Y-13827960D02*
X10171063Y-13818436D01*
X10171063Y-13818436D02*
X10161539Y-13799388D01*
X10161539Y-13799388D02*
X10152015Y-13761293D01*
X10152015Y-13761293D02*
X10152015Y-13713674D01*
X10152015Y-13713674D02*
X10161539Y-13675579D01*
X10161539Y-13675579D02*
X10171063Y-13656531D01*
X10171063Y-13656531D02*
X10180587Y-13647008D01*
X10180587Y-13647008D02*
X10199634Y-13637484D01*
X10352015Y-13818436D02*
X10361539Y-13827960D01*
X10361539Y-13827960D02*
X10352015Y-13837484D01*
X10352015Y-13837484D02*
X10342491Y-13827960D01*
X10342491Y-13827960D02*
X10352015Y-13818436D01*
X10352015Y-13818436D02*
X10352015Y-13837484D01*
X10485348Y-13637484D02*
X10504396Y-13637484D01*
X10504396Y-13637484D02*
X10523444Y-13647008D01*
X10523444Y-13647008D02*
X10532968Y-13656531D01*
X10532968Y-13656531D02*
X10542491Y-13675579D01*
X10542491Y-13675579D02*
X10552015Y-13713674D01*
X10552015Y-13713674D02*
X10552015Y-13761293D01*
X10552015Y-13761293D02*
X10542491Y-13799388D01*
X10542491Y-13799388D02*
X10532968Y-13818436D01*
X10532968Y-13818436D02*
X10523444Y-13827960D01*
X10523444Y-13827960D02*
X10504396Y-13837484D01*
X10504396Y-13837484D02*
X10485348Y-13837484D01*
X10485348Y-13837484D02*
X10466301Y-13827960D01*
X10466301Y-13827960D02*
X10456777Y-13818436D01*
X10456777Y-13818436D02*
X10447253Y-13799388D01*
X10447253Y-13799388D02*
X10437729Y-13761293D01*
X10437729Y-13761293D02*
X10437729Y-13713674D01*
X10437729Y-13713674D02*
X10447253Y-13675579D01*
X10447253Y-13675579D02*
X10456777Y-13656531D01*
X10456777Y-13656531D02*
X10466301Y-13647008D01*
X10466301Y-13647008D02*
X10485348Y-13637484D01*
X10618682Y-13637484D02*
X10742491Y-13637484D01*
X10742491Y-13637484D02*
X10675825Y-13713674D01*
X10675825Y-13713674D02*
X10704396Y-13713674D01*
X10704396Y-13713674D02*
X10723444Y-13723198D01*
X10723444Y-13723198D02*
X10732968Y-13732722D01*
X10732968Y-13732722D02*
X10742491Y-13751769D01*
X10742491Y-13751769D02*
X10742491Y-13799388D01*
X10742491Y-13799388D02*
X10732968Y-13818436D01*
X10732968Y-13818436D02*
X10723444Y-13827960D01*
X10723444Y-13827960D02*
X10704396Y-13837484D01*
X10704396Y-13837484D02*
X10647253Y-13837484D01*
X10647253Y-13837484D02*
X10628206Y-13827960D01*
X10628206Y-13827960D02*
X10618682Y-13818436D01*
X10923444Y-13637484D02*
X10828206Y-13637484D01*
X10828206Y-13637484D02*
X10818682Y-13732722D01*
X10818682Y-13732722D02*
X10828206Y-13723198D01*
X10828206Y-13723198D02*
X10847253Y-13713674D01*
X10847253Y-13713674D02*
X10894872Y-13713674D01*
X10894872Y-13713674D02*
X10913920Y-13723198D01*
X10913920Y-13723198D02*
X10923444Y-13732722D01*
X10923444Y-13732722D02*
X10932968Y-13751769D01*
X10932968Y-13751769D02*
X10932968Y-13799388D01*
X10932968Y-13799388D02*
X10923444Y-13818436D01*
X10923444Y-13818436D02*
X10913920Y-13827960D01*
X10913920Y-13827960D02*
X10894872Y-13837484D01*
X10894872Y-13837484D02*
X10847253Y-13837484D01*
X10847253Y-13837484D02*
X10828206Y-13827960D01*
X10828206Y-13827960D02*
X10818682Y-13818436D01*
X11104396Y-13704150D02*
X11104396Y-13837484D01*
X11056777Y-13627960D02*
X11009158Y-13770817D01*
X11009158Y-13770817D02*
X11132968Y-13770817D01*
X11199634Y-13637484D02*
X11199634Y-13675579D01*
X11275825Y-13637484D02*
X11275825Y-13675579D01*
X11571063Y-13913674D02*
X11561539Y-13904150D01*
X11561539Y-13904150D02*
X11542491Y-13875579D01*
X11542491Y-13875579D02*
X11532968Y-13856531D01*
X11532968Y-13856531D02*
X11523444Y-13827960D01*
X11523444Y-13827960D02*
X11513920Y-13780341D01*
X11513920Y-13780341D02*
X11513920Y-13742246D01*
X11513920Y-13742246D02*
X11523444Y-13694627D01*
X11523444Y-13694627D02*
X11532968Y-13666055D01*
X11532968Y-13666055D02*
X11542491Y-13647008D01*
X11542491Y-13647008D02*
X11561539Y-13618436D01*
X11561539Y-13618436D02*
X11571063Y-13608912D01*
X11732968Y-13704150D02*
X11732968Y-13837484D01*
X11685348Y-13627960D02*
X11637729Y-13770817D01*
X11637729Y-13770817D02*
X11761539Y-13770817D01*
X11990110Y-13837484D02*
X11990110Y-13637484D01*
X12075825Y-13837484D02*
X12075825Y-13732722D01*
X12075825Y-13732722D02*
X12066301Y-13713674D01*
X12066301Y-13713674D02*
X12047253Y-13704150D01*
X12047253Y-13704150D02*
X12018682Y-13704150D01*
X12018682Y-13704150D02*
X11999634Y-13713674D01*
X11999634Y-13713674D02*
X11990110Y-13723198D01*
X12199634Y-13837484D02*
X12180587Y-13827960D01*
X12180587Y-13827960D02*
X12171063Y-13818436D01*
X12171063Y-13818436D02*
X12161539Y-13799388D01*
X12161539Y-13799388D02*
X12161539Y-13742246D01*
X12161539Y-13742246D02*
X12171063Y-13723198D01*
X12171063Y-13723198D02*
X12180587Y-13713674D01*
X12180587Y-13713674D02*
X12199634Y-13704150D01*
X12199634Y-13704150D02*
X12228206Y-13704150D01*
X12228206Y-13704150D02*
X12247253Y-13713674D01*
X12247253Y-13713674D02*
X12256777Y-13723198D01*
X12256777Y-13723198D02*
X12266301Y-13742246D01*
X12266301Y-13742246D02*
X12266301Y-13799388D01*
X12266301Y-13799388D02*
X12256777Y-13818436D01*
X12256777Y-13818436D02*
X12247253Y-13827960D01*
X12247253Y-13827960D02*
X12228206Y-13837484D01*
X12228206Y-13837484D02*
X12199634Y-13837484D01*
X12380587Y-13837484D02*
X12361539Y-13827960D01*
X12361539Y-13827960D02*
X12352015Y-13808912D01*
X12352015Y-13808912D02*
X12352015Y-13637484D01*
X12532968Y-13827960D02*
X12513920Y-13837484D01*
X12513920Y-13837484D02*
X12475825Y-13837484D01*
X12475825Y-13837484D02*
X12456777Y-13827960D01*
X12456777Y-13827960D02*
X12447253Y-13808912D01*
X12447253Y-13808912D02*
X12447253Y-13732722D01*
X12447253Y-13732722D02*
X12456777Y-13713674D01*
X12456777Y-13713674D02*
X12475825Y-13704150D01*
X12475825Y-13704150D02*
X12513920Y-13704150D01*
X12513920Y-13704150D02*
X12532968Y-13713674D01*
X12532968Y-13713674D02*
X12542491Y-13732722D01*
X12542491Y-13732722D02*
X12542491Y-13751769D01*
X12542491Y-13751769D02*
X12447253Y-13770817D01*
X12618682Y-13827960D02*
X12637730Y-13837484D01*
X12637730Y-13837484D02*
X12675825Y-13837484D01*
X12675825Y-13837484D02*
X12694872Y-13827960D01*
X12694872Y-13827960D02*
X12704396Y-13808912D01*
X12704396Y-13808912D02*
X12704396Y-13799388D01*
X12704396Y-13799388D02*
X12694872Y-13780341D01*
X12694872Y-13780341D02*
X12675825Y-13770817D01*
X12675825Y-13770817D02*
X12647253Y-13770817D01*
X12647253Y-13770817D02*
X12628206Y-13761293D01*
X12628206Y-13761293D02*
X12618682Y-13742246D01*
X12618682Y-13742246D02*
X12618682Y-13732722D01*
X12618682Y-13732722D02*
X12628206Y-13713674D01*
X12628206Y-13713674D02*
X12647253Y-13704150D01*
X12647253Y-13704150D02*
X12675825Y-13704150D01*
X12675825Y-13704150D02*
X12694872Y-13713674D01*
X12771063Y-13913674D02*
X12780587Y-13904150D01*
X12780587Y-13904150D02*
X12799634Y-13875579D01*
X12799634Y-13875579D02*
X12809158Y-13856531D01*
X12809158Y-13856531D02*
X12818682Y-13827960D01*
X12818682Y-13827960D02*
X12828206Y-13780341D01*
X12828206Y-13780341D02*
X12828206Y-13742246D01*
X12828206Y-13742246D02*
X12818682Y-13694627D01*
X12818682Y-13694627D02*
X12809158Y-13666055D01*
X12809158Y-13666055D02*
X12799634Y-13647008D01*
X12799634Y-13647008D02*
X12780587Y-13618436D01*
X12780587Y-13618436D02*
X12771063Y-13608912D01*
D15*
X7979891Y-14048891D02*
X7979891Y-13971109D01*
X7902109Y-13971109D01*
X7902109Y-14048891D01*
X7979891Y-14048891D01*
D11*
X8361539Y-14101484D02*
X8247253Y-14101484D01*
X8304396Y-14101484D02*
X8304396Y-13901484D01*
X8304396Y-13901484D02*
X8285348Y-13930055D01*
X8285348Y-13930055D02*
X8266301Y-13949103D01*
X8266301Y-13949103D02*
X8247253Y-13958627D01*
X8447253Y-14082436D02*
X8456777Y-14091960D01*
X8456777Y-14091960D02*
X8447253Y-14101484D01*
X8447253Y-14101484D02*
X8437729Y-14091960D01*
X8437729Y-14091960D02*
X8447253Y-14082436D01*
X8447253Y-14082436D02*
X8447253Y-14101484D01*
X8647253Y-14101484D02*
X8532967Y-14101484D01*
X8590110Y-14101484D02*
X8590110Y-13901484D01*
X8590110Y-13901484D02*
X8571063Y-13930055D01*
X8571063Y-13930055D02*
X8552015Y-13949103D01*
X8552015Y-13949103D02*
X8532967Y-13958627D01*
X8771063Y-13901484D02*
X8790110Y-13901484D01*
X8790110Y-13901484D02*
X8809158Y-13911008D01*
X8809158Y-13911008D02*
X8818682Y-13920531D01*
X8818682Y-13920531D02*
X8828205Y-13939579D01*
X8828205Y-13939579D02*
X8837729Y-13977674D01*
X8837729Y-13977674D02*
X8837729Y-14025293D01*
X8837729Y-14025293D02*
X8828205Y-14063388D01*
X8828205Y-14063388D02*
X8818682Y-14082436D01*
X8818682Y-14082436D02*
X8809158Y-14091960D01*
X8809158Y-14091960D02*
X8790110Y-14101484D01*
X8790110Y-14101484D02*
X8771063Y-14101484D01*
X8771063Y-14101484D02*
X8752015Y-14091960D01*
X8752015Y-14091960D02*
X8742491Y-14082436D01*
X8742491Y-14082436D02*
X8732967Y-14063388D01*
X8732967Y-14063388D02*
X8723444Y-14025293D01*
X8723444Y-14025293D02*
X8723444Y-13977674D01*
X8723444Y-13977674D02*
X8732967Y-13939579D01*
X8732967Y-13939579D02*
X8742491Y-13920531D01*
X8742491Y-13920531D02*
X8752015Y-13911008D01*
X8752015Y-13911008D02*
X8771063Y-13901484D01*
X8961539Y-13901484D02*
X8980586Y-13901484D01*
X8980586Y-13901484D02*
X8999634Y-13911008D01*
X8999634Y-13911008D02*
X9009158Y-13920531D01*
X9009158Y-13920531D02*
X9018682Y-13939579D01*
X9018682Y-13939579D02*
X9028205Y-13977674D01*
X9028205Y-13977674D02*
X9028205Y-14025293D01*
X9028205Y-14025293D02*
X9018682Y-14063388D01*
X9018682Y-14063388D02*
X9009158Y-14082436D01*
X9009158Y-14082436D02*
X8999634Y-14091960D01*
X8999634Y-14091960D02*
X8980586Y-14101484D01*
X8980586Y-14101484D02*
X8961539Y-14101484D01*
X8961539Y-14101484D02*
X8942491Y-14091960D01*
X8942491Y-14091960D02*
X8932967Y-14082436D01*
X8932967Y-14082436D02*
X8923444Y-14063388D01*
X8923444Y-14063388D02*
X8913920Y-14025293D01*
X8913920Y-14025293D02*
X8913920Y-13977674D01*
X8913920Y-13977674D02*
X8923444Y-13939579D01*
X8923444Y-13939579D02*
X8932967Y-13920531D01*
X8932967Y-13920531D02*
X8942491Y-13911008D01*
X8942491Y-13911008D02*
X8961539Y-13901484D01*
X9113920Y-14101484D02*
X9113920Y-13968150D01*
X9113920Y-13987198D02*
X9123444Y-13977674D01*
X9123444Y-13977674D02*
X9142491Y-13968150D01*
X9142491Y-13968150D02*
X9171063Y-13968150D01*
X9171063Y-13968150D02*
X9190110Y-13977674D01*
X9190110Y-13977674D02*
X9199634Y-13996722D01*
X9199634Y-13996722D02*
X9199634Y-14101484D01*
X9199634Y-13996722D02*
X9209158Y-13977674D01*
X9209158Y-13977674D02*
X9228205Y-13968150D01*
X9228205Y-13968150D02*
X9256777Y-13968150D01*
X9256777Y-13968150D02*
X9275825Y-13977674D01*
X9275825Y-13977674D02*
X9285348Y-13996722D01*
X9285348Y-13996722D02*
X9285348Y-14101484D01*
X9380586Y-14101484D02*
X9380586Y-13968150D01*
X9380586Y-13987198D02*
X9390110Y-13977674D01*
X9390110Y-13977674D02*
X9409158Y-13968150D01*
X9409158Y-13968150D02*
X9437729Y-13968150D01*
X9437729Y-13968150D02*
X9456777Y-13977674D01*
X9456777Y-13977674D02*
X9466301Y-13996722D01*
X9466301Y-13996722D02*
X9466301Y-14101484D01*
X9466301Y-13996722D02*
X9475825Y-13977674D01*
X9475825Y-13977674D02*
X9494872Y-13968150D01*
X9494872Y-13968150D02*
X9523444Y-13968150D01*
X9523444Y-13968150D02*
X9542491Y-13977674D01*
X9542491Y-13977674D02*
X9552015Y-13996722D01*
X9552015Y-13996722D02*
X9552015Y-14101484D01*
X9942491Y-13891960D02*
X9771063Y-14149103D01*
X10199634Y-13901484D02*
X10218682Y-13901484D01*
X10218682Y-13901484D02*
X10237729Y-13911008D01*
X10237729Y-13911008D02*
X10247253Y-13920531D01*
X10247253Y-13920531D02*
X10256777Y-13939579D01*
X10256777Y-13939579D02*
X10266301Y-13977674D01*
X10266301Y-13977674D02*
X10266301Y-14025293D01*
X10266301Y-14025293D02*
X10256777Y-14063388D01*
X10256777Y-14063388D02*
X10247253Y-14082436D01*
X10247253Y-14082436D02*
X10237729Y-14091960D01*
X10237729Y-14091960D02*
X10218682Y-14101484D01*
X10218682Y-14101484D02*
X10199634Y-14101484D01*
X10199634Y-14101484D02*
X10180587Y-14091960D01*
X10180587Y-14091960D02*
X10171063Y-14082436D01*
X10171063Y-14082436D02*
X10161539Y-14063388D01*
X10161539Y-14063388D02*
X10152015Y-14025293D01*
X10152015Y-14025293D02*
X10152015Y-13977674D01*
X10152015Y-13977674D02*
X10161539Y-13939579D01*
X10161539Y-13939579D02*
X10171063Y-13920531D01*
X10171063Y-13920531D02*
X10180587Y-13911008D01*
X10180587Y-13911008D02*
X10199634Y-13901484D01*
X10352015Y-14082436D02*
X10361539Y-14091960D01*
X10361539Y-14091960D02*
X10352015Y-14101484D01*
X10352015Y-14101484D02*
X10342491Y-14091960D01*
X10342491Y-14091960D02*
X10352015Y-14082436D01*
X10352015Y-14082436D02*
X10352015Y-14101484D01*
X10485348Y-13901484D02*
X10504396Y-13901484D01*
X10504396Y-13901484D02*
X10523444Y-13911008D01*
X10523444Y-13911008D02*
X10532968Y-13920531D01*
X10532968Y-13920531D02*
X10542491Y-13939579D01*
X10542491Y-13939579D02*
X10552015Y-13977674D01*
X10552015Y-13977674D02*
X10552015Y-14025293D01*
X10552015Y-14025293D02*
X10542491Y-14063388D01*
X10542491Y-14063388D02*
X10532968Y-14082436D01*
X10532968Y-14082436D02*
X10523444Y-14091960D01*
X10523444Y-14091960D02*
X10504396Y-14101484D01*
X10504396Y-14101484D02*
X10485348Y-14101484D01*
X10485348Y-14101484D02*
X10466301Y-14091960D01*
X10466301Y-14091960D02*
X10456777Y-14082436D01*
X10456777Y-14082436D02*
X10447253Y-14063388D01*
X10447253Y-14063388D02*
X10437729Y-14025293D01*
X10437729Y-14025293D02*
X10437729Y-13977674D01*
X10437729Y-13977674D02*
X10447253Y-13939579D01*
X10447253Y-13939579D02*
X10456777Y-13920531D01*
X10456777Y-13920531D02*
X10466301Y-13911008D01*
X10466301Y-13911008D02*
X10485348Y-13901484D01*
X10723444Y-13968150D02*
X10723444Y-14101484D01*
X10675825Y-13891960D02*
X10628206Y-14034817D01*
X10628206Y-14034817D02*
X10752015Y-14034817D01*
X10809158Y-13901484D02*
X10932968Y-13901484D01*
X10932968Y-13901484D02*
X10866301Y-13977674D01*
X10866301Y-13977674D02*
X10894872Y-13977674D01*
X10894872Y-13977674D02*
X10913920Y-13987198D01*
X10913920Y-13987198D02*
X10923444Y-13996722D01*
X10923444Y-13996722D02*
X10932968Y-14015769D01*
X10932968Y-14015769D02*
X10932968Y-14063388D01*
X10932968Y-14063388D02*
X10923444Y-14082436D01*
X10923444Y-14082436D02*
X10913920Y-14091960D01*
X10913920Y-14091960D02*
X10894872Y-14101484D01*
X10894872Y-14101484D02*
X10837729Y-14101484D01*
X10837729Y-14101484D02*
X10818682Y-14091960D01*
X10818682Y-14091960D02*
X10809158Y-14082436D01*
X10999634Y-13901484D02*
X11123444Y-13901484D01*
X11123444Y-13901484D02*
X11056777Y-13977674D01*
X11056777Y-13977674D02*
X11085349Y-13977674D01*
X11085349Y-13977674D02*
X11104396Y-13987198D01*
X11104396Y-13987198D02*
X11113920Y-13996722D01*
X11113920Y-13996722D02*
X11123444Y-14015769D01*
X11123444Y-14015769D02*
X11123444Y-14063388D01*
X11123444Y-14063388D02*
X11113920Y-14082436D01*
X11113920Y-14082436D02*
X11104396Y-14091960D01*
X11104396Y-14091960D02*
X11085349Y-14101484D01*
X11085349Y-14101484D02*
X11028206Y-14101484D01*
X11028206Y-14101484D02*
X11009158Y-14091960D01*
X11009158Y-14091960D02*
X10999634Y-14082436D01*
X11199634Y-13901484D02*
X11199634Y-13939579D01*
X11275825Y-13901484D02*
X11275825Y-13939579D01*
X11571063Y-14177674D02*
X11561539Y-14168150D01*
X11561539Y-14168150D02*
X11542491Y-14139579D01*
X11542491Y-14139579D02*
X11532968Y-14120531D01*
X11532968Y-14120531D02*
X11523444Y-14091960D01*
X11523444Y-14091960D02*
X11513920Y-14044341D01*
X11513920Y-14044341D02*
X11513920Y-14006246D01*
X11513920Y-14006246D02*
X11523444Y-13958627D01*
X11523444Y-13958627D02*
X11532968Y-13930055D01*
X11532968Y-13930055D02*
X11542491Y-13911008D01*
X11542491Y-13911008D02*
X11561539Y-13882436D01*
X11561539Y-13882436D02*
X11571063Y-13872912D01*
X11637729Y-13920531D02*
X11647253Y-13911008D01*
X11647253Y-13911008D02*
X11666301Y-13901484D01*
X11666301Y-13901484D02*
X11713920Y-13901484D01*
X11713920Y-13901484D02*
X11732968Y-13911008D01*
X11732968Y-13911008D02*
X11742491Y-13920531D01*
X11742491Y-13920531D02*
X11752015Y-13939579D01*
X11752015Y-13939579D02*
X11752015Y-13958627D01*
X11752015Y-13958627D02*
X11742491Y-13987198D01*
X11742491Y-13987198D02*
X11628206Y-14101484D01*
X11628206Y-14101484D02*
X11752015Y-14101484D01*
X11932968Y-13901484D02*
X11837729Y-13901484D01*
X11837729Y-13901484D02*
X11828206Y-13996722D01*
X11828206Y-13996722D02*
X11837729Y-13987198D01*
X11837729Y-13987198D02*
X11856777Y-13977674D01*
X11856777Y-13977674D02*
X11904396Y-13977674D01*
X11904396Y-13977674D02*
X11923444Y-13987198D01*
X11923444Y-13987198D02*
X11932968Y-13996722D01*
X11932968Y-13996722D02*
X11942491Y-14015769D01*
X11942491Y-14015769D02*
X11942491Y-14063388D01*
X11942491Y-14063388D02*
X11932968Y-14082436D01*
X11932968Y-14082436D02*
X11923444Y-14091960D01*
X11923444Y-14091960D02*
X11904396Y-14101484D01*
X11904396Y-14101484D02*
X11856777Y-14101484D01*
X11856777Y-14101484D02*
X11837729Y-14091960D01*
X11837729Y-14091960D02*
X11828206Y-14082436D01*
X12180587Y-14101484D02*
X12180587Y-13901484D01*
X12266301Y-14101484D02*
X12266301Y-13996722D01*
X12266301Y-13996722D02*
X12256777Y-13977674D01*
X12256777Y-13977674D02*
X12237730Y-13968150D01*
X12237730Y-13968150D02*
X12209158Y-13968150D01*
X12209158Y-13968150D02*
X12190110Y-13977674D01*
X12190110Y-13977674D02*
X12180587Y-13987198D01*
X12390110Y-14101484D02*
X12371063Y-14091960D01*
X12371063Y-14091960D02*
X12361539Y-14082436D01*
X12361539Y-14082436D02*
X12352015Y-14063388D01*
X12352015Y-14063388D02*
X12352015Y-14006246D01*
X12352015Y-14006246D02*
X12361539Y-13987198D01*
X12361539Y-13987198D02*
X12371063Y-13977674D01*
X12371063Y-13977674D02*
X12390110Y-13968150D01*
X12390110Y-13968150D02*
X12418682Y-13968150D01*
X12418682Y-13968150D02*
X12437730Y-13977674D01*
X12437730Y-13977674D02*
X12447253Y-13987198D01*
X12447253Y-13987198D02*
X12456777Y-14006246D01*
X12456777Y-14006246D02*
X12456777Y-14063388D01*
X12456777Y-14063388D02*
X12447253Y-14082436D01*
X12447253Y-14082436D02*
X12437730Y-14091960D01*
X12437730Y-14091960D02*
X12418682Y-14101484D01*
X12418682Y-14101484D02*
X12390110Y-14101484D01*
X12571063Y-14101484D02*
X12552015Y-14091960D01*
X12552015Y-14091960D02*
X12542491Y-14072912D01*
X12542491Y-14072912D02*
X12542491Y-13901484D01*
X12723444Y-14091960D02*
X12704396Y-14101484D01*
X12704396Y-14101484D02*
X12666301Y-14101484D01*
X12666301Y-14101484D02*
X12647253Y-14091960D01*
X12647253Y-14091960D02*
X12637730Y-14072912D01*
X12637730Y-14072912D02*
X12637730Y-13996722D01*
X12637730Y-13996722D02*
X12647253Y-13977674D01*
X12647253Y-13977674D02*
X12666301Y-13968150D01*
X12666301Y-13968150D02*
X12704396Y-13968150D01*
X12704396Y-13968150D02*
X12723444Y-13977674D01*
X12723444Y-13977674D02*
X12732968Y-13996722D01*
X12732968Y-13996722D02*
X12732968Y-14015769D01*
X12732968Y-14015769D02*
X12637730Y-14034817D01*
X12809158Y-14091960D02*
X12828206Y-14101484D01*
X12828206Y-14101484D02*
X12866301Y-14101484D01*
X12866301Y-14101484D02*
X12885349Y-14091960D01*
X12885349Y-14091960D02*
X12894872Y-14072912D01*
X12894872Y-14072912D02*
X12894872Y-14063388D01*
X12894872Y-14063388D02*
X12885349Y-14044341D01*
X12885349Y-14044341D02*
X12866301Y-14034817D01*
X12866301Y-14034817D02*
X12837730Y-14034817D01*
X12837730Y-14034817D02*
X12818682Y-14025293D01*
X12818682Y-14025293D02*
X12809158Y-14006246D01*
X12809158Y-14006246D02*
X12809158Y-13996722D01*
X12809158Y-13996722D02*
X12818682Y-13977674D01*
X12818682Y-13977674D02*
X12837730Y-13968150D01*
X12837730Y-13968150D02*
X12866301Y-13968150D01*
X12866301Y-13968150D02*
X12885349Y-13977674D01*
X12961539Y-14177674D02*
X12971063Y-14168150D01*
X12971063Y-14168150D02*
X12990111Y-14139579D01*
X12990111Y-14139579D02*
X12999634Y-14120531D01*
X12999634Y-14120531D02*
X13009158Y-14091960D01*
X13009158Y-14091960D02*
X13018682Y-14044341D01*
X13018682Y-14044341D02*
X13018682Y-14006246D01*
X13018682Y-14006246D02*
X13009158Y-13958627D01*
X13009158Y-13958627D02*
X12999634Y-13930055D01*
X12999634Y-13930055D02*
X12990111Y-13911008D01*
X12990111Y-13911008D02*
X12971063Y-13882436D01*
X12971063Y-13882436D02*
X12961539Y-13872912D01*
D16*
X7940120Y-14329880D02*
X7996000Y-14274000D01*
X7940120Y-14218120D01*
X7884240Y-14274000D01*
X7940120Y-14329880D01*
D11*
X8361539Y-14365484D02*
X8247253Y-14365484D01*
X8304396Y-14365484D02*
X8304396Y-14165484D01*
X8304396Y-14165484D02*
X8285348Y-14194055D01*
X8285348Y-14194055D02*
X8266301Y-14213103D01*
X8266301Y-14213103D02*
X8247253Y-14222627D01*
X8447253Y-14346436D02*
X8456777Y-14355960D01*
X8456777Y-14355960D02*
X8447253Y-14365484D01*
X8447253Y-14365484D02*
X8437729Y-14355960D01*
X8437729Y-14355960D02*
X8447253Y-14346436D01*
X8447253Y-14346436D02*
X8447253Y-14365484D01*
X8647253Y-14365484D02*
X8532967Y-14365484D01*
X8590110Y-14365484D02*
X8590110Y-14165484D01*
X8590110Y-14165484D02*
X8571063Y-14194055D01*
X8571063Y-14194055D02*
X8552015Y-14213103D01*
X8552015Y-14213103D02*
X8532967Y-14222627D01*
X8837729Y-14365484D02*
X8723444Y-14365484D01*
X8780586Y-14365484D02*
X8780586Y-14165484D01*
X8780586Y-14165484D02*
X8761539Y-14194055D01*
X8761539Y-14194055D02*
X8742491Y-14213103D01*
X8742491Y-14213103D02*
X8723444Y-14222627D01*
X8952015Y-14251198D02*
X8932967Y-14241674D01*
X8932967Y-14241674D02*
X8923444Y-14232150D01*
X8923444Y-14232150D02*
X8913920Y-14213103D01*
X8913920Y-14213103D02*
X8913920Y-14203579D01*
X8913920Y-14203579D02*
X8923444Y-14184531D01*
X8923444Y-14184531D02*
X8932967Y-14175008D01*
X8932967Y-14175008D02*
X8952015Y-14165484D01*
X8952015Y-14165484D02*
X8990110Y-14165484D01*
X8990110Y-14165484D02*
X9009158Y-14175008D01*
X9009158Y-14175008D02*
X9018682Y-14184531D01*
X9018682Y-14184531D02*
X9028205Y-14203579D01*
X9028205Y-14203579D02*
X9028205Y-14213103D01*
X9028205Y-14213103D02*
X9018682Y-14232150D01*
X9018682Y-14232150D02*
X9009158Y-14241674D01*
X9009158Y-14241674D02*
X8990110Y-14251198D01*
X8990110Y-14251198D02*
X8952015Y-14251198D01*
X8952015Y-14251198D02*
X8932967Y-14260722D01*
X8932967Y-14260722D02*
X8923444Y-14270246D01*
X8923444Y-14270246D02*
X8913920Y-14289293D01*
X8913920Y-14289293D02*
X8913920Y-14327388D01*
X8913920Y-14327388D02*
X8923444Y-14346436D01*
X8923444Y-14346436D02*
X8932967Y-14355960D01*
X8932967Y-14355960D02*
X8952015Y-14365484D01*
X8952015Y-14365484D02*
X8990110Y-14365484D01*
X8990110Y-14365484D02*
X9009158Y-14355960D01*
X9009158Y-14355960D02*
X9018682Y-14346436D01*
X9018682Y-14346436D02*
X9028205Y-14327388D01*
X9028205Y-14327388D02*
X9028205Y-14289293D01*
X9028205Y-14289293D02*
X9018682Y-14270246D01*
X9018682Y-14270246D02*
X9009158Y-14260722D01*
X9009158Y-14260722D02*
X8990110Y-14251198D01*
X9113920Y-14365484D02*
X9113920Y-14232150D01*
X9113920Y-14251198D02*
X9123444Y-14241674D01*
X9123444Y-14241674D02*
X9142491Y-14232150D01*
X9142491Y-14232150D02*
X9171063Y-14232150D01*
X9171063Y-14232150D02*
X9190110Y-14241674D01*
X9190110Y-14241674D02*
X9199634Y-14260722D01*
X9199634Y-14260722D02*
X9199634Y-14365484D01*
X9199634Y-14260722D02*
X9209158Y-14241674D01*
X9209158Y-14241674D02*
X9228205Y-14232150D01*
X9228205Y-14232150D02*
X9256777Y-14232150D01*
X9256777Y-14232150D02*
X9275825Y-14241674D01*
X9275825Y-14241674D02*
X9285348Y-14260722D01*
X9285348Y-14260722D02*
X9285348Y-14365484D01*
X9380586Y-14365484D02*
X9380586Y-14232150D01*
X9380586Y-14251198D02*
X9390110Y-14241674D01*
X9390110Y-14241674D02*
X9409158Y-14232150D01*
X9409158Y-14232150D02*
X9437729Y-14232150D01*
X9437729Y-14232150D02*
X9456777Y-14241674D01*
X9456777Y-14241674D02*
X9466301Y-14260722D01*
X9466301Y-14260722D02*
X9466301Y-14365484D01*
X9466301Y-14260722D02*
X9475825Y-14241674D01*
X9475825Y-14241674D02*
X9494872Y-14232150D01*
X9494872Y-14232150D02*
X9523444Y-14232150D01*
X9523444Y-14232150D02*
X9542491Y-14241674D01*
X9542491Y-14241674D02*
X9552015Y-14260722D01*
X9552015Y-14260722D02*
X9552015Y-14365484D01*
X9942491Y-14155960D02*
X9771063Y-14413103D01*
X10199634Y-14165484D02*
X10218682Y-14165484D01*
X10218682Y-14165484D02*
X10237729Y-14175008D01*
X10237729Y-14175008D02*
X10247253Y-14184531D01*
X10247253Y-14184531D02*
X10256777Y-14203579D01*
X10256777Y-14203579D02*
X10266301Y-14241674D01*
X10266301Y-14241674D02*
X10266301Y-14289293D01*
X10266301Y-14289293D02*
X10256777Y-14327388D01*
X10256777Y-14327388D02*
X10247253Y-14346436D01*
X10247253Y-14346436D02*
X10237729Y-14355960D01*
X10237729Y-14355960D02*
X10218682Y-14365484D01*
X10218682Y-14365484D02*
X10199634Y-14365484D01*
X10199634Y-14365484D02*
X10180587Y-14355960D01*
X10180587Y-14355960D02*
X10171063Y-14346436D01*
X10171063Y-14346436D02*
X10161539Y-14327388D01*
X10161539Y-14327388D02*
X10152015Y-14289293D01*
X10152015Y-14289293D02*
X10152015Y-14241674D01*
X10152015Y-14241674D02*
X10161539Y-14203579D01*
X10161539Y-14203579D02*
X10171063Y-14184531D01*
X10171063Y-14184531D02*
X10180587Y-14175008D01*
X10180587Y-14175008D02*
X10199634Y-14165484D01*
X10352015Y-14346436D02*
X10361539Y-14355960D01*
X10361539Y-14355960D02*
X10352015Y-14365484D01*
X10352015Y-14365484D02*
X10342491Y-14355960D01*
X10342491Y-14355960D02*
X10352015Y-14346436D01*
X10352015Y-14346436D02*
X10352015Y-14365484D01*
X10485348Y-14165484D02*
X10504396Y-14165484D01*
X10504396Y-14165484D02*
X10523444Y-14175008D01*
X10523444Y-14175008D02*
X10532968Y-14184531D01*
X10532968Y-14184531D02*
X10542491Y-14203579D01*
X10542491Y-14203579D02*
X10552015Y-14241674D01*
X10552015Y-14241674D02*
X10552015Y-14289293D01*
X10552015Y-14289293D02*
X10542491Y-14327388D01*
X10542491Y-14327388D02*
X10532968Y-14346436D01*
X10532968Y-14346436D02*
X10523444Y-14355960D01*
X10523444Y-14355960D02*
X10504396Y-14365484D01*
X10504396Y-14365484D02*
X10485348Y-14365484D01*
X10485348Y-14365484D02*
X10466301Y-14355960D01*
X10466301Y-14355960D02*
X10456777Y-14346436D01*
X10456777Y-14346436D02*
X10447253Y-14327388D01*
X10447253Y-14327388D02*
X10437729Y-14289293D01*
X10437729Y-14289293D02*
X10437729Y-14241674D01*
X10437729Y-14241674D02*
X10447253Y-14203579D01*
X10447253Y-14203579D02*
X10456777Y-14184531D01*
X10456777Y-14184531D02*
X10466301Y-14175008D01*
X10466301Y-14175008D02*
X10485348Y-14165484D01*
X10723444Y-14232150D02*
X10723444Y-14365484D01*
X10675825Y-14155960D02*
X10628206Y-14298817D01*
X10628206Y-14298817D02*
X10752015Y-14298817D01*
X10913920Y-14232150D02*
X10913920Y-14365484D01*
X10866301Y-14155960D02*
X10818682Y-14298817D01*
X10818682Y-14298817D02*
X10942491Y-14298817D01*
X11056777Y-14165484D02*
X11075825Y-14165484D01*
X11075825Y-14165484D02*
X11094872Y-14175008D01*
X11094872Y-14175008D02*
X11104396Y-14184531D01*
X11104396Y-14184531D02*
X11113920Y-14203579D01*
X11113920Y-14203579D02*
X11123444Y-14241674D01*
X11123444Y-14241674D02*
X11123444Y-14289293D01*
X11123444Y-14289293D02*
X11113920Y-14327388D01*
X11113920Y-14327388D02*
X11104396Y-14346436D01*
X11104396Y-14346436D02*
X11094872Y-14355960D01*
X11094872Y-14355960D02*
X11075825Y-14365484D01*
X11075825Y-14365484D02*
X11056777Y-14365484D01*
X11056777Y-14365484D02*
X11037729Y-14355960D01*
X11037729Y-14355960D02*
X11028206Y-14346436D01*
X11028206Y-14346436D02*
X11018682Y-14327388D01*
X11018682Y-14327388D02*
X11009158Y-14289293D01*
X11009158Y-14289293D02*
X11009158Y-14241674D01*
X11009158Y-14241674D02*
X11018682Y-14203579D01*
X11018682Y-14203579D02*
X11028206Y-14184531D01*
X11028206Y-14184531D02*
X11037729Y-14175008D01*
X11037729Y-14175008D02*
X11056777Y-14165484D01*
X11199634Y-14165484D02*
X11199634Y-14203579D01*
X11275825Y-14165484D02*
X11275825Y-14203579D01*
X11571063Y-14441674D02*
X11561539Y-14432150D01*
X11561539Y-14432150D02*
X11542491Y-14403579D01*
X11542491Y-14403579D02*
X11532968Y-14384531D01*
X11532968Y-14384531D02*
X11523444Y-14355960D01*
X11523444Y-14355960D02*
X11513920Y-14308341D01*
X11513920Y-14308341D02*
X11513920Y-14270246D01*
X11513920Y-14270246D02*
X11523444Y-14222627D01*
X11523444Y-14222627D02*
X11532968Y-14194055D01*
X11532968Y-14194055D02*
X11542491Y-14175008D01*
X11542491Y-14175008D02*
X11561539Y-14146436D01*
X11561539Y-14146436D02*
X11571063Y-14136912D01*
X11752015Y-14365484D02*
X11637729Y-14365484D01*
X11694872Y-14365484D02*
X11694872Y-14165484D01*
X11694872Y-14165484D02*
X11675825Y-14194055D01*
X11675825Y-14194055D02*
X11656777Y-14213103D01*
X11656777Y-14213103D02*
X11637729Y-14222627D01*
X11923444Y-14232150D02*
X11923444Y-14365484D01*
X11875825Y-14155960D02*
X11828206Y-14298817D01*
X11828206Y-14298817D02*
X11952015Y-14298817D01*
X12180587Y-14365484D02*
X12180587Y-14165484D01*
X12266301Y-14365484D02*
X12266301Y-14260722D01*
X12266301Y-14260722D02*
X12256777Y-14241674D01*
X12256777Y-14241674D02*
X12237730Y-14232150D01*
X12237730Y-14232150D02*
X12209158Y-14232150D01*
X12209158Y-14232150D02*
X12190110Y-14241674D01*
X12190110Y-14241674D02*
X12180587Y-14251198D01*
X12390110Y-14365484D02*
X12371063Y-14355960D01*
X12371063Y-14355960D02*
X12361539Y-14346436D01*
X12361539Y-14346436D02*
X12352015Y-14327388D01*
X12352015Y-14327388D02*
X12352015Y-14270246D01*
X12352015Y-14270246D02*
X12361539Y-14251198D01*
X12361539Y-14251198D02*
X12371063Y-14241674D01*
X12371063Y-14241674D02*
X12390110Y-14232150D01*
X12390110Y-14232150D02*
X12418682Y-14232150D01*
X12418682Y-14232150D02*
X12437730Y-14241674D01*
X12437730Y-14241674D02*
X12447253Y-14251198D01*
X12447253Y-14251198D02*
X12456777Y-14270246D01*
X12456777Y-14270246D02*
X12456777Y-14327388D01*
X12456777Y-14327388D02*
X12447253Y-14346436D01*
X12447253Y-14346436D02*
X12437730Y-14355960D01*
X12437730Y-14355960D02*
X12418682Y-14365484D01*
X12418682Y-14365484D02*
X12390110Y-14365484D01*
X12571063Y-14365484D02*
X12552015Y-14355960D01*
X12552015Y-14355960D02*
X12542491Y-14336912D01*
X12542491Y-14336912D02*
X12542491Y-14165484D01*
X12723444Y-14355960D02*
X12704396Y-14365484D01*
X12704396Y-14365484D02*
X12666301Y-14365484D01*
X12666301Y-14365484D02*
X12647253Y-14355960D01*
X12647253Y-14355960D02*
X12637730Y-14336912D01*
X12637730Y-14336912D02*
X12637730Y-14260722D01*
X12637730Y-14260722D02*
X12647253Y-14241674D01*
X12647253Y-14241674D02*
X12666301Y-14232150D01*
X12666301Y-14232150D02*
X12704396Y-14232150D01*
X12704396Y-14232150D02*
X12723444Y-14241674D01*
X12723444Y-14241674D02*
X12732968Y-14260722D01*
X12732968Y-14260722D02*
X12732968Y-14279769D01*
X12732968Y-14279769D02*
X12637730Y-14298817D01*
X12809158Y-14355960D02*
X12828206Y-14365484D01*
X12828206Y-14365484D02*
X12866301Y-14365484D01*
X12866301Y-14365484D02*
X12885349Y-14355960D01*
X12885349Y-14355960D02*
X12894872Y-14336912D01*
X12894872Y-14336912D02*
X12894872Y-14327388D01*
X12894872Y-14327388D02*
X12885349Y-14308341D01*
X12885349Y-14308341D02*
X12866301Y-14298817D01*
X12866301Y-14298817D02*
X12837730Y-14298817D01*
X12837730Y-14298817D02*
X12818682Y-14289293D01*
X12818682Y-14289293D02*
X12809158Y-14270246D01*
X12809158Y-14270246D02*
X12809158Y-14260722D01*
X12809158Y-14260722D02*
X12818682Y-14241674D01*
X12818682Y-14241674D02*
X12837730Y-14232150D01*
X12837730Y-14232150D02*
X12866301Y-14232150D01*
X12866301Y-14232150D02*
X12885349Y-14241674D01*
X12961539Y-14441674D02*
X12971063Y-14432150D01*
X12971063Y-14432150D02*
X12990111Y-14403579D01*
X12990111Y-14403579D02*
X12999634Y-14384531D01*
X12999634Y-14384531D02*
X13009158Y-14355960D01*
X13009158Y-14355960D02*
X13018682Y-14308341D01*
X13018682Y-14308341D02*
X13018682Y-14270246D01*
X13018682Y-14270246D02*
X13009158Y-14222627D01*
X13009158Y-14222627D02*
X12999634Y-14194055D01*
X12999634Y-14194055D02*
X12990111Y-14175008D01*
X12990111Y-14175008D02*
X12971063Y-14146436D01*
X12971063Y-14146436D02*
X12961539Y-14136912D01*
X7796000Y-14438000D02*
X7996000Y-14638000D01*
X7996000Y-14438000D02*
X7796000Y-14638000D01*
X7996000Y-14538000D02*
G75*
G03*
X7996000Y-14538000I-100000J0D01*
G01*
X8247253Y-14448531D02*
X8256777Y-14439008D01*
X8256777Y-14439008D02*
X8275824Y-14429484D01*
X8275824Y-14429484D02*
X8323443Y-14429484D01*
X8323443Y-14429484D02*
X8342491Y-14439008D01*
X8342491Y-14439008D02*
X8352015Y-14448531D01*
X8352015Y-14448531D02*
X8361539Y-14467579D01*
X8361539Y-14467579D02*
X8361539Y-14486627D01*
X8361539Y-14486627D02*
X8352015Y-14515198D01*
X8352015Y-14515198D02*
X8237729Y-14629484D01*
X8237729Y-14629484D02*
X8361539Y-14629484D01*
X8447253Y-14610436D02*
X8456777Y-14619960D01*
X8456777Y-14619960D02*
X8447253Y-14629484D01*
X8447253Y-14629484D02*
X8437729Y-14619960D01*
X8437729Y-14619960D02*
X8447253Y-14610436D01*
X8447253Y-14610436D02*
X8447253Y-14629484D01*
X8523444Y-14429484D02*
X8656777Y-14429484D01*
X8656777Y-14429484D02*
X8571063Y-14629484D01*
X8771063Y-14429484D02*
X8790110Y-14429484D01*
X8790110Y-14429484D02*
X8809158Y-14439008D01*
X8809158Y-14439008D02*
X8818682Y-14448531D01*
X8818682Y-14448531D02*
X8828205Y-14467579D01*
X8828205Y-14467579D02*
X8837729Y-14505674D01*
X8837729Y-14505674D02*
X8837729Y-14553293D01*
X8837729Y-14553293D02*
X8828205Y-14591388D01*
X8828205Y-14591388D02*
X8818682Y-14610436D01*
X8818682Y-14610436D02*
X8809158Y-14619960D01*
X8809158Y-14619960D02*
X8790110Y-14629484D01*
X8790110Y-14629484D02*
X8771063Y-14629484D01*
X8771063Y-14629484D02*
X8752015Y-14619960D01*
X8752015Y-14619960D02*
X8742491Y-14610436D01*
X8742491Y-14610436D02*
X8732967Y-14591388D01*
X8732967Y-14591388D02*
X8723444Y-14553293D01*
X8723444Y-14553293D02*
X8723444Y-14505674D01*
X8723444Y-14505674D02*
X8732967Y-14467579D01*
X8732967Y-14467579D02*
X8742491Y-14448531D01*
X8742491Y-14448531D02*
X8752015Y-14439008D01*
X8752015Y-14439008D02*
X8771063Y-14429484D01*
X8961539Y-14429484D02*
X8980586Y-14429484D01*
X8980586Y-14429484D02*
X8999634Y-14439008D01*
X8999634Y-14439008D02*
X9009158Y-14448531D01*
X9009158Y-14448531D02*
X9018682Y-14467579D01*
X9018682Y-14467579D02*
X9028205Y-14505674D01*
X9028205Y-14505674D02*
X9028205Y-14553293D01*
X9028205Y-14553293D02*
X9018682Y-14591388D01*
X9018682Y-14591388D02*
X9009158Y-14610436D01*
X9009158Y-14610436D02*
X8999634Y-14619960D01*
X8999634Y-14619960D02*
X8980586Y-14629484D01*
X8980586Y-14629484D02*
X8961539Y-14629484D01*
X8961539Y-14629484D02*
X8942491Y-14619960D01*
X8942491Y-14619960D02*
X8932967Y-14610436D01*
X8932967Y-14610436D02*
X8923444Y-14591388D01*
X8923444Y-14591388D02*
X8913920Y-14553293D01*
X8913920Y-14553293D02*
X8913920Y-14505674D01*
X8913920Y-14505674D02*
X8923444Y-14467579D01*
X8923444Y-14467579D02*
X8932967Y-14448531D01*
X8932967Y-14448531D02*
X8942491Y-14439008D01*
X8942491Y-14439008D02*
X8961539Y-14429484D01*
X9113920Y-14629484D02*
X9113920Y-14496150D01*
X9113920Y-14515198D02*
X9123444Y-14505674D01*
X9123444Y-14505674D02*
X9142491Y-14496150D01*
X9142491Y-14496150D02*
X9171063Y-14496150D01*
X9171063Y-14496150D02*
X9190110Y-14505674D01*
X9190110Y-14505674D02*
X9199634Y-14524722D01*
X9199634Y-14524722D02*
X9199634Y-14629484D01*
X9199634Y-14524722D02*
X9209158Y-14505674D01*
X9209158Y-14505674D02*
X9228205Y-14496150D01*
X9228205Y-14496150D02*
X9256777Y-14496150D01*
X9256777Y-14496150D02*
X9275825Y-14505674D01*
X9275825Y-14505674D02*
X9285348Y-14524722D01*
X9285348Y-14524722D02*
X9285348Y-14629484D01*
X9380586Y-14629484D02*
X9380586Y-14496150D01*
X9380586Y-14515198D02*
X9390110Y-14505674D01*
X9390110Y-14505674D02*
X9409158Y-14496150D01*
X9409158Y-14496150D02*
X9437729Y-14496150D01*
X9437729Y-14496150D02*
X9456777Y-14505674D01*
X9456777Y-14505674D02*
X9466301Y-14524722D01*
X9466301Y-14524722D02*
X9466301Y-14629484D01*
X9466301Y-14524722D02*
X9475825Y-14505674D01*
X9475825Y-14505674D02*
X9494872Y-14496150D01*
X9494872Y-14496150D02*
X9523444Y-14496150D01*
X9523444Y-14496150D02*
X9542491Y-14505674D01*
X9542491Y-14505674D02*
X9552015Y-14524722D01*
X9552015Y-14524722D02*
X9552015Y-14629484D01*
X9942491Y-14419960D02*
X9771063Y-14677103D01*
X10199634Y-14429484D02*
X10218682Y-14429484D01*
X10218682Y-14429484D02*
X10237729Y-14439008D01*
X10237729Y-14439008D02*
X10247253Y-14448531D01*
X10247253Y-14448531D02*
X10256777Y-14467579D01*
X10256777Y-14467579D02*
X10266301Y-14505674D01*
X10266301Y-14505674D02*
X10266301Y-14553293D01*
X10266301Y-14553293D02*
X10256777Y-14591388D01*
X10256777Y-14591388D02*
X10247253Y-14610436D01*
X10247253Y-14610436D02*
X10237729Y-14619960D01*
X10237729Y-14619960D02*
X10218682Y-14629484D01*
X10218682Y-14629484D02*
X10199634Y-14629484D01*
X10199634Y-14629484D02*
X10180587Y-14619960D01*
X10180587Y-14619960D02*
X10171063Y-14610436D01*
X10171063Y-14610436D02*
X10161539Y-14591388D01*
X10161539Y-14591388D02*
X10152015Y-14553293D01*
X10152015Y-14553293D02*
X10152015Y-14505674D01*
X10152015Y-14505674D02*
X10161539Y-14467579D01*
X10161539Y-14467579D02*
X10171063Y-14448531D01*
X10171063Y-14448531D02*
X10180587Y-14439008D01*
X10180587Y-14439008D02*
X10199634Y-14429484D01*
X10352015Y-14610436D02*
X10361539Y-14619960D01*
X10361539Y-14619960D02*
X10352015Y-14629484D01*
X10352015Y-14629484D02*
X10342491Y-14619960D01*
X10342491Y-14619960D02*
X10352015Y-14610436D01*
X10352015Y-14610436D02*
X10352015Y-14629484D01*
X10552015Y-14629484D02*
X10437729Y-14629484D01*
X10494872Y-14629484D02*
X10494872Y-14429484D01*
X10494872Y-14429484D02*
X10475825Y-14458055D01*
X10475825Y-14458055D02*
X10456777Y-14477103D01*
X10456777Y-14477103D02*
X10437729Y-14486627D01*
X10675825Y-14429484D02*
X10694872Y-14429484D01*
X10694872Y-14429484D02*
X10713920Y-14439008D01*
X10713920Y-14439008D02*
X10723444Y-14448531D01*
X10723444Y-14448531D02*
X10732968Y-14467579D01*
X10732968Y-14467579D02*
X10742491Y-14505674D01*
X10742491Y-14505674D02*
X10742491Y-14553293D01*
X10742491Y-14553293D02*
X10732968Y-14591388D01*
X10732968Y-14591388D02*
X10723444Y-14610436D01*
X10723444Y-14610436D02*
X10713920Y-14619960D01*
X10713920Y-14619960D02*
X10694872Y-14629484D01*
X10694872Y-14629484D02*
X10675825Y-14629484D01*
X10675825Y-14629484D02*
X10656777Y-14619960D01*
X10656777Y-14619960D02*
X10647253Y-14610436D01*
X10647253Y-14610436D02*
X10637729Y-14591388D01*
X10637729Y-14591388D02*
X10628206Y-14553293D01*
X10628206Y-14553293D02*
X10628206Y-14505674D01*
X10628206Y-14505674D02*
X10637729Y-14467579D01*
X10637729Y-14467579D02*
X10647253Y-14448531D01*
X10647253Y-14448531D02*
X10656777Y-14439008D01*
X10656777Y-14439008D02*
X10675825Y-14429484D01*
X10913920Y-14429484D02*
X10875825Y-14429484D01*
X10875825Y-14429484D02*
X10856777Y-14439008D01*
X10856777Y-14439008D02*
X10847253Y-14448531D01*
X10847253Y-14448531D02*
X10828206Y-14477103D01*
X10828206Y-14477103D02*
X10818682Y-14515198D01*
X10818682Y-14515198D02*
X10818682Y-14591388D01*
X10818682Y-14591388D02*
X10828206Y-14610436D01*
X10828206Y-14610436D02*
X10837729Y-14619960D01*
X10837729Y-14619960D02*
X10856777Y-14629484D01*
X10856777Y-14629484D02*
X10894872Y-14629484D01*
X10894872Y-14629484D02*
X10913920Y-14619960D01*
X10913920Y-14619960D02*
X10923444Y-14610436D01*
X10923444Y-14610436D02*
X10932968Y-14591388D01*
X10932968Y-14591388D02*
X10932968Y-14543769D01*
X10932968Y-14543769D02*
X10923444Y-14524722D01*
X10923444Y-14524722D02*
X10913920Y-14515198D01*
X10913920Y-14515198D02*
X10894872Y-14505674D01*
X10894872Y-14505674D02*
X10856777Y-14505674D01*
X10856777Y-14505674D02*
X10837729Y-14515198D01*
X10837729Y-14515198D02*
X10828206Y-14524722D01*
X10828206Y-14524722D02*
X10818682Y-14543769D01*
X10999634Y-14429484D02*
X11123444Y-14429484D01*
X11123444Y-14429484D02*
X11056777Y-14505674D01*
X11056777Y-14505674D02*
X11085349Y-14505674D01*
X11085349Y-14505674D02*
X11104396Y-14515198D01*
X11104396Y-14515198D02*
X11113920Y-14524722D01*
X11113920Y-14524722D02*
X11123444Y-14543769D01*
X11123444Y-14543769D02*
X11123444Y-14591388D01*
X11123444Y-14591388D02*
X11113920Y-14610436D01*
X11113920Y-14610436D02*
X11104396Y-14619960D01*
X11104396Y-14619960D02*
X11085349Y-14629484D01*
X11085349Y-14629484D02*
X11028206Y-14629484D01*
X11028206Y-14629484D02*
X11009158Y-14619960D01*
X11009158Y-14619960D02*
X10999634Y-14610436D01*
X11199634Y-14429484D02*
X11199634Y-14467579D01*
X11275825Y-14429484D02*
X11275825Y-14467579D01*
X11571063Y-14705674D02*
X11561539Y-14696150D01*
X11561539Y-14696150D02*
X11542491Y-14667579D01*
X11542491Y-14667579D02*
X11532968Y-14648531D01*
X11532968Y-14648531D02*
X11523444Y-14619960D01*
X11523444Y-14619960D02*
X11513920Y-14572341D01*
X11513920Y-14572341D02*
X11513920Y-14534246D01*
X11513920Y-14534246D02*
X11523444Y-14486627D01*
X11523444Y-14486627D02*
X11532968Y-14458055D01*
X11532968Y-14458055D02*
X11542491Y-14439008D01*
X11542491Y-14439008D02*
X11561539Y-14410436D01*
X11561539Y-14410436D02*
X11571063Y-14400912D01*
X11732968Y-14496150D02*
X11732968Y-14629484D01*
X11685348Y-14419960D02*
X11637729Y-14562817D01*
X11637729Y-14562817D02*
X11761539Y-14562817D01*
X11990110Y-14629484D02*
X11990110Y-14429484D01*
X12075825Y-14629484D02*
X12075825Y-14524722D01*
X12075825Y-14524722D02*
X12066301Y-14505674D01*
X12066301Y-14505674D02*
X12047253Y-14496150D01*
X12047253Y-14496150D02*
X12018682Y-14496150D01*
X12018682Y-14496150D02*
X11999634Y-14505674D01*
X11999634Y-14505674D02*
X11990110Y-14515198D01*
X12199634Y-14629484D02*
X12180587Y-14619960D01*
X12180587Y-14619960D02*
X12171063Y-14610436D01*
X12171063Y-14610436D02*
X12161539Y-14591388D01*
X12161539Y-14591388D02*
X12161539Y-14534246D01*
X12161539Y-14534246D02*
X12171063Y-14515198D01*
X12171063Y-14515198D02*
X12180587Y-14505674D01*
X12180587Y-14505674D02*
X12199634Y-14496150D01*
X12199634Y-14496150D02*
X12228206Y-14496150D01*
X12228206Y-14496150D02*
X12247253Y-14505674D01*
X12247253Y-14505674D02*
X12256777Y-14515198D01*
X12256777Y-14515198D02*
X12266301Y-14534246D01*
X12266301Y-14534246D02*
X12266301Y-14591388D01*
X12266301Y-14591388D02*
X12256777Y-14610436D01*
X12256777Y-14610436D02*
X12247253Y-14619960D01*
X12247253Y-14619960D02*
X12228206Y-14629484D01*
X12228206Y-14629484D02*
X12199634Y-14629484D01*
X12380587Y-14629484D02*
X12361539Y-14619960D01*
X12361539Y-14619960D02*
X12352015Y-14600912D01*
X12352015Y-14600912D02*
X12352015Y-14429484D01*
X12532968Y-14619960D02*
X12513920Y-14629484D01*
X12513920Y-14629484D02*
X12475825Y-14629484D01*
X12475825Y-14629484D02*
X12456777Y-14619960D01*
X12456777Y-14619960D02*
X12447253Y-14600912D01*
X12447253Y-14600912D02*
X12447253Y-14524722D01*
X12447253Y-14524722D02*
X12456777Y-14505674D01*
X12456777Y-14505674D02*
X12475825Y-14496150D01*
X12475825Y-14496150D02*
X12513920Y-14496150D01*
X12513920Y-14496150D02*
X12532968Y-14505674D01*
X12532968Y-14505674D02*
X12542491Y-14524722D01*
X12542491Y-14524722D02*
X12542491Y-14543769D01*
X12542491Y-14543769D02*
X12447253Y-14562817D01*
X12618682Y-14619960D02*
X12637730Y-14629484D01*
X12637730Y-14629484D02*
X12675825Y-14629484D01*
X12675825Y-14629484D02*
X12694872Y-14619960D01*
X12694872Y-14619960D02*
X12704396Y-14600912D01*
X12704396Y-14600912D02*
X12704396Y-14591388D01*
X12704396Y-14591388D02*
X12694872Y-14572341D01*
X12694872Y-14572341D02*
X12675825Y-14562817D01*
X12675825Y-14562817D02*
X12647253Y-14562817D01*
X12647253Y-14562817D02*
X12628206Y-14553293D01*
X12628206Y-14553293D02*
X12618682Y-14534246D01*
X12618682Y-14534246D02*
X12618682Y-14524722D01*
X12618682Y-14524722D02*
X12628206Y-14505674D01*
X12628206Y-14505674D02*
X12647253Y-14496150D01*
X12647253Y-14496150D02*
X12675825Y-14496150D01*
X12675825Y-14496150D02*
X12694872Y-14505674D01*
X12771063Y-14705674D02*
X12780587Y-14696150D01*
X12780587Y-14696150D02*
X12799634Y-14667579D01*
X12799634Y-14667579D02*
X12809158Y-14648531D01*
X12809158Y-14648531D02*
X12818682Y-14619960D01*
X12818682Y-14619960D02*
X12828206Y-14572341D01*
X12828206Y-14572341D02*
X12828206Y-14534246D01*
X12828206Y-14534246D02*
X12818682Y-14486627D01*
X12818682Y-14486627D02*
X12809158Y-14458055D01*
X12809158Y-14458055D02*
X12799634Y-14439008D01*
X12799634Y-14439008D02*
X12780587Y-14410436D01*
X12780587Y-14410436D02*
X12771063Y-14400912D01*
M02*
