%TF.GenerationSoftware,KiCad,Pcbnew,7.0.8*%
%TF.CreationDate,2023-10-24T07:18:53+02:00*%
%TF.ProjectId,convertisseur-video-atari-2600-secam-kit,636f6e76-6572-4746-9973-736575722d76,rev?*%
%TF.SameCoordinates,Original*%
%TF.FileFunction,Soldermask,Top*%
%TF.FilePolarity,Negative*%
%FSLAX46Y46*%
G04 Gerber Fmt 4.6, Leading zero omitted, Abs format (unit mm)*
G04 Created by KiCad (PCBNEW 7.0.8) date 2023-10-24 07:18:53*
%MOMM*%
%LPD*%
G01*
G04 APERTURE LIST*
G04 Aperture macros list*
%AMRoundRect*
0 Rectangle with rounded corners*
0 $1 Rounding radius*
0 $2 $3 $4 $5 $6 $7 $8 $9 X,Y pos of 4 corners*
0 Add a 4 corners polygon primitive as box body*
4,1,4,$2,$3,$4,$5,$6,$7,$8,$9,$2,$3,0*
0 Add four circle primitives for the rounded corners*
1,1,$1+$1,$2,$3*
1,1,$1+$1,$4,$5*
1,1,$1+$1,$6,$7*
1,1,$1+$1,$8,$9*
0 Add four rect primitives between the rounded corners*
20,1,$1+$1,$2,$3,$4,$5,0*
20,1,$1+$1,$4,$5,$6,$7,0*
20,1,$1+$1,$6,$7,$8,$9,0*
20,1,$1+$1,$8,$9,$2,$3,0*%
G04 Aperture macros list end*
%ADD10R,1.600000X1.600000*%
%ADD11C,1.600000*%
%ADD12C,4.700000*%
%ADD13RoundRect,0.250001X-0.799999X-0.799999X0.799999X-0.799999X0.799999X0.799999X-0.799999X0.799999X0*%
%ADD14O,1.600000X1.600000*%
%ADD15RoundRect,0.102000X0.838200X-0.838200X0.838200X0.838200X-0.838200X0.838200X-0.838200X-0.838200X0*%
%ADD16C,1.880400*%
%ADD17R,1.800000X1.800000*%
%ADD18O,1.800000X1.800000*%
G04 APERTURE END LIST*
D10*
%TO.C,C2*%
X111800000Y-100330000D03*
D11*
X114300000Y-100330000D03*
%TD*%
D12*
%TO.C,H1*%
X87630000Y-80645000D03*
%TD*%
%TO.C,H3*%
X88900000Y-121920000D03*
%TD*%
D13*
%TO.C,P8*%
X82550000Y-105410000D03*
%TD*%
D11*
%TO.C,R9*%
X100965000Y-107315000D03*
D14*
X100965000Y-117475000D03*
%TD*%
D13*
%TO.C,P1*%
X82550000Y-83185000D03*
%TD*%
%TO.C,P15*%
X123825000Y-97155000D03*
%TD*%
%TO.C,P24*%
X82550000Y-113665000D03*
%TD*%
%TO.C,P3*%
X82550000Y-86360000D03*
%TD*%
D11*
%TO.C,R8*%
X97155000Y-107315000D03*
D14*
X97155000Y-117475000D03*
%TD*%
D13*
%TO.C,P17*%
X123825000Y-106680000D03*
%TD*%
D11*
%TO.C,R6*%
X108585000Y-107315000D03*
D14*
X108585000Y-117475000D03*
%TD*%
D11*
%TO.C,R3*%
X95885000Y-91440000D03*
D14*
X106045000Y-91440000D03*
%TD*%
D13*
%TO.C,P13*%
X123825000Y-100330000D03*
%TD*%
D12*
%TO.C,H4*%
X116205000Y-121920000D03*
%TD*%
D13*
%TO.C,P25*%
X82550000Y-108585000D03*
%TD*%
D15*
%TO.C,U1*%
X90805000Y-102870000D03*
D16*
X93345000Y-102870000D03*
X95885000Y-102870000D03*
X98425000Y-102870000D03*
X100965000Y-102870000D03*
X103505000Y-102870000D03*
X106045000Y-102870000D03*
X106045000Y-95250000D03*
X103505000Y-95250000D03*
X100965000Y-95250000D03*
X98425000Y-95250000D03*
X95885000Y-95250000D03*
X93345000Y-95250000D03*
X90805000Y-95250000D03*
%TD*%
D13*
%TO.C,P22*%
X123825000Y-122555000D03*
%TD*%
D11*
%TO.C,R5*%
X104775000Y-107315000D03*
D14*
X104775000Y-117475000D03*
%TD*%
D11*
%TO.C,R1*%
X95885000Y-87630000D03*
D14*
X106045000Y-87630000D03*
%TD*%
D11*
%TO.C,C1*%
X91440000Y-88860000D03*
X91440000Y-83860000D03*
%TD*%
D13*
%TO.C,P5*%
X82550000Y-95885000D03*
%TD*%
%TO.C,P10*%
X123825000Y-81280000D03*
%TD*%
%TO.C,P18*%
X123825000Y-109855000D03*
%TD*%
%TO.C,P14*%
X123825000Y-103505000D03*
%TD*%
%TO.C,P7*%
X82550000Y-92710000D03*
%TD*%
%TO.C,P19*%
X123825000Y-113030000D03*
%TD*%
%TO.C,P16*%
X123825000Y-93980000D03*
%TD*%
%TO.C,P6*%
X82550000Y-102235000D03*
%TD*%
D17*
%TO.C,D2*%
X113665000Y-116205000D03*
D18*
X113665000Y-106045000D03*
%TD*%
D11*
%TO.C,R4*%
X95885000Y-83820000D03*
D14*
X106045000Y-83820000D03*
%TD*%
D13*
%TO.C,P2*%
X82550000Y-89535000D03*
%TD*%
%TO.C,P23*%
X82550000Y-117475000D03*
%TD*%
%TO.C,P4*%
X82550000Y-99060000D03*
%TD*%
D17*
%TO.C,D1*%
X117475000Y-116205000D03*
D18*
X117475000Y-106045000D03*
%TD*%
D11*
%TO.C,R2*%
X109855000Y-92075000D03*
D14*
X109855000Y-81915000D03*
%TD*%
D13*
%TO.C,P11*%
X123825000Y-87630000D03*
%TD*%
%TO.C,P9*%
X123825000Y-90805000D03*
%TD*%
%TO.C,P20*%
X123825000Y-116205000D03*
%TD*%
%TO.C,P21*%
X123825000Y-119380000D03*
%TD*%
D12*
%TO.C,H2*%
X116205000Y-80645000D03*
%TD*%
D13*
%TO.C,P12*%
X123825000Y-84455000D03*
%TD*%
D11*
%TO.C,R10*%
X89535000Y-107315000D03*
D14*
X89535000Y-117475000D03*
%TD*%
D11*
%TO.C,R7*%
X93345000Y-107315000D03*
D14*
X93345000Y-117475000D03*
%TD*%
M02*
