%TF.GenerationSoftware,KiCad,Pcbnew,7.0.8*%
%TF.CreationDate,2023-10-24T07:18:53+02:00*%
%TF.ProjectId,convertisseur-video-atari-2600-secam-kit,636f6e76-6572-4746-9973-736575722d76,rev?*%
%TF.SameCoordinates,Original*%
%TF.FileFunction,Copper,L2,Bot*%
%TF.FilePolarity,Positive*%
%FSLAX46Y46*%
G04 Gerber Fmt 4.6, Leading zero omitted, Abs format (unit mm)*
G04 Created by KiCad (PCBNEW 7.0.8) date 2023-10-24 07:18:53*
%MOMM*%
%LPD*%
G01*
G04 APERTURE LIST*
G04 Aperture macros list*
%AMRoundRect*
0 Rectangle with rounded corners*
0 $1 Rounding radius*
0 $2 $3 $4 $5 $6 $7 $8 $9 X,Y pos of 4 corners*
0 Add a 4 corners polygon primitive as box body*
4,1,4,$2,$3,$4,$5,$6,$7,$8,$9,$2,$3,0*
0 Add four circle primitives for the rounded corners*
1,1,$1+$1,$2,$3*
1,1,$1+$1,$4,$5*
1,1,$1+$1,$6,$7*
1,1,$1+$1,$8,$9*
0 Add four rect primitives between the rounded corners*
20,1,$1+$1,$2,$3,$4,$5,0*
20,1,$1+$1,$4,$5,$6,$7,0*
20,1,$1+$1,$6,$7,$8,$9,0*
20,1,$1+$1,$8,$9,$2,$3,0*%
G04 Aperture macros list end*
%TA.AperFunction,ComponentPad*%
%ADD10R,1.600000X1.600000*%
%TD*%
%TA.AperFunction,ComponentPad*%
%ADD11C,1.600000*%
%TD*%
%TA.AperFunction,ComponentPad*%
%ADD12C,4.700000*%
%TD*%
%TA.AperFunction,ComponentPad*%
%ADD13RoundRect,0.250001X-0.799999X-0.799999X0.799999X-0.799999X0.799999X0.799999X-0.799999X0.799999X0*%
%TD*%
%TA.AperFunction,ComponentPad*%
%ADD14O,1.600000X1.600000*%
%TD*%
%TA.AperFunction,ComponentPad*%
%ADD15R,1.676400X1.676400*%
%TD*%
%TA.AperFunction,ComponentPad*%
%ADD16C,1.676400*%
%TD*%
%TA.AperFunction,ComponentPad*%
%ADD17R,1.800000X1.800000*%
%TD*%
%TA.AperFunction,ComponentPad*%
%ADD18O,1.800000X1.800000*%
%TD*%
%TA.AperFunction,ViaPad*%
%ADD19C,0.800000*%
%TD*%
%TA.AperFunction,Conductor*%
%ADD20C,0.250000*%
%TD*%
G04 APERTURE END LIST*
D10*
%TO.P,C2,1*%
%TO.N,Net-(C2-Pad1)*%
X111800000Y-100330000D03*
D11*
%TO.P,C2,2*%
%TO.N,/SCART_audio*%
X114300000Y-100330000D03*
%TD*%
D12*
%TO.P,H1,1*%
%TO.N,N/C*%
X87630000Y-80645000D03*
%TD*%
%TO.P,H3,1*%
%TO.N,N/C*%
X88900000Y-121920000D03*
%TD*%
D13*
%TO.P,P8,1,Pin_1*%
%TO.N,/TIA_audio*%
X82550000Y-105410000D03*
%TD*%
D11*
%TO.P,R9,1*%
%TO.N,+12V*%
X100965000Y-107315000D03*
D14*
%TO.P,R9,2*%
%TO.N,/SCART_comL*%
X100965000Y-117475000D03*
%TD*%
D13*
%TO.P,P1,1,Pin_1*%
%TO.N,+5V*%
X82550000Y-83185000D03*
%TD*%
%TO.P,P15,1,Pin_1*%
%TO.N,/SCART_audio*%
X123825000Y-97155000D03*
%TD*%
%TO.P,P24,1,Pin_1*%
%TO.N,GND*%
X82550000Y-113665000D03*
%TD*%
%TO.P,P3,1,Pin_1*%
%TO.N,GND*%
X82550000Y-86360000D03*
%TD*%
D11*
%TO.P,R8,1*%
%TO.N,+12V*%
X97155000Y-107315000D03*
D14*
%TO.P,R8,2*%
%TO.N,/SCART_blank*%
X97155000Y-117475000D03*
%TD*%
D13*
%TO.P,P17,1,Pin_1*%
%TO.N,GND*%
X123825000Y-106680000D03*
%TD*%
D11*
%TO.P,R6,1*%
%TO.N,GND*%
X108585000Y-107315000D03*
D14*
%TO.P,R6,2*%
%TO.N,Net-(C2-Pad1)*%
X108585000Y-117475000D03*
%TD*%
D11*
%TO.P,R3,1*%
%TO.N,Net-(U1-3Y)*%
X95885000Y-91440000D03*
D14*
%TO.P,R3,2*%
%TO.N,/SCART_R*%
X106045000Y-91440000D03*
%TD*%
D13*
%TO.P,P13,1,Pin_1*%
%TO.N,/SCART_comL*%
X123825000Y-100330000D03*
%TD*%
D12*
%TO.P,H4,1*%
%TO.N,N/C*%
X116205000Y-121920000D03*
%TD*%
D13*
%TO.P,P25,1,Pin_1*%
%TO.N,/TIA_audio*%
X82550000Y-108585000D03*
%TD*%
D15*
%TO.P,U1,1,1A*%
%TO.N,/TIA_lum0*%
X90805000Y-102870000D03*
D16*
%TO.P,U1,2,1B*%
X93345000Y-102870000D03*
%TO.P,U1,3,1Y*%
%TO.N,Net-(U1-1Y)*%
X95885000Y-102870000D03*
%TO.P,U1,4,2A*%
%TO.N,/TIA_lum2*%
X98425000Y-102870000D03*
%TO.P,U1,5,2B*%
X100965000Y-102870000D03*
%TO.P,U1,6,2Y*%
%TO.N,Net-(U1-2Y)*%
X103505000Y-102870000D03*
%TO.P,U1,7,GND*%
%TO.N,GND*%
X106045000Y-102870000D03*
%TO.P,U1,8,3Y*%
%TO.N,Net-(U1-3Y)*%
X106045000Y-95250000D03*
%TO.P,U1,9,3A*%
%TO.N,/TIA_lum1*%
X103505000Y-95250000D03*
%TO.P,U1,10,3B*%
X100965000Y-95250000D03*
%TO.P,U1,11,4Y*%
%TO.N,Net-(U1-4Y)*%
X98425000Y-95250000D03*
%TO.P,U1,12,4A*%
%TO.N,/TIA_synchro*%
X95885000Y-95250000D03*
%TO.P,U1,13,4B*%
X93345000Y-95250000D03*
%TO.P,U1,14,VCC*%
%TO.N,+5V*%
X90805000Y-95250000D03*
%TD*%
D13*
%TO.P,P22,1,Pin_1*%
%TO.N,GND*%
X123825000Y-122555000D03*
%TD*%
D11*
%TO.P,R5,1*%
%TO.N,/TIA_audio*%
X104775000Y-107315000D03*
D14*
%TO.P,R5,2*%
%TO.N,Net-(C2-Pad1)*%
X104775000Y-117475000D03*
%TD*%
D11*
%TO.P,R1,1*%
%TO.N,Net-(U1-1Y)*%
X95885000Y-87630000D03*
D14*
%TO.P,R1,2*%
%TO.N,/SCART_B*%
X106045000Y-87630000D03*
%TD*%
D11*
%TO.P,C1,1*%
%TO.N,GND*%
X91440000Y-88860000D03*
%TO.P,C1,2*%
%TO.N,+5V*%
X91440000Y-83860000D03*
%TD*%
D13*
%TO.P,P5,1,Pin_1*%
%TO.N,/TIA_lum1*%
X82550000Y-95885000D03*
%TD*%
%TO.P,P10,1,Pin_1*%
%TO.N,/SCART_V*%
X123825000Y-81280000D03*
%TD*%
%TO.P,P18,1,Pin_1*%
%TO.N,GND*%
X123825000Y-109855000D03*
%TD*%
%TO.P,P14,1,Pin_1*%
%TO.N,/SCART_blank*%
X123825000Y-103505000D03*
%TD*%
%TO.P,P7,1,Pin_1*%
%TO.N,/TIA_synchro*%
X82550000Y-92710000D03*
%TD*%
%TO.P,P19,1,Pin_1*%
%TO.N,GND*%
X123825000Y-113030000D03*
%TD*%
%TO.P,P16,1,Pin_1*%
%TO.N,/SCART_audio*%
X123825000Y-93980000D03*
%TD*%
%TO.P,P6,1,Pin_1*%
%TO.N,/TIA_lum2*%
X82550000Y-102235000D03*
%TD*%
D17*
%TO.P,D2,1,K*%
%TO.N,/SCART_comL*%
X113665000Y-116205000D03*
D18*
%TO.P,D2,2,A*%
%TO.N,GND*%
X113665000Y-106045000D03*
%TD*%
D11*
%TO.P,R4,1*%
%TO.N,Net-(U1-4Y)*%
X95885000Y-83820000D03*
D14*
%TO.P,R4,2*%
%TO.N,/SCART_SYNC*%
X106045000Y-83820000D03*
%TD*%
D13*
%TO.P,P2,1,Pin_1*%
%TO.N,+12V*%
X82550000Y-89535000D03*
%TD*%
%TO.P,P23,1,Pin_1*%
%TO.N,Net-(P23-Pin_1)*%
X82550000Y-117475000D03*
%TD*%
%TO.P,P4,1,Pin_1*%
%TO.N,/TIA_lum0*%
X82550000Y-99060000D03*
%TD*%
D17*
%TO.P,D1,1,K*%
%TO.N,/SCART_blank*%
X117475000Y-116205000D03*
D18*
%TO.P,D1,2,A*%
%TO.N,GND*%
X117475000Y-106045000D03*
%TD*%
D11*
%TO.P,R2,1*%
%TO.N,Net-(U1-2Y)*%
X109855000Y-92075000D03*
D14*
%TO.P,R2,2*%
%TO.N,/SCART_V*%
X109855000Y-81915000D03*
%TD*%
D13*
%TO.P,P11,1,Pin_1*%
%TO.N,/SCART_B*%
X123825000Y-87630000D03*
%TD*%
%TO.P,P9,1,Pin_1*%
%TO.N,/SCART_R*%
X123825000Y-90805000D03*
%TD*%
%TO.P,P20,1,Pin_1*%
%TO.N,GND*%
X123825000Y-116205000D03*
%TD*%
%TO.P,P21,1,Pin_1*%
%TO.N,GND*%
X123825000Y-119380000D03*
%TD*%
D12*
%TO.P,H2,1*%
%TO.N,N/C*%
X116205000Y-80645000D03*
%TD*%
D13*
%TO.P,P12,1,Pin_1*%
%TO.N,/SCART_SYNC*%
X123825000Y-84455000D03*
%TD*%
D11*
%TO.P,R10,1*%
%TO.N,+12V*%
X89535000Y-107315000D03*
D14*
%TO.P,R10,2*%
%TO.N,Net-(P23-Pin_1)*%
X89535000Y-117475000D03*
%TD*%
D11*
%TO.P,R7,1*%
%TO.N,+12V*%
X93345000Y-107315000D03*
D14*
%TO.P,R7,2*%
%TO.N,/SCART_blank*%
X93345000Y-117475000D03*
%TD*%
D19*
%TO.N,Net-(U1-1Y)*%
X92710000Y-92075000D03*
%TD*%
D20*
%TO.N,GND*%
X97155000Y-100330000D02*
X106045000Y-100330000D01*
X93980000Y-92710000D02*
X95250000Y-92710000D01*
X106045000Y-100330000D02*
X106045000Y-102870000D01*
X91440000Y-88860000D02*
X91440000Y-90805000D01*
X106045000Y-113665000D02*
X106680000Y-113030000D01*
X106680000Y-113030000D02*
X106680000Y-103505000D01*
X96520000Y-93980000D02*
X97155000Y-93980000D01*
X97155000Y-93980000D02*
X97155000Y-100330000D01*
X91440000Y-90805000D02*
X93980000Y-90805000D01*
X95250000Y-92710000D02*
X96520000Y-93980000D01*
X106680000Y-103505000D02*
X106045000Y-102870000D01*
X82550000Y-113665000D02*
X106045000Y-113665000D01*
X93980000Y-90805000D02*
X93980000Y-92710000D01*
%TO.N,+5V*%
X89535000Y-92710000D02*
X89535000Y-93980000D01*
X88900000Y-92075000D02*
X89535000Y-92710000D01*
X91440000Y-86360000D02*
X91438604Y-86360000D01*
X91438604Y-86360000D02*
X88900000Y-88898604D01*
X88900000Y-88898604D02*
X88900000Y-92075000D01*
X89535000Y-93980000D02*
X90805000Y-95250000D01*
X91440000Y-83860000D02*
X91440000Y-86360000D01*
%TO.N,Net-(C2-Pad1)*%
X111800000Y-100330000D02*
X111800000Y-102830000D01*
X111800000Y-102830000D02*
X111125000Y-103505000D01*
X111125000Y-103505000D02*
X111125000Y-114935000D01*
X111125000Y-114935000D02*
X108585000Y-117475000D01*
X104775000Y-117475000D02*
X108585000Y-117475000D01*
%TO.N,/SCART_blank*%
X121285000Y-116205000D02*
X117475000Y-116205000D01*
X123825000Y-103505000D02*
X121285000Y-103505000D01*
X121285000Y-103505000D02*
X121285000Y-116205000D01*
%TO.N,/SCART_comL*%
X123825000Y-100330000D02*
X120015000Y-100330000D01*
X120015000Y-111125000D02*
X113665000Y-111125000D01*
X113665000Y-111125000D02*
X113665000Y-116205000D01*
X120015000Y-100330000D02*
X120015000Y-111125000D01*
%TO.N,+12V*%
X87630000Y-107315000D02*
X89535000Y-107315000D01*
X82550000Y-89535000D02*
X87630000Y-89535000D01*
X87630000Y-89535000D02*
X87630000Y-107315000D01*
%TO.N,Net-(U1-1Y)*%
X92710000Y-92075000D02*
X92710000Y-93345000D01*
X94615000Y-97155000D02*
X95250000Y-97790000D01*
X92710000Y-93345000D02*
X93980000Y-93345000D01*
X95250000Y-97790000D02*
X95250000Y-102235000D01*
X95250000Y-102235000D02*
X95885000Y-102870000D01*
X94615000Y-93980000D02*
X94615000Y-97155000D01*
X93980000Y-93345000D02*
X94615000Y-93980000D01*
%TO.N,Net-(U1-3Y)*%
X102235000Y-91440000D02*
X106045000Y-95250000D01*
X95885000Y-91440000D02*
X102235000Y-91440000D01*
%TD*%
%TA.AperFunction,Conductor*%
%TO.N,GND*%
G36*
X124075000Y-122063316D02*
G01*
X124046181Y-122045791D01*
X123900596Y-122005000D01*
X123787378Y-122005000D01*
X123675217Y-122020416D01*
X123575000Y-122063946D01*
X123575000Y-119871683D01*
X123603819Y-119889209D01*
X123749404Y-119930000D01*
X123862622Y-119930000D01*
X123974783Y-119914584D01*
X124075000Y-119871053D01*
X124075000Y-122063316D01*
G37*
%TD.AperFunction*%
%TA.AperFunction,Conductor*%
G36*
X124075000Y-118888316D02*
G01*
X124046181Y-118870791D01*
X123900596Y-118830000D01*
X123787378Y-118830000D01*
X123675217Y-118845416D01*
X123575000Y-118888946D01*
X123575000Y-116696683D01*
X123603819Y-116714209D01*
X123749404Y-116755000D01*
X123862622Y-116755000D01*
X123974783Y-116739584D01*
X124075000Y-116696053D01*
X124075000Y-118888316D01*
G37*
%TD.AperFunction*%
%TA.AperFunction,Conductor*%
G36*
X124075000Y-115713316D02*
G01*
X124046181Y-115695791D01*
X123900596Y-115655000D01*
X123787378Y-115655000D01*
X123675217Y-115670416D01*
X123575000Y-115713946D01*
X123575000Y-113521683D01*
X123603819Y-113539209D01*
X123749404Y-113580000D01*
X123862622Y-113580000D01*
X123974783Y-113564584D01*
X124075000Y-113521053D01*
X124075000Y-115713316D01*
G37*
%TD.AperFunction*%
%TA.AperFunction,Conductor*%
G36*
X124075000Y-112538316D02*
G01*
X124046181Y-112520791D01*
X123900596Y-112480000D01*
X123787378Y-112480000D01*
X123675217Y-112495416D01*
X123575000Y-112538946D01*
X123575000Y-110346683D01*
X123603819Y-110364209D01*
X123749404Y-110405000D01*
X123862622Y-110405000D01*
X123974783Y-110389584D01*
X124075000Y-110346053D01*
X124075000Y-112538316D01*
G37*
%TD.AperFunction*%
%TA.AperFunction,Conductor*%
G36*
X124075000Y-109363316D02*
G01*
X124046181Y-109345791D01*
X123900596Y-109305000D01*
X123787378Y-109305000D01*
X123675217Y-109320416D01*
X123575000Y-109363946D01*
X123575000Y-107171683D01*
X123603819Y-107189209D01*
X123749404Y-107230000D01*
X123862622Y-107230000D01*
X123974783Y-107214584D01*
X124075000Y-107171053D01*
X124075000Y-109363316D01*
G37*
%TD.AperFunction*%
%TA.AperFunction,Conductor*%
G36*
X126307539Y-76220185D02*
G01*
X126353294Y-76272989D01*
X126364500Y-76324500D01*
X126364500Y-125605500D01*
X126344815Y-125672539D01*
X126292011Y-125718294D01*
X126240500Y-125729500D01*
X80134500Y-125729500D01*
X80067461Y-125709815D01*
X80021706Y-125657011D01*
X80010500Y-125605500D01*
X80010500Y-121920003D01*
X86044669Y-121920003D01*
X86063976Y-122251484D01*
X86063977Y-122251495D01*
X86121631Y-122578467D01*
X86121634Y-122578481D01*
X86121635Y-122578485D01*
X86142578Y-122648439D01*
X86216866Y-122896580D01*
X86348379Y-123201461D01*
X86348385Y-123201474D01*
X86514406Y-123489031D01*
X86712678Y-123755356D01*
X86712683Y-123755362D01*
X86712690Y-123755371D01*
X86940553Y-123996893D01*
X87069391Y-124105000D01*
X87194912Y-124210325D01*
X87194920Y-124210331D01*
X87472330Y-124392787D01*
X87472334Y-124392789D01*
X87769061Y-124541811D01*
X88081082Y-124655377D01*
X88081088Y-124655378D01*
X88081090Y-124655379D01*
X88404161Y-124731949D01*
X88404168Y-124731950D01*
X88404177Y-124731952D01*
X88733977Y-124770500D01*
X88733984Y-124770500D01*
X89066016Y-124770500D01*
X89066023Y-124770500D01*
X89395823Y-124731952D01*
X89395832Y-124731949D01*
X89395838Y-124731949D01*
X89656445Y-124670183D01*
X89718918Y-124655377D01*
X90030939Y-124541811D01*
X90327666Y-124392789D01*
X90605085Y-124210327D01*
X90859447Y-123996893D01*
X91087310Y-123755371D01*
X91285594Y-123489030D01*
X91451617Y-123201470D01*
X91583133Y-122896581D01*
X91678365Y-122578485D01*
X91736024Y-122251484D01*
X91755331Y-121920003D01*
X113349669Y-121920003D01*
X113368976Y-122251484D01*
X113368977Y-122251495D01*
X113426631Y-122578467D01*
X113426634Y-122578481D01*
X113426635Y-122578485D01*
X113447578Y-122648439D01*
X113521866Y-122896580D01*
X113653379Y-123201461D01*
X113653385Y-123201474D01*
X113819406Y-123489031D01*
X114017678Y-123755356D01*
X114017683Y-123755362D01*
X114017690Y-123755371D01*
X114245553Y-123996893D01*
X114374391Y-124105000D01*
X114499912Y-124210325D01*
X114499920Y-124210331D01*
X114777330Y-124392787D01*
X114777334Y-124392789D01*
X115074061Y-124541811D01*
X115386082Y-124655377D01*
X115386088Y-124655378D01*
X115386090Y-124655379D01*
X115709161Y-124731949D01*
X115709168Y-124731950D01*
X115709177Y-124731952D01*
X116038977Y-124770500D01*
X116038984Y-124770500D01*
X116371016Y-124770500D01*
X116371023Y-124770500D01*
X116700823Y-124731952D01*
X116700832Y-124731949D01*
X116700838Y-124731949D01*
X116961445Y-124670183D01*
X117023918Y-124655377D01*
X117335939Y-124541811D01*
X117632666Y-124392789D01*
X117910085Y-124210327D01*
X118164447Y-123996893D01*
X118392310Y-123755371D01*
X118590594Y-123489030D01*
X118756617Y-123201470D01*
X118888133Y-122896581D01*
X118983365Y-122578485D01*
X119041024Y-122251484D01*
X119060331Y-121920000D01*
X119041024Y-121588516D01*
X119014109Y-121435876D01*
X118983368Y-121261532D01*
X118983367Y-121261531D01*
X118983365Y-121261515D01*
X118888133Y-120943419D01*
X118756617Y-120638530D01*
X118590594Y-120350970D01*
X118590593Y-120350968D01*
X118392321Y-120084643D01*
X118392314Y-120084635D01*
X118392310Y-120084629D01*
X118164447Y-119843107D01*
X117994084Y-119700156D01*
X117910087Y-119629674D01*
X117910079Y-119629668D01*
X117632669Y-119447212D01*
X117335946Y-119298192D01*
X117335940Y-119298189D01*
X117023930Y-119184627D01*
X117023909Y-119184620D01*
X116700838Y-119108050D01*
X116700823Y-119108048D01*
X116371023Y-119069500D01*
X116038977Y-119069500D01*
X115750402Y-119103229D01*
X115709176Y-119108048D01*
X115709161Y-119108050D01*
X115386090Y-119184620D01*
X115386069Y-119184627D01*
X115074059Y-119298189D01*
X115074053Y-119298192D01*
X114777330Y-119447212D01*
X114499920Y-119629668D01*
X114499912Y-119629674D01*
X114345867Y-119758934D01*
X114245553Y-119843107D01*
X114017690Y-120084629D01*
X114017687Y-120084632D01*
X114017685Y-120084635D01*
X114017678Y-120084643D01*
X113819406Y-120350968D01*
X113653385Y-120638525D01*
X113653379Y-120638538D01*
X113521866Y-120943419D01*
X113426634Y-121261518D01*
X113426631Y-121261532D01*
X113368977Y-121588504D01*
X113368976Y-121588515D01*
X113349669Y-121919996D01*
X113349669Y-121920003D01*
X91755331Y-121920003D01*
X91755331Y-121920000D01*
X91736024Y-121588516D01*
X91709109Y-121435876D01*
X91678368Y-121261532D01*
X91678367Y-121261531D01*
X91678365Y-121261515D01*
X91583133Y-120943419D01*
X91451617Y-120638530D01*
X91285594Y-120350970D01*
X91285593Y-120350968D01*
X91087321Y-120084643D01*
X91087314Y-120084635D01*
X91087310Y-120084629D01*
X90859447Y-119843107D01*
X90689084Y-119700156D01*
X90605087Y-119629674D01*
X90605079Y-119629668D01*
X90327669Y-119447212D01*
X90030946Y-119298192D01*
X90030940Y-119298189D01*
X89718930Y-119184627D01*
X89718909Y-119184620D01*
X89395838Y-119108050D01*
X89395823Y-119108048D01*
X89066023Y-119069500D01*
X88733977Y-119069500D01*
X88445402Y-119103229D01*
X88404176Y-119108048D01*
X88404161Y-119108050D01*
X88081090Y-119184620D01*
X88081069Y-119184627D01*
X87769059Y-119298189D01*
X87769053Y-119298192D01*
X87472330Y-119447212D01*
X87194920Y-119629668D01*
X87194912Y-119629674D01*
X87040867Y-119758934D01*
X86940553Y-119843107D01*
X86712690Y-120084629D01*
X86712687Y-120084632D01*
X86712685Y-120084635D01*
X86712678Y-120084643D01*
X86514406Y-120350968D01*
X86348385Y-120638525D01*
X86348379Y-120638538D01*
X86216866Y-120943419D01*
X86121634Y-121261518D01*
X86121631Y-121261532D01*
X86063977Y-121588504D01*
X86063976Y-121588515D01*
X86044669Y-121919996D01*
X86044669Y-121920003D01*
X80010500Y-121920003D01*
X80010500Y-118325015D01*
X80999500Y-118325015D01*
X81010000Y-118427795D01*
X81010001Y-118427797D01*
X81025658Y-118475047D01*
X81065186Y-118594335D01*
X81065187Y-118594337D01*
X81157286Y-118743651D01*
X81157289Y-118743655D01*
X81281344Y-118867710D01*
X81281348Y-118867713D01*
X81430662Y-118959812D01*
X81430664Y-118959813D01*
X81430666Y-118959814D01*
X81597203Y-119014999D01*
X81699992Y-119025500D01*
X81699997Y-119025500D01*
X83400003Y-119025500D01*
X83400008Y-119025500D01*
X83502797Y-119014999D01*
X83669334Y-118959814D01*
X83818655Y-118867711D01*
X83942711Y-118743655D01*
X84034814Y-118594334D01*
X84089999Y-118427797D01*
X84100500Y-118325008D01*
X84100500Y-117475001D01*
X88229532Y-117475001D01*
X88249364Y-117701686D01*
X88249366Y-117701697D01*
X88308258Y-117921488D01*
X88308261Y-117921497D01*
X88404431Y-118127732D01*
X88404432Y-118127734D01*
X88534954Y-118314141D01*
X88695858Y-118475045D01*
X88695861Y-118475047D01*
X88882266Y-118605568D01*
X89088504Y-118701739D01*
X89308308Y-118760635D01*
X89470230Y-118774801D01*
X89534998Y-118780468D01*
X89535000Y-118780468D01*
X89535002Y-118780468D01*
X89591673Y-118775509D01*
X89761692Y-118760635D01*
X89981496Y-118701739D01*
X90187734Y-118605568D01*
X90374139Y-118475047D01*
X90535047Y-118314139D01*
X90665568Y-118127734D01*
X90761739Y-117921496D01*
X90820635Y-117701692D01*
X90840468Y-117475001D01*
X92039532Y-117475001D01*
X92059364Y-117701686D01*
X92059366Y-117701697D01*
X92118258Y-117921488D01*
X92118261Y-117921497D01*
X92214431Y-118127732D01*
X92214432Y-118127734D01*
X92344954Y-118314141D01*
X92505858Y-118475045D01*
X92505861Y-118475047D01*
X92692266Y-118605568D01*
X92898504Y-118701739D01*
X93118308Y-118760635D01*
X93280230Y-118774801D01*
X93344998Y-118780468D01*
X93345000Y-118780468D01*
X93345002Y-118780468D01*
X93401673Y-118775509D01*
X93571692Y-118760635D01*
X93791496Y-118701739D01*
X93997734Y-118605568D01*
X94184139Y-118475047D01*
X94345047Y-118314139D01*
X94475568Y-118127734D01*
X94571739Y-117921496D01*
X94630635Y-117701692D01*
X94650468Y-117475001D01*
X95849532Y-117475001D01*
X95869364Y-117701686D01*
X95869366Y-117701697D01*
X95928258Y-117921488D01*
X95928261Y-117921497D01*
X96024431Y-118127732D01*
X96024432Y-118127734D01*
X96154954Y-118314141D01*
X96315858Y-118475045D01*
X96315861Y-118475047D01*
X96502266Y-118605568D01*
X96708504Y-118701739D01*
X96928308Y-118760635D01*
X97090230Y-118774801D01*
X97154998Y-118780468D01*
X97155000Y-118780468D01*
X97155002Y-118780468D01*
X97211673Y-118775509D01*
X97381692Y-118760635D01*
X97601496Y-118701739D01*
X97807734Y-118605568D01*
X97994139Y-118475047D01*
X98155047Y-118314139D01*
X98285568Y-118127734D01*
X98381739Y-117921496D01*
X98440635Y-117701692D01*
X98460468Y-117475001D01*
X99659532Y-117475001D01*
X99679364Y-117701686D01*
X99679366Y-117701697D01*
X99738258Y-117921488D01*
X99738261Y-117921497D01*
X99834431Y-118127732D01*
X99834432Y-118127734D01*
X99964954Y-118314141D01*
X100125858Y-118475045D01*
X100125861Y-118475047D01*
X100312266Y-118605568D01*
X100518504Y-118701739D01*
X100738308Y-118760635D01*
X100900230Y-118774801D01*
X100964998Y-118780468D01*
X100965000Y-118780468D01*
X100965002Y-118780468D01*
X101021673Y-118775509D01*
X101191692Y-118760635D01*
X101411496Y-118701739D01*
X101617734Y-118605568D01*
X101804139Y-118475047D01*
X101965047Y-118314139D01*
X102095568Y-118127734D01*
X102191739Y-117921496D01*
X102250635Y-117701692D01*
X102270468Y-117475001D01*
X103469532Y-117475001D01*
X103489364Y-117701686D01*
X103489366Y-117701697D01*
X103548258Y-117921488D01*
X103548261Y-117921497D01*
X103644431Y-118127732D01*
X103644432Y-118127734D01*
X103774954Y-118314141D01*
X103935858Y-118475045D01*
X103935861Y-118475047D01*
X104122266Y-118605568D01*
X104328504Y-118701739D01*
X104548308Y-118760635D01*
X104710230Y-118774801D01*
X104774998Y-118780468D01*
X104775000Y-118780468D01*
X104775002Y-118780468D01*
X104831673Y-118775509D01*
X105001692Y-118760635D01*
X105221496Y-118701739D01*
X105427734Y-118605568D01*
X105614139Y-118475047D01*
X105775047Y-118314139D01*
X105887613Y-118153377D01*
X105942189Y-118109752D01*
X105989188Y-118100500D01*
X107370812Y-118100500D01*
X107437851Y-118120185D01*
X107472387Y-118153377D01*
X107584954Y-118314141D01*
X107745858Y-118475045D01*
X107745861Y-118475047D01*
X107932266Y-118605568D01*
X108138504Y-118701739D01*
X108358308Y-118760635D01*
X108520230Y-118774801D01*
X108584998Y-118780468D01*
X108585000Y-118780468D01*
X108585002Y-118780468D01*
X108641673Y-118775509D01*
X108811692Y-118760635D01*
X109031496Y-118701739D01*
X109237734Y-118605568D01*
X109424139Y-118475047D01*
X109585047Y-118314139D01*
X109715568Y-118127734D01*
X109811739Y-117921496D01*
X109870635Y-117701692D01*
X109890468Y-117475000D01*
X109889378Y-117462546D01*
X109877268Y-117324123D01*
X109870635Y-117248308D01*
X109852318Y-117179948D01*
X109852963Y-117152870D01*
X112264500Y-117152870D01*
X112264501Y-117152876D01*
X112270908Y-117212483D01*
X112321202Y-117347328D01*
X112321206Y-117347335D01*
X112407452Y-117462544D01*
X112407455Y-117462547D01*
X112522664Y-117548793D01*
X112522671Y-117548797D01*
X112657517Y-117599091D01*
X112657516Y-117599091D01*
X112664444Y-117599835D01*
X112717127Y-117605500D01*
X114612872Y-117605499D01*
X114672483Y-117599091D01*
X114807331Y-117548796D01*
X114922546Y-117462546D01*
X115008796Y-117347331D01*
X115059091Y-117212483D01*
X115065500Y-117152873D01*
X115065499Y-115257128D01*
X115059091Y-115197517D01*
X115047744Y-115167095D01*
X115008797Y-115062671D01*
X115008793Y-115062664D01*
X114922547Y-114947455D01*
X114922544Y-114947452D01*
X114807335Y-114861206D01*
X114807328Y-114861202D01*
X114672482Y-114810908D01*
X114672483Y-114810908D01*
X114612883Y-114804501D01*
X114612881Y-114804500D01*
X114612873Y-114804500D01*
X114612865Y-114804500D01*
X114414500Y-114804500D01*
X114347461Y-114784815D01*
X114301706Y-114732011D01*
X114290500Y-114680500D01*
X114290500Y-111874500D01*
X114310185Y-111807461D01*
X114362989Y-111761706D01*
X114414500Y-111750500D01*
X119944153Y-111750500D01*
X119967385Y-111752696D01*
X119968989Y-111753001D01*
X119975412Y-111754227D01*
X120032724Y-111750621D01*
X120036597Y-111750500D01*
X120054342Y-111750500D01*
X120054350Y-111750500D01*
X120071990Y-111748271D01*
X120075807Y-111747910D01*
X120133138Y-111744304D01*
X120140905Y-111741780D01*
X120163680Y-111736688D01*
X120171792Y-111735664D01*
X120225195Y-111714519D01*
X120228835Y-111713209D01*
X120283441Y-111695467D01*
X120290337Y-111691090D01*
X120311133Y-111680494D01*
X120318732Y-111677486D01*
X120365191Y-111643730D01*
X120368390Y-111641555D01*
X120416877Y-111610786D01*
X120422466Y-111604833D01*
X120439979Y-111589394D01*
X120446587Y-111584594D01*
X120446590Y-111584589D01*
X120450615Y-111580811D01*
X120512959Y-111549268D01*
X120582460Y-111556438D01*
X120637051Y-111600045D01*
X120659401Y-111666243D01*
X120659500Y-111671202D01*
X120659500Y-115455500D01*
X120639815Y-115522539D01*
X120587011Y-115568294D01*
X120535500Y-115579500D01*
X118999499Y-115579500D01*
X118932460Y-115559815D01*
X118886705Y-115507011D01*
X118875499Y-115455500D01*
X118875499Y-115257129D01*
X118875498Y-115257123D01*
X118875497Y-115257116D01*
X118869091Y-115197517D01*
X118857744Y-115167095D01*
X118818797Y-115062671D01*
X118818793Y-115062664D01*
X118732547Y-114947455D01*
X118732544Y-114947452D01*
X118617335Y-114861206D01*
X118617328Y-114861202D01*
X118482482Y-114810908D01*
X118482483Y-114810908D01*
X118422883Y-114804501D01*
X118422881Y-114804500D01*
X118422873Y-114804500D01*
X118422864Y-114804500D01*
X116527129Y-114804500D01*
X116527123Y-114804501D01*
X116467516Y-114810908D01*
X116332671Y-114861202D01*
X116332664Y-114861206D01*
X116217455Y-114947452D01*
X116217452Y-114947455D01*
X116131206Y-115062664D01*
X116131202Y-115062671D01*
X116080908Y-115197517D01*
X116075018Y-115252310D01*
X116074501Y-115257123D01*
X116074500Y-115257135D01*
X116074500Y-117152870D01*
X116074501Y-117152876D01*
X116080908Y-117212483D01*
X116131202Y-117347328D01*
X116131206Y-117347335D01*
X116217452Y-117462544D01*
X116217455Y-117462547D01*
X116332664Y-117548793D01*
X116332671Y-117548797D01*
X116467517Y-117599091D01*
X116467516Y-117599091D01*
X116474444Y-117599835D01*
X116527127Y-117605500D01*
X118422872Y-117605499D01*
X118482483Y-117599091D01*
X118617331Y-117548796D01*
X118732546Y-117462546D01*
X118818796Y-117347331D01*
X118869091Y-117212483D01*
X118875500Y-117152873D01*
X118875500Y-116954500D01*
X118895185Y-116887461D01*
X118947989Y-116841706D01*
X118999500Y-116830500D01*
X121214153Y-116830500D01*
X121237385Y-116832696D01*
X121238989Y-116833001D01*
X121245412Y-116834227D01*
X121302724Y-116830621D01*
X121306597Y-116830500D01*
X121324342Y-116830500D01*
X121324350Y-116830500D01*
X121341990Y-116828271D01*
X121345807Y-116827910D01*
X121403138Y-116824304D01*
X121410905Y-116821780D01*
X121433680Y-116816688D01*
X121441792Y-116815664D01*
X121495195Y-116794519D01*
X121498835Y-116793209D01*
X121553441Y-116775467D01*
X121560337Y-116771090D01*
X121581133Y-116760494D01*
X121588732Y-116757486D01*
X121635191Y-116723730D01*
X121638390Y-116721555D01*
X121686877Y-116690786D01*
X121692466Y-116684833D01*
X121709979Y-116669394D01*
X121716587Y-116664594D01*
X121753190Y-116620347D01*
X121755736Y-116617457D01*
X121795062Y-116575582D01*
X121798998Y-116568421D01*
X121812119Y-116549114D01*
X121817324Y-116542823D01*
X121841769Y-116490874D01*
X121843528Y-116487419D01*
X121871197Y-116437092D01*
X121873227Y-116429181D01*
X121881135Y-116407218D01*
X121884614Y-116399826D01*
X121895377Y-116343401D01*
X121896210Y-116339670D01*
X121910500Y-116284019D01*
X121910500Y-116275844D01*
X121912697Y-116252606D01*
X121914227Y-116244588D01*
X121910621Y-116187275D01*
X121910500Y-116183403D01*
X121910500Y-104254500D01*
X121930185Y-104187461D01*
X121982989Y-104141706D01*
X122034500Y-104130500D01*
X122150500Y-104130500D01*
X122217539Y-104150185D01*
X122263294Y-104202989D01*
X122274500Y-104254500D01*
X122274500Y-104355015D01*
X122285000Y-104457795D01*
X122285001Y-104457796D01*
X122340186Y-104624335D01*
X122340187Y-104624337D01*
X122432286Y-104773651D01*
X122432289Y-104773655D01*
X122556344Y-104897710D01*
X122556348Y-104897713D01*
X122701517Y-104987255D01*
X122748242Y-105039203D01*
X122759463Y-105108165D01*
X122731620Y-105172247D01*
X122701517Y-105198331D01*
X122556660Y-105287680D01*
X122556656Y-105287683D01*
X122432684Y-105411655D01*
X122340643Y-105560876D01*
X122340641Y-105560881D01*
X122285494Y-105727303D01*
X122285493Y-105727310D01*
X122275000Y-105830014D01*
X122275000Y-106430000D01*
X123330148Y-106430000D01*
X123281441Y-106567047D01*
X123271123Y-106717886D01*
X123301884Y-106865915D01*
X123335090Y-106930000D01*
X122275000Y-106930000D01*
X122275000Y-107529985D01*
X122285493Y-107632689D01*
X122285494Y-107632696D01*
X122340641Y-107799118D01*
X122340643Y-107799123D01*
X122432684Y-107948344D01*
X122556655Y-108072315D01*
X122701993Y-108161961D01*
X122748718Y-108213909D01*
X122759939Y-108282872D01*
X122732096Y-108346954D01*
X122701993Y-108373039D01*
X122556655Y-108462684D01*
X122432684Y-108586655D01*
X122340643Y-108735876D01*
X122340641Y-108735881D01*
X122285494Y-108902303D01*
X122285493Y-108902310D01*
X122275000Y-109005014D01*
X122275000Y-109605000D01*
X123330148Y-109605000D01*
X123281441Y-109742047D01*
X123271123Y-109892886D01*
X123301884Y-110040915D01*
X123335090Y-110105000D01*
X122275000Y-110105000D01*
X122275000Y-110704985D01*
X122285493Y-110807689D01*
X122285494Y-110807696D01*
X122340641Y-110974118D01*
X122340643Y-110974123D01*
X122432684Y-111123344D01*
X122556655Y-111247315D01*
X122701993Y-111336961D01*
X122748718Y-111388909D01*
X122759939Y-111457872D01*
X122732096Y-111521954D01*
X122701993Y-111548039D01*
X122556655Y-111637684D01*
X122432684Y-111761655D01*
X122340643Y-111910876D01*
X122340641Y-111910881D01*
X122285494Y-112077303D01*
X122285493Y-112077310D01*
X122275000Y-112180014D01*
X122275000Y-112780000D01*
X123330148Y-112780000D01*
X123281441Y-112917047D01*
X123271123Y-113067886D01*
X123301884Y-113215915D01*
X123335090Y-113280000D01*
X122275000Y-113280000D01*
X122275000Y-113879985D01*
X122285493Y-113982689D01*
X122285494Y-113982696D01*
X122340641Y-114149118D01*
X122340643Y-114149123D01*
X122432684Y-114298344D01*
X122556655Y-114422315D01*
X122701993Y-114511961D01*
X122748718Y-114563909D01*
X122759939Y-114632872D01*
X122732096Y-114696954D01*
X122701993Y-114723039D01*
X122556655Y-114812684D01*
X122432684Y-114936655D01*
X122340643Y-115085876D01*
X122340641Y-115085881D01*
X122285494Y-115252303D01*
X122285493Y-115252310D01*
X122275000Y-115355014D01*
X122275000Y-115955000D01*
X123330148Y-115955000D01*
X123281441Y-116092047D01*
X123271123Y-116242886D01*
X123301884Y-116390915D01*
X123335090Y-116455000D01*
X122275000Y-116455000D01*
X122275000Y-117054985D01*
X122285493Y-117157689D01*
X122285494Y-117157696D01*
X122340641Y-117324118D01*
X122340643Y-117324123D01*
X122432684Y-117473344D01*
X122556655Y-117597315D01*
X122701993Y-117686961D01*
X122748718Y-117738909D01*
X122759939Y-117807872D01*
X122732096Y-117871954D01*
X122701993Y-117898039D01*
X122556655Y-117987684D01*
X122432684Y-118111655D01*
X122340643Y-118260876D01*
X122340641Y-118260881D01*
X122285494Y-118427303D01*
X122285493Y-118427310D01*
X122275000Y-118530014D01*
X122275000Y-119130000D01*
X123330148Y-119130000D01*
X123281441Y-119267047D01*
X123271123Y-119417886D01*
X123301884Y-119565915D01*
X123335090Y-119630000D01*
X122275000Y-119630000D01*
X122275000Y-120229985D01*
X122285493Y-120332689D01*
X122285494Y-120332696D01*
X122340641Y-120499118D01*
X122340643Y-120499123D01*
X122432684Y-120648344D01*
X122556655Y-120772315D01*
X122701993Y-120861961D01*
X122748718Y-120913909D01*
X122759939Y-120982872D01*
X122732096Y-121046954D01*
X122701993Y-121073039D01*
X122556655Y-121162684D01*
X122432684Y-121286655D01*
X122340643Y-121435876D01*
X122340641Y-121435881D01*
X122285494Y-121602303D01*
X122285493Y-121602310D01*
X122275000Y-121705014D01*
X122275000Y-122305000D01*
X123330148Y-122305000D01*
X123281441Y-122442047D01*
X123271123Y-122592886D01*
X123301884Y-122740915D01*
X123335090Y-122805000D01*
X122275000Y-122805000D01*
X122275000Y-123404985D01*
X122285493Y-123507689D01*
X122285494Y-123507696D01*
X122340641Y-123674118D01*
X122340643Y-123674123D01*
X122432684Y-123823344D01*
X122556655Y-123947315D01*
X122705876Y-124039356D01*
X122705881Y-124039358D01*
X122872303Y-124094505D01*
X122872310Y-124094506D01*
X122975014Y-124104999D01*
X122975027Y-124105000D01*
X123575000Y-124105000D01*
X123575000Y-123046683D01*
X123603819Y-123064209D01*
X123749404Y-123105000D01*
X123862622Y-123105000D01*
X123974783Y-123089584D01*
X124075000Y-123046053D01*
X124075000Y-124105000D01*
X124674973Y-124105000D01*
X124674985Y-124104999D01*
X124777689Y-124094506D01*
X124777696Y-124094505D01*
X124944118Y-124039358D01*
X124944123Y-124039356D01*
X125093344Y-123947315D01*
X125217315Y-123823344D01*
X125309356Y-123674123D01*
X125309358Y-123674118D01*
X125364505Y-123507696D01*
X125364506Y-123507689D01*
X125374999Y-123404985D01*
X125375000Y-123404972D01*
X125375000Y-122805000D01*
X124319852Y-122805000D01*
X124368559Y-122667953D01*
X124378877Y-122517114D01*
X124348116Y-122369085D01*
X124314910Y-122305000D01*
X125375000Y-122305000D01*
X125375000Y-121705027D01*
X125374999Y-121705014D01*
X125364506Y-121602310D01*
X125364505Y-121602303D01*
X125309358Y-121435881D01*
X125309356Y-121435876D01*
X125217315Y-121286655D01*
X125093344Y-121162684D01*
X124948006Y-121073039D01*
X124901282Y-121021091D01*
X124890059Y-120952128D01*
X124917903Y-120888046D01*
X124948006Y-120861961D01*
X125093344Y-120772315D01*
X125217315Y-120648344D01*
X125309356Y-120499123D01*
X125309358Y-120499118D01*
X125364505Y-120332696D01*
X125364506Y-120332689D01*
X125374999Y-120229985D01*
X125375000Y-120229972D01*
X125375000Y-119630000D01*
X124319852Y-119630000D01*
X124368559Y-119492953D01*
X124378877Y-119342114D01*
X124348116Y-119194085D01*
X124314910Y-119130000D01*
X125375000Y-119130000D01*
X125375000Y-118530027D01*
X125374999Y-118530014D01*
X125364506Y-118427310D01*
X125364505Y-118427303D01*
X125309358Y-118260881D01*
X125309356Y-118260876D01*
X125217315Y-118111655D01*
X125093344Y-117987684D01*
X124948006Y-117898039D01*
X124901282Y-117846091D01*
X124890059Y-117777128D01*
X124917903Y-117713046D01*
X124948006Y-117686961D01*
X125093344Y-117597315D01*
X125217315Y-117473344D01*
X125309356Y-117324123D01*
X125309358Y-117324118D01*
X125364505Y-117157696D01*
X125364506Y-117157689D01*
X125374999Y-117054985D01*
X125375000Y-117054972D01*
X125375000Y-116455000D01*
X124319852Y-116455000D01*
X124368559Y-116317953D01*
X124378877Y-116167114D01*
X124348116Y-116019085D01*
X124314910Y-115955000D01*
X125375000Y-115955000D01*
X125375000Y-115355027D01*
X125374999Y-115355014D01*
X125364506Y-115252310D01*
X125364505Y-115252303D01*
X125309358Y-115085881D01*
X125309356Y-115085876D01*
X125217315Y-114936655D01*
X125093344Y-114812684D01*
X124948006Y-114723039D01*
X124901282Y-114671091D01*
X124890059Y-114602128D01*
X124917903Y-114538046D01*
X124948006Y-114511961D01*
X125093344Y-114422315D01*
X125217315Y-114298344D01*
X125309356Y-114149123D01*
X125309358Y-114149118D01*
X125364505Y-113982696D01*
X125364506Y-113982689D01*
X125374999Y-113879985D01*
X125375000Y-113879972D01*
X125375000Y-113280000D01*
X124319852Y-113280000D01*
X124368559Y-113142953D01*
X124378877Y-112992114D01*
X124348116Y-112844085D01*
X124314910Y-112780000D01*
X125375000Y-112780000D01*
X125375000Y-112180027D01*
X125374999Y-112180014D01*
X125364506Y-112077310D01*
X125364505Y-112077303D01*
X125309358Y-111910881D01*
X125309356Y-111910876D01*
X125217315Y-111761655D01*
X125093344Y-111637684D01*
X124948006Y-111548039D01*
X124901282Y-111496091D01*
X124890059Y-111427128D01*
X124917903Y-111363046D01*
X124948006Y-111336961D01*
X125093344Y-111247315D01*
X125217315Y-111123344D01*
X125309356Y-110974123D01*
X125309358Y-110974118D01*
X125364505Y-110807696D01*
X125364506Y-110807689D01*
X125374999Y-110704985D01*
X125375000Y-110704972D01*
X125375000Y-110105000D01*
X124319852Y-110105000D01*
X124368559Y-109967953D01*
X124378877Y-109817114D01*
X124348116Y-109669085D01*
X124314910Y-109605000D01*
X125375000Y-109605000D01*
X125375000Y-109005027D01*
X125374999Y-109005014D01*
X125364506Y-108902310D01*
X125364505Y-108902303D01*
X125309358Y-108735881D01*
X125309356Y-108735876D01*
X125217315Y-108586655D01*
X125093344Y-108462684D01*
X124948006Y-108373039D01*
X124901282Y-108321091D01*
X124890059Y-108252128D01*
X124917903Y-108188046D01*
X124948006Y-108161961D01*
X125093344Y-108072315D01*
X125217315Y-107948344D01*
X125309356Y-107799123D01*
X125309358Y-107799118D01*
X125364505Y-107632696D01*
X125364506Y-107632689D01*
X125374999Y-107529985D01*
X125375000Y-107529972D01*
X125375000Y-106930000D01*
X124319852Y-106930000D01*
X124368559Y-106792953D01*
X124378877Y-106642114D01*
X124348116Y-106494085D01*
X124314910Y-106430000D01*
X125375000Y-106430000D01*
X125375000Y-105830027D01*
X125374999Y-105830014D01*
X125364506Y-105727310D01*
X125364505Y-105727303D01*
X125309358Y-105560881D01*
X125309356Y-105560876D01*
X125217315Y-105411655D01*
X125093344Y-105287684D01*
X124948482Y-105198332D01*
X124901757Y-105146384D01*
X124890536Y-105077421D01*
X124918379Y-105013339D01*
X124948476Y-104987259D01*
X125093655Y-104897711D01*
X125217711Y-104773655D01*
X125309814Y-104624334D01*
X125364999Y-104457797D01*
X125375500Y-104355008D01*
X125375500Y-102654992D01*
X125364999Y-102552203D01*
X125309814Y-102385666D01*
X125304812Y-102377557D01*
X125217713Y-102236348D01*
X125217710Y-102236344D01*
X125093655Y-102112289D01*
X125093651Y-102112286D01*
X124948958Y-102023038D01*
X124902233Y-101971090D01*
X124891012Y-101902128D01*
X124918855Y-101838046D01*
X124948958Y-101811962D01*
X124985432Y-101789464D01*
X125093655Y-101722711D01*
X125217711Y-101598655D01*
X125309814Y-101449334D01*
X125364999Y-101282797D01*
X125375500Y-101180008D01*
X125375500Y-99479992D01*
X125364999Y-99377203D01*
X125309814Y-99210666D01*
X125302884Y-99199431D01*
X125217713Y-99061348D01*
X125217710Y-99061344D01*
X125093655Y-98937289D01*
X125093651Y-98937286D01*
X124948958Y-98848038D01*
X124902233Y-98796090D01*
X124891012Y-98727128D01*
X124918855Y-98663046D01*
X124948958Y-98636962D01*
X124982163Y-98616480D01*
X125093655Y-98547711D01*
X125217711Y-98423655D01*
X125309814Y-98274334D01*
X125364999Y-98107797D01*
X125375500Y-98005008D01*
X125375500Y-96304992D01*
X125364999Y-96202203D01*
X125309814Y-96035666D01*
X125239645Y-95921906D01*
X125217713Y-95886348D01*
X125217710Y-95886344D01*
X125093655Y-95762289D01*
X125093651Y-95762286D01*
X124948958Y-95673038D01*
X124902233Y-95621090D01*
X124891012Y-95552128D01*
X124918855Y-95488046D01*
X124948958Y-95461962D01*
X124982163Y-95441480D01*
X125093655Y-95372711D01*
X125217711Y-95248655D01*
X125309814Y-95099334D01*
X125364999Y-94932797D01*
X125375500Y-94830008D01*
X125375500Y-93129992D01*
X125364999Y-93027203D01*
X125309814Y-92860666D01*
X125293943Y-92834936D01*
X125217713Y-92711348D01*
X125217710Y-92711344D01*
X125093655Y-92587289D01*
X125093651Y-92587286D01*
X124948958Y-92498038D01*
X124902233Y-92446090D01*
X124891012Y-92377128D01*
X124918855Y-92313046D01*
X124948958Y-92286962D01*
X125017351Y-92244776D01*
X125093655Y-92197711D01*
X125217711Y-92073655D01*
X125309814Y-91924334D01*
X125364999Y-91757797D01*
X125375500Y-91655008D01*
X125375500Y-89954992D01*
X125364999Y-89852203D01*
X125309814Y-89685666D01*
X125253350Y-89594125D01*
X125217713Y-89536348D01*
X125217710Y-89536344D01*
X125093655Y-89412289D01*
X125093651Y-89412286D01*
X124948958Y-89323038D01*
X124902233Y-89271090D01*
X124891012Y-89202128D01*
X124918855Y-89138046D01*
X124948958Y-89111962D01*
X124990077Y-89086599D01*
X125093655Y-89022711D01*
X125217711Y-88898655D01*
X125309814Y-88749334D01*
X125364999Y-88582797D01*
X125375500Y-88480008D01*
X125375500Y-86779992D01*
X125364999Y-86677203D01*
X125309814Y-86510666D01*
X125302884Y-86499431D01*
X125217713Y-86361348D01*
X125217710Y-86361344D01*
X125093655Y-86237289D01*
X125093651Y-86237286D01*
X124948958Y-86148038D01*
X124902233Y-86096090D01*
X124891012Y-86027128D01*
X124918855Y-85963046D01*
X124948958Y-85936962D01*
X125032145Y-85885651D01*
X125093655Y-85847711D01*
X125217711Y-85723655D01*
X125309814Y-85574334D01*
X125364999Y-85407797D01*
X125375500Y-85305008D01*
X125375500Y-83604992D01*
X125364999Y-83502203D01*
X125309814Y-83335666D01*
X125267343Y-83266811D01*
X125217713Y-83186348D01*
X125217710Y-83186344D01*
X125093655Y-83062289D01*
X125093651Y-83062286D01*
X124948958Y-82973038D01*
X124902233Y-82921090D01*
X124891012Y-82852128D01*
X124918855Y-82788046D01*
X124948958Y-82761962D01*
X125066546Y-82689432D01*
X125093655Y-82672711D01*
X125217711Y-82548655D01*
X125309814Y-82399334D01*
X125364999Y-82232797D01*
X125375500Y-82130008D01*
X125375500Y-80429992D01*
X125364999Y-80327203D01*
X125309814Y-80160666D01*
X125217711Y-80011345D01*
X125093655Y-79887289D01*
X125093651Y-79887286D01*
X124944337Y-79795187D01*
X124944335Y-79795186D01*
X124861065Y-79767593D01*
X124777797Y-79740001D01*
X124777795Y-79740000D01*
X124675015Y-79729500D01*
X124675008Y-79729500D01*
X122974992Y-79729500D01*
X122974984Y-79729500D01*
X122872204Y-79740000D01*
X122872203Y-79740001D01*
X122705664Y-79795186D01*
X122705662Y-79795187D01*
X122556348Y-79887286D01*
X122556344Y-79887289D01*
X122432289Y-80011344D01*
X122432286Y-80011348D01*
X122340187Y-80160662D01*
X122340186Y-80160664D01*
X122285001Y-80327203D01*
X122285000Y-80327204D01*
X122274500Y-80429984D01*
X122274500Y-82130015D01*
X122285000Y-82232795D01*
X122285001Y-82232796D01*
X122340186Y-82399335D01*
X122340187Y-82399337D01*
X122432286Y-82548651D01*
X122432289Y-82548655D01*
X122556344Y-82672710D01*
X122556348Y-82672713D01*
X122701041Y-82761962D01*
X122747766Y-82813910D01*
X122758987Y-82882873D01*
X122731144Y-82946954D01*
X122701041Y-82973038D01*
X122556348Y-83062286D01*
X122556344Y-83062289D01*
X122432289Y-83186344D01*
X122432286Y-83186348D01*
X122340187Y-83335662D01*
X122340186Y-83335664D01*
X122285001Y-83502203D01*
X122285000Y-83502204D01*
X122274500Y-83604984D01*
X122274500Y-85305015D01*
X122285000Y-85407795D01*
X122285001Y-85407796D01*
X122340186Y-85574335D01*
X122340187Y-85574337D01*
X122432286Y-85723651D01*
X122432289Y-85723655D01*
X122556344Y-85847710D01*
X122556348Y-85847713D01*
X122701041Y-85936962D01*
X122747766Y-85988910D01*
X122758987Y-86057873D01*
X122731144Y-86121954D01*
X122701041Y-86148038D01*
X122556348Y-86237286D01*
X122556344Y-86237289D01*
X122432289Y-86361344D01*
X122432286Y-86361348D01*
X122340187Y-86510662D01*
X122340186Y-86510664D01*
X122285001Y-86677203D01*
X122285000Y-86677204D01*
X122274500Y-86779984D01*
X122274500Y-88480015D01*
X122285000Y-88582795D01*
X122285001Y-88582797D01*
X122300658Y-88630047D01*
X122340186Y-88749335D01*
X122340187Y-88749337D01*
X122432286Y-88898651D01*
X122432289Y-88898655D01*
X122556344Y-89022710D01*
X122556348Y-89022713D01*
X122701041Y-89111962D01*
X122747766Y-89163910D01*
X122758987Y-89232873D01*
X122731144Y-89296954D01*
X122701041Y-89323038D01*
X122556348Y-89412286D01*
X122556344Y-89412289D01*
X122432289Y-89536344D01*
X122432286Y-89536348D01*
X122340187Y-89685662D01*
X122340186Y-89685664D01*
X122285001Y-89852203D01*
X122285000Y-89852204D01*
X122274500Y-89954984D01*
X122274500Y-91655015D01*
X122285000Y-91757795D01*
X122285001Y-91757797D01*
X122312593Y-91841065D01*
X122340186Y-91924335D01*
X122340187Y-91924337D01*
X122432286Y-92073651D01*
X122432289Y-92073655D01*
X122556344Y-92197710D01*
X122556348Y-92197713D01*
X122701041Y-92286962D01*
X122747766Y-92338910D01*
X122758987Y-92407873D01*
X122731144Y-92471954D01*
X122701041Y-92498038D01*
X122556348Y-92587286D01*
X122556344Y-92587289D01*
X122432289Y-92711344D01*
X122432286Y-92711348D01*
X122340187Y-92860662D01*
X122340186Y-92860664D01*
X122285001Y-93027203D01*
X122285000Y-93027204D01*
X122274500Y-93129984D01*
X122274500Y-94830015D01*
X122285000Y-94932795D01*
X122285001Y-94932796D01*
X122340186Y-95099335D01*
X122340187Y-95099337D01*
X122432286Y-95248651D01*
X122432289Y-95248655D01*
X122556344Y-95372710D01*
X122556348Y-95372713D01*
X122701041Y-95461962D01*
X122747766Y-95513910D01*
X122758987Y-95582873D01*
X122731144Y-95646954D01*
X122701041Y-95673038D01*
X122556348Y-95762286D01*
X122556344Y-95762289D01*
X122432289Y-95886344D01*
X122432286Y-95886348D01*
X122340187Y-96035662D01*
X122340186Y-96035664D01*
X122285001Y-96202203D01*
X122285000Y-96202204D01*
X122274500Y-96304984D01*
X122274500Y-98005015D01*
X122285000Y-98107795D01*
X122285001Y-98107796D01*
X122340186Y-98274335D01*
X122340187Y-98274337D01*
X122432286Y-98423651D01*
X122432289Y-98423655D01*
X122556344Y-98547710D01*
X122556348Y-98547713D01*
X122701041Y-98636962D01*
X122747766Y-98688910D01*
X122758987Y-98757873D01*
X122731144Y-98821954D01*
X122701041Y-98848038D01*
X122556348Y-98937286D01*
X122556344Y-98937289D01*
X122432289Y-99061344D01*
X122432286Y-99061348D01*
X122340187Y-99210662D01*
X122340186Y-99210664D01*
X122285001Y-99377203D01*
X122285000Y-99377204D01*
X122274500Y-99479984D01*
X122274500Y-99580500D01*
X122254815Y-99647539D01*
X122202011Y-99693294D01*
X122150500Y-99704500D01*
X120085847Y-99704500D01*
X120062615Y-99702304D01*
X120054588Y-99700773D01*
X120054586Y-99700773D01*
X120045633Y-99701336D01*
X119997275Y-99704378D01*
X119993403Y-99704500D01*
X119975643Y-99704500D01*
X119958032Y-99706725D01*
X119954164Y-99707090D01*
X119922375Y-99709090D01*
X119896859Y-99710696D01*
X119889085Y-99713222D01*
X119866320Y-99718310D01*
X119858218Y-99719333D01*
X119858205Y-99719337D01*
X119804810Y-99740477D01*
X119801154Y-99741792D01*
X119746559Y-99759533D01*
X119746556Y-99759534D01*
X119739652Y-99763915D01*
X119718880Y-99774499D01*
X119711273Y-99777511D01*
X119711262Y-99777517D01*
X119664814Y-99811263D01*
X119661595Y-99813451D01*
X119613123Y-99844213D01*
X119613120Y-99844216D01*
X119607529Y-99850170D01*
X119590029Y-99865599D01*
X119583413Y-99870405D01*
X119583412Y-99870406D01*
X119546812Y-99914646D01*
X119544238Y-99917565D01*
X119504937Y-99959417D01*
X119504935Y-99959420D01*
X119500994Y-99966589D01*
X119487889Y-99985873D01*
X119482677Y-99992173D01*
X119482674Y-99992178D01*
X119458231Y-100044121D01*
X119456464Y-100047589D01*
X119428804Y-100097903D01*
X119428803Y-100097908D01*
X119426769Y-100105828D01*
X119418870Y-100127768D01*
X119415386Y-100135172D01*
X119415384Y-100135178D01*
X119404629Y-100191561D01*
X119403779Y-100195361D01*
X119389500Y-100250976D01*
X119389500Y-100259152D01*
X119387305Y-100282379D01*
X119385773Y-100290412D01*
X119389378Y-100347724D01*
X119389500Y-100351595D01*
X119389500Y-110375500D01*
X119369815Y-110442539D01*
X119317011Y-110488294D01*
X119265500Y-110499500D01*
X113735847Y-110499500D01*
X113712615Y-110497304D01*
X113704588Y-110495773D01*
X113704586Y-110495773D01*
X113695633Y-110496336D01*
X113647275Y-110499378D01*
X113643403Y-110499500D01*
X113625643Y-110499500D01*
X113608032Y-110501725D01*
X113604164Y-110502090D01*
X113572375Y-110504090D01*
X113546859Y-110505696D01*
X113539085Y-110508222D01*
X113516320Y-110513310D01*
X113508218Y-110514333D01*
X113508205Y-110514337D01*
X113454810Y-110535477D01*
X113451154Y-110536792D01*
X113396559Y-110554533D01*
X113396556Y-110554534D01*
X113389652Y-110558915D01*
X113368880Y-110569499D01*
X113361273Y-110572511D01*
X113361262Y-110572517D01*
X113314814Y-110606263D01*
X113311595Y-110608451D01*
X113263123Y-110639213D01*
X113263120Y-110639216D01*
X113257529Y-110645170D01*
X113240029Y-110660599D01*
X113233413Y-110665405D01*
X113233412Y-110665406D01*
X113196812Y-110709646D01*
X113194238Y-110712565D01*
X113154937Y-110754417D01*
X113154935Y-110754420D01*
X113150994Y-110761589D01*
X113137889Y-110780873D01*
X113132677Y-110787173D01*
X113132674Y-110787178D01*
X113108231Y-110839121D01*
X113106464Y-110842589D01*
X113078804Y-110892903D01*
X113078803Y-110892908D01*
X113076769Y-110900828D01*
X113068870Y-110922768D01*
X113065386Y-110930172D01*
X113065384Y-110930178D01*
X113054629Y-110986561D01*
X113053779Y-110990361D01*
X113039500Y-111045976D01*
X113039500Y-111054152D01*
X113037305Y-111077379D01*
X113035773Y-111085412D01*
X113039378Y-111142724D01*
X113039500Y-111146595D01*
X113039500Y-114680500D01*
X113019815Y-114747539D01*
X112967011Y-114793294D01*
X112915501Y-114804500D01*
X112717130Y-114804500D01*
X112717123Y-114804501D01*
X112657516Y-114810908D01*
X112522671Y-114861202D01*
X112522664Y-114861206D01*
X112407455Y-114947452D01*
X112407452Y-114947455D01*
X112321206Y-115062664D01*
X112321202Y-115062671D01*
X112270908Y-115197517D01*
X112265018Y-115252310D01*
X112264501Y-115257123D01*
X112264500Y-115257135D01*
X112264500Y-117152870D01*
X109852963Y-117152870D01*
X109853981Y-117110103D01*
X109884410Y-117060179D01*
X111508788Y-115435801D01*
X111521042Y-115425986D01*
X111520859Y-115425764D01*
X111526866Y-115420792D01*
X111526877Y-115420786D01*
X111557775Y-115387882D01*
X111574227Y-115370364D01*
X111584671Y-115359918D01*
X111595120Y-115349471D01*
X111599379Y-115343978D01*
X111603152Y-115339561D01*
X111635062Y-115305582D01*
X111644713Y-115288024D01*
X111655396Y-115271761D01*
X111667673Y-115255936D01*
X111686185Y-115213153D01*
X111688738Y-115207941D01*
X111711197Y-115167092D01*
X111716180Y-115147680D01*
X111722481Y-115129280D01*
X111730437Y-115110896D01*
X111737729Y-115064852D01*
X111738906Y-115059171D01*
X111750500Y-115014019D01*
X111750500Y-114993983D01*
X111752027Y-114974582D01*
X111755160Y-114954804D01*
X111750775Y-114908415D01*
X111750500Y-114902577D01*
X111750500Y-106295000D01*
X112284117Y-106295000D01*
X112336317Y-106501135D01*
X112429516Y-106713609D01*
X112556414Y-106907842D01*
X112713558Y-107078545D01*
X112713562Y-107078548D01*
X112896644Y-107221047D01*
X112896648Y-107221050D01*
X113100697Y-107331476D01*
X113100706Y-107331479D01*
X113320139Y-107406811D01*
X113414999Y-107422640D01*
X113415000Y-107422639D01*
X113415000Y-106419189D01*
X113467547Y-106455016D01*
X113597173Y-106495000D01*
X113698724Y-106495000D01*
X113799138Y-106479865D01*
X113915000Y-106424068D01*
X113915000Y-107422640D01*
X114009860Y-107406811D01*
X114229293Y-107331479D01*
X114229302Y-107331476D01*
X114433351Y-107221050D01*
X114433355Y-107221047D01*
X114616437Y-107078548D01*
X114616441Y-107078545D01*
X114773585Y-106907842D01*
X114900483Y-106713609D01*
X114993682Y-106501135D01*
X115045883Y-106295000D01*
X116094117Y-106295000D01*
X116146317Y-106501135D01*
X116239516Y-106713609D01*
X116366414Y-106907842D01*
X116523558Y-107078545D01*
X116523562Y-107078548D01*
X116706644Y-107221047D01*
X116706648Y-107221050D01*
X116910697Y-107331476D01*
X116910706Y-107331479D01*
X117130139Y-107406811D01*
X117224999Y-107422640D01*
X117225000Y-107422639D01*
X117225000Y-106419189D01*
X117277547Y-106455016D01*
X117407173Y-106495000D01*
X117508724Y-106495000D01*
X117609138Y-106479865D01*
X117725000Y-106424068D01*
X117725000Y-107422640D01*
X117819860Y-107406811D01*
X118039293Y-107331479D01*
X118039302Y-107331476D01*
X118243351Y-107221050D01*
X118243355Y-107221047D01*
X118426437Y-107078548D01*
X118426441Y-107078545D01*
X118583585Y-106907842D01*
X118710483Y-106713609D01*
X118803682Y-106501135D01*
X118855883Y-106295000D01*
X117850278Y-106295000D01*
X117898625Y-106211260D01*
X117928810Y-106079008D01*
X117918673Y-105943735D01*
X117869113Y-105817459D01*
X117851203Y-105795000D01*
X118855883Y-105795000D01*
X118803682Y-105588864D01*
X118710483Y-105376390D01*
X118583585Y-105182157D01*
X118426441Y-105011454D01*
X118426437Y-105011451D01*
X118243355Y-104868952D01*
X118243351Y-104868949D01*
X118039302Y-104758523D01*
X118039293Y-104758520D01*
X117819861Y-104683188D01*
X117725000Y-104667359D01*
X117725000Y-105670810D01*
X117672453Y-105634984D01*
X117542827Y-105595000D01*
X117441276Y-105595000D01*
X117340862Y-105610135D01*
X117225000Y-105665931D01*
X117225000Y-104667359D01*
X117224999Y-104667359D01*
X117130138Y-104683188D01*
X116910706Y-104758520D01*
X116910697Y-104758523D01*
X116706648Y-104868949D01*
X116706644Y-104868952D01*
X116523562Y-105011451D01*
X116523558Y-105011454D01*
X116366414Y-105182157D01*
X116239516Y-105376390D01*
X116146317Y-105588864D01*
X116094117Y-105795000D01*
X117099722Y-105795000D01*
X117051375Y-105878740D01*
X117021190Y-106010992D01*
X117031327Y-106146265D01*
X117080887Y-106272541D01*
X117098797Y-106295000D01*
X116094117Y-106295000D01*
X115045883Y-106295000D01*
X114040278Y-106295000D01*
X114088625Y-106211260D01*
X114118810Y-106079008D01*
X114108673Y-105943735D01*
X114059113Y-105817459D01*
X114041203Y-105795000D01*
X115045883Y-105795000D01*
X114993682Y-105588864D01*
X114900483Y-105376390D01*
X114773585Y-105182157D01*
X114616441Y-105011454D01*
X114616437Y-105011451D01*
X114433355Y-104868952D01*
X114433351Y-104868949D01*
X114229302Y-104758523D01*
X114229293Y-104758520D01*
X114009861Y-104683188D01*
X113915000Y-104667359D01*
X113915000Y-105670810D01*
X113862453Y-105634984D01*
X113732827Y-105595000D01*
X113631276Y-105595000D01*
X113530862Y-105610135D01*
X113415000Y-105665931D01*
X113415000Y-104667359D01*
X113414999Y-104667359D01*
X113320138Y-104683188D01*
X113100706Y-104758520D01*
X113100697Y-104758523D01*
X112896648Y-104868949D01*
X112896644Y-104868952D01*
X112713562Y-105011451D01*
X112713558Y-105011454D01*
X112556414Y-105182157D01*
X112429516Y-105376390D01*
X112336317Y-105588864D01*
X112284117Y-105795000D01*
X113289722Y-105795000D01*
X113241375Y-105878740D01*
X113211190Y-106010992D01*
X113221327Y-106146265D01*
X113270887Y-106272541D01*
X113288797Y-106295000D01*
X112284117Y-106295000D01*
X111750500Y-106295000D01*
X111750500Y-103815452D01*
X111770185Y-103748413D01*
X111786819Y-103727771D01*
X111983007Y-103531583D01*
X112183788Y-103330801D01*
X112196042Y-103320986D01*
X112195859Y-103320764D01*
X112201866Y-103315792D01*
X112201877Y-103315786D01*
X112242144Y-103272906D01*
X112249227Y-103265364D01*
X112259671Y-103254918D01*
X112270120Y-103244471D01*
X112274379Y-103238978D01*
X112278152Y-103234561D01*
X112310062Y-103200582D01*
X112319713Y-103183024D01*
X112330396Y-103166761D01*
X112342673Y-103150936D01*
X112361185Y-103108153D01*
X112363738Y-103102941D01*
X112386197Y-103062092D01*
X112391180Y-103042680D01*
X112397481Y-103024280D01*
X112405437Y-103005896D01*
X112412729Y-102959852D01*
X112413906Y-102954171D01*
X112425500Y-102909019D01*
X112425500Y-102888983D01*
X112427027Y-102869582D01*
X112427231Y-102868294D01*
X112430160Y-102849804D01*
X112425775Y-102803415D01*
X112425500Y-102797577D01*
X112425500Y-101754499D01*
X112445185Y-101687460D01*
X112497989Y-101641705D01*
X112549500Y-101630499D01*
X112647871Y-101630499D01*
X112647872Y-101630499D01*
X112707483Y-101624091D01*
X112842331Y-101573796D01*
X112957546Y-101487546D01*
X113043796Y-101372331D01*
X113094091Y-101237483D01*
X113094092Y-101237472D01*
X113095365Y-101232088D01*
X113129933Y-101171369D01*
X113191841Y-101138978D01*
X113261433Y-101145199D01*
X113303725Y-101172912D01*
X113460858Y-101330045D01*
X113460861Y-101330047D01*
X113647266Y-101460568D01*
X113853504Y-101556739D01*
X114073308Y-101615635D01*
X114235230Y-101629801D01*
X114299998Y-101635468D01*
X114300000Y-101635468D01*
X114300002Y-101635468D01*
X114356807Y-101630498D01*
X114526692Y-101615635D01*
X114746496Y-101556739D01*
X114952734Y-101460568D01*
X115139139Y-101330047D01*
X115300047Y-101169139D01*
X115430568Y-100982734D01*
X115526739Y-100776496D01*
X115585635Y-100556692D01*
X115605468Y-100330000D01*
X115602004Y-100290412D01*
X115598554Y-100250976D01*
X115585635Y-100103308D01*
X115526739Y-99883504D01*
X115430568Y-99677266D01*
X115300047Y-99490861D01*
X115300045Y-99490858D01*
X115139141Y-99329954D01*
X114952734Y-99199432D01*
X114952732Y-99199431D01*
X114746497Y-99103261D01*
X114746488Y-99103258D01*
X114526697Y-99044366D01*
X114526693Y-99044365D01*
X114526692Y-99044365D01*
X114526691Y-99044364D01*
X114526686Y-99044364D01*
X114300002Y-99024532D01*
X114299998Y-99024532D01*
X114073313Y-99044364D01*
X114073302Y-99044366D01*
X113853511Y-99103258D01*
X113853502Y-99103261D01*
X113647267Y-99199431D01*
X113647265Y-99199432D01*
X113460862Y-99329951D01*
X113303726Y-99487087D01*
X113242403Y-99520571D01*
X113172711Y-99515587D01*
X113116778Y-99473715D01*
X113095369Y-99427923D01*
X113094091Y-99422518D01*
X113043797Y-99287671D01*
X113043793Y-99287664D01*
X112957547Y-99172455D01*
X112957544Y-99172452D01*
X112842335Y-99086206D01*
X112842328Y-99086202D01*
X112707482Y-99035908D01*
X112707483Y-99035908D01*
X112647883Y-99029501D01*
X112647881Y-99029500D01*
X112647873Y-99029500D01*
X112647864Y-99029500D01*
X110952129Y-99029500D01*
X110952123Y-99029501D01*
X110892516Y-99035908D01*
X110757671Y-99086202D01*
X110757664Y-99086206D01*
X110642455Y-99172452D01*
X110642452Y-99172455D01*
X110556206Y-99287664D01*
X110556202Y-99287671D01*
X110505908Y-99422517D01*
X110499501Y-99482116D01*
X110499500Y-99482135D01*
X110499500Y-101177870D01*
X110499501Y-101177876D01*
X110505908Y-101237483D01*
X110556202Y-101372328D01*
X110556206Y-101372335D01*
X110642452Y-101487544D01*
X110642455Y-101487547D01*
X110757664Y-101573793D01*
X110757671Y-101573797D01*
X110795757Y-101588002D01*
X110892517Y-101624091D01*
X110952127Y-101630500D01*
X111050500Y-101630499D01*
X111117538Y-101650183D01*
X111163294Y-101702986D01*
X111174500Y-101754499D01*
X111174500Y-102519546D01*
X111154815Y-102586585D01*
X111138181Y-102607227D01*
X110741208Y-103004199D01*
X110728951Y-103014020D01*
X110729134Y-103014241D01*
X110723123Y-103019213D01*
X110675772Y-103069636D01*
X110654889Y-103090519D01*
X110654877Y-103090532D01*
X110650621Y-103096017D01*
X110646837Y-103100447D01*
X110614937Y-103134418D01*
X110614936Y-103134420D01*
X110605284Y-103151976D01*
X110594610Y-103168226D01*
X110582329Y-103184061D01*
X110582324Y-103184068D01*
X110563815Y-103226838D01*
X110561245Y-103232084D01*
X110538803Y-103272906D01*
X110533822Y-103292307D01*
X110527521Y-103310710D01*
X110519562Y-103329102D01*
X110519561Y-103329105D01*
X110512271Y-103375127D01*
X110511087Y-103380846D01*
X110499501Y-103425972D01*
X110499500Y-103425982D01*
X110499500Y-103446016D01*
X110497973Y-103465415D01*
X110494840Y-103485194D01*
X110494840Y-103485195D01*
X110499225Y-103531583D01*
X110499500Y-103537421D01*
X110499500Y-114624546D01*
X110479815Y-114691585D01*
X110463181Y-114712227D01*
X108999821Y-116175586D01*
X108938498Y-116209071D01*
X108880048Y-116207680D01*
X108811697Y-116189366D01*
X108811693Y-116189365D01*
X108811692Y-116189365D01*
X108698346Y-116179448D01*
X108585001Y-116169532D01*
X108584998Y-116169532D01*
X108358313Y-116189364D01*
X108358302Y-116189366D01*
X108138511Y-116248258D01*
X108138502Y-116248261D01*
X107932267Y-116344431D01*
X107932265Y-116344432D01*
X107745858Y-116474954D01*
X107584954Y-116635858D01*
X107472387Y-116796623D01*
X107417811Y-116840248D01*
X107370812Y-116849500D01*
X105989188Y-116849500D01*
X105922149Y-116829815D01*
X105887613Y-116796623D01*
X105775045Y-116635858D01*
X105614141Y-116474954D01*
X105427734Y-116344432D01*
X105427732Y-116344431D01*
X105221497Y-116248261D01*
X105221488Y-116248258D01*
X105001697Y-116189366D01*
X105001693Y-116189365D01*
X105001692Y-116189365D01*
X105001691Y-116189364D01*
X105001686Y-116189364D01*
X104775002Y-116169532D01*
X104774998Y-116169532D01*
X104548313Y-116189364D01*
X104548302Y-116189366D01*
X104328511Y-116248258D01*
X104328502Y-116248261D01*
X104122267Y-116344431D01*
X104122265Y-116344432D01*
X103935858Y-116474954D01*
X103774954Y-116635858D01*
X103644432Y-116822265D01*
X103644431Y-116822267D01*
X103548261Y-117028502D01*
X103548258Y-117028511D01*
X103489366Y-117248302D01*
X103489364Y-117248313D01*
X103469532Y-117474998D01*
X103469532Y-117475001D01*
X102270468Y-117475001D01*
X102270468Y-117475000D01*
X102269378Y-117462546D01*
X102257268Y-117324123D01*
X102250635Y-117248308D01*
X102191739Y-117028504D01*
X102095568Y-116822266D01*
X101965047Y-116635861D01*
X101965045Y-116635858D01*
X101804141Y-116474954D01*
X101617734Y-116344432D01*
X101617732Y-116344431D01*
X101411497Y-116248261D01*
X101411488Y-116248258D01*
X101191697Y-116189366D01*
X101191693Y-116189365D01*
X101191692Y-116189365D01*
X101191691Y-116189364D01*
X101191686Y-116189364D01*
X100965002Y-116169532D01*
X100964998Y-116169532D01*
X100738313Y-116189364D01*
X100738302Y-116189366D01*
X100518511Y-116248258D01*
X100518502Y-116248261D01*
X100312267Y-116344431D01*
X100312265Y-116344432D01*
X100125858Y-116474954D01*
X99964954Y-116635858D01*
X99834432Y-116822265D01*
X99834431Y-116822267D01*
X99738261Y-117028502D01*
X99738258Y-117028511D01*
X99679366Y-117248302D01*
X99679364Y-117248313D01*
X99659532Y-117474998D01*
X99659532Y-117475001D01*
X98460468Y-117475001D01*
X98460468Y-117475000D01*
X98459378Y-117462546D01*
X98447268Y-117324123D01*
X98440635Y-117248308D01*
X98381739Y-117028504D01*
X98285568Y-116822266D01*
X98155047Y-116635861D01*
X98155045Y-116635858D01*
X97994141Y-116474954D01*
X97807734Y-116344432D01*
X97807732Y-116344431D01*
X97601497Y-116248261D01*
X97601488Y-116248258D01*
X97381697Y-116189366D01*
X97381693Y-116189365D01*
X97381692Y-116189365D01*
X97381691Y-116189364D01*
X97381686Y-116189364D01*
X97155002Y-116169532D01*
X97154998Y-116169532D01*
X96928313Y-116189364D01*
X96928302Y-116189366D01*
X96708511Y-116248258D01*
X96708502Y-116248261D01*
X96502267Y-116344431D01*
X96502265Y-116344432D01*
X96315858Y-116474954D01*
X96154954Y-116635858D01*
X96024432Y-116822265D01*
X96024431Y-116822267D01*
X95928261Y-117028502D01*
X95928258Y-117028511D01*
X95869366Y-117248302D01*
X95869364Y-117248313D01*
X95849532Y-117474998D01*
X95849532Y-117475001D01*
X94650468Y-117475001D01*
X94650468Y-117475000D01*
X94649378Y-117462546D01*
X94637268Y-117324123D01*
X94630635Y-117248308D01*
X94571739Y-117028504D01*
X94475568Y-116822266D01*
X94345047Y-116635861D01*
X94345045Y-116635858D01*
X94184141Y-116474954D01*
X93997734Y-116344432D01*
X93997732Y-116344431D01*
X93791497Y-116248261D01*
X93791488Y-116248258D01*
X93571697Y-116189366D01*
X93571693Y-116189365D01*
X93571692Y-116189365D01*
X93571691Y-116189364D01*
X93571686Y-116189364D01*
X93345002Y-116169532D01*
X93344998Y-116169532D01*
X93118313Y-116189364D01*
X93118302Y-116189366D01*
X92898511Y-116248258D01*
X92898502Y-116248261D01*
X92692267Y-116344431D01*
X92692265Y-116344432D01*
X92505858Y-116474954D01*
X92344954Y-116635858D01*
X92214432Y-116822265D01*
X92214431Y-116822267D01*
X92118261Y-117028502D01*
X92118258Y-117028511D01*
X92059366Y-117248302D01*
X92059364Y-117248313D01*
X92039532Y-117474998D01*
X92039532Y-117475001D01*
X90840468Y-117475001D01*
X90840468Y-117475000D01*
X90839378Y-117462546D01*
X90827268Y-117324123D01*
X90820635Y-117248308D01*
X90761739Y-117028504D01*
X90665568Y-116822266D01*
X90535047Y-116635861D01*
X90535045Y-116635858D01*
X90374141Y-116474954D01*
X90187734Y-116344432D01*
X90187732Y-116344431D01*
X89981497Y-116248261D01*
X89981488Y-116248258D01*
X89761697Y-116189366D01*
X89761693Y-116189365D01*
X89761692Y-116189365D01*
X89761691Y-116189364D01*
X89761686Y-116189364D01*
X89535002Y-116169532D01*
X89534998Y-116169532D01*
X89308313Y-116189364D01*
X89308302Y-116189366D01*
X89088511Y-116248258D01*
X89088502Y-116248261D01*
X88882267Y-116344431D01*
X88882265Y-116344432D01*
X88695858Y-116474954D01*
X88534954Y-116635858D01*
X88404432Y-116822265D01*
X88404431Y-116822267D01*
X88308261Y-117028502D01*
X88308258Y-117028511D01*
X88249366Y-117248302D01*
X88249364Y-117248313D01*
X88229532Y-117474998D01*
X88229532Y-117475001D01*
X84100500Y-117475001D01*
X84100500Y-116624992D01*
X84089999Y-116522203D01*
X84034814Y-116355666D01*
X84027884Y-116344431D01*
X83942713Y-116206348D01*
X83942710Y-116206344D01*
X83818655Y-116082289D01*
X83818651Y-116082286D01*
X83669337Y-115990187D01*
X83669335Y-115990186D01*
X83563150Y-115955000D01*
X83502797Y-115935001D01*
X83502795Y-115935000D01*
X83400015Y-115924500D01*
X83400008Y-115924500D01*
X81699992Y-115924500D01*
X81699984Y-115924500D01*
X81597204Y-115935000D01*
X81597203Y-115935001D01*
X81430664Y-115990186D01*
X81430662Y-115990187D01*
X81281348Y-116082286D01*
X81281344Y-116082289D01*
X81157289Y-116206344D01*
X81157286Y-116206348D01*
X81065187Y-116355662D01*
X81065186Y-116355664D01*
X81010001Y-116522203D01*
X81010000Y-116522204D01*
X80999500Y-116624984D01*
X80999500Y-118325015D01*
X80010500Y-118325015D01*
X80010500Y-114514985D01*
X81000000Y-114514985D01*
X81010493Y-114617689D01*
X81010494Y-114617696D01*
X81065641Y-114784118D01*
X81065643Y-114784123D01*
X81157684Y-114933344D01*
X81281655Y-115057315D01*
X81430876Y-115149356D01*
X81430881Y-115149358D01*
X81597303Y-115204505D01*
X81597310Y-115204506D01*
X81700014Y-115214999D01*
X81700027Y-115215000D01*
X82300000Y-115215000D01*
X82300000Y-114156683D01*
X82328819Y-114174209D01*
X82474404Y-114215000D01*
X82587622Y-114215000D01*
X82699783Y-114199584D01*
X82800000Y-114156053D01*
X82800000Y-115215000D01*
X83399973Y-115215000D01*
X83399985Y-115214999D01*
X83502689Y-115204506D01*
X83502696Y-115204505D01*
X83669118Y-115149358D01*
X83669123Y-115149356D01*
X83818344Y-115057315D01*
X83942315Y-114933344D01*
X84034356Y-114784123D01*
X84034358Y-114784118D01*
X84089505Y-114617696D01*
X84089506Y-114617689D01*
X84099999Y-114514985D01*
X84100000Y-114514972D01*
X84100000Y-113915000D01*
X83044852Y-113915000D01*
X83093559Y-113777953D01*
X83103877Y-113627114D01*
X83073116Y-113479085D01*
X83039910Y-113415000D01*
X84100000Y-113415000D01*
X84100000Y-112815027D01*
X84099999Y-112815014D01*
X84089506Y-112712310D01*
X84089505Y-112712303D01*
X84034358Y-112545881D01*
X84034356Y-112545876D01*
X83942315Y-112396655D01*
X83818344Y-112272684D01*
X83669123Y-112180643D01*
X83669118Y-112180641D01*
X83502696Y-112125494D01*
X83502689Y-112125493D01*
X83399985Y-112115000D01*
X82800000Y-112115000D01*
X82800000Y-113173316D01*
X82771181Y-113155791D01*
X82625596Y-113115000D01*
X82512378Y-113115000D01*
X82400217Y-113130416D01*
X82300000Y-113173946D01*
X82300000Y-112115000D01*
X81700014Y-112115000D01*
X81597310Y-112125493D01*
X81597303Y-112125494D01*
X81430881Y-112180641D01*
X81430876Y-112180643D01*
X81281655Y-112272684D01*
X81157684Y-112396655D01*
X81065643Y-112545876D01*
X81065641Y-112545881D01*
X81010494Y-112712303D01*
X81010493Y-112712310D01*
X81000000Y-112815014D01*
X81000000Y-113415000D01*
X82055148Y-113415000D01*
X82006441Y-113552047D01*
X81996123Y-113702886D01*
X82026884Y-113850915D01*
X82060090Y-113915000D01*
X81000000Y-113915000D01*
X81000000Y-114514985D01*
X80010500Y-114514985D01*
X80010500Y-109435015D01*
X80999500Y-109435015D01*
X81010000Y-109537795D01*
X81010001Y-109537796D01*
X81065186Y-109704335D01*
X81065187Y-109704337D01*
X81157286Y-109853651D01*
X81157289Y-109853655D01*
X81281344Y-109977710D01*
X81281348Y-109977713D01*
X81430662Y-110069812D01*
X81430664Y-110069813D01*
X81430666Y-110069814D01*
X81597203Y-110124999D01*
X81699992Y-110135500D01*
X81699997Y-110135500D01*
X83400003Y-110135500D01*
X83400008Y-110135500D01*
X83502797Y-110124999D01*
X83669334Y-110069814D01*
X83818655Y-109977711D01*
X83942711Y-109853655D01*
X84034814Y-109704334D01*
X84089999Y-109537797D01*
X84100500Y-109435008D01*
X84100500Y-107734992D01*
X84089999Y-107632203D01*
X84034814Y-107465666D01*
X84033584Y-107463672D01*
X83942713Y-107316348D01*
X83942710Y-107316344D01*
X83818655Y-107192289D01*
X83818651Y-107192286D01*
X83673958Y-107103038D01*
X83627233Y-107051090D01*
X83616012Y-106982128D01*
X83643855Y-106918046D01*
X83673958Y-106891962D01*
X83716186Y-106865915D01*
X83818655Y-106802711D01*
X83942711Y-106678655D01*
X84034814Y-106529334D01*
X84089999Y-106362797D01*
X84100500Y-106260008D01*
X84100500Y-104559992D01*
X84089999Y-104457203D01*
X84034814Y-104290666D01*
X84012506Y-104254500D01*
X83942713Y-104141348D01*
X83942710Y-104141344D01*
X83818655Y-104017289D01*
X83818651Y-104017286D01*
X83673958Y-103928038D01*
X83627233Y-103876090D01*
X83616012Y-103807128D01*
X83643855Y-103743046D01*
X83673958Y-103716962D01*
X83707163Y-103696480D01*
X83818655Y-103627711D01*
X83942711Y-103503655D01*
X84034814Y-103354334D01*
X84089999Y-103187797D01*
X84100500Y-103085008D01*
X84100500Y-101384992D01*
X84089999Y-101282203D01*
X84034814Y-101115666D01*
X84012506Y-101079500D01*
X83942713Y-100966348D01*
X83942710Y-100966344D01*
X83818655Y-100842289D01*
X83818651Y-100842286D01*
X83673958Y-100753038D01*
X83627233Y-100701090D01*
X83616012Y-100632128D01*
X83643855Y-100568046D01*
X83673958Y-100541962D01*
X83707163Y-100521480D01*
X83818655Y-100452711D01*
X83942711Y-100328655D01*
X84034814Y-100179334D01*
X84089999Y-100012797D01*
X84100500Y-99910008D01*
X84100500Y-98209992D01*
X84089999Y-98107203D01*
X84034814Y-97940666D01*
X83983266Y-97857095D01*
X83942713Y-97791348D01*
X83942710Y-97791344D01*
X83818655Y-97667289D01*
X83818651Y-97667286D01*
X83673958Y-97578038D01*
X83627233Y-97526090D01*
X83616012Y-97457128D01*
X83643855Y-97393046D01*
X83673958Y-97366962D01*
X83742351Y-97324776D01*
X83818655Y-97277711D01*
X83942711Y-97153655D01*
X84034814Y-97004334D01*
X84089999Y-96837797D01*
X84100500Y-96735008D01*
X84100500Y-95034992D01*
X84089999Y-94932203D01*
X84034814Y-94765666D01*
X83942711Y-94616345D01*
X83818655Y-94492289D01*
X83818651Y-94492286D01*
X83673958Y-94403038D01*
X83627233Y-94351090D01*
X83616012Y-94282128D01*
X83643855Y-94218046D01*
X83673958Y-94191962D01*
X83714460Y-94166980D01*
X83818655Y-94102711D01*
X83942711Y-93978655D01*
X84034814Y-93829334D01*
X84089999Y-93662797D01*
X84100500Y-93560008D01*
X84100500Y-91859992D01*
X84089999Y-91757203D01*
X84034814Y-91590666D01*
X84005280Y-91542785D01*
X83942713Y-91441348D01*
X83942710Y-91441344D01*
X83818655Y-91317289D01*
X83818651Y-91317286D01*
X83673958Y-91228038D01*
X83627233Y-91176090D01*
X83616012Y-91107128D01*
X83643855Y-91043046D01*
X83673958Y-91016962D01*
X83757187Y-90965625D01*
X83818655Y-90927711D01*
X83942711Y-90803655D01*
X84034814Y-90654334D01*
X84089999Y-90487797D01*
X84100500Y-90385008D01*
X84100500Y-90284500D01*
X84120185Y-90217461D01*
X84172989Y-90171706D01*
X84224500Y-90160500D01*
X86880500Y-90160500D01*
X86947539Y-90180185D01*
X86993294Y-90232989D01*
X87004500Y-90284500D01*
X87004500Y-107244152D01*
X87002305Y-107267379D01*
X87000773Y-107275412D01*
X87004378Y-107332724D01*
X87004500Y-107336595D01*
X87004500Y-107354356D01*
X87006725Y-107371968D01*
X87007090Y-107375837D01*
X87010035Y-107422639D01*
X87010696Y-107433138D01*
X87013222Y-107440914D01*
X87018309Y-107463672D01*
X87019334Y-107471784D01*
X87019336Y-107471792D01*
X87040469Y-107525170D01*
X87041788Y-107528833D01*
X87059532Y-107583440D01*
X87063907Y-107590333D01*
X87074503Y-107611129D01*
X87077511Y-107618726D01*
X87077513Y-107618731D01*
X87111265Y-107665187D01*
X87113455Y-107668409D01*
X87144213Y-107716876D01*
X87150164Y-107722464D01*
X87165604Y-107739978D01*
X87170403Y-107746585D01*
X87214647Y-107783187D01*
X87217567Y-107785761D01*
X87259418Y-107825062D01*
X87266578Y-107828998D01*
X87285879Y-107842114D01*
X87292177Y-107847324D01*
X87292178Y-107847324D01*
X87292179Y-107847325D01*
X87344125Y-107871769D01*
X87347597Y-107873538D01*
X87397903Y-107901195D01*
X87397905Y-107901195D01*
X87397908Y-107901197D01*
X87403205Y-107902556D01*
X87405814Y-107903227D01*
X87427777Y-107911133D01*
X87435174Y-107914614D01*
X87491576Y-107925373D01*
X87495362Y-107926219D01*
X87550981Y-107940500D01*
X87559153Y-107940500D01*
X87582385Y-107942696D01*
X87583989Y-107943001D01*
X87590412Y-107944227D01*
X87647724Y-107940621D01*
X87651597Y-107940500D01*
X88320812Y-107940500D01*
X88387851Y-107960185D01*
X88422387Y-107993377D01*
X88534954Y-108154141D01*
X88695858Y-108315045D01*
X88695861Y-108315047D01*
X88882266Y-108445568D01*
X89088504Y-108541739D01*
X89308308Y-108600635D01*
X89470230Y-108614801D01*
X89534998Y-108620468D01*
X89535000Y-108620468D01*
X89535002Y-108620468D01*
X89591673Y-108615509D01*
X89761692Y-108600635D01*
X89981496Y-108541739D01*
X90187734Y-108445568D01*
X90374139Y-108315047D01*
X90535047Y-108154139D01*
X90665568Y-107967734D01*
X90761739Y-107761496D01*
X90820635Y-107541692D01*
X90840468Y-107315001D01*
X92039532Y-107315001D01*
X92059364Y-107541686D01*
X92059366Y-107541697D01*
X92118258Y-107761488D01*
X92118261Y-107761497D01*
X92214431Y-107967732D01*
X92214432Y-107967734D01*
X92344954Y-108154141D01*
X92505858Y-108315045D01*
X92505861Y-108315047D01*
X92692266Y-108445568D01*
X92898504Y-108541739D01*
X93118308Y-108600635D01*
X93280230Y-108614801D01*
X93344998Y-108620468D01*
X93345000Y-108620468D01*
X93345002Y-108620468D01*
X93401673Y-108615509D01*
X93571692Y-108600635D01*
X93791496Y-108541739D01*
X93997734Y-108445568D01*
X94184139Y-108315047D01*
X94345047Y-108154139D01*
X94475568Y-107967734D01*
X94571739Y-107761496D01*
X94630635Y-107541692D01*
X94650468Y-107315001D01*
X95849532Y-107315001D01*
X95869364Y-107541686D01*
X95869366Y-107541697D01*
X95928258Y-107761488D01*
X95928261Y-107761497D01*
X96024431Y-107967732D01*
X96024432Y-107967734D01*
X96154954Y-108154141D01*
X96315858Y-108315045D01*
X96315861Y-108315047D01*
X96502266Y-108445568D01*
X96708504Y-108541739D01*
X96928308Y-108600635D01*
X97090230Y-108614801D01*
X97154998Y-108620468D01*
X97155000Y-108620468D01*
X97155002Y-108620468D01*
X97211673Y-108615509D01*
X97381692Y-108600635D01*
X97601496Y-108541739D01*
X97807734Y-108445568D01*
X97994139Y-108315047D01*
X98155047Y-108154139D01*
X98285568Y-107967734D01*
X98381739Y-107761496D01*
X98440635Y-107541692D01*
X98460468Y-107315001D01*
X99659532Y-107315001D01*
X99679364Y-107541686D01*
X99679366Y-107541697D01*
X99738258Y-107761488D01*
X99738261Y-107761497D01*
X99834431Y-107967732D01*
X99834432Y-107967734D01*
X99964954Y-108154141D01*
X100125858Y-108315045D01*
X100125861Y-108315047D01*
X100312266Y-108445568D01*
X100518504Y-108541739D01*
X100738308Y-108600635D01*
X100900230Y-108614801D01*
X100964998Y-108620468D01*
X100965000Y-108620468D01*
X100965002Y-108620468D01*
X101021673Y-108615509D01*
X101191692Y-108600635D01*
X101411496Y-108541739D01*
X101617734Y-108445568D01*
X101804139Y-108315047D01*
X101965047Y-108154139D01*
X102095568Y-107967734D01*
X102191739Y-107761496D01*
X102250635Y-107541692D01*
X102270468Y-107315001D01*
X103469532Y-107315001D01*
X103489364Y-107541686D01*
X103489366Y-107541697D01*
X103548258Y-107761488D01*
X103548261Y-107761497D01*
X103644431Y-107967732D01*
X103644432Y-107967734D01*
X103774954Y-108154141D01*
X103935858Y-108315045D01*
X103935861Y-108315047D01*
X104122266Y-108445568D01*
X104328504Y-108541739D01*
X104548308Y-108600635D01*
X104710230Y-108614801D01*
X104774998Y-108620468D01*
X104775000Y-108620468D01*
X104775002Y-108620468D01*
X104831673Y-108615509D01*
X105001692Y-108600635D01*
X105221496Y-108541739D01*
X105427734Y-108445568D01*
X105614139Y-108315047D01*
X105775047Y-108154139D01*
X105905568Y-107967734D01*
X106001739Y-107761496D01*
X106060635Y-107541692D01*
X106080468Y-107315002D01*
X107280034Y-107315002D01*
X107299858Y-107541599D01*
X107299860Y-107541610D01*
X107358730Y-107761317D01*
X107358734Y-107761326D01*
X107454865Y-107967481D01*
X107454866Y-107967483D01*
X107505973Y-108040471D01*
X107505974Y-108040472D01*
X108187046Y-107359399D01*
X108199835Y-107440148D01*
X108257359Y-107553045D01*
X108346955Y-107642641D01*
X108459852Y-107700165D01*
X108540599Y-107712953D01*
X107859526Y-108394025D01*
X107859526Y-108394026D01*
X107932512Y-108445131D01*
X107932516Y-108445133D01*
X108138673Y-108541265D01*
X108138682Y-108541269D01*
X108358389Y-108600139D01*
X108358400Y-108600141D01*
X108584998Y-108619966D01*
X108585002Y-108619966D01*
X108811599Y-108600141D01*
X108811610Y-108600139D01*
X109031317Y-108541269D01*
X109031331Y-108541264D01*
X109237478Y-108445136D01*
X109310472Y-108394025D01*
X108629401Y-107712953D01*
X108710148Y-107700165D01*
X108823045Y-107642641D01*
X108912641Y-107553045D01*
X108970165Y-107440148D01*
X108982953Y-107359400D01*
X109664025Y-108040472D01*
X109715136Y-107967478D01*
X109811264Y-107761331D01*
X109811269Y-107761317D01*
X109870139Y-107541610D01*
X109870141Y-107541599D01*
X109889966Y-107315002D01*
X109889966Y-107314997D01*
X109870141Y-107088400D01*
X109870139Y-107088389D01*
X109811269Y-106868682D01*
X109811265Y-106868673D01*
X109715133Y-106662516D01*
X109715131Y-106662512D01*
X109664026Y-106589526D01*
X109664025Y-106589526D01*
X108982953Y-107270598D01*
X108970165Y-107189852D01*
X108912641Y-107076955D01*
X108823045Y-106987359D01*
X108710148Y-106929835D01*
X108629400Y-106917046D01*
X109310472Y-106235974D01*
X109310471Y-106235973D01*
X109237483Y-106184866D01*
X109237481Y-106184865D01*
X109031326Y-106088734D01*
X109031317Y-106088730D01*
X108811610Y-106029860D01*
X108811599Y-106029858D01*
X108585002Y-106010034D01*
X108584998Y-106010034D01*
X108358400Y-106029858D01*
X108358389Y-106029860D01*
X108138682Y-106088730D01*
X108138673Y-106088734D01*
X107932513Y-106184868D01*
X107859527Y-106235972D01*
X107859526Y-106235973D01*
X108540600Y-106917046D01*
X108459852Y-106929835D01*
X108346955Y-106987359D01*
X108257359Y-107076955D01*
X108199835Y-107189852D01*
X108187046Y-107270599D01*
X107505973Y-106589526D01*
X107505972Y-106589527D01*
X107454868Y-106662513D01*
X107358734Y-106868673D01*
X107358730Y-106868682D01*
X107299860Y-107088389D01*
X107299858Y-107088400D01*
X107280034Y-107314997D01*
X107280034Y-107315002D01*
X106080468Y-107315002D01*
X106080468Y-107315000D01*
X106077004Y-107275412D01*
X106066413Y-107154349D01*
X106060635Y-107088308D01*
X106001739Y-106868504D01*
X105905568Y-106662266D01*
X105788448Y-106495000D01*
X105775045Y-106475858D01*
X105614141Y-106314954D01*
X105427734Y-106184432D01*
X105427732Y-106184431D01*
X105221497Y-106088261D01*
X105221488Y-106088258D01*
X105001697Y-106029366D01*
X105001693Y-106029365D01*
X105001692Y-106029365D01*
X105001691Y-106029364D01*
X105001686Y-106029364D01*
X104775002Y-106009532D01*
X104774998Y-106009532D01*
X104548313Y-106029364D01*
X104548302Y-106029366D01*
X104328511Y-106088258D01*
X104328502Y-106088261D01*
X104122267Y-106184431D01*
X104122265Y-106184432D01*
X103935858Y-106314954D01*
X103774954Y-106475858D01*
X103644432Y-106662265D01*
X103644431Y-106662267D01*
X103548261Y-106868502D01*
X103548258Y-106868511D01*
X103489366Y-107088302D01*
X103489364Y-107088313D01*
X103469532Y-107314998D01*
X103469532Y-107315001D01*
X102270468Y-107315001D01*
X102270468Y-107315000D01*
X102267004Y-107275412D01*
X102256413Y-107154349D01*
X102250635Y-107088308D01*
X102191739Y-106868504D01*
X102095568Y-106662266D01*
X101978448Y-106495000D01*
X101965045Y-106475858D01*
X101804141Y-106314954D01*
X101617734Y-106184432D01*
X101617732Y-106184431D01*
X101411497Y-106088261D01*
X101411488Y-106088258D01*
X101191697Y-106029366D01*
X101191693Y-106029365D01*
X101191692Y-106029365D01*
X101191691Y-106029364D01*
X101191686Y-106029364D01*
X100965002Y-106009532D01*
X100964998Y-106009532D01*
X100738313Y-106029364D01*
X100738302Y-106029366D01*
X100518511Y-106088258D01*
X100518502Y-106088261D01*
X100312267Y-106184431D01*
X100312265Y-106184432D01*
X100125858Y-106314954D01*
X99964954Y-106475858D01*
X99834432Y-106662265D01*
X99834431Y-106662267D01*
X99738261Y-106868502D01*
X99738258Y-106868511D01*
X99679366Y-107088302D01*
X99679364Y-107088313D01*
X99659532Y-107314998D01*
X99659532Y-107315001D01*
X98460468Y-107315001D01*
X98460468Y-107315000D01*
X98457004Y-107275412D01*
X98446413Y-107154349D01*
X98440635Y-107088308D01*
X98381739Y-106868504D01*
X98285568Y-106662266D01*
X98168448Y-106495000D01*
X98155045Y-106475858D01*
X97994141Y-106314954D01*
X97807734Y-106184432D01*
X97807732Y-106184431D01*
X97601497Y-106088261D01*
X97601488Y-106088258D01*
X97381697Y-106029366D01*
X97381693Y-106029365D01*
X97381692Y-106029365D01*
X97381691Y-106029364D01*
X97381686Y-106029364D01*
X97155002Y-106009532D01*
X97154998Y-106009532D01*
X96928313Y-106029364D01*
X96928302Y-106029366D01*
X96708511Y-106088258D01*
X96708502Y-106088261D01*
X96502267Y-106184431D01*
X96502265Y-106184432D01*
X96315858Y-106314954D01*
X96154954Y-106475858D01*
X96024432Y-106662265D01*
X96024431Y-106662267D01*
X95928261Y-106868502D01*
X95928258Y-106868511D01*
X95869366Y-107088302D01*
X95869364Y-107088313D01*
X95849532Y-107314998D01*
X95849532Y-107315001D01*
X94650468Y-107315001D01*
X94650468Y-107315000D01*
X94647004Y-107275412D01*
X94636413Y-107154349D01*
X94630635Y-107088308D01*
X94571739Y-106868504D01*
X94475568Y-106662266D01*
X94358448Y-106495000D01*
X94345045Y-106475858D01*
X94184141Y-106314954D01*
X93997734Y-106184432D01*
X93997732Y-106184431D01*
X93791497Y-106088261D01*
X93791488Y-106088258D01*
X93571697Y-106029366D01*
X93571693Y-106029365D01*
X93571692Y-106029365D01*
X93571691Y-106029364D01*
X93571686Y-106029364D01*
X93345002Y-106009532D01*
X93344998Y-106009532D01*
X93118313Y-106029364D01*
X93118302Y-106029366D01*
X92898511Y-106088258D01*
X92898502Y-106088261D01*
X92692267Y-106184431D01*
X92692265Y-106184432D01*
X92505858Y-106314954D01*
X92344954Y-106475858D01*
X92214432Y-106662265D01*
X92214431Y-106662267D01*
X92118261Y-106868502D01*
X92118258Y-106868511D01*
X92059366Y-107088302D01*
X92059364Y-107088313D01*
X92039532Y-107314998D01*
X92039532Y-107315001D01*
X90840468Y-107315001D01*
X90840468Y-107315000D01*
X90837004Y-107275412D01*
X90826413Y-107154349D01*
X90820635Y-107088308D01*
X90761739Y-106868504D01*
X90665568Y-106662266D01*
X90548448Y-106495000D01*
X90535045Y-106475858D01*
X90374141Y-106314954D01*
X90187734Y-106184432D01*
X90187732Y-106184431D01*
X89981497Y-106088261D01*
X89981488Y-106088258D01*
X89761697Y-106029366D01*
X89761693Y-106029365D01*
X89761692Y-106029365D01*
X89761691Y-106029364D01*
X89761686Y-106029364D01*
X89535002Y-106009532D01*
X89534998Y-106009532D01*
X89308313Y-106029364D01*
X89308302Y-106029366D01*
X89088511Y-106088258D01*
X89088502Y-106088261D01*
X88882267Y-106184431D01*
X88882265Y-106184432D01*
X88695858Y-106314954D01*
X88534956Y-106475856D01*
X88481075Y-106552807D01*
X88426498Y-106596431D01*
X88356999Y-106603624D01*
X88294645Y-106572102D01*
X88259231Y-106511872D01*
X88255500Y-106481683D01*
X88255500Y-92617132D01*
X88275185Y-92550093D01*
X88327989Y-92504338D01*
X88397147Y-92494394D01*
X88458541Y-92521589D01*
X88476310Y-92536289D01*
X88480632Y-92540222D01*
X88873181Y-92932771D01*
X88906666Y-92994094D01*
X88909500Y-93020452D01*
X88909500Y-93897255D01*
X88907775Y-93912872D01*
X88908061Y-93912899D01*
X88907326Y-93920665D01*
X88909500Y-93989814D01*
X88909500Y-94019343D01*
X88909501Y-94019360D01*
X88910368Y-94026231D01*
X88910826Y-94032050D01*
X88912290Y-94078624D01*
X88912291Y-94078627D01*
X88917880Y-94097867D01*
X88921824Y-94116911D01*
X88924336Y-94136791D01*
X88941490Y-94180119D01*
X88943382Y-94185647D01*
X88953532Y-94220583D01*
X88956382Y-94230390D01*
X88964377Y-94243910D01*
X88966580Y-94247634D01*
X88975138Y-94265103D01*
X88982514Y-94283732D01*
X89009898Y-94321423D01*
X89013106Y-94326307D01*
X89036827Y-94366416D01*
X89036833Y-94366424D01*
X89050990Y-94380580D01*
X89063628Y-94395376D01*
X89075405Y-94411586D01*
X89075406Y-94411587D01*
X89111309Y-94441288D01*
X89115620Y-94445210D01*
X89248503Y-94578093D01*
X89474396Y-94803987D01*
X89507881Y-94865310D01*
X89506490Y-94923760D01*
X89481602Y-95016648D01*
X89461186Y-95249999D01*
X89461186Y-95250000D01*
X89481601Y-95483346D01*
X89481603Y-95483356D01*
X89542225Y-95709603D01*
X89542227Y-95709607D01*
X89542228Y-95709611D01*
X89641223Y-95921907D01*
X89775579Y-96113787D01*
X89941213Y-96279421D01*
X90133093Y-96413777D01*
X90345389Y-96512772D01*
X90571649Y-96573398D01*
X90758329Y-96589730D01*
X90804999Y-96593814D01*
X90805000Y-96593814D01*
X90805001Y-96593814D01*
X90843891Y-96590411D01*
X91038351Y-96573398D01*
X91264611Y-96512772D01*
X91476907Y-96413777D01*
X91668787Y-96279421D01*
X91834421Y-96113787D01*
X91968777Y-95921907D01*
X91968777Y-95921905D01*
X91971882Y-95917472D01*
X91973323Y-95918481D01*
X92018172Y-95875712D01*
X92086778Y-95862484D01*
X92151645Y-95888447D01*
X92177294Y-95918048D01*
X92178118Y-95917472D01*
X92181222Y-95921905D01*
X92181223Y-95921907D01*
X92315579Y-96113787D01*
X92481213Y-96279421D01*
X92673093Y-96413777D01*
X92885389Y-96512772D01*
X93111649Y-96573398D01*
X93298329Y-96589730D01*
X93344999Y-96593814D01*
X93345000Y-96593814D01*
X93345001Y-96593814D01*
X93383891Y-96590411D01*
X93578351Y-96573398D01*
X93804611Y-96512772D01*
X93813093Y-96508816D01*
X93882168Y-96498322D01*
X93945953Y-96526839D01*
X93984195Y-96585314D01*
X93989500Y-96621197D01*
X93989500Y-97072255D01*
X93987775Y-97087872D01*
X93988061Y-97087899D01*
X93987326Y-97095665D01*
X93989500Y-97164814D01*
X93989500Y-97194343D01*
X93989501Y-97194360D01*
X93990368Y-97201231D01*
X93990826Y-97207050D01*
X93992290Y-97253624D01*
X93992291Y-97253627D01*
X93997880Y-97272867D01*
X94001824Y-97291911D01*
X94004336Y-97311791D01*
X94021490Y-97355119D01*
X94023382Y-97360647D01*
X94032795Y-97393046D01*
X94036382Y-97405390D01*
X94044377Y-97418910D01*
X94046580Y-97422634D01*
X94055136Y-97440100D01*
X94061879Y-97457128D01*
X94062514Y-97458732D01*
X94089898Y-97496423D01*
X94093106Y-97501307D01*
X94116827Y-97541416D01*
X94116833Y-97541424D01*
X94130990Y-97555580D01*
X94143628Y-97570376D01*
X94155405Y-97586586D01*
X94155406Y-97586587D01*
X94191309Y-97616288D01*
X94195620Y-97620210D01*
X94424743Y-97849333D01*
X94588181Y-98012771D01*
X94621666Y-98074094D01*
X94624500Y-98100452D01*
X94624500Y-101970085D01*
X94604815Y-102037124D01*
X94552011Y-102082879D01*
X94482853Y-102092823D01*
X94419297Y-102063798D01*
X94398926Y-102041210D01*
X94396065Y-102037124D01*
X94374421Y-102006213D01*
X94208787Y-101840579D01*
X94016907Y-101706223D01*
X93804611Y-101607228D01*
X93804607Y-101607227D01*
X93804603Y-101607225D01*
X93578356Y-101546603D01*
X93578346Y-101546601D01*
X93345001Y-101526186D01*
X93344999Y-101526186D01*
X93111653Y-101546601D01*
X93111643Y-101546603D01*
X92885396Y-101607225D01*
X92885389Y-101607227D01*
X92885389Y-101607228D01*
X92673093Y-101706223D01*
X92484831Y-101838046D01*
X92481212Y-101840580D01*
X92344246Y-101977546D01*
X92282923Y-102011030D01*
X92213231Y-102006046D01*
X92157298Y-101964174D01*
X92141755Y-101930931D01*
X92140002Y-101931585D01*
X92086997Y-101789471D01*
X92086993Y-101789464D01*
X92000747Y-101674255D01*
X92000744Y-101674252D01*
X91885535Y-101588006D01*
X91885528Y-101588002D01*
X91750682Y-101537708D01*
X91750683Y-101537708D01*
X91691083Y-101531301D01*
X91691081Y-101531300D01*
X91691073Y-101531300D01*
X91691064Y-101531300D01*
X89918929Y-101531300D01*
X89918923Y-101531301D01*
X89859316Y-101537708D01*
X89724471Y-101588002D01*
X89724464Y-101588006D01*
X89609255Y-101674252D01*
X89609252Y-101674255D01*
X89523006Y-101789464D01*
X89523002Y-101789471D01*
X89472708Y-101924317D01*
X89466301Y-101983916D01*
X89466300Y-101983935D01*
X89466300Y-103756070D01*
X89466301Y-103756076D01*
X89472708Y-103815683D01*
X89523002Y-103950528D01*
X89523006Y-103950535D01*
X89609252Y-104065744D01*
X89609255Y-104065747D01*
X89724464Y-104151993D01*
X89724471Y-104151997D01*
X89859317Y-104202291D01*
X89859316Y-104202291D01*
X89865809Y-104202989D01*
X89918927Y-104208700D01*
X91691072Y-104208699D01*
X91750683Y-104202291D01*
X91885531Y-104151996D01*
X92000746Y-104065746D01*
X92086996Y-103950531D01*
X92137291Y-103815683D01*
X92137290Y-103815683D01*
X92140002Y-103808415D01*
X92142812Y-103809463D01*
X92170454Y-103760911D01*
X92232362Y-103728520D01*
X92301954Y-103734741D01*
X92344246Y-103762454D01*
X92481213Y-103899421D01*
X92673093Y-104033777D01*
X92885389Y-104132772D01*
X93111649Y-104193398D01*
X93286525Y-104208698D01*
X93344999Y-104213814D01*
X93345000Y-104213814D01*
X93345001Y-104213814D01*
X93403463Y-104208699D01*
X93578351Y-104193398D01*
X93804611Y-104132772D01*
X94016907Y-104033777D01*
X94208787Y-103899421D01*
X94374421Y-103733787D01*
X94508777Y-103541907D01*
X94508777Y-103541905D01*
X94511882Y-103537472D01*
X94513323Y-103538481D01*
X94558172Y-103495712D01*
X94626778Y-103482484D01*
X94691645Y-103508447D01*
X94717294Y-103538048D01*
X94718118Y-103537472D01*
X94721222Y-103541905D01*
X94721223Y-103541907D01*
X94855579Y-103733787D01*
X95021213Y-103899421D01*
X95213093Y-104033777D01*
X95425389Y-104132772D01*
X95651649Y-104193398D01*
X95826525Y-104208698D01*
X95884999Y-104213814D01*
X95885000Y-104213814D01*
X95885001Y-104213814D01*
X95943463Y-104208699D01*
X96118351Y-104193398D01*
X96344611Y-104132772D01*
X96556907Y-104033777D01*
X96748787Y-103899421D01*
X96914421Y-103733787D01*
X97048777Y-103541907D01*
X97048777Y-103541905D01*
X97051882Y-103537472D01*
X97053323Y-103538481D01*
X97098172Y-103495712D01*
X97166778Y-103482484D01*
X97231645Y-103508447D01*
X97257294Y-103538048D01*
X97258118Y-103537472D01*
X97261222Y-103541905D01*
X97261223Y-103541907D01*
X97395579Y-103733787D01*
X97561213Y-103899421D01*
X97753093Y-104033777D01*
X97965389Y-104132772D01*
X98191649Y-104193398D01*
X98366525Y-104208698D01*
X98424999Y-104213814D01*
X98425000Y-104213814D01*
X98425001Y-104213814D01*
X98483463Y-104208699D01*
X98658351Y-104193398D01*
X98884611Y-104132772D01*
X99096907Y-104033777D01*
X99288787Y-103899421D01*
X99454421Y-103733787D01*
X99588777Y-103541907D01*
X99588777Y-103541905D01*
X99591882Y-103537472D01*
X99593323Y-103538481D01*
X99638172Y-103495712D01*
X99706778Y-103482484D01*
X99771645Y-103508447D01*
X99797294Y-103538048D01*
X99798118Y-103537472D01*
X99801222Y-103541905D01*
X99801223Y-103541907D01*
X99935579Y-103733787D01*
X100101213Y-103899421D01*
X100293093Y-104033777D01*
X100505389Y-104132772D01*
X100731649Y-104193398D01*
X100906525Y-104208698D01*
X100964999Y-104213814D01*
X100965000Y-104213814D01*
X100965001Y-104213814D01*
X101023463Y-104208699D01*
X101198351Y-104193398D01*
X101424611Y-104132772D01*
X101636907Y-104033777D01*
X101828787Y-103899421D01*
X101994421Y-103733787D01*
X102128777Y-103541907D01*
X102128777Y-103541905D01*
X102131882Y-103537472D01*
X102133323Y-103538481D01*
X102178172Y-103495712D01*
X102246778Y-103482484D01*
X102311645Y-103508447D01*
X102337294Y-103538048D01*
X102338118Y-103537472D01*
X102341222Y-103541905D01*
X102341223Y-103541907D01*
X102475579Y-103733787D01*
X102641213Y-103899421D01*
X102833093Y-104033777D01*
X103045389Y-104132772D01*
X103271649Y-104193398D01*
X103446525Y-104208698D01*
X103504999Y-104213814D01*
X103505000Y-104213814D01*
X103505001Y-104213814D01*
X103563463Y-104208699D01*
X103738351Y-104193398D01*
X103964611Y-104132772D01*
X104176907Y-104033777D01*
X104368787Y-103899421D01*
X104534421Y-103733787D01*
X104668777Y-103541907D01*
X104668777Y-103541905D01*
X104671882Y-103537472D01*
X104673190Y-103538388D01*
X104718441Y-103495220D01*
X104787044Y-103481979D01*
X104851916Y-103507931D01*
X104877778Y-103537763D01*
X104878553Y-103537221D01*
X104938546Y-103622900D01*
X105511628Y-103049817D01*
X105513514Y-103058890D01*
X105584185Y-103195279D01*
X105689032Y-103307543D01*
X105820280Y-103387357D01*
X105867863Y-103400688D01*
X105292098Y-103976452D01*
X105373346Y-104033343D01*
X105585558Y-104132298D01*
X105585567Y-104132302D01*
X105811731Y-104192902D01*
X105811741Y-104192904D01*
X106044998Y-104213312D01*
X106045002Y-104213312D01*
X106278258Y-104192904D01*
X106278268Y-104192902D01*
X106504432Y-104132302D01*
X106504441Y-104132298D01*
X106716657Y-104033341D01*
X106797899Y-103976452D01*
X106223257Y-103401810D01*
X106338073Y-103351939D01*
X106457231Y-103254997D01*
X106545815Y-103129502D01*
X106575245Y-103046692D01*
X107151452Y-103622899D01*
X107208341Y-103541657D01*
X107307298Y-103329441D01*
X107307302Y-103329432D01*
X107367902Y-103103268D01*
X107367904Y-103103258D01*
X107388312Y-102870001D01*
X107388312Y-102869998D01*
X107367904Y-102636741D01*
X107367902Y-102636731D01*
X107307302Y-102410567D01*
X107307298Y-102410558D01*
X107208343Y-102198346D01*
X107151452Y-102117098D01*
X106578370Y-102690180D01*
X106576486Y-102681110D01*
X106505815Y-102544721D01*
X106400968Y-102432457D01*
X106269720Y-102352643D01*
X106222136Y-102339311D01*
X106797900Y-101763546D01*
X106716655Y-101706657D01*
X106504441Y-101607701D01*
X106504432Y-101607697D01*
X106278268Y-101547097D01*
X106278258Y-101547095D01*
X106045002Y-101526688D01*
X106044998Y-101526688D01*
X105811741Y-101547095D01*
X105811731Y-101547097D01*
X105585567Y-101607697D01*
X105585558Y-101607701D01*
X105373345Y-101706657D01*
X105373343Y-101706658D01*
X105292099Y-101763546D01*
X105292098Y-101763546D01*
X105866742Y-102338189D01*
X105751927Y-102388061D01*
X105632769Y-102485003D01*
X105544185Y-102610498D01*
X105514754Y-102693306D01*
X104938546Y-102117098D01*
X104938546Y-102117099D01*
X104878553Y-102202779D01*
X104877184Y-102201820D01*
X104832099Y-102244801D01*
X104763490Y-102258016D01*
X104698628Y-102232042D01*
X104672613Y-102202015D01*
X104671882Y-102202528D01*
X104653074Y-102175667D01*
X104534421Y-102006213D01*
X104368787Y-101840579D01*
X104176907Y-101706223D01*
X103964611Y-101607228D01*
X103964607Y-101607227D01*
X103964603Y-101607225D01*
X103738356Y-101546603D01*
X103738346Y-101546601D01*
X103505001Y-101526186D01*
X103504999Y-101526186D01*
X103271653Y-101546601D01*
X103271643Y-101546603D01*
X103045396Y-101607225D01*
X103045389Y-101607227D01*
X103045389Y-101607228D01*
X102833093Y-101706223D01*
X102641213Y-101840579D01*
X102641211Y-101840580D01*
X102641208Y-101840583D01*
X102475583Y-102006208D01*
X102475582Y-102006210D01*
X102475579Y-102006213D01*
X102356926Y-102175667D01*
X102338118Y-102202528D01*
X102336680Y-102201521D01*
X102291810Y-102244297D01*
X102223202Y-102257513D01*
X102158340Y-102231540D01*
X102132702Y-102201953D01*
X102131882Y-102202528D01*
X102113074Y-102175667D01*
X101994421Y-102006213D01*
X101828787Y-101840579D01*
X101636907Y-101706223D01*
X101424611Y-101607228D01*
X101424607Y-101607227D01*
X101424603Y-101607225D01*
X101198356Y-101546603D01*
X101198346Y-101546601D01*
X100965001Y-101526186D01*
X100964999Y-101526186D01*
X100731653Y-101546601D01*
X100731643Y-101546603D01*
X100505396Y-101607225D01*
X100505389Y-101607227D01*
X100505389Y-101607228D01*
X100293093Y-101706223D01*
X100101213Y-101840579D01*
X100101211Y-101840580D01*
X100101208Y-101840583D01*
X99935583Y-102006208D01*
X99935582Y-102006210D01*
X99935579Y-102006213D01*
X99816926Y-102175667D01*
X99798118Y-102202528D01*
X99796680Y-102201521D01*
X99751810Y-102244297D01*
X99683202Y-102257513D01*
X99618340Y-102231540D01*
X99592702Y-102201953D01*
X99591882Y-102202528D01*
X99573074Y-102175667D01*
X99454421Y-102006213D01*
X99288787Y-101840579D01*
X99096907Y-101706223D01*
X98884611Y-101607228D01*
X98884607Y-101607227D01*
X98884603Y-101607225D01*
X98658356Y-101546603D01*
X98658346Y-101546601D01*
X98425001Y-101526186D01*
X98424999Y-101526186D01*
X98191653Y-101546601D01*
X98191643Y-101546603D01*
X97965396Y-101607225D01*
X97965389Y-101607227D01*
X97965389Y-101607228D01*
X97753093Y-101706223D01*
X97561213Y-101840579D01*
X97561211Y-101840580D01*
X97561208Y-101840583D01*
X97395583Y-102006208D01*
X97395582Y-102006210D01*
X97395579Y-102006213D01*
X97276926Y-102175667D01*
X97258118Y-102202528D01*
X97256680Y-102201521D01*
X97211810Y-102244297D01*
X97143202Y-102257513D01*
X97078340Y-102231540D01*
X97052702Y-102201953D01*
X97051882Y-102202528D01*
X97033074Y-102175667D01*
X96914421Y-102006213D01*
X96748787Y-101840579D01*
X96556907Y-101706223D01*
X96344611Y-101607228D01*
X96344607Y-101607227D01*
X96344603Y-101607225D01*
X96118356Y-101546603D01*
X96118346Y-101546601D01*
X95988692Y-101535258D01*
X95923624Y-101509805D01*
X95882645Y-101453214D01*
X95875500Y-101411730D01*
X95875500Y-97872742D01*
X95877224Y-97857122D01*
X95876939Y-97857095D01*
X95877673Y-97849333D01*
X95875500Y-97780172D01*
X95875500Y-97750656D01*
X95875500Y-97750650D01*
X95874631Y-97743779D01*
X95874173Y-97737952D01*
X95872710Y-97691373D01*
X95867119Y-97672130D01*
X95863173Y-97653078D01*
X95860664Y-97633208D01*
X95843504Y-97589867D01*
X95841624Y-97584379D01*
X95828618Y-97539610D01*
X95818422Y-97522370D01*
X95809861Y-97504894D01*
X95802487Y-97486270D01*
X95802486Y-97486268D01*
X95775079Y-97448545D01*
X95771888Y-97443686D01*
X95748172Y-97403583D01*
X95748165Y-97403574D01*
X95734006Y-97389415D01*
X95721368Y-97374619D01*
X95711217Y-97360647D01*
X95709594Y-97358413D01*
X95705612Y-97355119D01*
X95673688Y-97328709D01*
X95669376Y-97324786D01*
X95276819Y-96932228D01*
X95243334Y-96870905D01*
X95240500Y-96844547D01*
X95240500Y-96621197D01*
X95260185Y-96554158D01*
X95312989Y-96508403D01*
X95382147Y-96498459D01*
X95416904Y-96508815D01*
X95425389Y-96512772D01*
X95651649Y-96573398D01*
X95838329Y-96589730D01*
X95884999Y-96593814D01*
X95885000Y-96593814D01*
X95885001Y-96593814D01*
X95923891Y-96590411D01*
X96118351Y-96573398D01*
X96344611Y-96512772D01*
X96556907Y-96413777D01*
X96748787Y-96279421D01*
X96914421Y-96113787D01*
X97048777Y-95921907D01*
X97048777Y-95921905D01*
X97051882Y-95917472D01*
X97053323Y-95918481D01*
X97098172Y-95875712D01*
X97166778Y-95862484D01*
X97231645Y-95888447D01*
X97257294Y-95918048D01*
X97258118Y-95917472D01*
X97261222Y-95921905D01*
X97261223Y-95921907D01*
X97395579Y-96113787D01*
X97561213Y-96279421D01*
X97753093Y-96413777D01*
X97965389Y-96512772D01*
X98191649Y-96573398D01*
X98378329Y-96589730D01*
X98424999Y-96593814D01*
X98425000Y-96593814D01*
X98425001Y-96593814D01*
X98463891Y-96590411D01*
X98658351Y-96573398D01*
X98884611Y-96512772D01*
X99096907Y-96413777D01*
X99288787Y-96279421D01*
X99454421Y-96113787D01*
X99588777Y-95921907D01*
X99588777Y-95921905D01*
X99591882Y-95917472D01*
X99593323Y-95918481D01*
X99638172Y-95875712D01*
X99706778Y-95862484D01*
X99771645Y-95888447D01*
X99797294Y-95918048D01*
X99798118Y-95917472D01*
X99801222Y-95921905D01*
X99801223Y-95921907D01*
X99935579Y-96113787D01*
X100101213Y-96279421D01*
X100293093Y-96413777D01*
X100505389Y-96512772D01*
X100731649Y-96573398D01*
X100918329Y-96589730D01*
X100964999Y-96593814D01*
X100965000Y-96593814D01*
X100965001Y-96593814D01*
X101003891Y-96590411D01*
X101198351Y-96573398D01*
X101424611Y-96512772D01*
X101636907Y-96413777D01*
X101828787Y-96279421D01*
X101994421Y-96113787D01*
X102128777Y-95921907D01*
X102128777Y-95921905D01*
X102131882Y-95917472D01*
X102133323Y-95918481D01*
X102178172Y-95875712D01*
X102246778Y-95862484D01*
X102311645Y-95888447D01*
X102337294Y-95918048D01*
X102338118Y-95917472D01*
X102341222Y-95921905D01*
X102341223Y-95921907D01*
X102475579Y-96113787D01*
X102641213Y-96279421D01*
X102833093Y-96413777D01*
X103045389Y-96512772D01*
X103271649Y-96573398D01*
X103458329Y-96589730D01*
X103504999Y-96593814D01*
X103505000Y-96593814D01*
X103505001Y-96593814D01*
X103543891Y-96590411D01*
X103738351Y-96573398D01*
X103964611Y-96512772D01*
X104176907Y-96413777D01*
X104368787Y-96279421D01*
X104534421Y-96113787D01*
X104668777Y-95921907D01*
X104668777Y-95921905D01*
X104671882Y-95917472D01*
X104673323Y-95918481D01*
X104718172Y-95875712D01*
X104786778Y-95862484D01*
X104851645Y-95888447D01*
X104877294Y-95918048D01*
X104878118Y-95917472D01*
X104881222Y-95921905D01*
X104881223Y-95921907D01*
X105015579Y-96113787D01*
X105181213Y-96279421D01*
X105373093Y-96413777D01*
X105585389Y-96512772D01*
X105811649Y-96573398D01*
X105998329Y-96589730D01*
X106044999Y-96593814D01*
X106045000Y-96593814D01*
X106045001Y-96593814D01*
X106083891Y-96590411D01*
X106278351Y-96573398D01*
X106504611Y-96512772D01*
X106716907Y-96413777D01*
X106908787Y-96279421D01*
X107074421Y-96113787D01*
X107208777Y-95921907D01*
X107307772Y-95709611D01*
X107368398Y-95483351D01*
X107388814Y-95250000D01*
X107368398Y-95016649D01*
X107307772Y-94790389D01*
X107208777Y-94578093D01*
X107074421Y-94386213D01*
X106908787Y-94220579D01*
X106716907Y-94086223D01*
X106504611Y-93987228D01*
X106504607Y-93987227D01*
X106504603Y-93987225D01*
X106278356Y-93926603D01*
X106278346Y-93926601D01*
X106045001Y-93906186D01*
X106044999Y-93906186D01*
X105811653Y-93926601D01*
X105811643Y-93926603D01*
X105718761Y-93951491D01*
X105648911Y-93949828D01*
X105598987Y-93919397D01*
X104186755Y-92507165D01*
X103119592Y-91440001D01*
X104739532Y-91440001D01*
X104759364Y-91666686D01*
X104759366Y-91666697D01*
X104818258Y-91886488D01*
X104818261Y-91886497D01*
X104914431Y-92092732D01*
X104914432Y-92092734D01*
X105044954Y-92279141D01*
X105205858Y-92440045D01*
X105205861Y-92440047D01*
X105392266Y-92570568D01*
X105598504Y-92666739D01*
X105598509Y-92666740D01*
X105598511Y-92666741D01*
X105651415Y-92680916D01*
X105818308Y-92725635D01*
X105977471Y-92739560D01*
X106044998Y-92745468D01*
X106045000Y-92745468D01*
X106045002Y-92745468D01*
X106101673Y-92740509D01*
X106271692Y-92725635D01*
X106491496Y-92666739D01*
X106697734Y-92570568D01*
X106884139Y-92440047D01*
X107045047Y-92279139D01*
X107175568Y-92092734D01*
X107183837Y-92075001D01*
X108549532Y-92075001D01*
X108569364Y-92301686D01*
X108569366Y-92301697D01*
X108628258Y-92521488D01*
X108628261Y-92521497D01*
X108724431Y-92727732D01*
X108724432Y-92727734D01*
X108854954Y-92914141D01*
X109015858Y-93075045D01*
X109015861Y-93075047D01*
X109202266Y-93205568D01*
X109408504Y-93301739D01*
X109628308Y-93360635D01*
X109790230Y-93374801D01*
X109854998Y-93380468D01*
X109855000Y-93380468D01*
X109855002Y-93380468D01*
X109911673Y-93375509D01*
X110081692Y-93360635D01*
X110301496Y-93301739D01*
X110507734Y-93205568D01*
X110694139Y-93075047D01*
X110855047Y-92914139D01*
X110985568Y-92727734D01*
X111081739Y-92521496D01*
X111140635Y-92301692D01*
X111158122Y-92101819D01*
X111160468Y-92075001D01*
X111160468Y-92074998D01*
X111154426Y-92005945D01*
X111140635Y-91848308D01*
X111081739Y-91628504D01*
X110985568Y-91422266D01*
X110855047Y-91235861D01*
X110855045Y-91235858D01*
X110694141Y-91074954D01*
X110507734Y-90944432D01*
X110507732Y-90944431D01*
X110301497Y-90848261D01*
X110301488Y-90848258D01*
X110081697Y-90789366D01*
X110081693Y-90789365D01*
X110081692Y-90789365D01*
X110081691Y-90789364D01*
X110081686Y-90789364D01*
X109855002Y-90769532D01*
X109854998Y-90769532D01*
X109628313Y-90789364D01*
X109628302Y-90789366D01*
X109408511Y-90848258D01*
X109408502Y-90848261D01*
X109202267Y-90944431D01*
X109202265Y-90944432D01*
X109015858Y-91074954D01*
X108854954Y-91235858D01*
X108724432Y-91422265D01*
X108724431Y-91422267D01*
X108628261Y-91628502D01*
X108628258Y-91628511D01*
X108569366Y-91848302D01*
X108569364Y-91848313D01*
X108549532Y-92074998D01*
X108549532Y-92075001D01*
X107183837Y-92075001D01*
X107271739Y-91886496D01*
X107330635Y-91666692D01*
X107350468Y-91440000D01*
X107348916Y-91422266D01*
X107332608Y-91235861D01*
X107330635Y-91213308D01*
X107271739Y-90993504D01*
X107175568Y-90787266D01*
X107045047Y-90600861D01*
X107045045Y-90600858D01*
X106884141Y-90439954D01*
X106697734Y-90309432D01*
X106697732Y-90309431D01*
X106491497Y-90213261D01*
X106491488Y-90213258D01*
X106271697Y-90154366D01*
X106271693Y-90154365D01*
X106271692Y-90154365D01*
X106271691Y-90154364D01*
X106271686Y-90154364D01*
X106045002Y-90134532D01*
X106044998Y-90134532D01*
X105818313Y-90154364D01*
X105818302Y-90154366D01*
X105598511Y-90213258D01*
X105598502Y-90213261D01*
X105392267Y-90309431D01*
X105392265Y-90309432D01*
X105205858Y-90439954D01*
X105044954Y-90600858D01*
X104914432Y-90787265D01*
X104914431Y-90787267D01*
X104818261Y-90993502D01*
X104818258Y-90993511D01*
X104759366Y-91213302D01*
X104759364Y-91213313D01*
X104739532Y-91439998D01*
X104739532Y-91440001D01*
X103119592Y-91440001D01*
X102735803Y-91056212D01*
X102725980Y-91043950D01*
X102725759Y-91044134D01*
X102720786Y-91038123D01*
X102698252Y-91016962D01*
X102670364Y-90990773D01*
X102659919Y-90980328D01*
X102649475Y-90969883D01*
X102643986Y-90965625D01*
X102639561Y-90961847D01*
X102605582Y-90929938D01*
X102605580Y-90929936D01*
X102605577Y-90929935D01*
X102588029Y-90920288D01*
X102571763Y-90909604D01*
X102555933Y-90897325D01*
X102513168Y-90878818D01*
X102507922Y-90876248D01*
X102467093Y-90853803D01*
X102467092Y-90853802D01*
X102447693Y-90848822D01*
X102429281Y-90842518D01*
X102410898Y-90834562D01*
X102410892Y-90834560D01*
X102364874Y-90827272D01*
X102359152Y-90826087D01*
X102314021Y-90814500D01*
X102314019Y-90814500D01*
X102293984Y-90814500D01*
X102274586Y-90812973D01*
X102267162Y-90811797D01*
X102254805Y-90809840D01*
X102254804Y-90809840D01*
X102208416Y-90814225D01*
X102202578Y-90814500D01*
X97099188Y-90814500D01*
X97032149Y-90794815D01*
X96997613Y-90761623D01*
X96885045Y-90600858D01*
X96724141Y-90439954D01*
X96537734Y-90309432D01*
X96537732Y-90309431D01*
X96331497Y-90213261D01*
X96331488Y-90213258D01*
X96111697Y-90154366D01*
X96111693Y-90154365D01*
X96111692Y-90154365D01*
X96111691Y-90154364D01*
X96111686Y-90154364D01*
X95885002Y-90134532D01*
X95884998Y-90134532D01*
X95658313Y-90154364D01*
X95658302Y-90154366D01*
X95438511Y-90213258D01*
X95438502Y-90213261D01*
X95232267Y-90309431D01*
X95232265Y-90309432D01*
X95045858Y-90439954D01*
X94884954Y-90600858D01*
X94754432Y-90787265D01*
X94754431Y-90787267D01*
X94658261Y-90993502D01*
X94658258Y-90993511D01*
X94599366Y-91213302D01*
X94599364Y-91213313D01*
X94579532Y-91439998D01*
X94579532Y-91440001D01*
X94599364Y-91666686D01*
X94599366Y-91666697D01*
X94658258Y-91886488D01*
X94658261Y-91886497D01*
X94754431Y-92092732D01*
X94754432Y-92092734D01*
X94884954Y-92279141D01*
X95045858Y-92440045D01*
X95045861Y-92440047D01*
X95232266Y-92570568D01*
X95438504Y-92666739D01*
X95438509Y-92666740D01*
X95438511Y-92666741D01*
X95491415Y-92680916D01*
X95658308Y-92725635D01*
X95817471Y-92739560D01*
X95884998Y-92745468D01*
X95885000Y-92745468D01*
X95885002Y-92745468D01*
X95941673Y-92740509D01*
X96111692Y-92725635D01*
X96331496Y-92666739D01*
X96537734Y-92570568D01*
X96724139Y-92440047D01*
X96885047Y-92279139D01*
X96963681Y-92166836D01*
X96997613Y-92118377D01*
X97052189Y-92074752D01*
X97099188Y-92065500D01*
X101924548Y-92065500D01*
X101991587Y-92085185D01*
X102012229Y-92101819D01*
X103605568Y-93695158D01*
X103639053Y-93756481D01*
X103634069Y-93826173D01*
X103592197Y-93882106D01*
X103526733Y-93906523D01*
X103507093Y-93906368D01*
X103505010Y-93906186D01*
X103504999Y-93906186D01*
X103271653Y-93926601D01*
X103271643Y-93926603D01*
X103045396Y-93987225D01*
X103045389Y-93987227D01*
X103045389Y-93987228D01*
X102833093Y-94086223D01*
X102641213Y-94220579D01*
X102641211Y-94220580D01*
X102641208Y-94220583D01*
X102475583Y-94386208D01*
X102475580Y-94386211D01*
X102475579Y-94386213D01*
X102401306Y-94492286D01*
X102338118Y-94582528D01*
X102336680Y-94581521D01*
X102291810Y-94624297D01*
X102223202Y-94637513D01*
X102158340Y-94611540D01*
X102132702Y-94581953D01*
X102131882Y-94582528D01*
X102128777Y-94578093D01*
X101994421Y-94386213D01*
X101828787Y-94220579D01*
X101636907Y-94086223D01*
X101424611Y-93987228D01*
X101424607Y-93987227D01*
X101424603Y-93987225D01*
X101198356Y-93926603D01*
X101198346Y-93926601D01*
X100965001Y-93906186D01*
X100964999Y-93906186D01*
X100731653Y-93926601D01*
X100731643Y-93926603D01*
X100505396Y-93987225D01*
X100505389Y-93987227D01*
X100505389Y-93987228D01*
X100293093Y-94086223D01*
X100101213Y-94220579D01*
X100101211Y-94220580D01*
X100101208Y-94220583D01*
X99935583Y-94386208D01*
X99935580Y-94386211D01*
X99935579Y-94386213D01*
X99861306Y-94492286D01*
X99798118Y-94582528D01*
X99796680Y-94581521D01*
X99751810Y-94624297D01*
X99683202Y-94637513D01*
X99618340Y-94611540D01*
X99592702Y-94581953D01*
X99591882Y-94582528D01*
X99588777Y-94578093D01*
X99454421Y-94386213D01*
X99288787Y-94220579D01*
X99096907Y-94086223D01*
X98884611Y-93987228D01*
X98884607Y-93987227D01*
X98884603Y-93987225D01*
X98658356Y-93926603D01*
X98658346Y-93926601D01*
X98425001Y-93906186D01*
X98424999Y-93906186D01*
X98191653Y-93926601D01*
X98191643Y-93926603D01*
X97965396Y-93987225D01*
X97965389Y-93987227D01*
X97965389Y-93987228D01*
X97753093Y-94086223D01*
X97561213Y-94220579D01*
X97561211Y-94220580D01*
X97561208Y-94220583D01*
X97395583Y-94386208D01*
X97395580Y-94386211D01*
X97395579Y-94386213D01*
X97321306Y-94492286D01*
X97258118Y-94582528D01*
X97256680Y-94581521D01*
X97211810Y-94624297D01*
X97143202Y-94637513D01*
X97078340Y-94611540D01*
X97052702Y-94581953D01*
X97051882Y-94582528D01*
X97048777Y-94578093D01*
X96914421Y-94386213D01*
X96748787Y-94220579D01*
X96556907Y-94086223D01*
X96344611Y-93987228D01*
X96344607Y-93987227D01*
X96344603Y-93987225D01*
X96118356Y-93926603D01*
X96118346Y-93926601D01*
X95885001Y-93906186D01*
X95884999Y-93906186D01*
X95651653Y-93926601D01*
X95651643Y-93926603D01*
X95425393Y-93987226D01*
X95414130Y-93992478D01*
X95345052Y-94002966D01*
X95281269Y-93974443D01*
X95243033Y-93915965D01*
X95237792Y-93883985D01*
X95237710Y-93881373D01*
X95232119Y-93862130D01*
X95228173Y-93843078D01*
X95225664Y-93823208D01*
X95208504Y-93779867D01*
X95206624Y-93774379D01*
X95193618Y-93729610D01*
X95183422Y-93712370D01*
X95174861Y-93694894D01*
X95167487Y-93676270D01*
X95167486Y-93676268D01*
X95140079Y-93638545D01*
X95136888Y-93633686D01*
X95128991Y-93620333D01*
X95113170Y-93593580D01*
X95113168Y-93593578D01*
X95113165Y-93593574D01*
X95099006Y-93579415D01*
X95086368Y-93564619D01*
X95083018Y-93560008D01*
X95074594Y-93548413D01*
X95038688Y-93518709D01*
X95034376Y-93514786D01*
X94480803Y-92961212D01*
X94470980Y-92948950D01*
X94470759Y-92949134D01*
X94465786Y-92943123D01*
X94454762Y-92932771D01*
X94415364Y-92895773D01*
X94404919Y-92885328D01*
X94394475Y-92874883D01*
X94388986Y-92870625D01*
X94384561Y-92866847D01*
X94350582Y-92834938D01*
X94350580Y-92834936D01*
X94350577Y-92834935D01*
X94333029Y-92825288D01*
X94316763Y-92814604D01*
X94300933Y-92802325D01*
X94258168Y-92783818D01*
X94252922Y-92781248D01*
X94212093Y-92758803D01*
X94212092Y-92758802D01*
X94192693Y-92753822D01*
X94174281Y-92747518D01*
X94155898Y-92739562D01*
X94155892Y-92739560D01*
X94109874Y-92732272D01*
X94104152Y-92731087D01*
X94059021Y-92719500D01*
X94059019Y-92719500D01*
X94038984Y-92719500D01*
X94019586Y-92717973D01*
X94012162Y-92716797D01*
X93999805Y-92714840D01*
X93999804Y-92714840D01*
X93953416Y-92719225D01*
X93947578Y-92719500D01*
X93592480Y-92719500D01*
X93525441Y-92699815D01*
X93479686Y-92647011D01*
X93469742Y-92577853D01*
X93485093Y-92533500D01*
X93501922Y-92504351D01*
X93537179Y-92443284D01*
X93595674Y-92263256D01*
X93615460Y-92075000D01*
X93595674Y-91886744D01*
X93537179Y-91706716D01*
X93442533Y-91542784D01*
X93315871Y-91402112D01*
X93315870Y-91402111D01*
X93162734Y-91290851D01*
X93162729Y-91290848D01*
X92989807Y-91213857D01*
X92989802Y-91213855D01*
X92812126Y-91176090D01*
X92804646Y-91174500D01*
X92615354Y-91174500D01*
X92607874Y-91176090D01*
X92430197Y-91213855D01*
X92430192Y-91213857D01*
X92257270Y-91290848D01*
X92257265Y-91290851D01*
X92104129Y-91402111D01*
X91977466Y-91542785D01*
X91882821Y-91706715D01*
X91882818Y-91706722D01*
X91824406Y-91886497D01*
X91824326Y-91886744D01*
X91804540Y-92075000D01*
X91824326Y-92263256D01*
X91824327Y-92263259D01*
X91882818Y-92443277D01*
X91882821Y-92443284D01*
X91977467Y-92607216D01*
X92013299Y-92647011D01*
X92052650Y-92690715D01*
X92082880Y-92753706D01*
X92084500Y-92773687D01*
X92084500Y-93274152D01*
X92082305Y-93297379D01*
X92080773Y-93305412D01*
X92084378Y-93362724D01*
X92084500Y-93366595D01*
X92084500Y-93384356D01*
X92086725Y-93401968D01*
X92087091Y-93405843D01*
X92090696Y-93463138D01*
X92093222Y-93470914D01*
X92098309Y-93493672D01*
X92099334Y-93501784D01*
X92099336Y-93501792D01*
X92120469Y-93555170D01*
X92121788Y-93558833D01*
X92139532Y-93613440D01*
X92143907Y-93620333D01*
X92154503Y-93641129D01*
X92157511Y-93648726D01*
X92157513Y-93648731D01*
X92191265Y-93695187D01*
X92193455Y-93698409D01*
X92224213Y-93746876D01*
X92230164Y-93752464D01*
X92245604Y-93769978D01*
X92250403Y-93776585D01*
X92294647Y-93813187D01*
X92297567Y-93815761D01*
X92339418Y-93855062D01*
X92346578Y-93858998D01*
X92365879Y-93872114D01*
X92372177Y-93877324D01*
X92372178Y-93877324D01*
X92372179Y-93877325D01*
X92424125Y-93901769D01*
X92427592Y-93903535D01*
X92433026Y-93906523D01*
X92477903Y-93931195D01*
X92477905Y-93931195D01*
X92477908Y-93931197D01*
X92483205Y-93932556D01*
X92485814Y-93933227D01*
X92507776Y-93941132D01*
X92515174Y-93944614D01*
X92515176Y-93944614D01*
X92522594Y-93947025D01*
X92521728Y-93949689D01*
X92572027Y-93975493D01*
X92607081Y-94035933D01*
X92603895Y-94105730D01*
X92563480Y-94162724D01*
X92557759Y-94166980D01*
X92481212Y-94220579D01*
X92315583Y-94386208D01*
X92315580Y-94386211D01*
X92315579Y-94386213D01*
X92241306Y-94492286D01*
X92178118Y-94582528D01*
X92176680Y-94581521D01*
X92131810Y-94624297D01*
X92063202Y-94637513D01*
X91998340Y-94611540D01*
X91972702Y-94581953D01*
X91971882Y-94582528D01*
X91968777Y-94578093D01*
X91834421Y-94386213D01*
X91668787Y-94220579D01*
X91476907Y-94086223D01*
X91264611Y-93987228D01*
X91264607Y-93987227D01*
X91264603Y-93987225D01*
X91038356Y-93926603D01*
X91038346Y-93926601D01*
X90805001Y-93906186D01*
X90804999Y-93906186D01*
X90571648Y-93926602D01*
X90478760Y-93951490D01*
X90408910Y-93949826D01*
X90358987Y-93919396D01*
X90196819Y-93757228D01*
X90163334Y-93695905D01*
X90160500Y-93669547D01*
X90160500Y-92792742D01*
X90162224Y-92777122D01*
X90161939Y-92777095D01*
X90162673Y-92769333D01*
X90160500Y-92700172D01*
X90160500Y-92670656D01*
X90160500Y-92670650D01*
X90159631Y-92663779D01*
X90159173Y-92657952D01*
X90158829Y-92647011D01*
X90157710Y-92611373D01*
X90152119Y-92592130D01*
X90148173Y-92573078D01*
X90145664Y-92553208D01*
X90128504Y-92509867D01*
X90126624Y-92504379D01*
X90113618Y-92459610D01*
X90103422Y-92442370D01*
X90094861Y-92424894D01*
X90087487Y-92406270D01*
X90087486Y-92406268D01*
X90060079Y-92368545D01*
X90056888Y-92363686D01*
X90033172Y-92323583D01*
X90033165Y-92323574D01*
X90019006Y-92309415D01*
X90006368Y-92294619D01*
X90000805Y-92286962D01*
X89994594Y-92278413D01*
X89976272Y-92263256D01*
X89958688Y-92248709D01*
X89954376Y-92244786D01*
X89561819Y-91852228D01*
X89528334Y-91790905D01*
X89525500Y-91764547D01*
X89525500Y-89209055D01*
X89545185Y-89142016D01*
X89561814Y-89121379D01*
X89924032Y-88759161D01*
X89985353Y-88725678D01*
X90055045Y-88730662D01*
X90110978Y-88772534D01*
X90135395Y-88837998D01*
X90135240Y-88857646D01*
X90135034Y-88860001D01*
X90135034Y-88860002D01*
X90154858Y-89086599D01*
X90154860Y-89086610D01*
X90213730Y-89306317D01*
X90213734Y-89306326D01*
X90309865Y-89512481D01*
X90309866Y-89512483D01*
X90360973Y-89585471D01*
X90360973Y-89585472D01*
X91042046Y-88904400D01*
X91054835Y-88985148D01*
X91112359Y-89098045D01*
X91201955Y-89187641D01*
X91314852Y-89245165D01*
X91395599Y-89257953D01*
X90714526Y-89939025D01*
X90714526Y-89939026D01*
X90787512Y-89990131D01*
X90787516Y-89990133D01*
X90993673Y-90086265D01*
X90993682Y-90086269D01*
X91213389Y-90145139D01*
X91213400Y-90145141D01*
X91439998Y-90164966D01*
X91440002Y-90164966D01*
X91666599Y-90145141D01*
X91666610Y-90145139D01*
X91886317Y-90086269D01*
X91886331Y-90086264D01*
X92092478Y-89990136D01*
X92165472Y-89939025D01*
X91484401Y-89257953D01*
X91565148Y-89245165D01*
X91678045Y-89187641D01*
X91767641Y-89098045D01*
X91825165Y-88985148D01*
X91837953Y-88904400D01*
X92519025Y-89585472D01*
X92570136Y-89512478D01*
X92666264Y-89306331D01*
X92666269Y-89306317D01*
X92725139Y-89086610D01*
X92725141Y-89086599D01*
X92744966Y-88860002D01*
X92744966Y-88859997D01*
X92725141Y-88633400D01*
X92725139Y-88633389D01*
X92666269Y-88413682D01*
X92666265Y-88413673D01*
X92570133Y-88207516D01*
X92570131Y-88207512D01*
X92519026Y-88134526D01*
X92519025Y-88134526D01*
X91837953Y-88815598D01*
X91825165Y-88734852D01*
X91767641Y-88621955D01*
X91678045Y-88532359D01*
X91565148Y-88474835D01*
X91484400Y-88462046D01*
X92165472Y-87780974D01*
X92165471Y-87780973D01*
X92092483Y-87729866D01*
X92092481Y-87729865D01*
X91886326Y-87633734D01*
X91886317Y-87633730D01*
X91872400Y-87630001D01*
X94579532Y-87630001D01*
X94599364Y-87856686D01*
X94599366Y-87856697D01*
X94658258Y-88076488D01*
X94658261Y-88076497D01*
X94754431Y-88282732D01*
X94754432Y-88282734D01*
X94884954Y-88469141D01*
X95045858Y-88630045D01*
X95092693Y-88662839D01*
X95232266Y-88760568D01*
X95438504Y-88856739D01*
X95438509Y-88856740D01*
X95438511Y-88856741D01*
X95491415Y-88870916D01*
X95658308Y-88915635D01*
X95800738Y-88928096D01*
X95884998Y-88935468D01*
X95885000Y-88935468D01*
X95885002Y-88935468D01*
X95941673Y-88930509D01*
X96111692Y-88915635D01*
X96331496Y-88856739D01*
X96537734Y-88760568D01*
X96724139Y-88630047D01*
X96885047Y-88469139D01*
X97015568Y-88282734D01*
X97111739Y-88076496D01*
X97170635Y-87856692D01*
X97190468Y-87630001D01*
X104739532Y-87630001D01*
X104759364Y-87856686D01*
X104759366Y-87856697D01*
X104818258Y-88076488D01*
X104818261Y-88076497D01*
X104914431Y-88282732D01*
X104914432Y-88282734D01*
X105044954Y-88469141D01*
X105205858Y-88630045D01*
X105252693Y-88662839D01*
X105392266Y-88760568D01*
X105598504Y-88856739D01*
X105598509Y-88856740D01*
X105598511Y-88856741D01*
X105651415Y-88870916D01*
X105818308Y-88915635D01*
X105960738Y-88928096D01*
X106044998Y-88935468D01*
X106045000Y-88935468D01*
X106045002Y-88935468D01*
X106101673Y-88930509D01*
X106271692Y-88915635D01*
X106491496Y-88856739D01*
X106697734Y-88760568D01*
X106884139Y-88630047D01*
X107045047Y-88469139D01*
X107175568Y-88282734D01*
X107271739Y-88076496D01*
X107330635Y-87856692D01*
X107350468Y-87630000D01*
X107330635Y-87403308D01*
X107271739Y-87183504D01*
X107175568Y-86977266D01*
X107045047Y-86790861D01*
X107045045Y-86790858D01*
X106884141Y-86629954D01*
X106697734Y-86499432D01*
X106697732Y-86499431D01*
X106491497Y-86403261D01*
X106491488Y-86403258D01*
X106271697Y-86344366D01*
X106271693Y-86344365D01*
X106271692Y-86344365D01*
X106271691Y-86344364D01*
X106271686Y-86344364D01*
X106045002Y-86324532D01*
X106044998Y-86324532D01*
X105818313Y-86344364D01*
X105818302Y-86344366D01*
X105598511Y-86403258D01*
X105598502Y-86403261D01*
X105392267Y-86499431D01*
X105392265Y-86499432D01*
X105205858Y-86629954D01*
X105044954Y-86790858D01*
X104914432Y-86977265D01*
X104914431Y-86977267D01*
X104818261Y-87183502D01*
X104818258Y-87183511D01*
X104759366Y-87403302D01*
X104759364Y-87403313D01*
X104739532Y-87629998D01*
X104739532Y-87630001D01*
X97190468Y-87630001D01*
X97190468Y-87630000D01*
X97170635Y-87403308D01*
X97111739Y-87183504D01*
X97015568Y-86977266D01*
X96885047Y-86790861D01*
X96885045Y-86790858D01*
X96724141Y-86629954D01*
X96537734Y-86499432D01*
X96537732Y-86499431D01*
X96331497Y-86403261D01*
X96331488Y-86403258D01*
X96111697Y-86344366D01*
X96111693Y-86344365D01*
X96111692Y-86344365D01*
X96111691Y-86344364D01*
X96111686Y-86344364D01*
X95885002Y-86324532D01*
X95884998Y-86324532D01*
X95658313Y-86344364D01*
X95658302Y-86344366D01*
X95438511Y-86403258D01*
X95438502Y-86403261D01*
X95232267Y-86499431D01*
X95232265Y-86499432D01*
X95045858Y-86629954D01*
X94884954Y-86790858D01*
X94754432Y-86977265D01*
X94754431Y-86977267D01*
X94658261Y-87183502D01*
X94658258Y-87183511D01*
X94599366Y-87403302D01*
X94599364Y-87403313D01*
X94579532Y-87629998D01*
X94579532Y-87630001D01*
X91872400Y-87630001D01*
X91666610Y-87574860D01*
X91666599Y-87574858D01*
X91440002Y-87555034D01*
X91437646Y-87555240D01*
X91436621Y-87555034D01*
X91434586Y-87555034D01*
X91434586Y-87554624D01*
X91369147Y-87541470D01*
X91318966Y-87492852D01*
X91303035Y-87424823D01*
X91326414Y-87358981D01*
X91339157Y-87344036D01*
X91819973Y-86863220D01*
X91841212Y-86846207D01*
X91841877Y-86845786D01*
X91847465Y-86839834D01*
X91864978Y-86824394D01*
X91871587Y-86819594D01*
X91908190Y-86775347D01*
X91910736Y-86772457D01*
X91950062Y-86730582D01*
X91953997Y-86723423D01*
X91967120Y-86704112D01*
X91972324Y-86697823D01*
X91975107Y-86691908D01*
X91977844Y-86686738D01*
X91981272Y-86680941D01*
X91981277Y-86680936D01*
X91992789Y-86654332D01*
X91996778Y-86645853D01*
X91998521Y-86642432D01*
X92026197Y-86592092D01*
X92028227Y-86584181D01*
X92036135Y-86562218D01*
X92039614Y-86554826D01*
X92041118Y-86546935D01*
X92042484Y-86541251D01*
X92044041Y-86535896D01*
X92048033Y-86510693D01*
X92049086Y-86505167D01*
X92050375Y-86498408D01*
X92051218Y-86494640D01*
X92065500Y-86439019D01*
X92065500Y-86430846D01*
X92067696Y-86407611D01*
X92069227Y-86399588D01*
X92068685Y-86390986D01*
X92068594Y-86385158D01*
X92068762Y-86379813D01*
X92068764Y-86379804D01*
X92066426Y-86355080D01*
X92065753Y-86344365D01*
X92065622Y-86342286D01*
X92065500Y-86338398D01*
X92065500Y-85074188D01*
X92085185Y-85007149D01*
X92118377Y-84972613D01*
X92166836Y-84938681D01*
X92279139Y-84860047D01*
X92440047Y-84699139D01*
X92570568Y-84512734D01*
X92666739Y-84306496D01*
X92725635Y-84086692D01*
X92745468Y-83860000D01*
X92741968Y-83820001D01*
X94579532Y-83820001D01*
X94599364Y-84046686D01*
X94599366Y-84046697D01*
X94658258Y-84266488D01*
X94658261Y-84266497D01*
X94754431Y-84472732D01*
X94754432Y-84472734D01*
X94884954Y-84659141D01*
X95045858Y-84820045D01*
X95045861Y-84820047D01*
X95232266Y-84950568D01*
X95438504Y-85046739D01*
X95658308Y-85105635D01*
X95820230Y-85119801D01*
X95884998Y-85125468D01*
X95885000Y-85125468D01*
X95885002Y-85125468D01*
X95941673Y-85120509D01*
X96111692Y-85105635D01*
X96331496Y-85046739D01*
X96537734Y-84950568D01*
X96724139Y-84820047D01*
X96885047Y-84659139D01*
X97015568Y-84472734D01*
X97111739Y-84266496D01*
X97170635Y-84046692D01*
X97190468Y-83820001D01*
X104739532Y-83820001D01*
X104759364Y-84046686D01*
X104759366Y-84046697D01*
X104818258Y-84266488D01*
X104818261Y-84266497D01*
X104914431Y-84472732D01*
X104914432Y-84472734D01*
X105044954Y-84659141D01*
X105205858Y-84820045D01*
X105205861Y-84820047D01*
X105392266Y-84950568D01*
X105598504Y-85046739D01*
X105818308Y-85105635D01*
X105980230Y-85119801D01*
X106044998Y-85125468D01*
X106045000Y-85125468D01*
X106045002Y-85125468D01*
X106101673Y-85120509D01*
X106271692Y-85105635D01*
X106491496Y-85046739D01*
X106697734Y-84950568D01*
X106884139Y-84820047D01*
X107045047Y-84659139D01*
X107175568Y-84472734D01*
X107271739Y-84266496D01*
X107330635Y-84046692D01*
X107350468Y-83820000D01*
X107330635Y-83593308D01*
X107271739Y-83373504D01*
X107175568Y-83167266D01*
X107045047Y-82980861D01*
X107045045Y-82980858D01*
X106884141Y-82819954D01*
X106697734Y-82689432D01*
X106697732Y-82689431D01*
X106491497Y-82593261D01*
X106491488Y-82593258D01*
X106271697Y-82534366D01*
X106271693Y-82534365D01*
X106271692Y-82534365D01*
X106271691Y-82534364D01*
X106271686Y-82534364D01*
X106045002Y-82514532D01*
X106044998Y-82514532D01*
X105818313Y-82534364D01*
X105818302Y-82534366D01*
X105598511Y-82593258D01*
X105598502Y-82593261D01*
X105392267Y-82689431D01*
X105392265Y-82689432D01*
X105205858Y-82819954D01*
X105044954Y-82980858D01*
X104914432Y-83167265D01*
X104914431Y-83167267D01*
X104818261Y-83373502D01*
X104818258Y-83373511D01*
X104759366Y-83593302D01*
X104759364Y-83593313D01*
X104739532Y-83819998D01*
X104739532Y-83820001D01*
X97190468Y-83820001D01*
X97190468Y-83820000D01*
X97170635Y-83593308D01*
X97111739Y-83373504D01*
X97015568Y-83167266D01*
X96885047Y-82980861D01*
X96885045Y-82980858D01*
X96724141Y-82819954D01*
X96537734Y-82689432D01*
X96537732Y-82689431D01*
X96331497Y-82593261D01*
X96331488Y-82593258D01*
X96111697Y-82534366D01*
X96111693Y-82534365D01*
X96111692Y-82534365D01*
X96111691Y-82534364D01*
X96111686Y-82534364D01*
X95885002Y-82514532D01*
X95884998Y-82514532D01*
X95658313Y-82534364D01*
X95658302Y-82534366D01*
X95438511Y-82593258D01*
X95438502Y-82593261D01*
X95232267Y-82689431D01*
X95232265Y-82689432D01*
X95045858Y-82819954D01*
X94884954Y-82980858D01*
X94754432Y-83167265D01*
X94754431Y-83167267D01*
X94658261Y-83373502D01*
X94658258Y-83373511D01*
X94599366Y-83593302D01*
X94599364Y-83593313D01*
X94579532Y-83819998D01*
X94579532Y-83820001D01*
X92741968Y-83820001D01*
X92741968Y-83820000D01*
X92725635Y-83633313D01*
X92725635Y-83633308D01*
X92666739Y-83413504D01*
X92570568Y-83207266D01*
X92440047Y-83020861D01*
X92440045Y-83020858D01*
X92279141Y-82859954D01*
X92092734Y-82729432D01*
X92092732Y-82729431D01*
X91886497Y-82633261D01*
X91886488Y-82633258D01*
X91666697Y-82574366D01*
X91666693Y-82574365D01*
X91666692Y-82574365D01*
X91666691Y-82574364D01*
X91666686Y-82574364D01*
X91440002Y-82554532D01*
X91439998Y-82554532D01*
X91213313Y-82574364D01*
X91213302Y-82574366D01*
X90993511Y-82633258D01*
X90993502Y-82633261D01*
X90787267Y-82729431D01*
X90787265Y-82729432D01*
X90600858Y-82859954D01*
X90439954Y-83020858D01*
X90309432Y-83207265D01*
X90309431Y-83207267D01*
X90213261Y-83413502D01*
X90213258Y-83413511D01*
X90154366Y-83633302D01*
X90154364Y-83633313D01*
X90134532Y-83859998D01*
X90134532Y-83860001D01*
X90154364Y-84086686D01*
X90154366Y-84086697D01*
X90213258Y-84306488D01*
X90213261Y-84306497D01*
X90309431Y-84512732D01*
X90309432Y-84512734D01*
X90439954Y-84699141D01*
X90600858Y-84860045D01*
X90761623Y-84972613D01*
X90805248Y-85027189D01*
X90814500Y-85074188D01*
X90814500Y-86048150D01*
X90794815Y-86115189D01*
X90778181Y-86135831D01*
X88516208Y-88397803D01*
X88503951Y-88407624D01*
X88504134Y-88407845D01*
X88498123Y-88412817D01*
X88450772Y-88463240D01*
X88429889Y-88484123D01*
X88429877Y-88484136D01*
X88425621Y-88489621D01*
X88421837Y-88494051D01*
X88389937Y-88528022D01*
X88389936Y-88528024D01*
X88380284Y-88545580D01*
X88369610Y-88561830D01*
X88357329Y-88577665D01*
X88357324Y-88577672D01*
X88338815Y-88620442D01*
X88336245Y-88625688D01*
X88313803Y-88666510D01*
X88308822Y-88685911D01*
X88302521Y-88704314D01*
X88294562Y-88722706D01*
X88294561Y-88722709D01*
X88287271Y-88768731D01*
X88286087Y-88774450D01*
X88274501Y-88819576D01*
X88274500Y-88819586D01*
X88274500Y-88839620D01*
X88272973Y-88859019D01*
X88269840Y-88878798D01*
X88269840Y-88878799D01*
X88274225Y-88925187D01*
X88274500Y-88931025D01*
X88274500Y-88992867D01*
X88254815Y-89059906D01*
X88202011Y-89105661D01*
X88132853Y-89115605D01*
X88071460Y-89088411D01*
X88045361Y-89066820D01*
X88042438Y-89064243D01*
X88000585Y-89024940D01*
X88000577Y-89024934D01*
X87993415Y-89020997D01*
X87974114Y-89007880D01*
X87967824Y-89002676D01*
X87915878Y-88978232D01*
X87912417Y-88976469D01*
X87862092Y-88948803D01*
X87862089Y-88948802D01*
X87862085Y-88948800D01*
X87854174Y-88946769D01*
X87832222Y-88938866D01*
X87824825Y-88935385D01*
X87824821Y-88935384D01*
X87768444Y-88924630D01*
X87764644Y-88923780D01*
X87709023Y-88909500D01*
X87709019Y-88909500D01*
X87700847Y-88909500D01*
X87677615Y-88907304D01*
X87669588Y-88905773D01*
X87669586Y-88905773D01*
X87660633Y-88906336D01*
X87612275Y-88909378D01*
X87608403Y-88909500D01*
X84224500Y-88909500D01*
X84157461Y-88889815D01*
X84111706Y-88837011D01*
X84100500Y-88785500D01*
X84100500Y-88684997D01*
X84100499Y-88684984D01*
X84094886Y-88630045D01*
X84089999Y-88582203D01*
X84034814Y-88415666D01*
X84033590Y-88413682D01*
X83942713Y-88266348D01*
X83942710Y-88266344D01*
X83818655Y-88142289D01*
X83818651Y-88142286D01*
X83673482Y-88052744D01*
X83626757Y-88000796D01*
X83615536Y-87931834D01*
X83643379Y-87867752D01*
X83673482Y-87841667D01*
X83818344Y-87752315D01*
X83942315Y-87628344D01*
X84034356Y-87479123D01*
X84034358Y-87479118D01*
X84089505Y-87312696D01*
X84089506Y-87312689D01*
X84099999Y-87209985D01*
X84100000Y-87209972D01*
X84100000Y-86610000D01*
X83044852Y-86610000D01*
X83093559Y-86472953D01*
X83103877Y-86322114D01*
X83073116Y-86174085D01*
X83039910Y-86110000D01*
X84100000Y-86110000D01*
X84100000Y-85510027D01*
X84099999Y-85510014D01*
X84089506Y-85407310D01*
X84089505Y-85407303D01*
X84034358Y-85240881D01*
X84034356Y-85240876D01*
X83942315Y-85091655D01*
X83818344Y-84967684D01*
X83673482Y-84878332D01*
X83626757Y-84826384D01*
X83615536Y-84757421D01*
X83643379Y-84693339D01*
X83673476Y-84667259D01*
X83818655Y-84577711D01*
X83942711Y-84453655D01*
X84034814Y-84304334D01*
X84089999Y-84137797D01*
X84100500Y-84035008D01*
X84100500Y-82334992D01*
X84089999Y-82232203D01*
X84034814Y-82065666D01*
X83942711Y-81916345D01*
X83818655Y-81792289D01*
X83818651Y-81792286D01*
X83669337Y-81700187D01*
X83669335Y-81700186D01*
X83586065Y-81672593D01*
X83502797Y-81645001D01*
X83502795Y-81645000D01*
X83400015Y-81634500D01*
X83400008Y-81634500D01*
X81699992Y-81634500D01*
X81699984Y-81634500D01*
X81597204Y-81645000D01*
X81597203Y-81645001D01*
X81430664Y-81700186D01*
X81430662Y-81700187D01*
X81281348Y-81792286D01*
X81281344Y-81792289D01*
X81157289Y-81916344D01*
X81157286Y-81916348D01*
X81065187Y-82065662D01*
X81065186Y-82065664D01*
X81010001Y-82232203D01*
X81010000Y-82232204D01*
X80999500Y-82334984D01*
X80999500Y-84035015D01*
X81010000Y-84137795D01*
X81010001Y-84137796D01*
X81065186Y-84304335D01*
X81065187Y-84304337D01*
X81157286Y-84453651D01*
X81157289Y-84453655D01*
X81281344Y-84577710D01*
X81281348Y-84577713D01*
X81426517Y-84667255D01*
X81473242Y-84719203D01*
X81484463Y-84788165D01*
X81456620Y-84852247D01*
X81426517Y-84878331D01*
X81281660Y-84967680D01*
X81281656Y-84967683D01*
X81157684Y-85091655D01*
X81065643Y-85240876D01*
X81065641Y-85240881D01*
X81010494Y-85407303D01*
X81010493Y-85407310D01*
X81000000Y-85510014D01*
X81000000Y-86110000D01*
X82055148Y-86110000D01*
X82006441Y-86247047D01*
X81996123Y-86397886D01*
X82026884Y-86545915D01*
X82060090Y-86610000D01*
X81000000Y-86610000D01*
X81000000Y-87209985D01*
X81010493Y-87312689D01*
X81010494Y-87312696D01*
X81065641Y-87479118D01*
X81065643Y-87479123D01*
X81157684Y-87628344D01*
X81281655Y-87752315D01*
X81426517Y-87841667D01*
X81473241Y-87893615D01*
X81484464Y-87962578D01*
X81456620Y-88026660D01*
X81426518Y-88052744D01*
X81281345Y-88142288D01*
X81157289Y-88266344D01*
X81157286Y-88266348D01*
X81065187Y-88415662D01*
X81065186Y-88415664D01*
X81010001Y-88582203D01*
X81010000Y-88582204D01*
X80999500Y-88684984D01*
X80999500Y-90385015D01*
X81010000Y-90487795D01*
X81010001Y-90487796D01*
X81065186Y-90654335D01*
X81065187Y-90654337D01*
X81157286Y-90803651D01*
X81157289Y-90803655D01*
X81281344Y-90927710D01*
X81281348Y-90927713D01*
X81426041Y-91016962D01*
X81472766Y-91068910D01*
X81483987Y-91137873D01*
X81456144Y-91201954D01*
X81426041Y-91228038D01*
X81281348Y-91317286D01*
X81281344Y-91317289D01*
X81157289Y-91441344D01*
X81157286Y-91441348D01*
X81065187Y-91590662D01*
X81065186Y-91590664D01*
X81010001Y-91757203D01*
X81010000Y-91757204D01*
X80999500Y-91859984D01*
X80999500Y-93560015D01*
X81010000Y-93662795D01*
X81010001Y-93662797D01*
X81032139Y-93729606D01*
X81065186Y-93829335D01*
X81065187Y-93829337D01*
X81157286Y-93978651D01*
X81157289Y-93978655D01*
X81281344Y-94102710D01*
X81281348Y-94102713D01*
X81426041Y-94191962D01*
X81472766Y-94243910D01*
X81483987Y-94312873D01*
X81456144Y-94376954D01*
X81426041Y-94403038D01*
X81281348Y-94492286D01*
X81281344Y-94492289D01*
X81157289Y-94616344D01*
X81157286Y-94616348D01*
X81065187Y-94765662D01*
X81065186Y-94765664D01*
X81010001Y-94932203D01*
X81010000Y-94932204D01*
X80999500Y-95034984D01*
X80999500Y-96735015D01*
X81010000Y-96837795D01*
X81010001Y-96837797D01*
X81037593Y-96921065D01*
X81065186Y-97004335D01*
X81065187Y-97004337D01*
X81157286Y-97153651D01*
X81157289Y-97153655D01*
X81281344Y-97277710D01*
X81281348Y-97277713D01*
X81426041Y-97366962D01*
X81472766Y-97418910D01*
X81483987Y-97487873D01*
X81456144Y-97551954D01*
X81426041Y-97578038D01*
X81281348Y-97667286D01*
X81281344Y-97667289D01*
X81157289Y-97791344D01*
X81157286Y-97791348D01*
X81065187Y-97940662D01*
X81065186Y-97940664D01*
X81010001Y-98107203D01*
X81010000Y-98107204D01*
X80999500Y-98209984D01*
X80999500Y-99910015D01*
X81010000Y-100012795D01*
X81010001Y-100012796D01*
X81065186Y-100179335D01*
X81065187Y-100179337D01*
X81157286Y-100328651D01*
X81157289Y-100328655D01*
X81281344Y-100452710D01*
X81281348Y-100452713D01*
X81426041Y-100541962D01*
X81472766Y-100593910D01*
X81483987Y-100662873D01*
X81456144Y-100726954D01*
X81426041Y-100753038D01*
X81281348Y-100842286D01*
X81281344Y-100842289D01*
X81157289Y-100966344D01*
X81157286Y-100966348D01*
X81065187Y-101115662D01*
X81065186Y-101115664D01*
X81010001Y-101282203D01*
X81010000Y-101282204D01*
X80999500Y-101384984D01*
X80999500Y-103085015D01*
X81010000Y-103187795D01*
X81010001Y-103187797D01*
X81022938Y-103226838D01*
X81065186Y-103354335D01*
X81065187Y-103354337D01*
X81157286Y-103503651D01*
X81157289Y-103503655D01*
X81281344Y-103627710D01*
X81281348Y-103627713D01*
X81426041Y-103716962D01*
X81472766Y-103768910D01*
X81483987Y-103837873D01*
X81456144Y-103901954D01*
X81426041Y-103928038D01*
X81281348Y-104017286D01*
X81281344Y-104017289D01*
X81157289Y-104141344D01*
X81157286Y-104141348D01*
X81065187Y-104290662D01*
X81065186Y-104290664D01*
X81010001Y-104457203D01*
X81010000Y-104457204D01*
X80999500Y-104559984D01*
X80999500Y-106260015D01*
X81010000Y-106362795D01*
X81010001Y-106362797D01*
X81029290Y-106421007D01*
X81065186Y-106529335D01*
X81065187Y-106529337D01*
X81157286Y-106678651D01*
X81157289Y-106678655D01*
X81281344Y-106802710D01*
X81281348Y-106802713D01*
X81426041Y-106891962D01*
X81472766Y-106943910D01*
X81483987Y-107012873D01*
X81456144Y-107076954D01*
X81426041Y-107103038D01*
X81281348Y-107192286D01*
X81281344Y-107192289D01*
X81157289Y-107316344D01*
X81157286Y-107316348D01*
X81065187Y-107465662D01*
X81065186Y-107465664D01*
X81010001Y-107632203D01*
X81010000Y-107632204D01*
X80999500Y-107734984D01*
X80999500Y-109435015D01*
X80010500Y-109435015D01*
X80010500Y-80645003D01*
X84774669Y-80645003D01*
X84793976Y-80976484D01*
X84793977Y-80976495D01*
X84851631Y-81303467D01*
X84851634Y-81303481D01*
X84946866Y-81621580D01*
X85078379Y-81926461D01*
X85078385Y-81926474D01*
X85244406Y-82214031D01*
X85442678Y-82480356D01*
X85442683Y-82480362D01*
X85442690Y-82480371D01*
X85670553Y-82721893D01*
X85825762Y-82852128D01*
X85924912Y-82935325D01*
X85924920Y-82935331D01*
X86202330Y-83117787D01*
X86202334Y-83117789D01*
X86499061Y-83266811D01*
X86811082Y-83380377D01*
X86811088Y-83380378D01*
X86811090Y-83380379D01*
X87134161Y-83456949D01*
X87134168Y-83456950D01*
X87134177Y-83456952D01*
X87463977Y-83495500D01*
X87463984Y-83495500D01*
X87796016Y-83495500D01*
X87796023Y-83495500D01*
X88125823Y-83456952D01*
X88125832Y-83456949D01*
X88125838Y-83456949D01*
X88386445Y-83395183D01*
X88448918Y-83380377D01*
X88760939Y-83266811D01*
X89057666Y-83117789D01*
X89335085Y-82935327D01*
X89589447Y-82721893D01*
X89817310Y-82480371D01*
X90015594Y-82214030D01*
X90181617Y-81926470D01*
X90186564Y-81915001D01*
X108549532Y-81915001D01*
X108569364Y-82141686D01*
X108569366Y-82141697D01*
X108628258Y-82361488D01*
X108628261Y-82361497D01*
X108724431Y-82567732D01*
X108724432Y-82567734D01*
X108854954Y-82754141D01*
X109015858Y-82915045D01*
X109015861Y-82915047D01*
X109202266Y-83045568D01*
X109408504Y-83141739D01*
X109628308Y-83200635D01*
X109790230Y-83214801D01*
X109854998Y-83220468D01*
X109855000Y-83220468D01*
X109855002Y-83220468D01*
X109911673Y-83215509D01*
X110081692Y-83200635D01*
X110301496Y-83141739D01*
X110507734Y-83045568D01*
X110694139Y-82915047D01*
X110855047Y-82754139D01*
X110985568Y-82567734D01*
X111081739Y-82361496D01*
X111140635Y-82141692D01*
X111160468Y-81915000D01*
X111140635Y-81688308D01*
X111081739Y-81468504D01*
X110985568Y-81262266D01*
X110855047Y-81075861D01*
X110855045Y-81075858D01*
X110694141Y-80914954D01*
X110507734Y-80784432D01*
X110507732Y-80784431D01*
X110301497Y-80688261D01*
X110301488Y-80688258D01*
X110140056Y-80645003D01*
X113349669Y-80645003D01*
X113368976Y-80976484D01*
X113368977Y-80976495D01*
X113426631Y-81303467D01*
X113426634Y-81303481D01*
X113521866Y-81621580D01*
X113653379Y-81926461D01*
X113653385Y-81926474D01*
X113819406Y-82214031D01*
X114017678Y-82480356D01*
X114017683Y-82480362D01*
X114017690Y-82480371D01*
X114245553Y-82721893D01*
X114400762Y-82852128D01*
X114499912Y-82935325D01*
X114499920Y-82935331D01*
X114777330Y-83117787D01*
X114777334Y-83117789D01*
X115074061Y-83266811D01*
X115386082Y-83380377D01*
X115386088Y-83380378D01*
X115386090Y-83380379D01*
X115709161Y-83456949D01*
X115709168Y-83456950D01*
X115709177Y-83456952D01*
X116038977Y-83495500D01*
X116038984Y-83495500D01*
X116371016Y-83495500D01*
X116371023Y-83495500D01*
X116700823Y-83456952D01*
X116700832Y-83456949D01*
X116700838Y-83456949D01*
X116961445Y-83395183D01*
X117023918Y-83380377D01*
X117335939Y-83266811D01*
X117632666Y-83117789D01*
X117910085Y-82935327D01*
X118164447Y-82721893D01*
X118392310Y-82480371D01*
X118590594Y-82214030D01*
X118756617Y-81926470D01*
X118888133Y-81621581D01*
X118983365Y-81303485D01*
X119041024Y-80976484D01*
X119060331Y-80645000D01*
X119059420Y-80629366D01*
X119047808Y-80429992D01*
X119041024Y-80313516D01*
X119014072Y-80160666D01*
X118983368Y-79986532D01*
X118983367Y-79986531D01*
X118983365Y-79986515D01*
X118888133Y-79668419D01*
X118756617Y-79363530D01*
X118590594Y-79075970D01*
X118590593Y-79075968D01*
X118392321Y-78809643D01*
X118392314Y-78809635D01*
X118392310Y-78809629D01*
X118164447Y-78568107D01*
X118002153Y-78431926D01*
X117910087Y-78354674D01*
X117910079Y-78354668D01*
X117632669Y-78172212D01*
X117335946Y-78023192D01*
X117335940Y-78023189D01*
X117023930Y-77909627D01*
X117023909Y-77909620D01*
X116700838Y-77833050D01*
X116700823Y-77833048D01*
X116371023Y-77794500D01*
X116038977Y-77794500D01*
X115750402Y-77828229D01*
X115709176Y-77833048D01*
X115709161Y-77833050D01*
X115386090Y-77909620D01*
X115386069Y-77909627D01*
X115074059Y-78023189D01*
X115074053Y-78023192D01*
X114777330Y-78172212D01*
X114499920Y-78354668D01*
X114499912Y-78354674D01*
X114293936Y-78527508D01*
X114245553Y-78568107D01*
X114017690Y-78809629D01*
X114017687Y-78809632D01*
X114017685Y-78809635D01*
X114017678Y-78809643D01*
X113819406Y-79075968D01*
X113653385Y-79363525D01*
X113653379Y-79363538D01*
X113521866Y-79668419D01*
X113426634Y-79986518D01*
X113426631Y-79986532D01*
X113368977Y-80313504D01*
X113368976Y-80313515D01*
X113349669Y-80644996D01*
X113349669Y-80645003D01*
X110140056Y-80645003D01*
X110081697Y-80629366D01*
X110081693Y-80629365D01*
X110081692Y-80629365D01*
X110081691Y-80629364D01*
X110081686Y-80629364D01*
X109855002Y-80609532D01*
X109854998Y-80609532D01*
X109628313Y-80629364D01*
X109628302Y-80629366D01*
X109408511Y-80688258D01*
X109408502Y-80688261D01*
X109202267Y-80784431D01*
X109202265Y-80784432D01*
X109015858Y-80914954D01*
X108854954Y-81075858D01*
X108724432Y-81262265D01*
X108724431Y-81262267D01*
X108628261Y-81468502D01*
X108628258Y-81468511D01*
X108569366Y-81688302D01*
X108569364Y-81688313D01*
X108549532Y-81914998D01*
X108549532Y-81915001D01*
X90186564Y-81915001D01*
X90313133Y-81621581D01*
X90408365Y-81303485D01*
X90466024Y-80976484D01*
X90485331Y-80645000D01*
X90484420Y-80629366D01*
X90472808Y-80429992D01*
X90466024Y-80313516D01*
X90439072Y-80160666D01*
X90408368Y-79986532D01*
X90408367Y-79986531D01*
X90408365Y-79986515D01*
X90313133Y-79668419D01*
X90181617Y-79363530D01*
X90015594Y-79075970D01*
X90015593Y-79075968D01*
X89817321Y-78809643D01*
X89817314Y-78809635D01*
X89817310Y-78809629D01*
X89589447Y-78568107D01*
X89427153Y-78431926D01*
X89335087Y-78354674D01*
X89335079Y-78354668D01*
X89057669Y-78172212D01*
X88760946Y-78023192D01*
X88760940Y-78023189D01*
X88448930Y-77909627D01*
X88448909Y-77909620D01*
X88125838Y-77833050D01*
X88125823Y-77833048D01*
X87796023Y-77794500D01*
X87463977Y-77794500D01*
X87175402Y-77828229D01*
X87134176Y-77833048D01*
X87134161Y-77833050D01*
X86811090Y-77909620D01*
X86811069Y-77909627D01*
X86499059Y-78023189D01*
X86499053Y-78023192D01*
X86202330Y-78172212D01*
X85924920Y-78354668D01*
X85924912Y-78354674D01*
X85718936Y-78527508D01*
X85670553Y-78568107D01*
X85442690Y-78809629D01*
X85442687Y-78809632D01*
X85442685Y-78809635D01*
X85442678Y-78809643D01*
X85244406Y-79075968D01*
X85078385Y-79363525D01*
X85078379Y-79363538D01*
X84946866Y-79668419D01*
X84851634Y-79986518D01*
X84851631Y-79986532D01*
X84793977Y-80313504D01*
X84793976Y-80313515D01*
X84774669Y-80644996D01*
X84774669Y-80645003D01*
X80010500Y-80645003D01*
X80010500Y-76324500D01*
X80030185Y-76257461D01*
X80082989Y-76211706D01*
X80134500Y-76200500D01*
X126240500Y-76200500D01*
X126307539Y-76220185D01*
G37*
%TD.AperFunction*%
%TD*%
M02*
