%TF.GenerationSoftware,KiCad,Pcbnew,7.0.8*%
%TF.CreationDate,2023-10-24T07:18:39+02:00*%
%TF.ProjectId,convertisseur-video-atari-2600-secam-kit,636f6e76-6572-4746-9973-736575722d76,rev?*%
%TF.SameCoordinates,Original*%
%TF.FileFunction,Drillmap*%
%TF.FilePolarity,Positive*%
%FSLAX45Y45*%
G04 Gerber Fmt 4.5, Leading zero omitted, Abs format (unit mm)*
G04 Created by KiCad (PCBNEW 7.0.8) date 2023-10-24 07:18:39*
%MOMM*%
%LPD*%
G01*
G04 APERTURE LIST*
%ADD10C,0.100000*%
%ADD11C,0.200000*%
G04 APERTURE END LIST*
D10*
X12636500Y-7620000D02*
X8001000Y-7620000D01*
X8001000Y-7620000D02*
X8001000Y-12573000D01*
X12636500Y-7620000D02*
X12636500Y-12573000D01*
X12636500Y-12573000D02*
X8001000Y-12573000D01*
D11*
X8256777Y-12889484D02*
X8256777Y-12689484D01*
X8256777Y-12689484D02*
X8304396Y-12689484D01*
X8304396Y-12689484D02*
X8332967Y-12699008D01*
X8332967Y-12699008D02*
X8352015Y-12718055D01*
X8352015Y-12718055D02*
X8361539Y-12737103D01*
X8361539Y-12737103D02*
X8371062Y-12775198D01*
X8371062Y-12775198D02*
X8371062Y-12803769D01*
X8371062Y-12803769D02*
X8361539Y-12841865D01*
X8361539Y-12841865D02*
X8352015Y-12860912D01*
X8352015Y-12860912D02*
X8332967Y-12879960D01*
X8332967Y-12879960D02*
X8304396Y-12889484D01*
X8304396Y-12889484D02*
X8256777Y-12889484D01*
X8456777Y-12889484D02*
X8456777Y-12756150D01*
X8456777Y-12794246D02*
X8466301Y-12775198D01*
X8466301Y-12775198D02*
X8475824Y-12765674D01*
X8475824Y-12765674D02*
X8494872Y-12756150D01*
X8494872Y-12756150D02*
X8513920Y-12756150D01*
X8580586Y-12889484D02*
X8580586Y-12756150D01*
X8580586Y-12689484D02*
X8571063Y-12699008D01*
X8571063Y-12699008D02*
X8580586Y-12708531D01*
X8580586Y-12708531D02*
X8590110Y-12699008D01*
X8590110Y-12699008D02*
X8580586Y-12689484D01*
X8580586Y-12689484D02*
X8580586Y-12708531D01*
X8704396Y-12889484D02*
X8685348Y-12879960D01*
X8685348Y-12879960D02*
X8675824Y-12860912D01*
X8675824Y-12860912D02*
X8675824Y-12689484D01*
X8809158Y-12889484D02*
X8790110Y-12879960D01*
X8790110Y-12879960D02*
X8780586Y-12860912D01*
X8780586Y-12860912D02*
X8780586Y-12689484D01*
X9037729Y-12889484D02*
X9037729Y-12689484D01*
X9037729Y-12689484D02*
X9104396Y-12832341D01*
X9104396Y-12832341D02*
X9171063Y-12689484D01*
X9171063Y-12689484D02*
X9171063Y-12889484D01*
X9352015Y-12889484D02*
X9352015Y-12784722D01*
X9352015Y-12784722D02*
X9342491Y-12765674D01*
X9342491Y-12765674D02*
X9323444Y-12756150D01*
X9323444Y-12756150D02*
X9285348Y-12756150D01*
X9285348Y-12756150D02*
X9266301Y-12765674D01*
X9352015Y-12879960D02*
X9332967Y-12889484D01*
X9332967Y-12889484D02*
X9285348Y-12889484D01*
X9285348Y-12889484D02*
X9266301Y-12879960D01*
X9266301Y-12879960D02*
X9256777Y-12860912D01*
X9256777Y-12860912D02*
X9256777Y-12841865D01*
X9256777Y-12841865D02*
X9266301Y-12822817D01*
X9266301Y-12822817D02*
X9285348Y-12813293D01*
X9285348Y-12813293D02*
X9332967Y-12813293D01*
X9332967Y-12813293D02*
X9352015Y-12803769D01*
X9447253Y-12756150D02*
X9447253Y-12956150D01*
X9447253Y-12765674D02*
X9466301Y-12756150D01*
X9466301Y-12756150D02*
X9504396Y-12756150D01*
X9504396Y-12756150D02*
X9523444Y-12765674D01*
X9523444Y-12765674D02*
X9532967Y-12775198D01*
X9532967Y-12775198D02*
X9542491Y-12794246D01*
X9542491Y-12794246D02*
X9542491Y-12851388D01*
X9542491Y-12851388D02*
X9532967Y-12870436D01*
X9532967Y-12870436D02*
X9523444Y-12879960D01*
X9523444Y-12879960D02*
X9504396Y-12889484D01*
X9504396Y-12889484D02*
X9466301Y-12889484D01*
X9466301Y-12889484D02*
X9447253Y-12879960D01*
X9628205Y-12870436D02*
X9637729Y-12879960D01*
X9637729Y-12879960D02*
X9628205Y-12889484D01*
X9628205Y-12889484D02*
X9618682Y-12879960D01*
X9618682Y-12879960D02*
X9628205Y-12870436D01*
X9628205Y-12870436D02*
X9628205Y-12889484D01*
X9628205Y-12765674D02*
X9637729Y-12775198D01*
X9637729Y-12775198D02*
X9628205Y-12784722D01*
X9628205Y-12784722D02*
X9618682Y-12775198D01*
X9618682Y-12775198D02*
X9628205Y-12765674D01*
X9628205Y-12765674D02*
X9628205Y-12784722D01*
M02*
