M48
; DRILL file {KiCad 7.0.8} date Tuesday, 24 October 2023 at 07:18:40
; FORMAT={-:-/ absolute / inch / decimal}
; #@! TF.CreationDate,2023-10-24T07:18:40+02:00
; #@! TF.GenerationSoftware,Kicad,Pcbnew,7.0.8
; #@! TF.FileFunction,Plated,1,2,PTH
FMAT,2
INCH
; #@! TA.AperFunction,Plated,PTH,ViaDrill
T1C0.0157
; #@! TA.AperFunction,Plated,PTH,ComponentDrill
T2C0.0315
; #@! TA.AperFunction,Plated,PTH,ComponentDrill
T3C0.0354
; #@! TA.AperFunction,Plated,PTH,ComponentDrill
T4C0.0433
; #@! TA.AperFunction,Plated,PTH,ComponentDrill
T5C0.0440
; #@! TA.AperFunction,Plated,PTH,ComponentDrill
T6C0.1063
%
G90
G05
T1
X3.65Y-3.625
T2
X3.525Y-4.225
X3.525Y-4.625
X3.6Y-3.3016
X3.6Y-3.4984
X3.675Y-4.225
X3.675Y-4.625
X3.775Y-3.3
X3.775Y-3.45
X3.775Y-3.6
X3.825Y-4.225
X3.825Y-4.625
X3.975Y-4.225
X3.975Y-4.625
X4.125Y-4.225
X4.125Y-4.625
X4.175Y-3.3
X4.175Y-3.45
X4.175Y-3.6
X4.275Y-4.225
X4.275Y-4.625
X4.325Y-3.225
X4.325Y-3.625
X4.4016Y-3.95
X4.5Y-3.95
T3
X4.475Y-4.175
X4.475Y-4.575
X4.625Y-4.175
X4.625Y-4.575
T4
X3.25Y-3.275
X3.25Y-3.4
X3.25Y-3.525
X3.25Y-3.65
X3.25Y-3.775
X3.25Y-3.9
X3.25Y-4.025
X3.25Y-4.15
X3.25Y-4.275
X3.25Y-4.475
X3.25Y-4.625
X4.875Y-3.2
X4.875Y-3.325
X4.875Y-3.45
X4.875Y-3.575
X4.875Y-3.7
X4.875Y-3.825
X4.875Y-3.95
X4.875Y-4.075
X4.875Y-4.2
X4.875Y-4.325
X4.875Y-4.45
X4.875Y-4.575
X4.875Y-4.7
X4.875Y-4.825
T5
X3.575Y-3.75
X3.575Y-4.05
X3.675Y-3.75
X3.675Y-4.05
X3.775Y-3.75
X3.775Y-4.05
X3.875Y-3.75
X3.875Y-4.05
X3.975Y-3.75
X3.975Y-4.05
X4.075Y-3.75
X4.075Y-4.05
X4.175Y-3.75
X4.175Y-4.05
T6
X3.45Y-3.175
X3.5Y-4.8
X4.575Y-3.175
X4.575Y-4.8
T0
M30
