%TF.GenerationSoftware,KiCad,Pcbnew,7.0.8*%
%TF.CreationDate,2023-10-24T07:18:52+02:00*%
%TF.ProjectId,convertisseur-video-atari-2600-secam-kit,636f6e76-6572-4746-9973-736575722d76,rev?*%
%TF.SameCoordinates,Original*%
%TF.FileFunction,Copper,L1,Top*%
%TF.FilePolarity,Positive*%
%FSLAX46Y46*%
G04 Gerber Fmt 4.6, Leading zero omitted, Abs format (unit mm)*
G04 Created by KiCad (PCBNEW 7.0.8) date 2023-10-24 07:18:52*
%MOMM*%
%LPD*%
G01*
G04 APERTURE LIST*
G04 Aperture macros list*
%AMRoundRect*
0 Rectangle with rounded corners*
0 $1 Rounding radius*
0 $2 $3 $4 $5 $6 $7 $8 $9 X,Y pos of 4 corners*
0 Add a 4 corners polygon primitive as box body*
4,1,4,$2,$3,$4,$5,$6,$7,$8,$9,$2,$3,0*
0 Add four circle primitives for the rounded corners*
1,1,$1+$1,$2,$3*
1,1,$1+$1,$4,$5*
1,1,$1+$1,$6,$7*
1,1,$1+$1,$8,$9*
0 Add four rect primitives between the rounded corners*
20,1,$1+$1,$2,$3,$4,$5,0*
20,1,$1+$1,$4,$5,$6,$7,0*
20,1,$1+$1,$6,$7,$8,$9,0*
20,1,$1+$1,$8,$9,$2,$3,0*%
G04 Aperture macros list end*
%TA.AperFunction,ComponentPad*%
%ADD10R,1.600000X1.600000*%
%TD*%
%TA.AperFunction,ComponentPad*%
%ADD11C,1.600000*%
%TD*%
%TA.AperFunction,ComponentPad*%
%ADD12C,4.700000*%
%TD*%
%TA.AperFunction,ComponentPad*%
%ADD13RoundRect,0.250001X-0.799999X-0.799999X0.799999X-0.799999X0.799999X0.799999X-0.799999X0.799999X0*%
%TD*%
%TA.AperFunction,ComponentPad*%
%ADD14O,1.600000X1.600000*%
%TD*%
%TA.AperFunction,ComponentPad*%
%ADD15R,1.676400X1.676400*%
%TD*%
%TA.AperFunction,ComponentPad*%
%ADD16C,1.676400*%
%TD*%
%TA.AperFunction,ComponentPad*%
%ADD17R,1.800000X1.800000*%
%TD*%
%TA.AperFunction,ComponentPad*%
%ADD18O,1.800000X1.800000*%
%TD*%
%TA.AperFunction,ViaPad*%
%ADD19C,0.800000*%
%TD*%
%TA.AperFunction,Conductor*%
%ADD20C,0.250000*%
%TD*%
G04 APERTURE END LIST*
D10*
%TO.P,C2,1*%
%TO.N,Net-(C2-Pad1)*%
X111800000Y-100330000D03*
D11*
%TO.P,C2,2*%
%TO.N,/SCART_audio*%
X114300000Y-100330000D03*
%TD*%
D12*
%TO.P,H1,1*%
%TO.N,N/C*%
X87630000Y-80645000D03*
%TD*%
%TO.P,H3,1*%
%TO.N,N/C*%
X88900000Y-121920000D03*
%TD*%
D13*
%TO.P,P8,1,Pin_1*%
%TO.N,/TIA_audio*%
X82550000Y-105410000D03*
%TD*%
D11*
%TO.P,R9,1*%
%TO.N,+12V*%
X100965000Y-107315000D03*
D14*
%TO.P,R9,2*%
%TO.N,/SCART_comL*%
X100965000Y-117475000D03*
%TD*%
D13*
%TO.P,P1,1,Pin_1*%
%TO.N,+5V*%
X82550000Y-83185000D03*
%TD*%
%TO.P,P15,1,Pin_1*%
%TO.N,/SCART_audio*%
X123825000Y-97155000D03*
%TD*%
%TO.P,P24,1,Pin_1*%
%TO.N,GND*%
X82550000Y-113665000D03*
%TD*%
%TO.P,P3,1,Pin_1*%
%TO.N,GND*%
X82550000Y-86360000D03*
%TD*%
D11*
%TO.P,R8,1*%
%TO.N,+12V*%
X97155000Y-107315000D03*
D14*
%TO.P,R8,2*%
%TO.N,/SCART_blank*%
X97155000Y-117475000D03*
%TD*%
D13*
%TO.P,P17,1,Pin_1*%
%TO.N,GND*%
X123825000Y-106680000D03*
%TD*%
D11*
%TO.P,R6,1*%
%TO.N,GND*%
X108585000Y-107315000D03*
D14*
%TO.P,R6,2*%
%TO.N,Net-(C2-Pad1)*%
X108585000Y-117475000D03*
%TD*%
D11*
%TO.P,R3,1*%
%TO.N,Net-(U1-3Y)*%
X95885000Y-91440000D03*
D14*
%TO.P,R3,2*%
%TO.N,/SCART_R*%
X106045000Y-91440000D03*
%TD*%
D13*
%TO.P,P13,1,Pin_1*%
%TO.N,/SCART_comL*%
X123825000Y-100330000D03*
%TD*%
D12*
%TO.P,H4,1*%
%TO.N,N/C*%
X116205000Y-121920000D03*
%TD*%
D13*
%TO.P,P25,1,Pin_1*%
%TO.N,/TIA_audio*%
X82550000Y-108585000D03*
%TD*%
D15*
%TO.P,U1,1,1A*%
%TO.N,/TIA_lum0*%
X90805000Y-102870000D03*
D16*
%TO.P,U1,2,1B*%
X93345000Y-102870000D03*
%TO.P,U1,3,1Y*%
%TO.N,Net-(U1-1Y)*%
X95885000Y-102870000D03*
%TO.P,U1,4,2A*%
%TO.N,/TIA_lum2*%
X98425000Y-102870000D03*
%TO.P,U1,5,2B*%
X100965000Y-102870000D03*
%TO.P,U1,6,2Y*%
%TO.N,Net-(U1-2Y)*%
X103505000Y-102870000D03*
%TO.P,U1,7,GND*%
%TO.N,GND*%
X106045000Y-102870000D03*
%TO.P,U1,8,3Y*%
%TO.N,Net-(U1-3Y)*%
X106045000Y-95250000D03*
%TO.P,U1,9,3A*%
%TO.N,/TIA_lum1*%
X103505000Y-95250000D03*
%TO.P,U1,10,3B*%
X100965000Y-95250000D03*
%TO.P,U1,11,4Y*%
%TO.N,Net-(U1-4Y)*%
X98425000Y-95250000D03*
%TO.P,U1,12,4A*%
%TO.N,/TIA_synchro*%
X95885000Y-95250000D03*
%TO.P,U1,13,4B*%
X93345000Y-95250000D03*
%TO.P,U1,14,VCC*%
%TO.N,+5V*%
X90805000Y-95250000D03*
%TD*%
D13*
%TO.P,P22,1,Pin_1*%
%TO.N,GND*%
X123825000Y-122555000D03*
%TD*%
D11*
%TO.P,R5,1*%
%TO.N,/TIA_audio*%
X104775000Y-107315000D03*
D14*
%TO.P,R5,2*%
%TO.N,Net-(C2-Pad1)*%
X104775000Y-117475000D03*
%TD*%
D11*
%TO.P,R1,1*%
%TO.N,Net-(U1-1Y)*%
X95885000Y-87630000D03*
D14*
%TO.P,R1,2*%
%TO.N,/SCART_B*%
X106045000Y-87630000D03*
%TD*%
D11*
%TO.P,C1,1*%
%TO.N,GND*%
X91440000Y-88860000D03*
%TO.P,C1,2*%
%TO.N,+5V*%
X91440000Y-83860000D03*
%TD*%
D13*
%TO.P,P5,1,Pin_1*%
%TO.N,/TIA_lum1*%
X82550000Y-95885000D03*
%TD*%
%TO.P,P10,1,Pin_1*%
%TO.N,/SCART_V*%
X123825000Y-81280000D03*
%TD*%
%TO.P,P18,1,Pin_1*%
%TO.N,GND*%
X123825000Y-109855000D03*
%TD*%
%TO.P,P14,1,Pin_1*%
%TO.N,/SCART_blank*%
X123825000Y-103505000D03*
%TD*%
%TO.P,P7,1,Pin_1*%
%TO.N,/TIA_synchro*%
X82550000Y-92710000D03*
%TD*%
%TO.P,P19,1,Pin_1*%
%TO.N,GND*%
X123825000Y-113030000D03*
%TD*%
%TO.P,P16,1,Pin_1*%
%TO.N,/SCART_audio*%
X123825000Y-93980000D03*
%TD*%
%TO.P,P6,1,Pin_1*%
%TO.N,/TIA_lum2*%
X82550000Y-102235000D03*
%TD*%
D17*
%TO.P,D2,1,K*%
%TO.N,/SCART_comL*%
X113665000Y-116205000D03*
D18*
%TO.P,D2,2,A*%
%TO.N,GND*%
X113665000Y-106045000D03*
%TD*%
D11*
%TO.P,R4,1*%
%TO.N,Net-(U1-4Y)*%
X95885000Y-83820000D03*
D14*
%TO.P,R4,2*%
%TO.N,/SCART_SYNC*%
X106045000Y-83820000D03*
%TD*%
D13*
%TO.P,P2,1,Pin_1*%
%TO.N,+12V*%
X82550000Y-89535000D03*
%TD*%
%TO.P,P23,1,Pin_1*%
%TO.N,Net-(P23-Pin_1)*%
X82550000Y-117475000D03*
%TD*%
%TO.P,P4,1,Pin_1*%
%TO.N,/TIA_lum0*%
X82550000Y-99060000D03*
%TD*%
D17*
%TO.P,D1,1,K*%
%TO.N,/SCART_blank*%
X117475000Y-116205000D03*
D18*
%TO.P,D1,2,A*%
%TO.N,GND*%
X117475000Y-106045000D03*
%TD*%
D11*
%TO.P,R2,1*%
%TO.N,Net-(U1-2Y)*%
X109855000Y-92075000D03*
D14*
%TO.P,R2,2*%
%TO.N,/SCART_V*%
X109855000Y-81915000D03*
%TD*%
D13*
%TO.P,P11,1,Pin_1*%
%TO.N,/SCART_B*%
X123825000Y-87630000D03*
%TD*%
%TO.P,P9,1,Pin_1*%
%TO.N,/SCART_R*%
X123825000Y-90805000D03*
%TD*%
%TO.P,P20,1,Pin_1*%
%TO.N,GND*%
X123825000Y-116205000D03*
%TD*%
%TO.P,P21,1,Pin_1*%
%TO.N,GND*%
X123825000Y-119380000D03*
%TD*%
D12*
%TO.P,H2,1*%
%TO.N,N/C*%
X116205000Y-80645000D03*
%TD*%
D13*
%TO.P,P12,1,Pin_1*%
%TO.N,/SCART_SYNC*%
X123825000Y-84455000D03*
%TD*%
D11*
%TO.P,R10,1*%
%TO.N,+12V*%
X89535000Y-107315000D03*
D14*
%TO.P,R10,2*%
%TO.N,Net-(P23-Pin_1)*%
X89535000Y-117475000D03*
%TD*%
D11*
%TO.P,R7,1*%
%TO.N,+12V*%
X93345000Y-107315000D03*
D14*
%TO.P,R7,2*%
%TO.N,/SCART_blank*%
X93345000Y-117475000D03*
%TD*%
D19*
%TO.N,Net-(U1-1Y)*%
X92710000Y-92075000D03*
%TD*%
D20*
%TO.N,GND*%
X123825000Y-116205000D02*
X123825000Y-119380000D01*
X108585000Y-107315000D02*
X109220000Y-106680000D01*
X123825000Y-106680000D02*
X123825000Y-109855000D01*
X88940000Y-86360000D02*
X91440000Y-88860000D01*
X117475000Y-106045000D02*
X123190000Y-106045000D01*
X109220000Y-106045000D02*
X106045000Y-102870000D01*
X123825000Y-109855000D02*
X123825000Y-113030000D01*
X82550000Y-86360000D02*
X88940000Y-86360000D01*
X109220000Y-106680000D02*
X109220000Y-106045000D01*
X123190000Y-106045000D02*
X123825000Y-106680000D01*
X113665000Y-106045000D02*
X109220000Y-106045000D01*
X123825000Y-119380000D02*
X123825000Y-122555000D01*
X113665000Y-106045000D02*
X117475000Y-106045000D01*
X123825000Y-113030000D02*
X123825000Y-116205000D01*
%TO.N,+5V*%
X86360000Y-84455000D02*
X89535000Y-84455000D01*
X90130000Y-83860000D02*
X91440000Y-83860000D01*
X82550000Y-83185000D02*
X85090000Y-83185000D01*
X89535000Y-84455000D02*
X90130000Y-83860000D01*
X85090000Y-83185000D02*
X86360000Y-84455000D01*
%TO.N,/SCART_audio*%
X118110000Y-100330000D02*
X118110000Y-97155000D01*
X114300000Y-100330000D02*
X118110000Y-100330000D01*
X123825000Y-97155000D02*
X123825000Y-93980000D01*
X118110000Y-97155000D02*
X123825000Y-97155000D01*
%TO.N,/SCART_blank*%
X116840000Y-116205000D02*
X111760000Y-121285000D01*
X111760000Y-121285000D02*
X97155000Y-121285000D01*
X117475000Y-116205000D02*
X116840000Y-116205000D01*
X97155000Y-117475000D02*
X93345000Y-117475000D01*
X97155000Y-121285000D02*
X97155000Y-117900000D01*
%TO.N,/SCART_comL*%
X111125000Y-120015000D02*
X100965000Y-120015000D01*
X113665000Y-116205000D02*
X113665000Y-117475000D01*
X100965000Y-120015000D02*
X100965000Y-117475000D01*
X113665000Y-117475000D02*
X111125000Y-120015000D01*
%TO.N,+12V*%
X89535000Y-107315000D02*
X93345000Y-107315000D01*
X97155000Y-107315000D02*
X100965000Y-107315000D01*
X93345000Y-107315000D02*
X97155000Y-107315000D01*
%TO.N,/TIA_lum0*%
X85090000Y-99060000D02*
X82550000Y-99060000D01*
X93345000Y-102870000D02*
X90805000Y-102870000D01*
X88900000Y-102870000D02*
X85090000Y-99060000D01*
X90805000Y-102870000D02*
X88900000Y-102870000D01*
%TO.N,/TIA_lum1*%
X100965000Y-95250000D02*
X103505000Y-95250000D01*
X87630000Y-97790000D02*
X100965000Y-97790000D01*
X82550000Y-95885000D02*
X85725000Y-95885000D01*
X85725000Y-95885000D02*
X87630000Y-97790000D01*
X100965000Y-97790000D02*
X100965000Y-95250000D01*
%TO.N,/TIA_lum2*%
X84455000Y-102235000D02*
X82550000Y-102235000D01*
X100965000Y-104775000D02*
X86995000Y-104775000D01*
X100965000Y-102870000D02*
X98425000Y-102870000D01*
X86995000Y-104775000D02*
X84455000Y-102235000D01*
X100965000Y-102870000D02*
X100965000Y-104775000D01*
%TO.N,/TIA_synchro*%
X92075000Y-93980000D02*
X93345000Y-95250000D01*
X92075000Y-92710000D02*
X92075000Y-93980000D01*
X82550000Y-92710000D02*
X92075000Y-92710000D01*
X93345000Y-95250000D02*
X95885000Y-95250000D01*
%TO.N,/TIA_audio*%
X82550000Y-105410000D02*
X82550000Y-108585000D01*
X85725000Y-108585000D02*
X87630000Y-110490000D01*
X82550000Y-108585000D02*
X85725000Y-108585000D01*
X103505000Y-110490000D02*
X104775000Y-109220000D01*
X87630000Y-110490000D02*
X103505000Y-110490000D01*
X104775000Y-109220000D02*
X104775000Y-107315000D01*
%TO.N,/SCART_R*%
X108585000Y-88900000D02*
X120015000Y-88900000D01*
X120015000Y-88900000D02*
X121920000Y-90805000D01*
X121920000Y-90805000D02*
X123825000Y-90805000D01*
X106045000Y-91440000D02*
X108585000Y-88900000D01*
%TO.N,/SCART_V*%
X119380000Y-83820000D02*
X121920000Y-81280000D01*
X111760000Y-81915000D02*
X113665000Y-83820000D01*
X121920000Y-81280000D02*
X123825000Y-81280000D01*
X113665000Y-83820000D02*
X119380000Y-83820000D01*
X109855000Y-81915000D02*
X111760000Y-81915000D01*
%TO.N,/SCART_B*%
X106045000Y-87630000D02*
X123825000Y-87630000D01*
%TO.N,/SCART_SYNC*%
X107315000Y-83820000D02*
X108585000Y-85090000D01*
X106045000Y-83820000D02*
X107315000Y-83820000D01*
X120015000Y-85090000D02*
X120650000Y-84455000D01*
X108585000Y-85090000D02*
X120015000Y-85090000D01*
X120650000Y-84455000D02*
X123825000Y-84455000D01*
%TO.N,Net-(P23-Pin_1)*%
X82550000Y-117475000D02*
X89535000Y-117475000D01*
%TO.N,Net-(U1-1Y)*%
X92710000Y-90805000D02*
X92710000Y-91350000D01*
X93345000Y-90170000D02*
X92710000Y-90805000D01*
X93980000Y-87630000D02*
X93980000Y-88900000D01*
X95885000Y-87630000D02*
X93980000Y-87630000D01*
X93345000Y-89535000D02*
X93345000Y-90170000D01*
X92710000Y-91350000D02*
X92710000Y-92075000D01*
X93980000Y-88900000D02*
X93345000Y-89535000D01*
%TO.N,Net-(U1-2Y)*%
X109855000Y-95885000D02*
X107950000Y-97790000D01*
X109855000Y-92075000D02*
X109855000Y-95885000D01*
X107950000Y-97790000D02*
X104140000Y-97790000D01*
X104140000Y-97790000D02*
X104140000Y-102235000D01*
X104140000Y-102235000D02*
X103505000Y-102870000D01*
%TO.N,Net-(U1-4Y)*%
X95885000Y-83820000D02*
X98425000Y-83820000D01*
X98425000Y-83820000D02*
X98425000Y-95250000D01*
%TD*%
%TA.AperFunction,Conductor*%
%TO.N,GND*%
G36*
X124075000Y-122063316D02*
G01*
X124046181Y-122045791D01*
X123900596Y-122005000D01*
X123787378Y-122005000D01*
X123675217Y-122020416D01*
X123575000Y-122063946D01*
X123575000Y-119871683D01*
X123603819Y-119889209D01*
X123749404Y-119930000D01*
X123862622Y-119930000D01*
X123974783Y-119914584D01*
X124075000Y-119871053D01*
X124075000Y-122063316D01*
G37*
%TD.AperFunction*%
%TA.AperFunction,Conductor*%
G36*
X124075000Y-118888316D02*
G01*
X124046181Y-118870791D01*
X123900596Y-118830000D01*
X123787378Y-118830000D01*
X123675217Y-118845416D01*
X123575000Y-118888946D01*
X123575000Y-116696683D01*
X123603819Y-116714209D01*
X123749404Y-116755000D01*
X123862622Y-116755000D01*
X123974783Y-116739584D01*
X124075000Y-116696053D01*
X124075000Y-118888316D01*
G37*
%TD.AperFunction*%
%TA.AperFunction,Conductor*%
G36*
X124075000Y-115713316D02*
G01*
X124046181Y-115695791D01*
X123900596Y-115655000D01*
X123787378Y-115655000D01*
X123675217Y-115670416D01*
X123575000Y-115713946D01*
X123575000Y-113521683D01*
X123603819Y-113539209D01*
X123749404Y-113580000D01*
X123862622Y-113580000D01*
X123974783Y-113564584D01*
X124075000Y-113521053D01*
X124075000Y-115713316D01*
G37*
%TD.AperFunction*%
%TA.AperFunction,Conductor*%
G36*
X124075000Y-112538316D02*
G01*
X124046181Y-112520791D01*
X123900596Y-112480000D01*
X123787378Y-112480000D01*
X123675217Y-112495416D01*
X123575000Y-112538946D01*
X123575000Y-110346683D01*
X123603819Y-110364209D01*
X123749404Y-110405000D01*
X123862622Y-110405000D01*
X123974783Y-110389584D01*
X124075000Y-110346053D01*
X124075000Y-112538316D01*
G37*
%TD.AperFunction*%
%TA.AperFunction,Conductor*%
G36*
X124075000Y-109363316D02*
G01*
X124046181Y-109345791D01*
X123900596Y-109305000D01*
X123787378Y-109305000D01*
X123675217Y-109320416D01*
X123575000Y-109363946D01*
X123575000Y-107171683D01*
X123603819Y-107189209D01*
X123749404Y-107230000D01*
X123862622Y-107230000D01*
X123974783Y-107214584D01*
X124075000Y-107171053D01*
X124075000Y-109363316D01*
G37*
%TD.AperFunction*%
%TA.AperFunction,Conductor*%
G36*
X126307539Y-76220185D02*
G01*
X126353294Y-76272989D01*
X126364500Y-76324500D01*
X126364500Y-125605500D01*
X126344815Y-125672539D01*
X126292011Y-125718294D01*
X126240500Y-125729500D01*
X80134500Y-125729500D01*
X80067461Y-125709815D01*
X80021706Y-125657011D01*
X80010500Y-125605500D01*
X80010500Y-121920003D01*
X86044669Y-121920003D01*
X86063976Y-122251484D01*
X86063977Y-122251495D01*
X86121631Y-122578467D01*
X86121634Y-122578481D01*
X86121635Y-122578485D01*
X86142578Y-122648439D01*
X86216866Y-122896580D01*
X86348379Y-123201461D01*
X86348385Y-123201474D01*
X86514406Y-123489031D01*
X86712678Y-123755356D01*
X86712683Y-123755362D01*
X86712690Y-123755371D01*
X86940553Y-123996893D01*
X87069391Y-124105000D01*
X87194912Y-124210325D01*
X87194920Y-124210331D01*
X87472330Y-124392787D01*
X87472334Y-124392789D01*
X87769061Y-124541811D01*
X88081082Y-124655377D01*
X88081088Y-124655378D01*
X88081090Y-124655379D01*
X88404161Y-124731949D01*
X88404168Y-124731950D01*
X88404177Y-124731952D01*
X88733977Y-124770500D01*
X88733984Y-124770500D01*
X89066016Y-124770500D01*
X89066023Y-124770500D01*
X89395823Y-124731952D01*
X89395832Y-124731949D01*
X89395838Y-124731949D01*
X89656445Y-124670183D01*
X89718918Y-124655377D01*
X90030939Y-124541811D01*
X90327666Y-124392789D01*
X90605085Y-124210327D01*
X90859447Y-123996893D01*
X91087310Y-123755371D01*
X91285594Y-123489030D01*
X91451617Y-123201470D01*
X91583133Y-122896581D01*
X91678365Y-122578485D01*
X91736024Y-122251484D01*
X91755331Y-121920000D01*
X91754861Y-121911939D01*
X91750955Y-121844862D01*
X91736024Y-121588516D01*
X91734721Y-121581129D01*
X91678368Y-121261532D01*
X91678367Y-121261531D01*
X91678365Y-121261515D01*
X91583133Y-120943419D01*
X91451617Y-120638530D01*
X91336983Y-120439978D01*
X91285593Y-120350968D01*
X91087321Y-120084643D01*
X91087314Y-120084635D01*
X91087310Y-120084629D01*
X90859447Y-119843107D01*
X90689084Y-119700156D01*
X90605087Y-119629674D01*
X90605079Y-119629668D01*
X90327669Y-119447212D01*
X90030946Y-119298192D01*
X90030940Y-119298189D01*
X89718930Y-119184627D01*
X89718909Y-119184620D01*
X89395838Y-119108050D01*
X89395823Y-119108048D01*
X89066023Y-119069500D01*
X88733977Y-119069500D01*
X88445402Y-119103229D01*
X88404176Y-119108048D01*
X88404161Y-119108050D01*
X88081090Y-119184620D01*
X88081069Y-119184627D01*
X87769059Y-119298189D01*
X87769053Y-119298192D01*
X87472330Y-119447212D01*
X87194920Y-119629668D01*
X87194912Y-119629674D01*
X87040867Y-119758934D01*
X86940553Y-119843107D01*
X86712690Y-120084629D01*
X86712687Y-120084632D01*
X86712685Y-120084635D01*
X86712678Y-120084643D01*
X86514406Y-120350968D01*
X86348385Y-120638525D01*
X86348379Y-120638538D01*
X86216866Y-120943419D01*
X86121634Y-121261518D01*
X86121631Y-121261532D01*
X86063977Y-121588504D01*
X86063976Y-121588515D01*
X86044669Y-121919996D01*
X86044669Y-121920003D01*
X80010500Y-121920003D01*
X80010500Y-118325015D01*
X80999500Y-118325015D01*
X81010000Y-118427795D01*
X81010001Y-118427797D01*
X81025658Y-118475047D01*
X81065186Y-118594335D01*
X81065187Y-118594337D01*
X81157286Y-118743651D01*
X81157289Y-118743655D01*
X81281344Y-118867710D01*
X81281348Y-118867713D01*
X81430662Y-118959812D01*
X81430664Y-118959813D01*
X81430666Y-118959814D01*
X81597203Y-119014999D01*
X81699992Y-119025500D01*
X81699997Y-119025500D01*
X83400003Y-119025500D01*
X83400008Y-119025500D01*
X83502797Y-119014999D01*
X83669334Y-118959814D01*
X83818655Y-118867711D01*
X83942711Y-118743655D01*
X84034814Y-118594334D01*
X84089999Y-118427797D01*
X84100500Y-118325008D01*
X84100500Y-118224500D01*
X84120185Y-118157461D01*
X84172989Y-118111706D01*
X84224500Y-118100500D01*
X88320812Y-118100500D01*
X88387851Y-118120185D01*
X88422387Y-118153377D01*
X88534954Y-118314141D01*
X88695858Y-118475045D01*
X88695861Y-118475047D01*
X88882266Y-118605568D01*
X89088504Y-118701739D01*
X89308308Y-118760635D01*
X89470230Y-118774801D01*
X89534998Y-118780468D01*
X89535000Y-118780468D01*
X89535002Y-118780468D01*
X89591673Y-118775509D01*
X89761692Y-118760635D01*
X89981496Y-118701739D01*
X90187734Y-118605568D01*
X90374139Y-118475047D01*
X90535047Y-118314139D01*
X90665568Y-118127734D01*
X90761739Y-117921496D01*
X90820635Y-117701692D01*
X90840468Y-117475001D01*
X92039532Y-117475001D01*
X92059364Y-117701686D01*
X92059366Y-117701697D01*
X92118258Y-117921488D01*
X92118261Y-117921497D01*
X92214431Y-118127732D01*
X92214432Y-118127734D01*
X92344954Y-118314141D01*
X92505858Y-118475045D01*
X92505861Y-118475047D01*
X92692266Y-118605568D01*
X92898504Y-118701739D01*
X93118308Y-118760635D01*
X93280230Y-118774801D01*
X93344998Y-118780468D01*
X93345000Y-118780468D01*
X93345002Y-118780468D01*
X93401673Y-118775509D01*
X93571692Y-118760635D01*
X93791496Y-118701739D01*
X93997734Y-118605568D01*
X94184139Y-118475047D01*
X94345047Y-118314139D01*
X94457613Y-118153377D01*
X94512189Y-118109752D01*
X94559188Y-118100500D01*
X95940812Y-118100500D01*
X96007851Y-118120185D01*
X96042387Y-118153377D01*
X96154954Y-118314141D01*
X96315858Y-118475045D01*
X96476623Y-118587613D01*
X96520248Y-118642189D01*
X96529500Y-118689188D01*
X96529500Y-121214152D01*
X96527305Y-121237379D01*
X96525773Y-121245412D01*
X96529378Y-121302724D01*
X96529500Y-121306595D01*
X96529500Y-121324356D01*
X96531725Y-121341968D01*
X96532091Y-121345843D01*
X96535696Y-121403138D01*
X96538222Y-121410914D01*
X96543309Y-121433672D01*
X96544334Y-121441784D01*
X96544336Y-121441792D01*
X96565469Y-121495170D01*
X96566788Y-121498833D01*
X96584532Y-121553440D01*
X96588907Y-121560333D01*
X96599503Y-121581129D01*
X96602511Y-121588726D01*
X96602513Y-121588731D01*
X96636265Y-121635187D01*
X96638455Y-121638409D01*
X96669213Y-121686876D01*
X96675164Y-121692464D01*
X96690604Y-121709978D01*
X96695403Y-121716585D01*
X96739647Y-121753187D01*
X96742567Y-121755761D01*
X96784418Y-121795062D01*
X96791578Y-121798998D01*
X96810879Y-121812114D01*
X96817177Y-121817324D01*
X96817178Y-121817324D01*
X96817179Y-121817325D01*
X96869125Y-121841769D01*
X96872597Y-121843538D01*
X96922903Y-121871195D01*
X96922905Y-121871195D01*
X96922908Y-121871197D01*
X96928205Y-121872556D01*
X96930814Y-121873227D01*
X96952777Y-121881133D01*
X96960174Y-121884614D01*
X97016576Y-121895373D01*
X97020362Y-121896219D01*
X97075981Y-121910500D01*
X97084153Y-121910500D01*
X97107385Y-121912696D01*
X97108989Y-121913001D01*
X97115412Y-121914227D01*
X97172724Y-121910621D01*
X97176597Y-121910500D01*
X111677257Y-121910500D01*
X111692877Y-121912224D01*
X111692904Y-121911939D01*
X111700660Y-121912671D01*
X111700667Y-121912673D01*
X111769814Y-121910500D01*
X111799350Y-121910500D01*
X111806228Y-121909630D01*
X111812041Y-121909172D01*
X111858627Y-121907709D01*
X111877869Y-121902117D01*
X111896912Y-121898174D01*
X111916792Y-121895664D01*
X111960122Y-121878507D01*
X111965646Y-121876617D01*
X111969396Y-121875527D01*
X112010390Y-121863618D01*
X112027629Y-121853422D01*
X112045103Y-121844862D01*
X112063727Y-121837488D01*
X112063727Y-121837487D01*
X112063732Y-121837486D01*
X112101449Y-121810082D01*
X112106305Y-121806892D01*
X112146420Y-121783170D01*
X112160589Y-121768999D01*
X112175379Y-121756368D01*
X112191587Y-121744594D01*
X112221299Y-121708676D01*
X112225212Y-121704376D01*
X113482324Y-120447264D01*
X113543645Y-120413781D01*
X113613337Y-120418765D01*
X113669270Y-120460637D01*
X113693687Y-120526101D01*
X113678835Y-120594374D01*
X113677391Y-120596945D01*
X113653387Y-120638522D01*
X113653379Y-120638538D01*
X113521866Y-120943419D01*
X113426634Y-121261518D01*
X113426631Y-121261532D01*
X113368977Y-121588504D01*
X113368976Y-121588515D01*
X113349669Y-121919996D01*
X113349669Y-121920003D01*
X113368976Y-122251484D01*
X113368977Y-122251495D01*
X113426631Y-122578467D01*
X113426634Y-122578481D01*
X113426635Y-122578485D01*
X113447578Y-122648439D01*
X113521866Y-122896580D01*
X113653379Y-123201461D01*
X113653385Y-123201474D01*
X113819406Y-123489031D01*
X114017678Y-123755356D01*
X114017683Y-123755362D01*
X114017690Y-123755371D01*
X114245553Y-123996893D01*
X114374391Y-124105000D01*
X114499912Y-124210325D01*
X114499920Y-124210331D01*
X114777330Y-124392787D01*
X114777334Y-124392789D01*
X115074061Y-124541811D01*
X115386082Y-124655377D01*
X115386088Y-124655378D01*
X115386090Y-124655379D01*
X115709161Y-124731949D01*
X115709168Y-124731950D01*
X115709177Y-124731952D01*
X116038977Y-124770500D01*
X116038984Y-124770500D01*
X116371016Y-124770500D01*
X116371023Y-124770500D01*
X116700823Y-124731952D01*
X116700832Y-124731949D01*
X116700838Y-124731949D01*
X116961445Y-124670183D01*
X117023918Y-124655377D01*
X117335939Y-124541811D01*
X117632666Y-124392789D01*
X117910085Y-124210327D01*
X118164447Y-123996893D01*
X118392310Y-123755371D01*
X118590594Y-123489030D01*
X118756617Y-123201470D01*
X118888133Y-122896581D01*
X118983365Y-122578485D01*
X119041024Y-122251484D01*
X119060331Y-121920000D01*
X119059861Y-121911939D01*
X119055955Y-121844862D01*
X119041024Y-121588516D01*
X119039721Y-121581129D01*
X118983368Y-121261532D01*
X118983367Y-121261531D01*
X118983365Y-121261515D01*
X118888133Y-120943419D01*
X118756617Y-120638530D01*
X118641983Y-120439978D01*
X118590593Y-120350968D01*
X118392321Y-120084643D01*
X118392314Y-120084635D01*
X118392310Y-120084629D01*
X118164447Y-119843107D01*
X117994084Y-119700156D01*
X117910087Y-119629674D01*
X117910079Y-119629668D01*
X117632669Y-119447212D01*
X117335946Y-119298192D01*
X117335940Y-119298189D01*
X117023930Y-119184627D01*
X117023909Y-119184620D01*
X116700838Y-119108050D01*
X116700823Y-119108048D01*
X116371023Y-119069500D01*
X116038977Y-119069500D01*
X115750402Y-119103229D01*
X115709176Y-119108048D01*
X115709161Y-119108050D01*
X115386090Y-119184620D01*
X115386069Y-119184627D01*
X115074063Y-119298187D01*
X114871487Y-119399925D01*
X114802744Y-119412421D01*
X114738157Y-119385768D01*
X114698233Y-119328428D01*
X114695647Y-119258607D01*
X114728152Y-119201436D01*
X116311373Y-117618216D01*
X116372694Y-117584733D01*
X116442383Y-117589716D01*
X116461318Y-117596779D01*
X116463838Y-117597719D01*
X116467517Y-117599091D01*
X116527127Y-117605500D01*
X118422872Y-117605499D01*
X118482483Y-117599091D01*
X118617331Y-117548796D01*
X118732546Y-117462546D01*
X118818796Y-117347331D01*
X118869091Y-117212483D01*
X118875500Y-117152873D01*
X118875499Y-115257128D01*
X118869091Y-115197517D01*
X118818796Y-115062669D01*
X118818795Y-115062668D01*
X118818793Y-115062664D01*
X118732547Y-114947455D01*
X118732544Y-114947452D01*
X118617335Y-114861206D01*
X118617328Y-114861202D01*
X118482482Y-114810908D01*
X118482483Y-114810908D01*
X118422883Y-114804501D01*
X118422881Y-114804500D01*
X118422873Y-114804500D01*
X118422864Y-114804500D01*
X116527129Y-114804500D01*
X116527123Y-114804501D01*
X116467516Y-114810908D01*
X116332671Y-114861202D01*
X116332664Y-114861206D01*
X116217455Y-114947452D01*
X116217452Y-114947455D01*
X116131206Y-115062664D01*
X116131202Y-115062671D01*
X116080908Y-115197517D01*
X116075018Y-115252310D01*
X116074501Y-115257123D01*
X116074500Y-115257135D01*
X116074500Y-116034546D01*
X116054815Y-116101585D01*
X116038181Y-116122227D01*
X115277180Y-116883228D01*
X115215857Y-116916713D01*
X115146165Y-116911729D01*
X115090232Y-116869857D01*
X115065815Y-116804393D01*
X115065499Y-116795547D01*
X115065499Y-115257129D01*
X115065498Y-115257123D01*
X115065497Y-115257116D01*
X115059091Y-115197517D01*
X115008796Y-115062669D01*
X115008795Y-115062668D01*
X115008793Y-115062664D01*
X114922547Y-114947455D01*
X114922544Y-114947452D01*
X114807335Y-114861206D01*
X114807328Y-114861202D01*
X114672482Y-114810908D01*
X114672483Y-114810908D01*
X114612883Y-114804501D01*
X114612881Y-114804500D01*
X114612873Y-114804500D01*
X114612864Y-114804500D01*
X112717129Y-114804500D01*
X112717123Y-114804501D01*
X112657516Y-114810908D01*
X112522671Y-114861202D01*
X112522664Y-114861206D01*
X112407455Y-114947452D01*
X112407452Y-114947455D01*
X112321206Y-115062664D01*
X112321202Y-115062671D01*
X112270908Y-115197517D01*
X112265018Y-115252310D01*
X112264501Y-115257123D01*
X112264500Y-115257135D01*
X112264500Y-117152870D01*
X112264501Y-117152876D01*
X112270908Y-117212483D01*
X112321202Y-117347328D01*
X112321206Y-117347335D01*
X112390358Y-117439709D01*
X112407454Y-117462546D01*
X112513304Y-117541785D01*
X112555175Y-117597719D01*
X112560159Y-117667411D01*
X112526674Y-117728733D01*
X110902228Y-119353181D01*
X110840905Y-119386666D01*
X110814547Y-119389500D01*
X101714500Y-119389500D01*
X101647461Y-119369815D01*
X101601706Y-119317011D01*
X101590500Y-119265500D01*
X101590500Y-118689188D01*
X101610185Y-118622149D01*
X101643377Y-118587613D01*
X101691836Y-118553681D01*
X101804139Y-118475047D01*
X101965047Y-118314139D01*
X102095568Y-118127734D01*
X102191739Y-117921496D01*
X102250635Y-117701692D01*
X102270468Y-117475001D01*
X103469532Y-117475001D01*
X103489364Y-117701686D01*
X103489366Y-117701697D01*
X103548258Y-117921488D01*
X103548261Y-117921497D01*
X103644431Y-118127732D01*
X103644432Y-118127734D01*
X103774954Y-118314141D01*
X103935858Y-118475045D01*
X103935861Y-118475047D01*
X104122266Y-118605568D01*
X104328504Y-118701739D01*
X104548308Y-118760635D01*
X104710230Y-118774801D01*
X104774998Y-118780468D01*
X104775000Y-118780468D01*
X104775002Y-118780468D01*
X104831673Y-118775509D01*
X105001692Y-118760635D01*
X105221496Y-118701739D01*
X105427734Y-118605568D01*
X105614139Y-118475047D01*
X105775047Y-118314139D01*
X105905568Y-118127734D01*
X106001739Y-117921496D01*
X106060635Y-117701692D01*
X106080468Y-117475001D01*
X107279532Y-117475001D01*
X107299364Y-117701686D01*
X107299366Y-117701697D01*
X107358258Y-117921488D01*
X107358261Y-117921497D01*
X107454431Y-118127732D01*
X107454432Y-118127734D01*
X107584954Y-118314141D01*
X107745858Y-118475045D01*
X107745861Y-118475047D01*
X107932266Y-118605568D01*
X108138504Y-118701739D01*
X108358308Y-118760635D01*
X108520230Y-118774801D01*
X108584998Y-118780468D01*
X108585000Y-118780468D01*
X108585002Y-118780468D01*
X108641673Y-118775509D01*
X108811692Y-118760635D01*
X109031496Y-118701739D01*
X109237734Y-118605568D01*
X109424139Y-118475047D01*
X109585047Y-118314139D01*
X109715568Y-118127734D01*
X109811739Y-117921496D01*
X109870635Y-117701692D01*
X109890468Y-117475000D01*
X109889378Y-117462546D01*
X109877268Y-117324123D01*
X109870635Y-117248308D01*
X109811739Y-117028504D01*
X109715568Y-116822266D01*
X109585047Y-116635861D01*
X109585045Y-116635858D01*
X109424141Y-116474954D01*
X109237734Y-116344432D01*
X109237732Y-116344431D01*
X109031497Y-116248261D01*
X109031488Y-116248258D01*
X108811697Y-116189366D01*
X108811693Y-116189365D01*
X108811692Y-116189365D01*
X108811691Y-116189364D01*
X108811686Y-116189364D01*
X108585002Y-116169532D01*
X108584998Y-116169532D01*
X108358313Y-116189364D01*
X108358302Y-116189366D01*
X108138511Y-116248258D01*
X108138502Y-116248261D01*
X107932267Y-116344431D01*
X107932265Y-116344432D01*
X107745858Y-116474954D01*
X107584954Y-116635858D01*
X107454432Y-116822265D01*
X107454431Y-116822267D01*
X107358261Y-117028502D01*
X107358258Y-117028511D01*
X107299366Y-117248302D01*
X107299364Y-117248313D01*
X107279532Y-117474998D01*
X107279532Y-117475001D01*
X106080468Y-117475001D01*
X106080468Y-117475000D01*
X106079378Y-117462546D01*
X106067268Y-117324123D01*
X106060635Y-117248308D01*
X106001739Y-117028504D01*
X105905568Y-116822266D01*
X105775047Y-116635861D01*
X105775045Y-116635858D01*
X105614141Y-116474954D01*
X105427734Y-116344432D01*
X105427732Y-116344431D01*
X105221497Y-116248261D01*
X105221488Y-116248258D01*
X105001697Y-116189366D01*
X105001693Y-116189365D01*
X105001692Y-116189365D01*
X105001691Y-116189364D01*
X105001686Y-116189364D01*
X104775002Y-116169532D01*
X104774998Y-116169532D01*
X104548313Y-116189364D01*
X104548302Y-116189366D01*
X104328511Y-116248258D01*
X104328502Y-116248261D01*
X104122267Y-116344431D01*
X104122265Y-116344432D01*
X103935858Y-116474954D01*
X103774954Y-116635858D01*
X103644432Y-116822265D01*
X103644431Y-116822267D01*
X103548261Y-117028502D01*
X103548258Y-117028511D01*
X103489366Y-117248302D01*
X103489364Y-117248313D01*
X103469532Y-117474998D01*
X103469532Y-117475001D01*
X102270468Y-117475001D01*
X102270468Y-117475000D01*
X102269378Y-117462546D01*
X102257268Y-117324123D01*
X102250635Y-117248308D01*
X102191739Y-117028504D01*
X102095568Y-116822266D01*
X101965047Y-116635861D01*
X101965045Y-116635858D01*
X101804141Y-116474954D01*
X101617734Y-116344432D01*
X101617732Y-116344431D01*
X101411497Y-116248261D01*
X101411488Y-116248258D01*
X101191697Y-116189366D01*
X101191693Y-116189365D01*
X101191692Y-116189365D01*
X101191691Y-116189364D01*
X101191686Y-116189364D01*
X100965002Y-116169532D01*
X100964998Y-116169532D01*
X100738313Y-116189364D01*
X100738302Y-116189366D01*
X100518511Y-116248258D01*
X100518502Y-116248261D01*
X100312267Y-116344431D01*
X100312265Y-116344432D01*
X100125858Y-116474954D01*
X99964954Y-116635858D01*
X99834432Y-116822265D01*
X99834431Y-116822267D01*
X99738261Y-117028502D01*
X99738258Y-117028511D01*
X99679366Y-117248302D01*
X99679364Y-117248313D01*
X99659532Y-117474998D01*
X99659532Y-117475001D01*
X99679364Y-117701686D01*
X99679366Y-117701697D01*
X99738258Y-117921488D01*
X99738261Y-117921497D01*
X99834431Y-118127732D01*
X99834432Y-118127734D01*
X99964954Y-118314141D01*
X100125858Y-118475045D01*
X100286623Y-118587613D01*
X100330248Y-118642189D01*
X100339500Y-118689188D01*
X100339500Y-119944152D01*
X100337305Y-119967379D01*
X100335773Y-119975412D01*
X100339378Y-120032724D01*
X100339500Y-120036595D01*
X100339500Y-120054356D01*
X100341725Y-120071968D01*
X100342091Y-120075843D01*
X100345696Y-120133138D01*
X100348222Y-120140914D01*
X100353309Y-120163672D01*
X100354334Y-120171784D01*
X100354336Y-120171792D01*
X100375469Y-120225170D01*
X100376788Y-120228833D01*
X100394532Y-120283440D01*
X100398907Y-120290333D01*
X100409503Y-120311129D01*
X100412511Y-120318726D01*
X100412513Y-120318731D01*
X100446265Y-120365187D01*
X100448455Y-120368409D01*
X100479213Y-120416876D01*
X100485164Y-120422464D01*
X100500604Y-120439978D01*
X100505403Y-120446584D01*
X100509185Y-120450611D01*
X100540731Y-120512953D01*
X100533564Y-120582454D01*
X100489960Y-120637048D01*
X100423762Y-120659401D01*
X100418798Y-120659500D01*
X97904500Y-120659500D01*
X97837461Y-120639815D01*
X97791706Y-120587011D01*
X97780500Y-120535500D01*
X97780500Y-118689188D01*
X97800185Y-118622149D01*
X97833377Y-118587613D01*
X97881836Y-118553681D01*
X97994139Y-118475047D01*
X98155047Y-118314139D01*
X98285568Y-118127734D01*
X98381739Y-117921496D01*
X98440635Y-117701692D01*
X98460468Y-117475000D01*
X98459378Y-117462546D01*
X98447268Y-117324123D01*
X98440635Y-117248308D01*
X98381739Y-117028504D01*
X98285568Y-116822266D01*
X98155047Y-116635861D01*
X98155045Y-116635858D01*
X97994141Y-116474954D01*
X97807734Y-116344432D01*
X97807732Y-116344431D01*
X97601497Y-116248261D01*
X97601488Y-116248258D01*
X97381697Y-116189366D01*
X97381693Y-116189365D01*
X97381692Y-116189365D01*
X97381691Y-116189364D01*
X97381686Y-116189364D01*
X97155002Y-116169532D01*
X97154998Y-116169532D01*
X96928313Y-116189364D01*
X96928302Y-116189366D01*
X96708511Y-116248258D01*
X96708502Y-116248261D01*
X96502267Y-116344431D01*
X96502265Y-116344432D01*
X96315858Y-116474954D01*
X96154954Y-116635858D01*
X96042387Y-116796623D01*
X95987811Y-116840248D01*
X95940812Y-116849500D01*
X94559188Y-116849500D01*
X94492149Y-116829815D01*
X94457613Y-116796623D01*
X94345045Y-116635858D01*
X94184141Y-116474954D01*
X93997734Y-116344432D01*
X93997732Y-116344431D01*
X93791497Y-116248261D01*
X93791488Y-116248258D01*
X93571697Y-116189366D01*
X93571693Y-116189365D01*
X93571692Y-116189365D01*
X93571691Y-116189364D01*
X93571686Y-116189364D01*
X93345002Y-116169532D01*
X93344998Y-116169532D01*
X93118313Y-116189364D01*
X93118302Y-116189366D01*
X92898511Y-116248258D01*
X92898502Y-116248261D01*
X92692267Y-116344431D01*
X92692265Y-116344432D01*
X92505858Y-116474954D01*
X92344954Y-116635858D01*
X92214432Y-116822265D01*
X92214431Y-116822267D01*
X92118261Y-117028502D01*
X92118258Y-117028511D01*
X92059366Y-117248302D01*
X92059364Y-117248313D01*
X92039532Y-117474998D01*
X92039532Y-117475001D01*
X90840468Y-117475001D01*
X90840468Y-117475000D01*
X90839378Y-117462546D01*
X90827268Y-117324123D01*
X90820635Y-117248308D01*
X90761739Y-117028504D01*
X90665568Y-116822266D01*
X90535047Y-116635861D01*
X90535045Y-116635858D01*
X90374141Y-116474954D01*
X90187734Y-116344432D01*
X90187732Y-116344431D01*
X89981497Y-116248261D01*
X89981488Y-116248258D01*
X89761697Y-116189366D01*
X89761693Y-116189365D01*
X89761692Y-116189365D01*
X89761691Y-116189364D01*
X89761686Y-116189364D01*
X89535002Y-116169532D01*
X89534998Y-116169532D01*
X89308313Y-116189364D01*
X89308302Y-116189366D01*
X89088511Y-116248258D01*
X89088502Y-116248261D01*
X88882267Y-116344431D01*
X88882265Y-116344432D01*
X88695858Y-116474954D01*
X88534954Y-116635858D01*
X88422387Y-116796623D01*
X88367811Y-116840248D01*
X88320812Y-116849500D01*
X84224500Y-116849500D01*
X84157461Y-116829815D01*
X84111706Y-116777011D01*
X84100500Y-116725500D01*
X84100500Y-116624997D01*
X84100499Y-116624984D01*
X84089999Y-116522204D01*
X84089999Y-116522203D01*
X84034814Y-116355666D01*
X84027884Y-116344431D01*
X83942713Y-116206348D01*
X83942710Y-116206344D01*
X83818655Y-116082289D01*
X83818651Y-116082286D01*
X83669337Y-115990187D01*
X83669335Y-115990186D01*
X83563150Y-115955000D01*
X83502797Y-115935001D01*
X83502795Y-115935000D01*
X83400015Y-115924500D01*
X83400008Y-115924500D01*
X81699992Y-115924500D01*
X81699984Y-115924500D01*
X81597204Y-115935000D01*
X81597203Y-115935001D01*
X81430664Y-115990186D01*
X81430662Y-115990187D01*
X81281348Y-116082286D01*
X81281344Y-116082289D01*
X81157289Y-116206344D01*
X81157286Y-116206348D01*
X81065187Y-116355662D01*
X81065186Y-116355664D01*
X81010001Y-116522203D01*
X81010000Y-116522204D01*
X80999500Y-116624984D01*
X80999500Y-118325015D01*
X80010500Y-118325015D01*
X80010500Y-114514985D01*
X81000000Y-114514985D01*
X81010493Y-114617689D01*
X81010494Y-114617696D01*
X81065641Y-114784118D01*
X81065643Y-114784123D01*
X81157684Y-114933344D01*
X81281655Y-115057315D01*
X81430876Y-115149356D01*
X81430881Y-115149358D01*
X81597303Y-115204505D01*
X81597310Y-115204506D01*
X81700014Y-115214999D01*
X81700027Y-115215000D01*
X82300000Y-115215000D01*
X82300000Y-114156683D01*
X82328819Y-114174209D01*
X82474404Y-114215000D01*
X82587622Y-114215000D01*
X82699783Y-114199584D01*
X82800000Y-114156053D01*
X82800000Y-115215000D01*
X83399973Y-115215000D01*
X83399985Y-115214999D01*
X83502689Y-115204506D01*
X83502696Y-115204505D01*
X83669118Y-115149358D01*
X83669123Y-115149356D01*
X83818344Y-115057315D01*
X83942315Y-114933344D01*
X84034356Y-114784123D01*
X84034358Y-114784118D01*
X84089505Y-114617696D01*
X84089506Y-114617689D01*
X84099999Y-114514985D01*
X84100000Y-114514972D01*
X84100000Y-113915000D01*
X83044852Y-113915000D01*
X83093559Y-113777953D01*
X83103877Y-113627114D01*
X83073116Y-113479085D01*
X83039910Y-113415000D01*
X84100000Y-113415000D01*
X84100000Y-112815027D01*
X84099999Y-112815014D01*
X84089506Y-112712310D01*
X84089505Y-112712303D01*
X84034358Y-112545881D01*
X84034356Y-112545876D01*
X83942315Y-112396655D01*
X83818344Y-112272684D01*
X83669123Y-112180643D01*
X83669118Y-112180641D01*
X83502696Y-112125494D01*
X83502689Y-112125493D01*
X83399985Y-112115000D01*
X82800000Y-112115000D01*
X82800000Y-113173316D01*
X82771181Y-113155791D01*
X82625596Y-113115000D01*
X82512378Y-113115000D01*
X82400217Y-113130416D01*
X82300000Y-113173946D01*
X82300000Y-112115000D01*
X81700014Y-112115000D01*
X81597310Y-112125493D01*
X81597303Y-112125494D01*
X81430881Y-112180641D01*
X81430876Y-112180643D01*
X81281655Y-112272684D01*
X81157684Y-112396655D01*
X81065643Y-112545876D01*
X81065641Y-112545881D01*
X81010494Y-112712303D01*
X81010493Y-112712310D01*
X81000000Y-112815014D01*
X81000000Y-113415000D01*
X82055148Y-113415000D01*
X82006441Y-113552047D01*
X81996123Y-113702886D01*
X82026884Y-113850915D01*
X82060090Y-113915000D01*
X81000000Y-113915000D01*
X81000000Y-114514985D01*
X80010500Y-114514985D01*
X80010500Y-109435015D01*
X80999500Y-109435015D01*
X81010000Y-109537795D01*
X81010001Y-109537797D01*
X81016283Y-109556755D01*
X81065186Y-109704335D01*
X81065187Y-109704337D01*
X81157286Y-109853651D01*
X81157289Y-109853655D01*
X81281344Y-109977710D01*
X81281348Y-109977713D01*
X81430662Y-110069812D01*
X81430664Y-110069813D01*
X81430666Y-110069814D01*
X81597203Y-110124999D01*
X81699992Y-110135500D01*
X81699997Y-110135500D01*
X83400003Y-110135500D01*
X83400008Y-110135500D01*
X83502797Y-110124999D01*
X83669334Y-110069814D01*
X83818655Y-109977711D01*
X83942711Y-109853655D01*
X84034814Y-109704334D01*
X84089999Y-109537797D01*
X84100500Y-109435008D01*
X84100500Y-109334500D01*
X84120185Y-109267461D01*
X84172989Y-109221706D01*
X84224500Y-109210500D01*
X85414548Y-109210500D01*
X85481587Y-109230185D01*
X85502229Y-109246819D01*
X87129197Y-110873788D01*
X87139022Y-110886051D01*
X87139243Y-110885869D01*
X87144214Y-110891878D01*
X87165043Y-110911437D01*
X87194635Y-110939226D01*
X87215529Y-110960120D01*
X87221011Y-110964373D01*
X87225443Y-110968157D01*
X87259418Y-111000062D01*
X87276976Y-111009714D01*
X87293233Y-111020393D01*
X87309064Y-111032673D01*
X87328737Y-111041186D01*
X87351833Y-111051182D01*
X87357077Y-111053750D01*
X87397908Y-111076197D01*
X87410523Y-111079435D01*
X87417305Y-111081177D01*
X87435719Y-111087481D01*
X87454104Y-111095438D01*
X87500157Y-111102732D01*
X87505826Y-111103906D01*
X87550981Y-111115500D01*
X87571016Y-111115500D01*
X87590413Y-111117026D01*
X87610196Y-111120160D01*
X87656584Y-111115775D01*
X87662422Y-111115500D01*
X103422257Y-111115500D01*
X103437877Y-111117224D01*
X103437904Y-111116939D01*
X103445660Y-111117671D01*
X103445667Y-111117673D01*
X103514814Y-111115500D01*
X103544350Y-111115500D01*
X103551228Y-111114630D01*
X103557041Y-111114172D01*
X103603627Y-111112709D01*
X103622869Y-111107117D01*
X103641912Y-111103174D01*
X103661792Y-111100664D01*
X103705122Y-111083507D01*
X103710646Y-111081617D01*
X103714396Y-111080527D01*
X103755390Y-111068618D01*
X103772629Y-111058422D01*
X103790103Y-111049862D01*
X103808727Y-111042488D01*
X103808727Y-111042487D01*
X103808732Y-111042486D01*
X103846449Y-111015082D01*
X103851305Y-111011892D01*
X103891420Y-110988170D01*
X103905589Y-110973999D01*
X103920379Y-110961368D01*
X103936587Y-110949594D01*
X103966299Y-110913676D01*
X103970212Y-110909376D01*
X105158787Y-109720802D01*
X105171042Y-109710986D01*
X105170859Y-109710764D01*
X105176866Y-109705792D01*
X105176877Y-109705786D01*
X105211341Y-109669085D01*
X105224227Y-109655364D01*
X105234671Y-109644918D01*
X105245120Y-109634471D01*
X105249379Y-109628978D01*
X105253152Y-109624561D01*
X105285062Y-109590582D01*
X105294713Y-109573024D01*
X105305396Y-109556761D01*
X105317673Y-109540936D01*
X105336185Y-109498153D01*
X105338738Y-109492941D01*
X105361197Y-109452092D01*
X105366180Y-109432680D01*
X105372481Y-109414280D01*
X105380437Y-109395896D01*
X105387729Y-109349852D01*
X105388906Y-109344171D01*
X105400500Y-109299019D01*
X105400500Y-109278983D01*
X105402027Y-109259582D01*
X105405160Y-109239804D01*
X105400775Y-109193415D01*
X105400500Y-109187577D01*
X105400500Y-108529188D01*
X105420185Y-108462149D01*
X105453377Y-108427613D01*
X105531317Y-108373039D01*
X105614139Y-108315047D01*
X105775047Y-108154139D01*
X105905568Y-107967734D01*
X106001739Y-107761496D01*
X106060635Y-107541692D01*
X106080468Y-107315002D01*
X107280034Y-107315002D01*
X107299858Y-107541599D01*
X107299860Y-107541610D01*
X107358730Y-107761317D01*
X107358734Y-107761326D01*
X107454865Y-107967481D01*
X107454866Y-107967483D01*
X107505973Y-108040471D01*
X107505974Y-108040472D01*
X108187046Y-107359399D01*
X108199835Y-107440148D01*
X108257359Y-107553045D01*
X108346955Y-107642641D01*
X108459852Y-107700165D01*
X108540599Y-107712953D01*
X107859526Y-108394025D01*
X107859526Y-108394026D01*
X107932512Y-108445131D01*
X107932516Y-108445133D01*
X108138673Y-108541265D01*
X108138682Y-108541269D01*
X108358389Y-108600139D01*
X108358400Y-108600141D01*
X108584998Y-108619966D01*
X108585002Y-108619966D01*
X108811599Y-108600141D01*
X108811610Y-108600139D01*
X109031317Y-108541269D01*
X109031331Y-108541264D01*
X109237478Y-108445136D01*
X109310472Y-108394025D01*
X108629401Y-107712953D01*
X108710148Y-107700165D01*
X108823045Y-107642641D01*
X108912641Y-107553045D01*
X108970165Y-107440148D01*
X108982953Y-107359400D01*
X109664025Y-108040472D01*
X109715136Y-107967478D01*
X109811264Y-107761331D01*
X109811269Y-107761317D01*
X109870139Y-107541610D01*
X109870141Y-107541599D01*
X109889966Y-107315002D01*
X109889966Y-107314997D01*
X109870141Y-107088400D01*
X109870139Y-107088389D01*
X109811269Y-106868682D01*
X109811265Y-106868673D01*
X109715133Y-106662516D01*
X109715131Y-106662512D01*
X109664026Y-106589526D01*
X109664025Y-106589526D01*
X108982953Y-107270598D01*
X108970165Y-107189852D01*
X108912641Y-107076955D01*
X108823045Y-106987359D01*
X108710148Y-106929835D01*
X108629400Y-106917046D01*
X109251446Y-106295000D01*
X112284117Y-106295000D01*
X112336317Y-106501135D01*
X112429516Y-106713609D01*
X112556414Y-106907842D01*
X112713558Y-107078545D01*
X112713562Y-107078548D01*
X112896644Y-107221047D01*
X112896648Y-107221050D01*
X113100697Y-107331476D01*
X113100706Y-107331479D01*
X113320139Y-107406811D01*
X113414999Y-107422640D01*
X113415000Y-107422639D01*
X113415000Y-106419189D01*
X113467547Y-106455016D01*
X113597173Y-106495000D01*
X113698724Y-106495000D01*
X113799138Y-106479865D01*
X113915000Y-106424068D01*
X113915000Y-107422640D01*
X114009860Y-107406811D01*
X114229293Y-107331479D01*
X114229302Y-107331476D01*
X114433351Y-107221050D01*
X114433355Y-107221047D01*
X114616437Y-107078548D01*
X114616441Y-107078545D01*
X114773585Y-106907842D01*
X114900483Y-106713609D01*
X114993682Y-106501135D01*
X115045883Y-106295000D01*
X116094117Y-106295000D01*
X116146317Y-106501135D01*
X116239516Y-106713609D01*
X116366414Y-106907842D01*
X116523558Y-107078545D01*
X116523562Y-107078548D01*
X116706644Y-107221047D01*
X116706648Y-107221050D01*
X116910697Y-107331476D01*
X116910706Y-107331479D01*
X117130139Y-107406811D01*
X117224999Y-107422640D01*
X117225000Y-107422639D01*
X117225000Y-106419189D01*
X117277547Y-106455016D01*
X117407173Y-106495000D01*
X117508724Y-106495000D01*
X117609138Y-106479865D01*
X117725000Y-106424068D01*
X117725000Y-107422640D01*
X117819860Y-107406811D01*
X118039293Y-107331479D01*
X118039302Y-107331476D01*
X118243351Y-107221050D01*
X118243355Y-107221047D01*
X118426437Y-107078548D01*
X118426441Y-107078545D01*
X118583585Y-106907842D01*
X118710483Y-106713609D01*
X118803682Y-106501135D01*
X118855883Y-106295000D01*
X117850278Y-106295000D01*
X117898625Y-106211260D01*
X117928810Y-106079008D01*
X117918673Y-105943735D01*
X117869113Y-105817459D01*
X117851203Y-105795000D01*
X118855883Y-105795000D01*
X118803682Y-105588864D01*
X118710483Y-105376390D01*
X118583585Y-105182157D01*
X118426441Y-105011454D01*
X118426437Y-105011451D01*
X118243355Y-104868952D01*
X118243351Y-104868949D01*
X118039302Y-104758523D01*
X118039293Y-104758520D01*
X117819861Y-104683188D01*
X117725000Y-104667359D01*
X117725000Y-105670810D01*
X117672453Y-105634984D01*
X117542827Y-105595000D01*
X117441276Y-105595000D01*
X117340862Y-105610135D01*
X117225000Y-105665931D01*
X117225000Y-104667359D01*
X117224999Y-104667359D01*
X117130138Y-104683188D01*
X116910706Y-104758520D01*
X116910697Y-104758523D01*
X116706648Y-104868949D01*
X116706644Y-104868952D01*
X116523562Y-105011451D01*
X116523558Y-105011454D01*
X116366414Y-105182157D01*
X116239516Y-105376390D01*
X116146317Y-105588864D01*
X116094117Y-105795000D01*
X117099722Y-105795000D01*
X117051375Y-105878740D01*
X117021190Y-106010992D01*
X117031327Y-106146265D01*
X117080887Y-106272541D01*
X117098797Y-106295000D01*
X116094117Y-106295000D01*
X115045883Y-106295000D01*
X114040278Y-106295000D01*
X114088625Y-106211260D01*
X114118810Y-106079008D01*
X114108673Y-105943735D01*
X114059113Y-105817459D01*
X114041203Y-105795000D01*
X115045883Y-105795000D01*
X114993682Y-105588864D01*
X114900483Y-105376390D01*
X114773585Y-105182157D01*
X114616441Y-105011454D01*
X114616437Y-105011451D01*
X114433355Y-104868952D01*
X114433351Y-104868949D01*
X114229302Y-104758523D01*
X114229293Y-104758520D01*
X114009861Y-104683188D01*
X113915000Y-104667359D01*
X113915000Y-105670810D01*
X113862453Y-105634984D01*
X113732827Y-105595000D01*
X113631276Y-105595000D01*
X113530862Y-105610135D01*
X113415000Y-105665931D01*
X113415000Y-104667359D01*
X113414999Y-104667359D01*
X113320138Y-104683188D01*
X113100706Y-104758520D01*
X113100697Y-104758523D01*
X112896648Y-104868949D01*
X112896644Y-104868952D01*
X112713562Y-105011451D01*
X112713558Y-105011454D01*
X112556414Y-105182157D01*
X112429516Y-105376390D01*
X112336317Y-105588864D01*
X112284117Y-105795000D01*
X113289722Y-105795000D01*
X113241375Y-105878740D01*
X113211190Y-106010992D01*
X113221327Y-106146265D01*
X113270887Y-106272541D01*
X113288797Y-106295000D01*
X112284117Y-106295000D01*
X109251446Y-106295000D01*
X109310472Y-106235974D01*
X109310471Y-106235973D01*
X109237483Y-106184866D01*
X109237481Y-106184865D01*
X109031326Y-106088734D01*
X109031317Y-106088730D01*
X108811610Y-106029860D01*
X108811599Y-106029858D01*
X108585002Y-106010034D01*
X108584998Y-106010034D01*
X108358400Y-106029858D01*
X108358389Y-106029860D01*
X108138682Y-106088730D01*
X108138673Y-106088734D01*
X107932513Y-106184868D01*
X107859527Y-106235972D01*
X107859526Y-106235973D01*
X108540600Y-106917046D01*
X108459852Y-106929835D01*
X108346955Y-106987359D01*
X108257359Y-107076955D01*
X108199835Y-107189852D01*
X108187046Y-107270599D01*
X107505973Y-106589526D01*
X107505972Y-106589527D01*
X107454868Y-106662513D01*
X107358734Y-106868673D01*
X107358730Y-106868682D01*
X107299860Y-107088389D01*
X107299858Y-107088400D01*
X107280034Y-107314997D01*
X107280034Y-107315002D01*
X106080468Y-107315002D01*
X106080468Y-107315000D01*
X106060635Y-107088308D01*
X106001739Y-106868504D01*
X105905568Y-106662266D01*
X105788448Y-106495000D01*
X105775045Y-106475858D01*
X105614141Y-106314954D01*
X105427734Y-106184432D01*
X105427732Y-106184431D01*
X105221497Y-106088261D01*
X105221488Y-106088258D01*
X105001697Y-106029366D01*
X105001693Y-106029365D01*
X105001692Y-106029365D01*
X105001691Y-106029364D01*
X105001686Y-106029364D01*
X104775002Y-106009532D01*
X104774998Y-106009532D01*
X104548313Y-106029364D01*
X104548302Y-106029366D01*
X104328511Y-106088258D01*
X104328502Y-106088261D01*
X104122267Y-106184431D01*
X104122265Y-106184432D01*
X103935858Y-106314954D01*
X103774954Y-106475858D01*
X103644432Y-106662265D01*
X103644431Y-106662267D01*
X103548261Y-106868502D01*
X103548258Y-106868511D01*
X103489366Y-107088302D01*
X103489364Y-107088313D01*
X103469532Y-107314998D01*
X103469532Y-107315001D01*
X103489364Y-107541686D01*
X103489366Y-107541697D01*
X103548258Y-107761488D01*
X103548261Y-107761497D01*
X103644431Y-107967732D01*
X103644432Y-107967734D01*
X103774954Y-108154141D01*
X103935858Y-108315045D01*
X104096623Y-108427613D01*
X104140248Y-108482189D01*
X104149500Y-108529188D01*
X104149500Y-108909547D01*
X104129815Y-108976586D01*
X104113181Y-108997228D01*
X103282228Y-109828181D01*
X103220905Y-109861666D01*
X103194547Y-109864500D01*
X87940452Y-109864500D01*
X87873413Y-109844815D01*
X87852771Y-109828181D01*
X86225803Y-108201212D01*
X86215980Y-108188950D01*
X86215759Y-108189134D01*
X86210786Y-108183123D01*
X86188251Y-108161961D01*
X86160364Y-108135773D01*
X86149919Y-108125328D01*
X86139475Y-108114883D01*
X86133986Y-108110625D01*
X86129561Y-108106847D01*
X86095582Y-108074938D01*
X86095580Y-108074936D01*
X86095577Y-108074935D01*
X86078029Y-108065288D01*
X86061763Y-108054604D01*
X86045933Y-108042325D01*
X86003168Y-108023818D01*
X85997922Y-108021248D01*
X85957093Y-107998803D01*
X85957092Y-107998802D01*
X85937693Y-107993822D01*
X85919281Y-107987518D01*
X85900898Y-107979562D01*
X85900892Y-107979560D01*
X85854874Y-107972272D01*
X85849152Y-107971087D01*
X85804021Y-107959500D01*
X85804019Y-107959500D01*
X85783984Y-107959500D01*
X85764586Y-107957973D01*
X85757162Y-107956797D01*
X85744805Y-107954840D01*
X85744804Y-107954840D01*
X85698416Y-107959225D01*
X85692578Y-107959500D01*
X84224500Y-107959500D01*
X84157461Y-107939815D01*
X84111706Y-107887011D01*
X84100500Y-107835500D01*
X84100500Y-107734997D01*
X84100499Y-107734984D01*
X84098457Y-107715000D01*
X84089999Y-107632203D01*
X84034814Y-107465666D01*
X84019074Y-107440148D01*
X83942713Y-107316348D01*
X83942710Y-107316344D01*
X83941367Y-107315001D01*
X88229532Y-107315001D01*
X88249364Y-107541686D01*
X88249366Y-107541697D01*
X88308258Y-107761488D01*
X88308261Y-107761497D01*
X88404431Y-107967732D01*
X88404432Y-107967734D01*
X88534954Y-108154141D01*
X88695858Y-108315045D01*
X88695861Y-108315047D01*
X88882266Y-108445568D01*
X89088504Y-108541739D01*
X89308308Y-108600635D01*
X89470230Y-108614801D01*
X89534998Y-108620468D01*
X89535000Y-108620468D01*
X89535002Y-108620468D01*
X89591673Y-108615509D01*
X89761692Y-108600635D01*
X89981496Y-108541739D01*
X90187734Y-108445568D01*
X90374139Y-108315047D01*
X90535047Y-108154139D01*
X90627110Y-108022658D01*
X90647613Y-107993377D01*
X90702189Y-107949752D01*
X90749188Y-107940500D01*
X92130812Y-107940500D01*
X92197851Y-107960185D01*
X92232387Y-107993377D01*
X92344954Y-108154141D01*
X92505858Y-108315045D01*
X92505861Y-108315047D01*
X92692266Y-108445568D01*
X92898504Y-108541739D01*
X93118308Y-108600635D01*
X93280230Y-108614801D01*
X93344998Y-108620468D01*
X93345000Y-108620468D01*
X93345002Y-108620468D01*
X93401673Y-108615509D01*
X93571692Y-108600635D01*
X93791496Y-108541739D01*
X93997734Y-108445568D01*
X94184139Y-108315047D01*
X94345047Y-108154139D01*
X94437110Y-108022658D01*
X94457613Y-107993377D01*
X94512189Y-107949752D01*
X94559188Y-107940500D01*
X95940812Y-107940500D01*
X96007851Y-107960185D01*
X96042387Y-107993377D01*
X96154954Y-108154141D01*
X96315858Y-108315045D01*
X96315861Y-108315047D01*
X96502266Y-108445568D01*
X96708504Y-108541739D01*
X96928308Y-108600635D01*
X97090230Y-108614801D01*
X97154998Y-108620468D01*
X97155000Y-108620468D01*
X97155002Y-108620468D01*
X97211673Y-108615509D01*
X97381692Y-108600635D01*
X97601496Y-108541739D01*
X97807734Y-108445568D01*
X97994139Y-108315047D01*
X98155047Y-108154139D01*
X98247110Y-108022658D01*
X98267613Y-107993377D01*
X98322189Y-107949752D01*
X98369188Y-107940500D01*
X99750812Y-107940500D01*
X99817851Y-107960185D01*
X99852387Y-107993377D01*
X99964954Y-108154141D01*
X100125858Y-108315045D01*
X100125861Y-108315047D01*
X100312266Y-108445568D01*
X100518504Y-108541739D01*
X100738308Y-108600635D01*
X100900230Y-108614801D01*
X100964998Y-108620468D01*
X100965000Y-108620468D01*
X100965002Y-108620468D01*
X101021673Y-108615509D01*
X101191692Y-108600635D01*
X101411496Y-108541739D01*
X101617734Y-108445568D01*
X101804139Y-108315047D01*
X101965047Y-108154139D01*
X102095568Y-107967734D01*
X102191739Y-107761496D01*
X102250635Y-107541692D01*
X102270468Y-107315000D01*
X102250635Y-107088308D01*
X102191739Y-106868504D01*
X102095568Y-106662266D01*
X101978448Y-106495000D01*
X101965045Y-106475858D01*
X101804141Y-106314954D01*
X101617734Y-106184432D01*
X101617732Y-106184431D01*
X101411497Y-106088261D01*
X101411488Y-106088258D01*
X101191697Y-106029366D01*
X101191693Y-106029365D01*
X101191692Y-106029365D01*
X101191691Y-106029364D01*
X101191686Y-106029364D01*
X100965002Y-106009532D01*
X100964998Y-106009532D01*
X100738313Y-106029364D01*
X100738302Y-106029366D01*
X100518511Y-106088258D01*
X100518502Y-106088261D01*
X100312267Y-106184431D01*
X100312265Y-106184432D01*
X100125858Y-106314954D01*
X99964954Y-106475858D01*
X99852387Y-106636623D01*
X99797811Y-106680248D01*
X99750812Y-106689500D01*
X98369188Y-106689500D01*
X98302149Y-106669815D01*
X98267613Y-106636623D01*
X98155045Y-106475858D01*
X97994141Y-106314954D01*
X97807734Y-106184432D01*
X97807732Y-106184431D01*
X97601497Y-106088261D01*
X97601488Y-106088258D01*
X97381697Y-106029366D01*
X97381693Y-106029365D01*
X97381692Y-106029365D01*
X97381691Y-106029364D01*
X97381686Y-106029364D01*
X97155002Y-106009532D01*
X97154998Y-106009532D01*
X96928313Y-106029364D01*
X96928302Y-106029366D01*
X96708511Y-106088258D01*
X96708502Y-106088261D01*
X96502267Y-106184431D01*
X96502265Y-106184432D01*
X96315858Y-106314954D01*
X96154954Y-106475858D01*
X96042387Y-106636623D01*
X95987811Y-106680248D01*
X95940812Y-106689500D01*
X94559188Y-106689500D01*
X94492149Y-106669815D01*
X94457613Y-106636623D01*
X94345045Y-106475858D01*
X94184141Y-106314954D01*
X93997734Y-106184432D01*
X93997732Y-106184431D01*
X93791497Y-106088261D01*
X93791488Y-106088258D01*
X93571697Y-106029366D01*
X93571693Y-106029365D01*
X93571692Y-106029365D01*
X93571691Y-106029364D01*
X93571686Y-106029364D01*
X93345002Y-106009532D01*
X93344998Y-106009532D01*
X93118313Y-106029364D01*
X93118302Y-106029366D01*
X92898511Y-106088258D01*
X92898502Y-106088261D01*
X92692267Y-106184431D01*
X92692265Y-106184432D01*
X92505858Y-106314954D01*
X92344954Y-106475858D01*
X92232387Y-106636623D01*
X92177811Y-106680248D01*
X92130812Y-106689500D01*
X90749188Y-106689500D01*
X90682149Y-106669815D01*
X90647613Y-106636623D01*
X90535045Y-106475858D01*
X90374141Y-106314954D01*
X90187734Y-106184432D01*
X90187732Y-106184431D01*
X89981497Y-106088261D01*
X89981488Y-106088258D01*
X89761697Y-106029366D01*
X89761693Y-106029365D01*
X89761692Y-106029365D01*
X89761691Y-106029364D01*
X89761686Y-106029364D01*
X89535002Y-106009532D01*
X89534998Y-106009532D01*
X89308313Y-106029364D01*
X89308302Y-106029366D01*
X89088511Y-106088258D01*
X89088502Y-106088261D01*
X88882267Y-106184431D01*
X88882265Y-106184432D01*
X88695858Y-106314954D01*
X88534954Y-106475858D01*
X88404432Y-106662265D01*
X88404431Y-106662267D01*
X88308261Y-106868502D01*
X88308258Y-106868511D01*
X88249366Y-107088302D01*
X88249364Y-107088313D01*
X88229532Y-107314998D01*
X88229532Y-107315001D01*
X83941367Y-107315001D01*
X83818655Y-107192289D01*
X83818651Y-107192286D01*
X83673958Y-107103038D01*
X83627233Y-107051090D01*
X83616012Y-106982128D01*
X83643855Y-106918046D01*
X83673958Y-106891962D01*
X83716186Y-106865915D01*
X83818655Y-106802711D01*
X83942711Y-106678655D01*
X84034814Y-106529334D01*
X84089999Y-106362797D01*
X84100500Y-106260008D01*
X84100500Y-104559992D01*
X84089999Y-104457203D01*
X84034814Y-104290666D01*
X83942711Y-104141345D01*
X83818655Y-104017289D01*
X83818651Y-104017286D01*
X83673958Y-103928038D01*
X83627233Y-103876090D01*
X83616012Y-103807128D01*
X83643855Y-103743046D01*
X83673958Y-103716962D01*
X83707163Y-103696480D01*
X83818655Y-103627711D01*
X83942711Y-103503655D01*
X84034814Y-103354334D01*
X84089999Y-103187797D01*
X84100500Y-103085008D01*
X84100500Y-103064452D01*
X84120185Y-102997413D01*
X84172989Y-102951658D01*
X84242147Y-102941714D01*
X84305703Y-102970739D01*
X84312180Y-102976770D01*
X85412420Y-104077011D01*
X86494197Y-105158788D01*
X86504022Y-105171051D01*
X86504243Y-105170869D01*
X86509214Y-105176878D01*
X86532060Y-105198331D01*
X86559635Y-105224226D01*
X86580529Y-105245120D01*
X86586011Y-105249373D01*
X86590443Y-105253157D01*
X86624418Y-105285062D01*
X86641976Y-105294714D01*
X86658235Y-105305395D01*
X86674064Y-105317673D01*
X86716838Y-105336182D01*
X86722056Y-105338738D01*
X86762908Y-105361197D01*
X86782316Y-105366180D01*
X86800717Y-105372480D01*
X86819104Y-105380437D01*
X86858572Y-105386688D01*
X86865119Y-105387725D01*
X86870839Y-105388909D01*
X86915981Y-105400500D01*
X86936016Y-105400500D01*
X86955414Y-105402026D01*
X86975194Y-105405159D01*
X86975195Y-105405160D01*
X86975195Y-105405159D01*
X86975196Y-105405160D01*
X87021584Y-105400775D01*
X87027422Y-105400500D01*
X100894153Y-105400500D01*
X100917385Y-105402696D01*
X100918989Y-105403001D01*
X100925412Y-105404227D01*
X100982724Y-105400621D01*
X100986597Y-105400500D01*
X101004342Y-105400500D01*
X101004350Y-105400500D01*
X101021990Y-105398271D01*
X101025807Y-105397910D01*
X101083138Y-105394304D01*
X101090905Y-105391780D01*
X101113680Y-105386688D01*
X101121792Y-105385664D01*
X101175195Y-105364519D01*
X101178835Y-105363209D01*
X101233441Y-105345467D01*
X101240337Y-105341090D01*
X101261133Y-105330494D01*
X101268732Y-105327486D01*
X101315191Y-105293730D01*
X101318390Y-105291555D01*
X101366877Y-105260786D01*
X101372466Y-105254833D01*
X101389979Y-105239394D01*
X101396587Y-105234594D01*
X101433190Y-105190347D01*
X101435736Y-105187457D01*
X101475062Y-105145582D01*
X101478998Y-105138421D01*
X101492119Y-105119114D01*
X101497324Y-105112823D01*
X101521769Y-105060874D01*
X101523528Y-105057419D01*
X101551197Y-105007092D01*
X101553227Y-104999181D01*
X101561135Y-104977218D01*
X101564614Y-104969826D01*
X101575377Y-104913401D01*
X101576210Y-104909670D01*
X101590500Y-104854019D01*
X101590500Y-104845844D01*
X101592697Y-104822606D01*
X101594227Y-104814588D01*
X101590621Y-104757275D01*
X101590500Y-104753403D01*
X101590500Y-104130821D01*
X101610185Y-104063782D01*
X101643372Y-104029250D01*
X101828787Y-103899421D01*
X101994421Y-103733787D01*
X102128777Y-103541907D01*
X102128777Y-103541905D01*
X102131882Y-103537472D01*
X102133323Y-103538481D01*
X102178172Y-103495712D01*
X102246778Y-103482484D01*
X102311645Y-103508447D01*
X102337294Y-103538048D01*
X102338118Y-103537472D01*
X102341222Y-103541905D01*
X102341223Y-103541907D01*
X102475579Y-103733787D01*
X102641213Y-103899421D01*
X102833093Y-104033777D01*
X103045389Y-104132772D01*
X103045395Y-104132773D01*
X103045396Y-104132774D01*
X103077380Y-104141344D01*
X103271649Y-104193398D01*
X103458329Y-104209730D01*
X103504999Y-104213814D01*
X103505000Y-104213814D01*
X103505001Y-104213814D01*
X103543891Y-104210411D01*
X103738351Y-104193398D01*
X103964611Y-104132772D01*
X104176907Y-104033777D01*
X104368787Y-103899421D01*
X104534421Y-103733787D01*
X104668777Y-103541907D01*
X104668777Y-103541905D01*
X104671882Y-103537472D01*
X104673190Y-103538388D01*
X104718441Y-103495220D01*
X104787044Y-103481979D01*
X104851916Y-103507931D01*
X104877778Y-103537763D01*
X104878553Y-103537221D01*
X104938546Y-103622900D01*
X105511628Y-103049817D01*
X105513514Y-103058890D01*
X105584185Y-103195279D01*
X105689032Y-103307543D01*
X105820280Y-103387357D01*
X105867863Y-103400688D01*
X105292098Y-103976452D01*
X105373346Y-104033343D01*
X105585558Y-104132298D01*
X105585567Y-104132302D01*
X105811731Y-104192902D01*
X105811741Y-104192904D01*
X106044998Y-104213312D01*
X106045002Y-104213312D01*
X106278258Y-104192904D01*
X106278268Y-104192902D01*
X106504432Y-104132302D01*
X106504441Y-104132298D01*
X106716657Y-104033341D01*
X106797899Y-103976452D01*
X106223257Y-103401810D01*
X106338073Y-103351939D01*
X106457231Y-103254997D01*
X106545815Y-103129502D01*
X106575245Y-103046692D01*
X107151452Y-103622899D01*
X107208341Y-103541657D01*
X107307298Y-103329441D01*
X107307302Y-103329432D01*
X107367902Y-103103268D01*
X107367904Y-103103258D01*
X107388312Y-102870001D01*
X107388312Y-102869998D01*
X107367904Y-102636741D01*
X107367902Y-102636731D01*
X107307302Y-102410567D01*
X107307298Y-102410558D01*
X107208343Y-102198346D01*
X107151452Y-102117098D01*
X106578370Y-102690180D01*
X106576486Y-102681110D01*
X106505815Y-102544721D01*
X106400968Y-102432457D01*
X106269720Y-102352643D01*
X106222136Y-102339311D01*
X106797900Y-101763546D01*
X106716655Y-101706657D01*
X106504441Y-101607701D01*
X106504432Y-101607697D01*
X106278268Y-101547097D01*
X106278258Y-101547095D01*
X106045002Y-101526688D01*
X106044998Y-101526688D01*
X105811741Y-101547095D01*
X105811731Y-101547097D01*
X105585567Y-101607697D01*
X105585558Y-101607701D01*
X105373345Y-101706657D01*
X105373343Y-101706658D01*
X105292099Y-101763546D01*
X105292098Y-101763546D01*
X105866742Y-102338189D01*
X105751927Y-102388061D01*
X105632769Y-102485003D01*
X105544185Y-102610498D01*
X105514754Y-102693306D01*
X104938546Y-102117098D01*
X104900307Y-102120444D01*
X104831807Y-102106677D01*
X104781624Y-102058062D01*
X104765500Y-101996916D01*
X104765500Y-98539500D01*
X104785185Y-98472461D01*
X104837989Y-98426706D01*
X104889500Y-98415500D01*
X107867257Y-98415500D01*
X107882877Y-98417224D01*
X107882904Y-98416939D01*
X107890660Y-98417671D01*
X107890667Y-98417673D01*
X107959814Y-98415500D01*
X107989350Y-98415500D01*
X107996228Y-98414630D01*
X108002041Y-98414172D01*
X108048627Y-98412709D01*
X108067869Y-98407117D01*
X108086912Y-98403174D01*
X108106792Y-98400664D01*
X108150122Y-98383507D01*
X108155646Y-98381617D01*
X108162857Y-98379522D01*
X108200390Y-98368618D01*
X108217629Y-98358422D01*
X108235103Y-98349862D01*
X108253727Y-98342488D01*
X108253727Y-98342487D01*
X108253732Y-98342486D01*
X108291449Y-98315082D01*
X108296305Y-98311892D01*
X108336420Y-98288170D01*
X108350589Y-98273999D01*
X108365379Y-98261368D01*
X108381587Y-98249594D01*
X108411299Y-98213676D01*
X108415212Y-98209376D01*
X110238787Y-96385801D01*
X110251042Y-96375986D01*
X110250859Y-96375764D01*
X110256866Y-96370792D01*
X110256877Y-96370786D01*
X110287775Y-96337882D01*
X110304227Y-96320364D01*
X110314671Y-96309918D01*
X110325120Y-96299471D01*
X110329379Y-96293978D01*
X110333152Y-96289561D01*
X110365062Y-96255582D01*
X110374715Y-96238020D01*
X110385389Y-96221770D01*
X110397673Y-96205936D01*
X110416180Y-96163167D01*
X110418749Y-96157924D01*
X110441196Y-96117093D01*
X110441197Y-96117092D01*
X110446177Y-96097691D01*
X110452478Y-96079288D01*
X110460438Y-96060896D01*
X110467730Y-96014849D01*
X110468911Y-96009152D01*
X110480500Y-95964019D01*
X110480500Y-95943983D01*
X110482027Y-95924582D01*
X110482451Y-95921906D01*
X110485160Y-95904804D01*
X110480775Y-95858415D01*
X110480500Y-95852577D01*
X110480500Y-93289188D01*
X110500185Y-93222149D01*
X110533377Y-93187613D01*
X110581836Y-93153681D01*
X110694139Y-93075047D01*
X110855047Y-92914139D01*
X110985568Y-92727734D01*
X111081739Y-92521496D01*
X111140635Y-92301692D01*
X111157634Y-92107384D01*
X111160468Y-92075001D01*
X111160468Y-92074998D01*
X111154801Y-92010230D01*
X111140635Y-91848308D01*
X111081739Y-91628504D01*
X110985568Y-91422266D01*
X110855047Y-91235861D01*
X110855045Y-91235858D01*
X110694141Y-91074954D01*
X110507734Y-90944432D01*
X110507732Y-90944431D01*
X110301497Y-90848261D01*
X110301488Y-90848258D01*
X110081697Y-90789366D01*
X110081693Y-90789365D01*
X110081692Y-90789365D01*
X110081691Y-90789364D01*
X110081686Y-90789364D01*
X109855002Y-90769532D01*
X109854998Y-90769532D01*
X109628313Y-90789364D01*
X109628302Y-90789366D01*
X109408511Y-90848258D01*
X109408502Y-90848261D01*
X109202267Y-90944431D01*
X109202265Y-90944432D01*
X109015858Y-91074954D01*
X108854954Y-91235858D01*
X108724432Y-91422265D01*
X108724431Y-91422267D01*
X108628261Y-91628502D01*
X108628258Y-91628511D01*
X108569366Y-91848302D01*
X108569364Y-91848313D01*
X108549532Y-92074998D01*
X108549532Y-92075001D01*
X108569364Y-92301686D01*
X108569366Y-92301697D01*
X108628258Y-92521488D01*
X108628261Y-92521497D01*
X108724431Y-92727732D01*
X108724432Y-92727734D01*
X108854954Y-92914141D01*
X109015858Y-93075045D01*
X109176623Y-93187613D01*
X109220248Y-93242189D01*
X109229500Y-93289188D01*
X109229500Y-95574547D01*
X109209815Y-95641586D01*
X109193181Y-95662228D01*
X107727228Y-97128181D01*
X107665905Y-97161666D01*
X107639547Y-97164500D01*
X104210847Y-97164500D01*
X104187615Y-97162304D01*
X104179588Y-97160773D01*
X104179586Y-97160773D01*
X104170633Y-97161336D01*
X104122275Y-97164378D01*
X104118403Y-97164500D01*
X104100643Y-97164500D01*
X104083032Y-97166725D01*
X104079164Y-97167090D01*
X104047375Y-97169090D01*
X104021859Y-97170696D01*
X104014085Y-97173222D01*
X103991320Y-97178310D01*
X103983218Y-97179333D01*
X103983205Y-97179337D01*
X103929810Y-97200477D01*
X103926154Y-97201792D01*
X103871559Y-97219533D01*
X103871556Y-97219534D01*
X103864652Y-97223915D01*
X103843880Y-97234499D01*
X103836273Y-97237511D01*
X103836262Y-97237517D01*
X103789814Y-97271263D01*
X103786595Y-97273451D01*
X103738123Y-97304213D01*
X103738120Y-97304216D01*
X103732529Y-97310170D01*
X103715029Y-97325599D01*
X103708413Y-97330405D01*
X103708412Y-97330406D01*
X103671812Y-97374646D01*
X103669238Y-97377565D01*
X103629937Y-97419417D01*
X103629935Y-97419420D01*
X103625994Y-97426589D01*
X103612889Y-97445873D01*
X103607677Y-97452173D01*
X103607674Y-97452178D01*
X103583231Y-97504121D01*
X103581464Y-97507589D01*
X103553804Y-97557903D01*
X103553803Y-97557908D01*
X103551769Y-97565828D01*
X103543870Y-97587768D01*
X103540386Y-97595172D01*
X103540384Y-97595178D01*
X103529629Y-97651561D01*
X103528779Y-97655361D01*
X103514500Y-97710976D01*
X103514500Y-97719152D01*
X103512305Y-97742379D01*
X103510773Y-97750412D01*
X103514378Y-97807724D01*
X103514500Y-97811595D01*
X103514500Y-101411730D01*
X103494815Y-101478769D01*
X103442011Y-101524524D01*
X103401308Y-101535258D01*
X103271653Y-101546601D01*
X103271643Y-101546603D01*
X103045396Y-101607225D01*
X103045389Y-101607227D01*
X103045389Y-101607228D01*
X102833093Y-101706223D01*
X102641213Y-101840579D01*
X102641211Y-101840580D01*
X102641208Y-101840583D01*
X102475583Y-102006208D01*
X102475580Y-102006211D01*
X102475579Y-102006213D01*
X102348613Y-102187539D01*
X102338118Y-102202528D01*
X102336680Y-102201521D01*
X102291810Y-102244297D01*
X102223202Y-102257513D01*
X102158340Y-102231540D01*
X102132702Y-102201953D01*
X102131882Y-102202528D01*
X102124247Y-102191624D01*
X101994421Y-102006213D01*
X101828787Y-101840579D01*
X101636907Y-101706223D01*
X101424611Y-101607228D01*
X101424607Y-101607227D01*
X101424603Y-101607225D01*
X101198356Y-101546603D01*
X101198346Y-101546601D01*
X100965001Y-101526186D01*
X100964999Y-101526186D01*
X100731653Y-101546601D01*
X100731643Y-101546603D01*
X100505396Y-101607225D01*
X100505389Y-101607227D01*
X100505389Y-101607228D01*
X100293093Y-101706223D01*
X100101213Y-101840579D01*
X100101211Y-101840580D01*
X100101208Y-101840583D01*
X99935583Y-102006208D01*
X99935580Y-102006211D01*
X99935579Y-102006213D01*
X99808613Y-102187539D01*
X99805753Y-102191624D01*
X99751176Y-102235249D01*
X99704178Y-102244500D01*
X99685822Y-102244500D01*
X99618783Y-102224815D01*
X99584247Y-102191624D01*
X99581387Y-102187539D01*
X99454421Y-102006213D01*
X99288787Y-101840579D01*
X99096907Y-101706223D01*
X98884611Y-101607228D01*
X98884607Y-101607227D01*
X98884603Y-101607225D01*
X98658356Y-101546603D01*
X98658346Y-101546601D01*
X98425001Y-101526186D01*
X98424999Y-101526186D01*
X98191653Y-101546601D01*
X98191643Y-101546603D01*
X97965396Y-101607225D01*
X97965389Y-101607227D01*
X97965389Y-101607228D01*
X97753093Y-101706223D01*
X97561213Y-101840579D01*
X97561211Y-101840580D01*
X97561208Y-101840583D01*
X97395583Y-102006208D01*
X97395580Y-102006211D01*
X97395579Y-102006213D01*
X97268613Y-102187539D01*
X97258118Y-102202528D01*
X97256680Y-102201521D01*
X97211810Y-102244297D01*
X97143202Y-102257513D01*
X97078340Y-102231540D01*
X97052702Y-102201953D01*
X97051882Y-102202528D01*
X97044247Y-102191624D01*
X96914421Y-102006213D01*
X96748787Y-101840579D01*
X96556907Y-101706223D01*
X96344611Y-101607228D01*
X96344607Y-101607227D01*
X96344603Y-101607225D01*
X96118356Y-101546603D01*
X96118346Y-101546601D01*
X95885001Y-101526186D01*
X95884999Y-101526186D01*
X95651653Y-101546601D01*
X95651643Y-101546603D01*
X95425396Y-101607225D01*
X95425389Y-101607227D01*
X95425389Y-101607228D01*
X95213093Y-101706223D01*
X95021213Y-101840579D01*
X95021211Y-101840580D01*
X95021208Y-101840583D01*
X94855583Y-102006208D01*
X94855580Y-102006211D01*
X94855579Y-102006213D01*
X94728613Y-102187539D01*
X94718118Y-102202528D01*
X94716680Y-102201521D01*
X94671810Y-102244297D01*
X94603202Y-102257513D01*
X94538340Y-102231540D01*
X94512702Y-102201953D01*
X94511882Y-102202528D01*
X94504247Y-102191624D01*
X94374421Y-102006213D01*
X94208787Y-101840579D01*
X94016907Y-101706223D01*
X93804611Y-101607228D01*
X93804607Y-101607227D01*
X93804603Y-101607225D01*
X93578356Y-101546603D01*
X93578346Y-101546601D01*
X93345001Y-101526186D01*
X93344999Y-101526186D01*
X93111653Y-101546601D01*
X93111643Y-101546603D01*
X92885396Y-101607225D01*
X92885389Y-101607227D01*
X92885389Y-101607228D01*
X92673093Y-101706223D01*
X92483540Y-101838950D01*
X92481212Y-101840580D01*
X92344246Y-101977546D01*
X92282923Y-102011030D01*
X92213231Y-102006046D01*
X92157298Y-101964174D01*
X92141755Y-101930931D01*
X92140002Y-101931585D01*
X92086997Y-101789471D01*
X92086993Y-101789464D01*
X92000747Y-101674255D01*
X92000744Y-101674252D01*
X91885535Y-101588006D01*
X91885528Y-101588002D01*
X91750682Y-101537708D01*
X91750683Y-101537708D01*
X91691083Y-101531301D01*
X91691081Y-101531300D01*
X91691073Y-101531300D01*
X91691064Y-101531300D01*
X89918929Y-101531300D01*
X89918923Y-101531301D01*
X89859316Y-101537708D01*
X89724471Y-101588002D01*
X89724464Y-101588006D01*
X89609255Y-101674252D01*
X89609252Y-101674255D01*
X89523006Y-101789464D01*
X89523002Y-101789471D01*
X89472708Y-101924317D01*
X89466301Y-101983916D01*
X89466300Y-101983935D01*
X89466300Y-102120500D01*
X89446615Y-102187539D01*
X89393811Y-102233294D01*
X89342300Y-102244500D01*
X89210452Y-102244500D01*
X89143413Y-102224815D01*
X89122771Y-102208181D01*
X87367303Y-100452713D01*
X85590803Y-98676212D01*
X85580980Y-98663950D01*
X85580759Y-98664134D01*
X85575786Y-98658123D01*
X85553252Y-98636962D01*
X85525364Y-98610773D01*
X85514919Y-98600328D01*
X85504475Y-98589883D01*
X85498986Y-98585625D01*
X85494561Y-98581847D01*
X85460582Y-98549938D01*
X85460580Y-98549936D01*
X85460577Y-98549935D01*
X85443029Y-98540288D01*
X85426763Y-98529604D01*
X85410933Y-98517325D01*
X85368168Y-98498818D01*
X85362922Y-98496248D01*
X85322093Y-98473803D01*
X85322092Y-98473802D01*
X85302693Y-98468822D01*
X85284281Y-98462518D01*
X85265898Y-98454562D01*
X85265892Y-98454560D01*
X85219874Y-98447272D01*
X85214152Y-98446087D01*
X85169021Y-98434500D01*
X85169019Y-98434500D01*
X85148984Y-98434500D01*
X85129586Y-98432973D01*
X85122162Y-98431797D01*
X85109805Y-98429840D01*
X85109804Y-98429840D01*
X85063416Y-98434225D01*
X85057578Y-98434500D01*
X84224500Y-98434500D01*
X84157461Y-98414815D01*
X84111706Y-98362011D01*
X84100500Y-98310500D01*
X84100500Y-98209997D01*
X84100499Y-98209984D01*
X84098035Y-98185869D01*
X84089999Y-98107203D01*
X84034814Y-97940666D01*
X84027266Y-97928429D01*
X83942713Y-97791348D01*
X83942710Y-97791344D01*
X83818655Y-97667289D01*
X83818651Y-97667286D01*
X83673958Y-97578038D01*
X83627233Y-97526090D01*
X83616012Y-97457128D01*
X83643855Y-97393046D01*
X83673958Y-97366962D01*
X83741017Y-97325599D01*
X83818655Y-97277711D01*
X83942711Y-97153655D01*
X84034814Y-97004334D01*
X84089999Y-96837797D01*
X84100500Y-96735008D01*
X84100500Y-96634500D01*
X84120185Y-96567461D01*
X84172989Y-96521706D01*
X84224500Y-96510500D01*
X85414548Y-96510500D01*
X85481587Y-96530185D01*
X85502229Y-96546819D01*
X87129197Y-98173788D01*
X87139022Y-98186051D01*
X87139243Y-98185869D01*
X87144214Y-98191878D01*
X87165043Y-98211437D01*
X87194635Y-98239226D01*
X87215529Y-98260120D01*
X87221011Y-98264373D01*
X87225443Y-98268157D01*
X87259418Y-98300062D01*
X87276976Y-98309714D01*
X87293233Y-98320393D01*
X87309064Y-98332673D01*
X87328737Y-98341186D01*
X87351833Y-98351182D01*
X87357077Y-98353750D01*
X87397908Y-98376197D01*
X87405718Y-98378202D01*
X87417305Y-98381177D01*
X87435719Y-98387481D01*
X87454104Y-98395438D01*
X87500157Y-98402732D01*
X87505826Y-98403906D01*
X87550981Y-98415500D01*
X87571016Y-98415500D01*
X87590413Y-98417026D01*
X87610196Y-98420160D01*
X87656584Y-98415775D01*
X87662422Y-98415500D01*
X100894153Y-98415500D01*
X100917385Y-98417696D01*
X100918989Y-98418001D01*
X100925412Y-98419227D01*
X100982724Y-98415621D01*
X100986597Y-98415500D01*
X101004342Y-98415500D01*
X101004350Y-98415500D01*
X101021990Y-98413271D01*
X101025807Y-98412910D01*
X101083138Y-98409304D01*
X101090905Y-98406780D01*
X101113680Y-98401688D01*
X101121792Y-98400664D01*
X101175195Y-98379519D01*
X101178835Y-98378209D01*
X101233441Y-98360467D01*
X101240337Y-98356090D01*
X101261133Y-98345494D01*
X101268732Y-98342486D01*
X101315191Y-98308730D01*
X101318390Y-98306555D01*
X101366877Y-98275786D01*
X101372466Y-98269833D01*
X101389979Y-98254394D01*
X101396587Y-98249594D01*
X101433190Y-98205347D01*
X101435736Y-98202457D01*
X101475062Y-98160582D01*
X101478998Y-98153421D01*
X101492119Y-98134114D01*
X101497324Y-98127823D01*
X101521769Y-98075874D01*
X101523528Y-98072419D01*
X101551197Y-98022092D01*
X101553227Y-98014181D01*
X101561135Y-97992218D01*
X101564614Y-97984826D01*
X101575377Y-97928401D01*
X101576210Y-97924670D01*
X101590500Y-97869019D01*
X101590500Y-97860844D01*
X101592697Y-97837606D01*
X101592725Y-97837461D01*
X101594227Y-97829588D01*
X101590621Y-97772275D01*
X101590500Y-97768403D01*
X101590500Y-96510821D01*
X101610185Y-96443782D01*
X101643372Y-96409250D01*
X101828787Y-96279421D01*
X101994421Y-96113787D01*
X102124247Y-95928375D01*
X102178824Y-95884751D01*
X102225822Y-95875500D01*
X102244178Y-95875500D01*
X102311217Y-95895185D01*
X102345751Y-95928374D01*
X102475579Y-96113787D01*
X102641213Y-96279421D01*
X102833093Y-96413777D01*
X103045389Y-96512772D01*
X103045395Y-96512773D01*
X103045396Y-96512774D01*
X103099623Y-96527304D01*
X103271649Y-96573398D01*
X103458329Y-96589730D01*
X103504999Y-96593814D01*
X103505000Y-96593814D01*
X103505001Y-96593814D01*
X103543891Y-96590411D01*
X103738351Y-96573398D01*
X103964611Y-96512772D01*
X104176907Y-96413777D01*
X104368787Y-96279421D01*
X104534421Y-96113787D01*
X104668777Y-95921907D01*
X104668777Y-95921905D01*
X104671882Y-95917472D01*
X104673323Y-95918481D01*
X104718172Y-95875712D01*
X104786778Y-95862484D01*
X104851645Y-95888447D01*
X104877294Y-95918048D01*
X104878118Y-95917472D01*
X104881222Y-95921905D01*
X104881223Y-95921907D01*
X105015579Y-96113787D01*
X105181213Y-96279421D01*
X105373093Y-96413777D01*
X105585389Y-96512772D01*
X105585395Y-96512773D01*
X105585396Y-96512774D01*
X105639623Y-96527304D01*
X105811649Y-96573398D01*
X105998329Y-96589730D01*
X106044999Y-96593814D01*
X106045000Y-96593814D01*
X106045001Y-96593814D01*
X106083891Y-96590411D01*
X106278351Y-96573398D01*
X106504611Y-96512772D01*
X106716907Y-96413777D01*
X106908787Y-96279421D01*
X107074421Y-96113787D01*
X107208777Y-95921907D01*
X107307772Y-95709611D01*
X107368398Y-95483351D01*
X107388814Y-95250000D01*
X107368398Y-95016649D01*
X107307772Y-94790389D01*
X107208777Y-94578093D01*
X107074421Y-94386213D01*
X106908787Y-94220579D01*
X106716907Y-94086223D01*
X106504611Y-93987228D01*
X106504607Y-93987227D01*
X106504603Y-93987225D01*
X106278356Y-93926603D01*
X106278346Y-93926601D01*
X106045001Y-93906186D01*
X106044999Y-93906186D01*
X105811653Y-93926601D01*
X105811643Y-93926603D01*
X105585396Y-93987225D01*
X105585389Y-93987227D01*
X105585389Y-93987228D01*
X105373093Y-94086223D01*
X105181213Y-94220579D01*
X105181211Y-94220580D01*
X105181208Y-94220583D01*
X105015583Y-94386208D01*
X104878118Y-94582528D01*
X104876680Y-94581521D01*
X104831810Y-94624297D01*
X104763202Y-94637513D01*
X104698340Y-94611540D01*
X104672702Y-94581953D01*
X104671882Y-94582528D01*
X104664247Y-94571624D01*
X104534421Y-94386213D01*
X104368787Y-94220579D01*
X104176907Y-94086223D01*
X103964611Y-93987228D01*
X103964607Y-93987227D01*
X103964603Y-93987225D01*
X103738356Y-93926603D01*
X103738346Y-93926601D01*
X103505001Y-93906186D01*
X103504999Y-93906186D01*
X103271653Y-93926601D01*
X103271643Y-93926603D01*
X103045396Y-93987225D01*
X103045389Y-93987227D01*
X103045389Y-93987228D01*
X102833093Y-94086223D01*
X102641213Y-94220579D01*
X102641211Y-94220580D01*
X102641208Y-94220583D01*
X102475583Y-94386208D01*
X102345753Y-94571624D01*
X102291176Y-94615249D01*
X102244178Y-94624500D01*
X102225822Y-94624500D01*
X102158783Y-94604815D01*
X102124247Y-94571624D01*
X101994421Y-94386213D01*
X101828787Y-94220579D01*
X101636907Y-94086223D01*
X101424611Y-93987228D01*
X101424607Y-93987227D01*
X101424603Y-93987225D01*
X101198356Y-93926603D01*
X101198346Y-93926601D01*
X100965001Y-93906186D01*
X100964999Y-93906186D01*
X100731653Y-93926601D01*
X100731643Y-93926603D01*
X100505396Y-93987225D01*
X100505389Y-93987227D01*
X100505389Y-93987228D01*
X100293093Y-94086223D01*
X100101213Y-94220579D01*
X100101211Y-94220580D01*
X100101208Y-94220583D01*
X99935583Y-94386208D01*
X99798118Y-94582528D01*
X99796680Y-94581521D01*
X99751810Y-94624297D01*
X99683202Y-94637513D01*
X99618340Y-94611540D01*
X99592702Y-94581953D01*
X99591882Y-94582528D01*
X99584247Y-94571624D01*
X99454421Y-94386213D01*
X99288787Y-94220579D01*
X99103375Y-94090752D01*
X99059751Y-94036176D01*
X99050500Y-93989178D01*
X99050500Y-91440001D01*
X104739532Y-91440001D01*
X104759364Y-91666686D01*
X104759366Y-91666697D01*
X104818258Y-91886488D01*
X104818261Y-91886497D01*
X104914431Y-92092732D01*
X104914432Y-92092734D01*
X105044954Y-92279141D01*
X105205858Y-92440045D01*
X105205861Y-92440047D01*
X105392266Y-92570568D01*
X105598504Y-92666739D01*
X105818308Y-92725635D01*
X105980230Y-92739801D01*
X106044998Y-92745468D01*
X106045000Y-92745468D01*
X106045002Y-92745468D01*
X106101673Y-92740509D01*
X106271692Y-92725635D01*
X106491496Y-92666739D01*
X106697734Y-92570568D01*
X106884139Y-92440047D01*
X107045047Y-92279139D01*
X107175568Y-92092734D01*
X107271739Y-91886496D01*
X107330635Y-91666692D01*
X107350468Y-91440000D01*
X107350044Y-91435159D01*
X107340793Y-91329414D01*
X107330635Y-91213308D01*
X107312318Y-91144948D01*
X107313981Y-91075103D01*
X107344410Y-91025179D01*
X108807772Y-89561819D01*
X108869095Y-89528334D01*
X108895453Y-89525500D01*
X119704548Y-89525500D01*
X119771587Y-89545185D01*
X119792228Y-89561818D01*
X120613098Y-90382689D01*
X121419197Y-91188788D01*
X121429022Y-91201051D01*
X121429243Y-91200869D01*
X121434214Y-91206878D01*
X121453711Y-91225186D01*
X121484635Y-91254226D01*
X121505529Y-91275120D01*
X121511011Y-91279373D01*
X121515443Y-91283157D01*
X121549418Y-91315062D01*
X121566976Y-91324714D01*
X121583233Y-91335393D01*
X121599064Y-91347673D01*
X121618737Y-91356186D01*
X121641833Y-91366182D01*
X121647077Y-91368750D01*
X121687908Y-91391197D01*
X121700523Y-91394435D01*
X121707305Y-91396177D01*
X121725719Y-91402481D01*
X121744104Y-91410438D01*
X121790157Y-91417732D01*
X121795826Y-91418906D01*
X121840981Y-91430500D01*
X121861016Y-91430500D01*
X121880413Y-91432026D01*
X121900196Y-91435160D01*
X121946584Y-91430775D01*
X121952422Y-91430500D01*
X122150500Y-91430500D01*
X122217539Y-91450185D01*
X122263294Y-91502989D01*
X122274500Y-91554500D01*
X122274500Y-91655015D01*
X122285000Y-91757795D01*
X122285001Y-91757796D01*
X122340186Y-91924335D01*
X122340187Y-91924337D01*
X122432286Y-92073651D01*
X122432289Y-92073655D01*
X122556344Y-92197710D01*
X122556348Y-92197713D01*
X122701041Y-92286962D01*
X122747766Y-92338910D01*
X122758987Y-92407873D01*
X122731144Y-92471954D01*
X122701041Y-92498038D01*
X122556348Y-92587286D01*
X122556344Y-92587289D01*
X122432289Y-92711344D01*
X122432286Y-92711348D01*
X122340187Y-92860662D01*
X122340186Y-92860664D01*
X122285001Y-93027203D01*
X122285000Y-93027204D01*
X122274500Y-93129984D01*
X122274500Y-94830015D01*
X122285000Y-94932795D01*
X122285001Y-94932796D01*
X122340186Y-95099335D01*
X122340187Y-95099337D01*
X122432286Y-95248651D01*
X122432289Y-95248655D01*
X122556344Y-95372710D01*
X122556348Y-95372713D01*
X122701041Y-95461962D01*
X122747766Y-95513910D01*
X122758987Y-95582873D01*
X122731144Y-95646954D01*
X122701041Y-95673038D01*
X122556348Y-95762286D01*
X122556344Y-95762289D01*
X122432289Y-95886344D01*
X122432286Y-95886348D01*
X122340187Y-96035662D01*
X122340186Y-96035664D01*
X122285001Y-96202203D01*
X122285000Y-96202204D01*
X122274500Y-96304984D01*
X122274500Y-96405500D01*
X122254815Y-96472539D01*
X122202011Y-96518294D01*
X122150500Y-96529500D01*
X118180847Y-96529500D01*
X118157615Y-96527304D01*
X118149588Y-96525773D01*
X118149586Y-96525773D01*
X118140633Y-96526336D01*
X118092275Y-96529378D01*
X118088403Y-96529500D01*
X118070643Y-96529500D01*
X118053032Y-96531725D01*
X118049164Y-96532090D01*
X118017375Y-96534090D01*
X117991859Y-96535696D01*
X117984085Y-96538222D01*
X117961320Y-96543310D01*
X117953218Y-96544333D01*
X117953205Y-96544337D01*
X117899810Y-96565477D01*
X117896154Y-96566792D01*
X117841559Y-96584533D01*
X117841556Y-96584534D01*
X117834652Y-96588915D01*
X117813880Y-96599499D01*
X117806273Y-96602511D01*
X117806262Y-96602517D01*
X117759814Y-96636263D01*
X117756595Y-96638451D01*
X117708123Y-96669213D01*
X117708120Y-96669216D01*
X117702529Y-96675170D01*
X117685029Y-96690599D01*
X117678413Y-96695405D01*
X117678412Y-96695406D01*
X117641812Y-96739646D01*
X117639238Y-96742565D01*
X117599937Y-96784417D01*
X117599935Y-96784420D01*
X117595994Y-96791589D01*
X117582889Y-96810873D01*
X117577677Y-96817173D01*
X117577674Y-96817178D01*
X117553231Y-96869121D01*
X117551464Y-96872589D01*
X117523804Y-96922903D01*
X117523803Y-96922908D01*
X117521769Y-96930828D01*
X117513870Y-96952768D01*
X117510386Y-96960172D01*
X117510384Y-96960178D01*
X117499629Y-97016561D01*
X117498779Y-97020361D01*
X117484500Y-97075976D01*
X117484500Y-97084152D01*
X117482305Y-97107379D01*
X117480773Y-97115412D01*
X117484378Y-97172724D01*
X117484500Y-97176595D01*
X117484500Y-99580500D01*
X117464815Y-99647539D01*
X117412011Y-99693294D01*
X117360500Y-99704500D01*
X115514188Y-99704500D01*
X115447149Y-99684815D01*
X115412613Y-99651623D01*
X115300045Y-99490858D01*
X115139141Y-99329954D01*
X114952734Y-99199432D01*
X114952732Y-99199431D01*
X114746497Y-99103261D01*
X114746488Y-99103258D01*
X114526697Y-99044366D01*
X114526693Y-99044365D01*
X114526692Y-99044365D01*
X114526691Y-99044364D01*
X114526686Y-99044364D01*
X114300002Y-99024532D01*
X114299998Y-99024532D01*
X114073313Y-99044364D01*
X114073302Y-99044366D01*
X113853511Y-99103258D01*
X113853502Y-99103261D01*
X113647267Y-99199431D01*
X113647265Y-99199432D01*
X113460862Y-99329951D01*
X113303726Y-99487087D01*
X113242403Y-99520571D01*
X113172711Y-99515587D01*
X113116778Y-99473715D01*
X113095369Y-99427923D01*
X113094091Y-99422518D01*
X113043797Y-99287671D01*
X113043793Y-99287664D01*
X112957547Y-99172455D01*
X112957544Y-99172452D01*
X112842335Y-99086206D01*
X112842328Y-99086202D01*
X112707482Y-99035908D01*
X112707483Y-99035908D01*
X112647883Y-99029501D01*
X112647881Y-99029500D01*
X112647873Y-99029500D01*
X112647864Y-99029500D01*
X110952129Y-99029500D01*
X110952123Y-99029501D01*
X110892516Y-99035908D01*
X110757671Y-99086202D01*
X110757664Y-99086206D01*
X110642455Y-99172452D01*
X110642452Y-99172455D01*
X110556206Y-99287664D01*
X110556202Y-99287671D01*
X110505908Y-99422517D01*
X110499501Y-99482116D01*
X110499500Y-99482135D01*
X110499500Y-101177870D01*
X110499501Y-101177876D01*
X110505908Y-101237483D01*
X110556202Y-101372328D01*
X110556206Y-101372335D01*
X110642452Y-101487544D01*
X110642455Y-101487547D01*
X110757664Y-101573793D01*
X110757671Y-101573797D01*
X110892517Y-101624091D01*
X110892516Y-101624091D01*
X110899444Y-101624835D01*
X110952127Y-101630500D01*
X112647872Y-101630499D01*
X112707483Y-101624091D01*
X112842331Y-101573796D01*
X112957546Y-101487546D01*
X113043796Y-101372331D01*
X113094091Y-101237483D01*
X113094092Y-101237472D01*
X113095365Y-101232088D01*
X113129933Y-101171369D01*
X113191841Y-101138978D01*
X113261433Y-101145199D01*
X113303725Y-101172912D01*
X113460858Y-101330045D01*
X113460861Y-101330047D01*
X113647266Y-101460568D01*
X113853504Y-101556739D01*
X114073308Y-101615635D01*
X114232471Y-101629560D01*
X114299998Y-101635468D01*
X114300000Y-101635468D01*
X114300002Y-101635468D01*
X114356807Y-101630498D01*
X114526692Y-101615635D01*
X114746496Y-101556739D01*
X114952734Y-101460568D01*
X115139139Y-101330047D01*
X115300047Y-101169139D01*
X115412613Y-101008377D01*
X115467189Y-100964752D01*
X115514188Y-100955500D01*
X118039153Y-100955500D01*
X118062385Y-100957696D01*
X118063989Y-100958001D01*
X118070412Y-100959227D01*
X118127724Y-100955621D01*
X118131597Y-100955500D01*
X118149342Y-100955500D01*
X118149350Y-100955500D01*
X118166990Y-100953271D01*
X118170807Y-100952910D01*
X118228138Y-100949304D01*
X118235905Y-100946780D01*
X118258680Y-100941688D01*
X118266792Y-100940664D01*
X118320195Y-100919519D01*
X118323835Y-100918209D01*
X118378441Y-100900467D01*
X118385337Y-100896090D01*
X118406133Y-100885494D01*
X118413732Y-100882486D01*
X118460191Y-100848730D01*
X118463390Y-100846555D01*
X118511877Y-100815786D01*
X118517466Y-100809833D01*
X118534979Y-100794394D01*
X118541587Y-100789594D01*
X118578190Y-100745347D01*
X118580736Y-100742457D01*
X118620062Y-100700582D01*
X118623998Y-100693421D01*
X118637119Y-100674114D01*
X118642324Y-100667823D01*
X118644653Y-100662873D01*
X118666769Y-100615874D01*
X118668528Y-100612419D01*
X118696197Y-100562092D01*
X118698227Y-100554181D01*
X118706135Y-100532218D01*
X118709614Y-100524826D01*
X118720377Y-100468401D01*
X118721210Y-100464670D01*
X118735500Y-100409019D01*
X118735500Y-100400844D01*
X118737697Y-100377606D01*
X118739227Y-100369588D01*
X118735621Y-100312275D01*
X118735500Y-100308403D01*
X118735500Y-97904500D01*
X118755185Y-97837461D01*
X118807989Y-97791706D01*
X118859500Y-97780500D01*
X122150500Y-97780500D01*
X122217539Y-97800185D01*
X122263294Y-97852989D01*
X122274500Y-97904500D01*
X122274500Y-98005015D01*
X122285000Y-98107795D01*
X122285001Y-98107797D01*
X122296715Y-98143147D01*
X122340186Y-98274335D01*
X122340187Y-98274337D01*
X122432286Y-98423651D01*
X122432289Y-98423655D01*
X122556344Y-98547710D01*
X122556348Y-98547713D01*
X122701041Y-98636962D01*
X122747766Y-98688910D01*
X122758987Y-98757873D01*
X122731144Y-98821954D01*
X122701041Y-98848038D01*
X122556348Y-98937286D01*
X122556344Y-98937289D01*
X122432289Y-99061344D01*
X122432286Y-99061348D01*
X122340187Y-99210662D01*
X122340186Y-99210664D01*
X122285001Y-99377203D01*
X122285000Y-99377204D01*
X122274500Y-99479984D01*
X122274500Y-101180015D01*
X122285000Y-101282795D01*
X122285001Y-101282797D01*
X122300658Y-101330047D01*
X122340186Y-101449335D01*
X122340187Y-101449337D01*
X122432286Y-101598651D01*
X122432289Y-101598655D01*
X122556344Y-101722710D01*
X122556348Y-101722713D01*
X122701041Y-101811962D01*
X122747766Y-101863910D01*
X122758987Y-101932873D01*
X122731144Y-101996954D01*
X122701041Y-102023038D01*
X122556348Y-102112286D01*
X122556344Y-102112289D01*
X122432289Y-102236344D01*
X122432286Y-102236348D01*
X122340187Y-102385662D01*
X122340186Y-102385664D01*
X122285001Y-102552203D01*
X122285000Y-102552204D01*
X122274500Y-102654984D01*
X122274500Y-104355015D01*
X122285000Y-104457795D01*
X122285001Y-104457796D01*
X122340186Y-104624335D01*
X122340187Y-104624337D01*
X122432286Y-104773651D01*
X122432289Y-104773655D01*
X122556344Y-104897710D01*
X122556348Y-104897713D01*
X122701517Y-104987255D01*
X122748242Y-105039203D01*
X122759463Y-105108165D01*
X122731620Y-105172247D01*
X122701517Y-105198331D01*
X122556660Y-105287680D01*
X122556656Y-105287683D01*
X122432684Y-105411655D01*
X122340643Y-105560876D01*
X122340641Y-105560881D01*
X122285494Y-105727303D01*
X122285493Y-105727310D01*
X122275000Y-105830014D01*
X122275000Y-106430000D01*
X123330148Y-106430000D01*
X123281441Y-106567047D01*
X123271123Y-106717886D01*
X123301884Y-106865915D01*
X123335090Y-106930000D01*
X122275000Y-106930000D01*
X122275000Y-107529985D01*
X122285493Y-107632689D01*
X122285494Y-107632696D01*
X122340641Y-107799118D01*
X122340643Y-107799123D01*
X122432684Y-107948344D01*
X122556655Y-108072315D01*
X122701993Y-108161961D01*
X122748718Y-108213909D01*
X122759939Y-108282872D01*
X122732096Y-108346954D01*
X122701993Y-108373039D01*
X122556655Y-108462684D01*
X122432684Y-108586655D01*
X122340643Y-108735876D01*
X122340641Y-108735881D01*
X122285494Y-108902303D01*
X122285493Y-108902310D01*
X122275000Y-109005014D01*
X122275000Y-109605000D01*
X123330148Y-109605000D01*
X123281441Y-109742047D01*
X123271123Y-109892886D01*
X123301884Y-110040915D01*
X123335090Y-110105000D01*
X122275000Y-110105000D01*
X122275000Y-110704985D01*
X122285493Y-110807689D01*
X122285494Y-110807696D01*
X122340641Y-110974118D01*
X122340643Y-110974123D01*
X122432684Y-111123344D01*
X122556655Y-111247315D01*
X122701993Y-111336961D01*
X122748718Y-111388909D01*
X122759939Y-111457872D01*
X122732096Y-111521954D01*
X122701993Y-111548039D01*
X122556655Y-111637684D01*
X122432684Y-111761655D01*
X122340643Y-111910876D01*
X122340641Y-111910881D01*
X122285494Y-112077303D01*
X122285493Y-112077310D01*
X122275000Y-112180014D01*
X122275000Y-112780000D01*
X123330148Y-112780000D01*
X123281441Y-112917047D01*
X123271123Y-113067886D01*
X123301884Y-113215915D01*
X123335090Y-113280000D01*
X122275000Y-113280000D01*
X122275000Y-113879985D01*
X122285493Y-113982689D01*
X122285494Y-113982696D01*
X122340641Y-114149118D01*
X122340643Y-114149123D01*
X122432684Y-114298344D01*
X122556655Y-114422315D01*
X122701993Y-114511961D01*
X122748718Y-114563909D01*
X122759939Y-114632872D01*
X122732096Y-114696954D01*
X122701993Y-114723039D01*
X122556655Y-114812684D01*
X122432684Y-114936655D01*
X122340643Y-115085876D01*
X122340641Y-115085881D01*
X122285494Y-115252303D01*
X122285493Y-115252310D01*
X122275000Y-115355014D01*
X122275000Y-115955000D01*
X123330148Y-115955000D01*
X123281441Y-116092047D01*
X123271123Y-116242886D01*
X123301884Y-116390915D01*
X123335090Y-116455000D01*
X122275000Y-116455000D01*
X122275000Y-117054985D01*
X122285493Y-117157689D01*
X122285494Y-117157696D01*
X122340641Y-117324118D01*
X122340643Y-117324123D01*
X122432684Y-117473344D01*
X122556655Y-117597315D01*
X122701993Y-117686961D01*
X122748718Y-117738909D01*
X122759939Y-117807872D01*
X122732096Y-117871954D01*
X122701993Y-117898039D01*
X122556655Y-117987684D01*
X122432684Y-118111655D01*
X122340643Y-118260876D01*
X122340641Y-118260881D01*
X122285494Y-118427303D01*
X122285493Y-118427310D01*
X122275000Y-118530014D01*
X122275000Y-119130000D01*
X123330148Y-119130000D01*
X123281441Y-119267047D01*
X123271123Y-119417886D01*
X123301884Y-119565915D01*
X123335090Y-119630000D01*
X122275000Y-119630000D01*
X122275000Y-120229985D01*
X122285493Y-120332689D01*
X122285494Y-120332696D01*
X122340641Y-120499118D01*
X122340643Y-120499123D01*
X122432684Y-120648344D01*
X122556655Y-120772315D01*
X122701993Y-120861961D01*
X122748718Y-120913909D01*
X122759939Y-120982872D01*
X122732096Y-121046954D01*
X122701993Y-121073039D01*
X122556655Y-121162684D01*
X122432684Y-121286655D01*
X122340643Y-121435876D01*
X122340641Y-121435881D01*
X122285494Y-121602303D01*
X122285493Y-121602310D01*
X122275000Y-121705014D01*
X122275000Y-122305000D01*
X123330148Y-122305000D01*
X123281441Y-122442047D01*
X123271123Y-122592886D01*
X123301884Y-122740915D01*
X123335090Y-122805000D01*
X122275000Y-122805000D01*
X122275000Y-123404985D01*
X122285493Y-123507689D01*
X122285494Y-123507696D01*
X122340641Y-123674118D01*
X122340643Y-123674123D01*
X122432684Y-123823344D01*
X122556655Y-123947315D01*
X122705876Y-124039356D01*
X122705881Y-124039358D01*
X122872303Y-124094505D01*
X122872310Y-124094506D01*
X122975014Y-124104999D01*
X122975027Y-124105000D01*
X123575000Y-124105000D01*
X123575000Y-123046683D01*
X123603819Y-123064209D01*
X123749404Y-123105000D01*
X123862622Y-123105000D01*
X123974783Y-123089584D01*
X124075000Y-123046053D01*
X124075000Y-124105000D01*
X124674973Y-124105000D01*
X124674985Y-124104999D01*
X124777689Y-124094506D01*
X124777696Y-124094505D01*
X124944118Y-124039358D01*
X124944123Y-124039356D01*
X125093344Y-123947315D01*
X125217315Y-123823344D01*
X125309356Y-123674123D01*
X125309358Y-123674118D01*
X125364505Y-123507696D01*
X125364506Y-123507689D01*
X125374999Y-123404985D01*
X125375000Y-123404972D01*
X125375000Y-122805000D01*
X124319852Y-122805000D01*
X124368559Y-122667953D01*
X124378877Y-122517114D01*
X124348116Y-122369085D01*
X124314910Y-122305000D01*
X125375000Y-122305000D01*
X125375000Y-121705027D01*
X125374999Y-121705014D01*
X125364506Y-121602310D01*
X125364505Y-121602303D01*
X125309358Y-121435881D01*
X125309356Y-121435876D01*
X125217315Y-121286655D01*
X125093344Y-121162684D01*
X124948006Y-121073039D01*
X124901282Y-121021091D01*
X124890059Y-120952128D01*
X124917903Y-120888046D01*
X124948006Y-120861961D01*
X125093344Y-120772315D01*
X125217315Y-120648344D01*
X125309356Y-120499123D01*
X125309358Y-120499118D01*
X125364505Y-120332696D01*
X125364506Y-120332689D01*
X125374999Y-120229985D01*
X125375000Y-120229972D01*
X125375000Y-119630000D01*
X124319852Y-119630000D01*
X124368559Y-119492953D01*
X124378877Y-119342114D01*
X124348116Y-119194085D01*
X124314910Y-119130000D01*
X125375000Y-119130000D01*
X125375000Y-118530027D01*
X125374999Y-118530014D01*
X125364506Y-118427310D01*
X125364505Y-118427303D01*
X125309358Y-118260881D01*
X125309356Y-118260876D01*
X125217315Y-118111655D01*
X125093344Y-117987684D01*
X124948006Y-117898039D01*
X124901282Y-117846091D01*
X124890059Y-117777128D01*
X124917903Y-117713046D01*
X124948006Y-117686961D01*
X125093344Y-117597315D01*
X125217315Y-117473344D01*
X125309356Y-117324123D01*
X125309358Y-117324118D01*
X125364505Y-117157696D01*
X125364506Y-117157689D01*
X125374999Y-117054985D01*
X125375000Y-117054972D01*
X125375000Y-116455000D01*
X124319852Y-116455000D01*
X124368559Y-116317953D01*
X124378877Y-116167114D01*
X124348116Y-116019085D01*
X124314910Y-115955000D01*
X125375000Y-115955000D01*
X125375000Y-115355027D01*
X125374999Y-115355014D01*
X125364506Y-115252310D01*
X125364505Y-115252303D01*
X125309358Y-115085881D01*
X125309356Y-115085876D01*
X125217315Y-114936655D01*
X125093344Y-114812684D01*
X124948006Y-114723039D01*
X124901282Y-114671091D01*
X124890059Y-114602128D01*
X124917903Y-114538046D01*
X124948006Y-114511961D01*
X125093344Y-114422315D01*
X125217315Y-114298344D01*
X125309356Y-114149123D01*
X125309358Y-114149118D01*
X125364505Y-113982696D01*
X125364506Y-113982689D01*
X125374999Y-113879985D01*
X125375000Y-113879972D01*
X125375000Y-113280000D01*
X124319852Y-113280000D01*
X124368559Y-113142953D01*
X124378877Y-112992114D01*
X124348116Y-112844085D01*
X124314910Y-112780000D01*
X125375000Y-112780000D01*
X125375000Y-112180027D01*
X125374999Y-112180014D01*
X125364506Y-112077310D01*
X125364505Y-112077303D01*
X125309358Y-111910881D01*
X125309356Y-111910876D01*
X125217315Y-111761655D01*
X125093344Y-111637684D01*
X124948006Y-111548039D01*
X124901282Y-111496091D01*
X124890059Y-111427128D01*
X124917903Y-111363046D01*
X124948006Y-111336961D01*
X125093344Y-111247315D01*
X125217315Y-111123344D01*
X125309356Y-110974123D01*
X125309358Y-110974118D01*
X125364505Y-110807696D01*
X125364506Y-110807689D01*
X125374999Y-110704985D01*
X125375000Y-110704972D01*
X125375000Y-110105000D01*
X124319852Y-110105000D01*
X124368559Y-109967953D01*
X124378877Y-109817114D01*
X124348116Y-109669085D01*
X124314910Y-109605000D01*
X125375000Y-109605000D01*
X125375000Y-109005027D01*
X125374999Y-109005014D01*
X125364506Y-108902310D01*
X125364505Y-108902303D01*
X125309358Y-108735881D01*
X125309356Y-108735876D01*
X125217315Y-108586655D01*
X125093344Y-108462684D01*
X124948006Y-108373039D01*
X124901282Y-108321091D01*
X124890059Y-108252128D01*
X124917903Y-108188046D01*
X124948006Y-108161961D01*
X125093344Y-108072315D01*
X125217315Y-107948344D01*
X125309356Y-107799123D01*
X125309358Y-107799118D01*
X125364505Y-107632696D01*
X125364506Y-107632689D01*
X125374999Y-107529985D01*
X125375000Y-107529972D01*
X125375000Y-106930000D01*
X124319852Y-106930000D01*
X124368559Y-106792953D01*
X124378877Y-106642114D01*
X124348116Y-106494085D01*
X124314910Y-106430000D01*
X125375000Y-106430000D01*
X125375000Y-105830027D01*
X125374999Y-105830014D01*
X125364506Y-105727310D01*
X125364505Y-105727303D01*
X125309358Y-105560881D01*
X125309356Y-105560876D01*
X125217315Y-105411655D01*
X125093344Y-105287684D01*
X124948482Y-105198332D01*
X124901757Y-105146384D01*
X124890536Y-105077421D01*
X124918379Y-105013339D01*
X124948476Y-104987259D01*
X125093655Y-104897711D01*
X125217711Y-104773655D01*
X125309814Y-104624334D01*
X125364999Y-104457797D01*
X125375500Y-104355008D01*
X125375500Y-102654992D01*
X125364999Y-102552203D01*
X125309814Y-102385666D01*
X125303090Y-102374765D01*
X125217713Y-102236348D01*
X125217710Y-102236344D01*
X125093655Y-102112289D01*
X125093651Y-102112286D01*
X124948958Y-102023038D01*
X124902233Y-101971090D01*
X124891012Y-101902128D01*
X124918855Y-101838046D01*
X124948958Y-101811962D01*
X125025289Y-101764880D01*
X125093655Y-101722711D01*
X125217711Y-101598655D01*
X125309814Y-101449334D01*
X125364999Y-101282797D01*
X125375500Y-101180008D01*
X125375500Y-99479992D01*
X125364999Y-99377203D01*
X125309814Y-99210666D01*
X125302884Y-99199431D01*
X125217713Y-99061348D01*
X125217710Y-99061344D01*
X125093655Y-98937289D01*
X125093651Y-98937286D01*
X124948958Y-98848038D01*
X124902233Y-98796090D01*
X124891012Y-98727128D01*
X124918855Y-98663046D01*
X124948958Y-98636962D01*
X125032187Y-98585625D01*
X125093655Y-98547711D01*
X125217711Y-98423655D01*
X125309814Y-98274334D01*
X125364999Y-98107797D01*
X125375500Y-98005008D01*
X125375500Y-96304992D01*
X125364999Y-96202203D01*
X125309814Y-96035666D01*
X125296991Y-96014877D01*
X125217713Y-95886348D01*
X125217710Y-95886344D01*
X125093655Y-95762289D01*
X125093651Y-95762286D01*
X124948958Y-95673038D01*
X124902233Y-95621090D01*
X124891012Y-95552128D01*
X124918855Y-95488046D01*
X124948958Y-95461962D01*
X125032187Y-95410625D01*
X125093655Y-95372711D01*
X125217711Y-95248655D01*
X125309814Y-95099334D01*
X125364999Y-94932797D01*
X125375500Y-94830008D01*
X125375500Y-93129992D01*
X125364999Y-93027203D01*
X125309814Y-92860666D01*
X125238758Y-92745468D01*
X125217713Y-92711348D01*
X125217710Y-92711344D01*
X125093655Y-92587289D01*
X125093651Y-92587286D01*
X124948958Y-92498038D01*
X124902233Y-92446090D01*
X124891012Y-92377128D01*
X124918855Y-92313046D01*
X124948958Y-92286962D01*
X124987391Y-92263256D01*
X125093655Y-92197711D01*
X125217711Y-92073655D01*
X125309814Y-91924334D01*
X125364999Y-91757797D01*
X125375500Y-91655008D01*
X125375500Y-89954992D01*
X125364999Y-89852203D01*
X125309814Y-89685666D01*
X125295373Y-89662254D01*
X125217713Y-89536348D01*
X125217710Y-89536344D01*
X125093655Y-89412289D01*
X125093651Y-89412286D01*
X124948958Y-89323038D01*
X124902233Y-89271090D01*
X124891012Y-89202128D01*
X124918855Y-89138046D01*
X124948958Y-89111962D01*
X125020573Y-89067789D01*
X125093655Y-89022711D01*
X125217711Y-88898655D01*
X125309814Y-88749334D01*
X125364999Y-88582797D01*
X125375500Y-88480008D01*
X125375500Y-86779992D01*
X125364999Y-86677203D01*
X125309814Y-86510666D01*
X125302884Y-86499431D01*
X125217713Y-86361348D01*
X125217710Y-86361344D01*
X125093655Y-86237289D01*
X125093651Y-86237286D01*
X124948958Y-86148038D01*
X124902233Y-86096090D01*
X124891012Y-86027128D01*
X124918855Y-85963046D01*
X124948958Y-85936962D01*
X125032145Y-85885651D01*
X125093655Y-85847711D01*
X125217711Y-85723655D01*
X125309814Y-85574334D01*
X125364999Y-85407797D01*
X125375500Y-85305008D01*
X125375500Y-83604992D01*
X125364999Y-83502203D01*
X125309814Y-83335666D01*
X125293943Y-83309936D01*
X125217713Y-83186348D01*
X125217710Y-83186344D01*
X125093655Y-83062289D01*
X125093651Y-83062286D01*
X124948958Y-82973038D01*
X124902233Y-82921090D01*
X124891012Y-82852128D01*
X124918855Y-82788046D01*
X124948958Y-82761962D01*
X125025289Y-82714880D01*
X125093655Y-82672711D01*
X125217711Y-82548655D01*
X125309814Y-82399334D01*
X125364999Y-82232797D01*
X125375500Y-82130008D01*
X125375500Y-80429992D01*
X125364999Y-80327203D01*
X125309814Y-80160666D01*
X125217711Y-80011345D01*
X125093655Y-79887289D01*
X125093651Y-79887286D01*
X124944337Y-79795187D01*
X124944335Y-79795186D01*
X124861065Y-79767593D01*
X124777797Y-79740001D01*
X124777795Y-79740000D01*
X124675015Y-79729500D01*
X124675008Y-79729500D01*
X122974992Y-79729500D01*
X122974984Y-79729500D01*
X122872204Y-79740000D01*
X122872203Y-79740001D01*
X122705664Y-79795186D01*
X122705662Y-79795187D01*
X122556348Y-79887286D01*
X122556344Y-79887289D01*
X122432289Y-80011344D01*
X122432286Y-80011348D01*
X122340187Y-80160662D01*
X122340186Y-80160664D01*
X122285001Y-80327203D01*
X122285000Y-80327204D01*
X122274500Y-80429984D01*
X122274500Y-80530500D01*
X122254815Y-80597539D01*
X122202011Y-80643294D01*
X122150500Y-80654500D01*
X122002737Y-80654500D01*
X121987120Y-80652776D01*
X121987093Y-80653062D01*
X121979331Y-80652327D01*
X121910203Y-80654500D01*
X121880650Y-80654500D01*
X121879929Y-80654590D01*
X121873757Y-80655369D01*
X121867945Y-80655826D01*
X121821372Y-80657290D01*
X121821369Y-80657291D01*
X121802126Y-80662881D01*
X121783083Y-80666825D01*
X121763204Y-80669336D01*
X121763203Y-80669337D01*
X121719878Y-80686490D01*
X121714352Y-80688382D01*
X121669608Y-80701383D01*
X121669604Y-80701385D01*
X121652365Y-80711580D01*
X121634898Y-80720137D01*
X121616269Y-80727512D01*
X121616267Y-80727513D01*
X121578564Y-80754906D01*
X121573682Y-80758112D01*
X121533580Y-80781828D01*
X121519408Y-80796000D01*
X121504623Y-80808628D01*
X121488412Y-80820407D01*
X121458709Y-80856310D01*
X121454776Y-80860631D01*
X120293638Y-82021771D01*
X119157228Y-83158181D01*
X119095905Y-83191666D01*
X119069547Y-83194500D01*
X117930221Y-83194500D01*
X117863182Y-83174815D01*
X117817427Y-83122011D01*
X117807483Y-83052853D01*
X117836508Y-82989297D01*
X117862082Y-82966899D01*
X117892407Y-82946954D01*
X117910085Y-82935327D01*
X118164447Y-82721893D01*
X118392310Y-82480371D01*
X118590594Y-82214030D01*
X118756617Y-81926470D01*
X118888133Y-81621581D01*
X118983365Y-81303485D01*
X119041024Y-80976484D01*
X119059615Y-80657290D01*
X119060331Y-80645003D01*
X119060331Y-80644996D01*
X119047808Y-80429992D01*
X119041024Y-80313516D01*
X119014072Y-80160666D01*
X118983368Y-79986532D01*
X118983367Y-79986531D01*
X118983365Y-79986515D01*
X118888133Y-79668419D01*
X118756617Y-79363530D01*
X118590594Y-79075970D01*
X118590593Y-79075968D01*
X118392321Y-78809643D01*
X118392314Y-78809635D01*
X118392310Y-78809629D01*
X118164447Y-78568107D01*
X118002153Y-78431926D01*
X117910087Y-78354674D01*
X117910079Y-78354668D01*
X117632669Y-78172212D01*
X117335946Y-78023192D01*
X117335940Y-78023189D01*
X117023930Y-77909627D01*
X117023909Y-77909620D01*
X116700838Y-77833050D01*
X116700823Y-77833048D01*
X116371023Y-77794500D01*
X116038977Y-77794500D01*
X115750402Y-77828229D01*
X115709176Y-77833048D01*
X115709161Y-77833050D01*
X115386090Y-77909620D01*
X115386069Y-77909627D01*
X115074059Y-78023189D01*
X115074053Y-78023192D01*
X114777330Y-78172212D01*
X114499920Y-78354668D01*
X114499912Y-78354674D01*
X114293936Y-78527508D01*
X114245553Y-78568107D01*
X114017690Y-78809629D01*
X114017687Y-78809632D01*
X114017685Y-78809635D01*
X114017678Y-78809643D01*
X113819406Y-79075968D01*
X113653385Y-79363525D01*
X113653379Y-79363538D01*
X113521866Y-79668419D01*
X113426634Y-79986518D01*
X113426631Y-79986532D01*
X113368977Y-80313504D01*
X113368976Y-80313515D01*
X113349669Y-80644996D01*
X113349669Y-80645003D01*
X113368976Y-80976484D01*
X113368977Y-80976495D01*
X113426631Y-81303467D01*
X113426634Y-81303481D01*
X113426635Y-81303485D01*
X113441704Y-81353818D01*
X113521866Y-81621580D01*
X113653379Y-81926461D01*
X113653385Y-81926474D01*
X113819406Y-82214031D01*
X114017678Y-82480356D01*
X114017683Y-82480362D01*
X114017690Y-82480371D01*
X114245553Y-82721893D01*
X114328544Y-82791530D01*
X114499910Y-82935324D01*
X114547918Y-82966899D01*
X114593112Y-83020184D01*
X114602323Y-83089444D01*
X114572628Y-83152689D01*
X114513454Y-83189840D01*
X114479779Y-83194500D01*
X113975452Y-83194500D01*
X113908413Y-83174815D01*
X113887771Y-83158181D01*
X112260803Y-81531212D01*
X112250980Y-81518950D01*
X112250759Y-81519134D01*
X112245786Y-81513123D01*
X112195364Y-81465773D01*
X112184919Y-81455328D01*
X112174475Y-81444883D01*
X112168986Y-81440625D01*
X112164561Y-81436847D01*
X112130582Y-81404938D01*
X112130580Y-81404936D01*
X112130577Y-81404935D01*
X112113029Y-81395288D01*
X112096763Y-81384604D01*
X112080933Y-81372325D01*
X112038168Y-81353818D01*
X112032922Y-81351248D01*
X111992093Y-81328803D01*
X111992092Y-81328802D01*
X111972693Y-81323822D01*
X111954281Y-81317518D01*
X111935898Y-81309562D01*
X111935892Y-81309560D01*
X111889874Y-81302272D01*
X111884152Y-81301087D01*
X111839021Y-81289500D01*
X111839019Y-81289500D01*
X111818984Y-81289500D01*
X111799586Y-81287973D01*
X111792162Y-81286797D01*
X111779805Y-81284840D01*
X111779804Y-81284840D01*
X111733416Y-81289225D01*
X111727578Y-81289500D01*
X111069188Y-81289500D01*
X111002149Y-81269815D01*
X110967613Y-81236623D01*
X110855045Y-81075858D01*
X110694141Y-80914954D01*
X110507734Y-80784432D01*
X110507732Y-80784431D01*
X110301497Y-80688261D01*
X110301488Y-80688258D01*
X110081697Y-80629366D01*
X110081693Y-80629365D01*
X110081692Y-80629365D01*
X110081691Y-80629364D01*
X110081686Y-80629364D01*
X109855002Y-80609532D01*
X109854998Y-80609532D01*
X109628313Y-80629364D01*
X109628302Y-80629366D01*
X109408511Y-80688258D01*
X109408502Y-80688261D01*
X109202267Y-80784431D01*
X109202265Y-80784432D01*
X109015858Y-80914954D01*
X108854954Y-81075858D01*
X108724432Y-81262265D01*
X108724431Y-81262267D01*
X108628261Y-81468502D01*
X108628258Y-81468511D01*
X108569366Y-81688302D01*
X108569364Y-81688313D01*
X108549532Y-81914998D01*
X108549532Y-81915001D01*
X108569364Y-82141686D01*
X108569366Y-82141697D01*
X108628258Y-82361488D01*
X108628261Y-82361497D01*
X108724431Y-82567732D01*
X108724432Y-82567734D01*
X108854954Y-82754141D01*
X109015858Y-82915045D01*
X109015861Y-82915047D01*
X109202266Y-83045568D01*
X109408504Y-83141739D01*
X109628308Y-83200635D01*
X109787471Y-83214560D01*
X109854998Y-83220468D01*
X109855000Y-83220468D01*
X109855002Y-83220468D01*
X109911673Y-83215509D01*
X110081692Y-83200635D01*
X110301496Y-83141739D01*
X110507734Y-83045568D01*
X110694139Y-82915047D01*
X110855047Y-82754139D01*
X110947110Y-82622658D01*
X110967613Y-82593377D01*
X111022189Y-82549752D01*
X111069188Y-82540500D01*
X111449548Y-82540500D01*
X111516587Y-82560185D01*
X111537228Y-82576818D01*
X112355430Y-83395021D01*
X113164197Y-84203788D01*
X113174022Y-84216051D01*
X113174243Y-84215869D01*
X113179210Y-84221874D01*
X113209276Y-84250107D01*
X113244671Y-84310348D01*
X113241879Y-84380162D01*
X113201786Y-84437383D01*
X113137121Y-84463845D01*
X113124393Y-84464500D01*
X108895453Y-84464500D01*
X108828414Y-84444815D01*
X108807772Y-84428181D01*
X107815803Y-83436212D01*
X107805980Y-83423950D01*
X107805759Y-83424134D01*
X107800786Y-83418123D01*
X107794834Y-83412534D01*
X107750364Y-83370773D01*
X107739919Y-83360328D01*
X107729475Y-83349883D01*
X107723986Y-83345625D01*
X107719561Y-83341847D01*
X107685582Y-83309938D01*
X107685580Y-83309936D01*
X107685577Y-83309935D01*
X107668029Y-83300288D01*
X107651763Y-83289604D01*
X107635936Y-83277327D01*
X107635935Y-83277326D01*
X107635933Y-83277325D01*
X107593168Y-83258818D01*
X107587922Y-83256248D01*
X107547093Y-83233803D01*
X107547092Y-83233802D01*
X107527693Y-83228822D01*
X107509281Y-83222518D01*
X107490898Y-83214562D01*
X107490892Y-83214560D01*
X107444874Y-83207272D01*
X107439152Y-83206087D01*
X107394021Y-83194500D01*
X107394019Y-83194500D01*
X107373984Y-83194500D01*
X107354586Y-83192973D01*
X107340695Y-83190773D01*
X107334805Y-83189840D01*
X107334804Y-83189840D01*
X107288416Y-83194225D01*
X107282578Y-83194500D01*
X107259188Y-83194500D01*
X107192149Y-83174815D01*
X107157613Y-83141623D01*
X107045045Y-82980858D01*
X106884141Y-82819954D01*
X106697734Y-82689432D01*
X106697732Y-82689431D01*
X106491497Y-82593261D01*
X106491488Y-82593258D01*
X106271697Y-82534366D01*
X106271693Y-82534365D01*
X106271692Y-82534365D01*
X106271691Y-82534364D01*
X106271686Y-82534364D01*
X106045002Y-82514532D01*
X106044998Y-82514532D01*
X105818313Y-82534364D01*
X105818302Y-82534366D01*
X105598511Y-82593258D01*
X105598502Y-82593261D01*
X105392267Y-82689431D01*
X105392265Y-82689432D01*
X105205858Y-82819954D01*
X105044954Y-82980858D01*
X104914432Y-83167265D01*
X104914431Y-83167267D01*
X104818261Y-83373502D01*
X104818258Y-83373511D01*
X104759366Y-83593302D01*
X104759364Y-83593313D01*
X104739532Y-83819998D01*
X104739532Y-83820001D01*
X104759364Y-84046686D01*
X104759366Y-84046697D01*
X104818258Y-84266488D01*
X104818261Y-84266497D01*
X104914431Y-84472732D01*
X104914432Y-84472734D01*
X105044954Y-84659141D01*
X105205858Y-84820045D01*
X105205861Y-84820047D01*
X105392266Y-84950568D01*
X105598504Y-85046739D01*
X105598509Y-85046740D01*
X105598511Y-85046741D01*
X105649622Y-85060436D01*
X105818308Y-85105635D01*
X105980230Y-85119801D01*
X106044998Y-85125468D01*
X106045000Y-85125468D01*
X106045002Y-85125468D01*
X106101673Y-85120509D01*
X106271692Y-85105635D01*
X106491496Y-85046739D01*
X106697734Y-84950568D01*
X106884139Y-84820047D01*
X107045047Y-84659139D01*
X107052741Y-84648149D01*
X107107315Y-84604524D01*
X107176813Y-84597327D01*
X107239169Y-84628847D01*
X107241995Y-84631585D01*
X107670845Y-85060436D01*
X108084197Y-85473788D01*
X108094022Y-85486051D01*
X108094243Y-85485869D01*
X108099214Y-85491878D01*
X108120043Y-85511437D01*
X108149635Y-85539226D01*
X108170529Y-85560120D01*
X108176011Y-85564373D01*
X108180443Y-85568157D01*
X108214418Y-85600062D01*
X108231976Y-85609714D01*
X108248235Y-85620395D01*
X108264064Y-85632673D01*
X108306838Y-85651182D01*
X108312056Y-85653738D01*
X108352908Y-85676197D01*
X108372316Y-85681180D01*
X108390717Y-85687480D01*
X108409104Y-85695437D01*
X108452488Y-85702308D01*
X108455119Y-85702725D01*
X108460839Y-85703909D01*
X108505981Y-85715500D01*
X108526016Y-85715500D01*
X108545414Y-85717026D01*
X108565194Y-85720159D01*
X108565195Y-85720160D01*
X108565195Y-85720159D01*
X108565196Y-85720160D01*
X108611584Y-85715775D01*
X108617422Y-85715500D01*
X119932257Y-85715500D01*
X119947877Y-85717224D01*
X119947904Y-85716939D01*
X119955660Y-85717671D01*
X119955667Y-85717673D01*
X120024814Y-85715500D01*
X120054350Y-85715500D01*
X120061228Y-85714630D01*
X120067041Y-85714172D01*
X120113627Y-85712709D01*
X120132869Y-85707117D01*
X120151912Y-85703174D01*
X120171792Y-85700664D01*
X120215122Y-85683507D01*
X120220646Y-85681617D01*
X120224396Y-85680527D01*
X120265390Y-85668618D01*
X120282629Y-85658422D01*
X120300103Y-85649862D01*
X120318727Y-85642488D01*
X120318727Y-85642487D01*
X120318732Y-85642486D01*
X120356449Y-85615082D01*
X120361305Y-85611892D01*
X120401420Y-85588170D01*
X120415589Y-85573999D01*
X120430379Y-85561368D01*
X120446587Y-85549594D01*
X120476299Y-85513676D01*
X120480212Y-85509376D01*
X120872771Y-85116819D01*
X120934094Y-85083334D01*
X120960452Y-85080500D01*
X122150500Y-85080500D01*
X122217539Y-85100185D01*
X122263294Y-85152989D01*
X122274500Y-85204500D01*
X122274500Y-85305015D01*
X122285000Y-85407795D01*
X122285001Y-85407796D01*
X122340186Y-85574335D01*
X122340187Y-85574337D01*
X122432286Y-85723651D01*
X122432289Y-85723655D01*
X122556344Y-85847710D01*
X122556348Y-85847713D01*
X122701041Y-85936962D01*
X122747766Y-85988910D01*
X122758987Y-86057873D01*
X122731144Y-86121954D01*
X122701041Y-86148038D01*
X122556348Y-86237286D01*
X122556344Y-86237289D01*
X122432289Y-86361344D01*
X122432286Y-86361348D01*
X122340187Y-86510662D01*
X122340186Y-86510664D01*
X122285001Y-86677203D01*
X122285000Y-86677204D01*
X122274500Y-86779984D01*
X122274500Y-86880500D01*
X122254815Y-86947539D01*
X122202011Y-86993294D01*
X122150500Y-87004500D01*
X107259188Y-87004500D01*
X107192149Y-86984815D01*
X107157613Y-86951623D01*
X107045045Y-86790858D01*
X106884141Y-86629954D01*
X106697734Y-86499432D01*
X106697732Y-86499431D01*
X106491497Y-86403261D01*
X106491488Y-86403258D01*
X106271697Y-86344366D01*
X106271693Y-86344365D01*
X106271692Y-86344365D01*
X106271691Y-86344364D01*
X106271686Y-86344364D01*
X106045002Y-86324532D01*
X106044998Y-86324532D01*
X105818313Y-86344364D01*
X105818302Y-86344366D01*
X105598511Y-86403258D01*
X105598502Y-86403261D01*
X105392267Y-86499431D01*
X105392265Y-86499432D01*
X105205858Y-86629954D01*
X105044954Y-86790858D01*
X104914432Y-86977265D01*
X104914431Y-86977267D01*
X104818261Y-87183502D01*
X104818258Y-87183511D01*
X104759366Y-87403302D01*
X104759364Y-87403313D01*
X104739532Y-87629998D01*
X104739532Y-87630001D01*
X104759364Y-87856686D01*
X104759366Y-87856697D01*
X104818258Y-88076488D01*
X104818261Y-88076497D01*
X104914431Y-88282732D01*
X104914432Y-88282734D01*
X105044954Y-88469141D01*
X105205858Y-88630045D01*
X105221374Y-88640909D01*
X105392266Y-88760568D01*
X105598504Y-88856739D01*
X105598509Y-88856740D01*
X105598511Y-88856741D01*
X105638952Y-88867577D01*
X105818308Y-88915635D01*
X105980230Y-88929801D01*
X106044998Y-88935468D01*
X106045000Y-88935468D01*
X106045002Y-88935468D01*
X106101673Y-88930509D01*
X106271692Y-88915635D01*
X106491496Y-88856739D01*
X106697734Y-88760568D01*
X106884139Y-88630047D01*
X107045047Y-88469139D01*
X107137110Y-88337658D01*
X107157613Y-88308377D01*
X107212189Y-88264752D01*
X107259188Y-88255500D01*
X108042867Y-88255500D01*
X108109906Y-88275185D01*
X108155661Y-88327989D01*
X108165605Y-88397147D01*
X108138405Y-88458547D01*
X108123707Y-88476312D01*
X108119776Y-88480631D01*
X106459821Y-90140586D01*
X106398498Y-90174071D01*
X106340048Y-90172680D01*
X106271697Y-90154366D01*
X106271693Y-90154365D01*
X106271692Y-90154365D01*
X106146533Y-90143415D01*
X106045001Y-90134532D01*
X106044998Y-90134532D01*
X105818313Y-90154364D01*
X105818302Y-90154366D01*
X105598511Y-90213258D01*
X105598502Y-90213261D01*
X105392267Y-90309431D01*
X105392265Y-90309432D01*
X105205858Y-90439954D01*
X105044954Y-90600858D01*
X104914432Y-90787265D01*
X104914431Y-90787267D01*
X104818261Y-90993502D01*
X104818258Y-90993511D01*
X104759366Y-91213302D01*
X104759364Y-91213313D01*
X104739532Y-91439998D01*
X104739532Y-91440001D01*
X99050500Y-91440001D01*
X99050500Y-83890844D01*
X99052697Y-83867606D01*
X99052725Y-83867461D01*
X99054227Y-83859588D01*
X99050621Y-83802275D01*
X99050500Y-83798403D01*
X99050500Y-83780650D01*
X99048270Y-83763002D01*
X99047910Y-83759191D01*
X99044304Y-83701862D01*
X99041779Y-83694092D01*
X99036687Y-83671314D01*
X99035664Y-83663208D01*
X99014520Y-83609806D01*
X99013211Y-83606170D01*
X98995467Y-83551559D01*
X98991089Y-83544661D01*
X98980495Y-83523868D01*
X98977486Y-83516268D01*
X98943736Y-83469815D01*
X98941545Y-83466592D01*
X98910786Y-83418123D01*
X98904833Y-83412533D01*
X98889398Y-83395025D01*
X98884594Y-83388413D01*
X98884591Y-83388411D01*
X98884591Y-83388410D01*
X98840361Y-83351820D01*
X98837438Y-83349243D01*
X98795585Y-83309940D01*
X98795577Y-83309934D01*
X98788415Y-83305997D01*
X98769114Y-83292880D01*
X98762824Y-83287676D01*
X98710878Y-83263232D01*
X98707417Y-83261469D01*
X98657092Y-83233803D01*
X98657089Y-83233802D01*
X98657085Y-83233800D01*
X98649174Y-83231769D01*
X98627222Y-83223866D01*
X98619825Y-83220385D01*
X98619821Y-83220384D01*
X98563444Y-83209630D01*
X98559644Y-83208780D01*
X98504023Y-83194500D01*
X98504019Y-83194500D01*
X98495847Y-83194500D01*
X98472615Y-83192304D01*
X98464588Y-83190773D01*
X98464586Y-83190773D01*
X98455633Y-83191336D01*
X98407275Y-83194378D01*
X98403403Y-83194500D01*
X97099188Y-83194500D01*
X97032149Y-83174815D01*
X96997613Y-83141623D01*
X96885045Y-82980858D01*
X96724141Y-82819954D01*
X96537734Y-82689432D01*
X96537732Y-82689431D01*
X96331497Y-82593261D01*
X96331488Y-82593258D01*
X96111697Y-82534366D01*
X96111693Y-82534365D01*
X96111692Y-82534365D01*
X96111691Y-82534364D01*
X96111686Y-82534364D01*
X95885002Y-82514532D01*
X95884998Y-82514532D01*
X95658313Y-82534364D01*
X95658302Y-82534366D01*
X95438511Y-82593258D01*
X95438502Y-82593261D01*
X95232267Y-82689431D01*
X95232265Y-82689432D01*
X95045858Y-82819954D01*
X94884954Y-82980858D01*
X94754432Y-83167265D01*
X94754431Y-83167267D01*
X94658261Y-83373502D01*
X94658258Y-83373511D01*
X94599366Y-83593302D01*
X94599364Y-83593313D01*
X94579532Y-83819998D01*
X94579532Y-83820001D01*
X94599364Y-84046686D01*
X94599366Y-84046697D01*
X94658258Y-84266488D01*
X94658261Y-84266497D01*
X94754431Y-84472732D01*
X94754432Y-84472734D01*
X94884954Y-84659141D01*
X95045858Y-84820045D01*
X95045861Y-84820047D01*
X95232266Y-84950568D01*
X95438504Y-85046739D01*
X95438509Y-85046740D01*
X95438511Y-85046741D01*
X95489622Y-85060436D01*
X95658308Y-85105635D01*
X95820230Y-85119801D01*
X95884998Y-85125468D01*
X95885000Y-85125468D01*
X95885002Y-85125468D01*
X95941673Y-85120509D01*
X96111692Y-85105635D01*
X96331496Y-85046739D01*
X96537734Y-84950568D01*
X96724139Y-84820047D01*
X96885047Y-84659139D01*
X96977505Y-84527094D01*
X96997613Y-84498377D01*
X97052189Y-84454752D01*
X97099188Y-84445500D01*
X97675500Y-84445500D01*
X97742539Y-84465185D01*
X97788294Y-84517989D01*
X97799500Y-84569500D01*
X97799500Y-93989178D01*
X97779815Y-94056217D01*
X97746625Y-94090751D01*
X97561213Y-94220579D01*
X97561211Y-94220580D01*
X97561208Y-94220583D01*
X97395583Y-94386208D01*
X97258118Y-94582528D01*
X97256680Y-94581521D01*
X97211810Y-94624297D01*
X97143202Y-94637513D01*
X97078340Y-94611540D01*
X97052702Y-94581953D01*
X97051882Y-94582528D01*
X97044247Y-94571624D01*
X96914421Y-94386213D01*
X96748787Y-94220579D01*
X96556907Y-94086223D01*
X96344611Y-93987228D01*
X96344607Y-93987227D01*
X96344603Y-93987225D01*
X96118356Y-93926603D01*
X96118346Y-93926601D01*
X95885001Y-93906186D01*
X95884999Y-93906186D01*
X95651653Y-93926601D01*
X95651643Y-93926603D01*
X95425396Y-93987225D01*
X95425389Y-93987227D01*
X95425389Y-93987228D01*
X95213093Y-94086223D01*
X95021213Y-94220579D01*
X95021211Y-94220580D01*
X95021208Y-94220583D01*
X94855583Y-94386208D01*
X94725753Y-94571624D01*
X94671176Y-94615249D01*
X94624178Y-94624500D01*
X94605822Y-94624500D01*
X94538783Y-94604815D01*
X94504247Y-94571624D01*
X94374421Y-94386213D01*
X94208787Y-94220579D01*
X94016907Y-94086223D01*
X93804611Y-93987228D01*
X93804607Y-93987227D01*
X93804603Y-93987225D01*
X93578356Y-93926603D01*
X93578346Y-93926601D01*
X93345001Y-93906186D01*
X93344999Y-93906186D01*
X93111648Y-93926602D01*
X93018760Y-93951490D01*
X92948910Y-93949826D01*
X92898987Y-93919396D01*
X92736819Y-93757228D01*
X92703334Y-93695905D01*
X92700500Y-93669547D01*
X92700500Y-93098049D01*
X92720185Y-93031010D01*
X92772989Y-92985255D01*
X92798720Y-92976759D01*
X92804643Y-92975500D01*
X92804646Y-92975500D01*
X92989803Y-92936144D01*
X93162730Y-92859151D01*
X93315871Y-92747888D01*
X93442533Y-92607216D01*
X93537179Y-92443284D01*
X93595674Y-92263256D01*
X93615460Y-92075000D01*
X93595674Y-91886744D01*
X93537179Y-91706716D01*
X93442533Y-91542784D01*
X93367350Y-91459284D01*
X93358096Y-91440001D01*
X94579532Y-91440001D01*
X94599364Y-91666686D01*
X94599366Y-91666697D01*
X94658258Y-91886488D01*
X94658261Y-91886497D01*
X94754431Y-92092732D01*
X94754432Y-92092734D01*
X94884954Y-92279141D01*
X95045858Y-92440045D01*
X95045861Y-92440047D01*
X95232266Y-92570568D01*
X95438504Y-92666739D01*
X95658308Y-92725635D01*
X95820230Y-92739801D01*
X95884998Y-92745468D01*
X95885000Y-92745468D01*
X95885002Y-92745468D01*
X95941673Y-92740509D01*
X96111692Y-92725635D01*
X96331496Y-92666739D01*
X96537734Y-92570568D01*
X96724139Y-92440047D01*
X96885047Y-92279139D01*
X97015568Y-92092734D01*
X97111739Y-91886496D01*
X97170635Y-91666692D01*
X97190468Y-91440000D01*
X97190044Y-91435159D01*
X97180793Y-91329414D01*
X97170635Y-91213308D01*
X97125014Y-91043046D01*
X97111741Y-90993511D01*
X97111738Y-90993502D01*
X97081059Y-90927711D01*
X97015568Y-90787266D01*
X96917839Y-90647693D01*
X96885045Y-90600858D01*
X96724141Y-90439954D01*
X96537734Y-90309432D01*
X96537732Y-90309431D01*
X96331497Y-90213261D01*
X96331488Y-90213258D01*
X96111697Y-90154366D01*
X96111693Y-90154365D01*
X96111692Y-90154365D01*
X96111691Y-90154364D01*
X96111686Y-90154364D01*
X95885002Y-90134532D01*
X95884998Y-90134532D01*
X95658313Y-90154364D01*
X95658302Y-90154366D01*
X95438511Y-90213258D01*
X95438502Y-90213261D01*
X95232267Y-90309431D01*
X95232265Y-90309432D01*
X95045858Y-90439954D01*
X94884954Y-90600858D01*
X94754432Y-90787265D01*
X94754431Y-90787267D01*
X94658261Y-90993502D01*
X94658258Y-90993511D01*
X94599366Y-91213302D01*
X94599364Y-91213313D01*
X94579532Y-91439998D01*
X94579532Y-91440001D01*
X93358096Y-91440001D01*
X93337120Y-91396292D01*
X93335500Y-91376312D01*
X93335500Y-91115451D01*
X93355185Y-91048412D01*
X93371815Y-91027774D01*
X93728786Y-90670802D01*
X93741048Y-90660980D01*
X93740865Y-90660759D01*
X93746867Y-90655792D01*
X93746877Y-90655786D01*
X93794241Y-90605348D01*
X93815120Y-90584470D01*
X93819373Y-90578986D01*
X93823150Y-90574563D01*
X93855062Y-90540582D01*
X93864714Y-90523023D01*
X93875389Y-90506772D01*
X93887674Y-90490936D01*
X93906186Y-90448152D01*
X93908742Y-90442935D01*
X93931197Y-90402092D01*
X93936180Y-90382680D01*
X93942477Y-90364291D01*
X93950438Y-90345895D01*
X93957729Y-90299853D01*
X93958908Y-90294162D01*
X93970500Y-90249019D01*
X93970500Y-90228983D01*
X93972027Y-90209582D01*
X93974937Y-90191209D01*
X93975160Y-90189804D01*
X93970775Y-90143415D01*
X93970500Y-90137577D01*
X93970500Y-89845451D01*
X93990185Y-89778412D01*
X94006815Y-89757774D01*
X94363786Y-89400802D01*
X94376048Y-89390980D01*
X94375865Y-89390759D01*
X94381867Y-89385792D01*
X94381877Y-89385786D01*
X94429241Y-89335348D01*
X94450120Y-89314470D01*
X94454373Y-89308986D01*
X94458150Y-89304563D01*
X94490062Y-89270582D01*
X94499714Y-89253023D01*
X94510389Y-89236772D01*
X94522674Y-89220936D01*
X94541186Y-89178152D01*
X94543742Y-89172935D01*
X94566197Y-89132092D01*
X94571180Y-89112680D01*
X94577477Y-89094291D01*
X94585438Y-89075895D01*
X94592729Y-89029853D01*
X94593908Y-89024162D01*
X94605500Y-88979019D01*
X94605500Y-88958983D01*
X94607027Y-88939582D01*
X94610160Y-88919804D01*
X94605775Y-88873415D01*
X94605500Y-88867577D01*
X94605500Y-88463316D01*
X94625185Y-88396277D01*
X94677989Y-88350522D01*
X94747147Y-88340578D01*
X94810703Y-88369603D01*
X94831075Y-88392193D01*
X94884954Y-88469141D01*
X95045858Y-88630045D01*
X95061374Y-88640909D01*
X95232266Y-88760568D01*
X95438504Y-88856739D01*
X95438509Y-88856740D01*
X95438511Y-88856741D01*
X95478952Y-88867577D01*
X95658308Y-88915635D01*
X95820230Y-88929801D01*
X95884998Y-88935468D01*
X95885000Y-88935468D01*
X95885002Y-88935468D01*
X95941673Y-88930509D01*
X96111692Y-88915635D01*
X96331496Y-88856739D01*
X96537734Y-88760568D01*
X96724139Y-88630047D01*
X96885047Y-88469139D01*
X97015568Y-88282734D01*
X97111739Y-88076496D01*
X97170635Y-87856692D01*
X97190468Y-87630000D01*
X97187004Y-87590412D01*
X97183554Y-87550976D01*
X97170635Y-87403308D01*
X97111739Y-87183504D01*
X97015568Y-86977266D01*
X96885047Y-86790861D01*
X96885045Y-86790858D01*
X96724141Y-86629954D01*
X96537734Y-86499432D01*
X96537732Y-86499431D01*
X96331497Y-86403261D01*
X96331488Y-86403258D01*
X96111697Y-86344366D01*
X96111693Y-86344365D01*
X96111692Y-86344365D01*
X96111691Y-86344364D01*
X96111686Y-86344364D01*
X95885002Y-86324532D01*
X95884998Y-86324532D01*
X95658313Y-86344364D01*
X95658302Y-86344366D01*
X95438511Y-86403258D01*
X95438502Y-86403261D01*
X95232267Y-86499431D01*
X95232265Y-86499432D01*
X95045858Y-86629954D01*
X94884954Y-86790858D01*
X94772387Y-86951623D01*
X94717811Y-86995248D01*
X94670812Y-87004500D01*
X94050847Y-87004500D01*
X94027615Y-87002304D01*
X94019588Y-87000773D01*
X94019586Y-87000773D01*
X94010633Y-87001336D01*
X93962275Y-87004378D01*
X93958403Y-87004500D01*
X93940643Y-87004500D01*
X93923032Y-87006725D01*
X93919164Y-87007090D01*
X93887375Y-87009090D01*
X93861859Y-87010696D01*
X93854085Y-87013222D01*
X93831320Y-87018310D01*
X93823218Y-87019333D01*
X93823205Y-87019337D01*
X93769810Y-87040477D01*
X93766154Y-87041792D01*
X93711559Y-87059533D01*
X93711556Y-87059534D01*
X93704652Y-87063915D01*
X93683880Y-87074499D01*
X93676273Y-87077511D01*
X93676262Y-87077517D01*
X93629814Y-87111263D01*
X93626595Y-87113451D01*
X93578123Y-87144213D01*
X93578120Y-87144216D01*
X93572529Y-87150170D01*
X93555029Y-87165599D01*
X93548413Y-87170405D01*
X93548412Y-87170406D01*
X93511812Y-87214646D01*
X93509238Y-87217565D01*
X93469937Y-87259417D01*
X93469935Y-87259420D01*
X93465994Y-87266589D01*
X93452889Y-87285873D01*
X93447677Y-87292173D01*
X93447674Y-87292178D01*
X93423231Y-87344121D01*
X93421464Y-87347589D01*
X93393804Y-87397903D01*
X93393803Y-87397908D01*
X93391769Y-87405828D01*
X93383870Y-87427768D01*
X93380386Y-87435172D01*
X93380384Y-87435178D01*
X93369629Y-87491561D01*
X93368779Y-87495361D01*
X93354500Y-87550976D01*
X93354500Y-87559152D01*
X93352305Y-87582379D01*
X93350773Y-87590412D01*
X93354378Y-87647724D01*
X93354500Y-87651595D01*
X93354500Y-88589546D01*
X93334815Y-88656585D01*
X93318181Y-88677227D01*
X92961208Y-89034199D01*
X92948946Y-89044024D01*
X92949129Y-89044245D01*
X92940063Y-89051745D01*
X92937192Y-89052977D01*
X92936557Y-89053381D01*
X92936491Y-89053278D01*
X92875861Y-89079310D01*
X92806948Y-89067789D01*
X92755203Y-89020839D01*
X92737055Y-88953368D01*
X92737495Y-88945393D01*
X92744966Y-88860000D01*
X92744966Y-88859997D01*
X92725141Y-88633400D01*
X92725139Y-88633389D01*
X92666269Y-88413682D01*
X92666265Y-88413673D01*
X92570133Y-88207516D01*
X92570131Y-88207512D01*
X92519026Y-88134526D01*
X92519025Y-88134526D01*
X91837953Y-88815598D01*
X91825165Y-88734852D01*
X91767641Y-88621955D01*
X91678045Y-88532359D01*
X91565148Y-88474835D01*
X91484400Y-88462046D01*
X92165472Y-87780974D01*
X92165471Y-87780973D01*
X92092483Y-87729866D01*
X92092481Y-87729865D01*
X91886326Y-87633734D01*
X91886317Y-87633730D01*
X91666610Y-87574860D01*
X91666599Y-87574858D01*
X91440002Y-87555034D01*
X91439998Y-87555034D01*
X91213400Y-87574858D01*
X91213389Y-87574860D01*
X90993682Y-87633730D01*
X90993673Y-87633734D01*
X90787513Y-87729868D01*
X90714527Y-87780972D01*
X90714526Y-87780973D01*
X91395600Y-88462046D01*
X91314852Y-88474835D01*
X91201955Y-88532359D01*
X91112359Y-88621955D01*
X91054835Y-88734852D01*
X91042046Y-88815599D01*
X90360973Y-88134526D01*
X90360972Y-88134527D01*
X90309868Y-88207513D01*
X90213734Y-88413673D01*
X90213730Y-88413682D01*
X90154860Y-88633389D01*
X90154858Y-88633400D01*
X90135034Y-88859997D01*
X90135034Y-88860002D01*
X90154858Y-89086599D01*
X90154860Y-89086610D01*
X90213730Y-89306317D01*
X90213734Y-89306326D01*
X90309865Y-89512481D01*
X90309866Y-89512483D01*
X90360973Y-89585471D01*
X90360974Y-89585472D01*
X91042046Y-88904399D01*
X91054835Y-88985148D01*
X91112359Y-89098045D01*
X91201955Y-89187641D01*
X91314852Y-89245165D01*
X91395599Y-89257953D01*
X90714526Y-89939025D01*
X90714526Y-89939026D01*
X90787512Y-89990131D01*
X90787516Y-89990133D01*
X90993673Y-90086265D01*
X90993682Y-90086269D01*
X91213389Y-90145139D01*
X91213400Y-90145141D01*
X91439998Y-90164966D01*
X91440002Y-90164966D01*
X91666599Y-90145141D01*
X91666610Y-90145139D01*
X91886317Y-90086269D01*
X91886331Y-90086264D01*
X92092478Y-89990136D01*
X92165472Y-89939025D01*
X91484401Y-89257953D01*
X91565148Y-89245165D01*
X91678045Y-89187641D01*
X91767641Y-89098045D01*
X91825165Y-88985148D01*
X91837953Y-88904400D01*
X92519025Y-89585472D01*
X92541198Y-89583532D01*
X92548502Y-89577695D01*
X92618001Y-89570502D01*
X92680355Y-89602024D01*
X92715769Y-89662254D01*
X92719500Y-89692443D01*
X92719500Y-89859546D01*
X92699815Y-89926585D01*
X92683181Y-89947227D01*
X92326208Y-90304199D01*
X92313951Y-90314020D01*
X92314134Y-90314241D01*
X92308123Y-90319213D01*
X92260772Y-90369636D01*
X92239889Y-90390519D01*
X92239877Y-90390532D01*
X92235621Y-90396017D01*
X92231837Y-90400447D01*
X92199937Y-90434418D01*
X92199936Y-90434420D01*
X92190284Y-90451976D01*
X92179610Y-90468226D01*
X92167329Y-90484061D01*
X92167324Y-90484068D01*
X92148815Y-90526838D01*
X92146245Y-90532084D01*
X92123803Y-90572906D01*
X92118822Y-90592307D01*
X92112521Y-90610710D01*
X92104562Y-90629102D01*
X92104561Y-90629105D01*
X92097271Y-90675127D01*
X92096087Y-90680846D01*
X92084501Y-90725972D01*
X92084500Y-90725982D01*
X92084500Y-90746016D01*
X92082973Y-90765415D01*
X92079840Y-90785194D01*
X92079840Y-90785195D01*
X92084225Y-90831583D01*
X92084500Y-90837421D01*
X92084500Y-91376312D01*
X92064815Y-91443351D01*
X92052650Y-91459284D01*
X91977466Y-91542784D01*
X91882821Y-91706715D01*
X91882818Y-91706722D01*
X91824406Y-91886497D01*
X91824326Y-91886744D01*
X91820375Y-91924337D01*
X91815212Y-91973462D01*
X91788627Y-92038077D01*
X91731330Y-92078061D01*
X91691891Y-92084500D01*
X84224500Y-92084500D01*
X84157461Y-92064815D01*
X84111706Y-92012011D01*
X84100500Y-91960500D01*
X84100500Y-91859997D01*
X84100499Y-91859984D01*
X84090059Y-91757796D01*
X84089999Y-91757203D01*
X84034814Y-91590666D01*
X84012506Y-91554500D01*
X83942713Y-91441348D01*
X83942710Y-91441344D01*
X83818655Y-91317289D01*
X83818651Y-91317286D01*
X83673958Y-91228038D01*
X83627233Y-91176090D01*
X83616012Y-91107128D01*
X83643855Y-91043046D01*
X83673958Y-91016962D01*
X83791546Y-90944432D01*
X83818655Y-90927711D01*
X83942711Y-90803655D01*
X84034814Y-90654334D01*
X84089999Y-90487797D01*
X84100500Y-90385008D01*
X84100500Y-88684992D01*
X84089999Y-88582203D01*
X84034814Y-88415666D01*
X84033590Y-88413682D01*
X83942713Y-88266348D01*
X83942710Y-88266344D01*
X83818655Y-88142289D01*
X83818651Y-88142286D01*
X83673482Y-88052744D01*
X83626757Y-88000796D01*
X83615536Y-87931834D01*
X83643379Y-87867752D01*
X83673482Y-87841667D01*
X83818344Y-87752315D01*
X83942315Y-87628344D01*
X84034356Y-87479123D01*
X84034358Y-87479118D01*
X84089505Y-87312696D01*
X84089506Y-87312689D01*
X84099999Y-87209985D01*
X84100000Y-87209972D01*
X84100000Y-86610000D01*
X83044852Y-86610000D01*
X83093559Y-86472953D01*
X83103877Y-86322114D01*
X83073116Y-86174085D01*
X83039910Y-86110000D01*
X84100000Y-86110000D01*
X84100000Y-85510027D01*
X84099999Y-85510014D01*
X84089506Y-85407310D01*
X84089505Y-85407303D01*
X84034358Y-85240881D01*
X84034356Y-85240876D01*
X83942315Y-85091655D01*
X83818344Y-84967684D01*
X83673482Y-84878332D01*
X83626757Y-84826384D01*
X83615536Y-84757421D01*
X83643379Y-84693339D01*
X83673476Y-84667259D01*
X83818655Y-84577711D01*
X83942711Y-84453655D01*
X84034814Y-84304334D01*
X84089999Y-84137797D01*
X84100500Y-84035008D01*
X84100500Y-83934500D01*
X84120185Y-83867461D01*
X84172989Y-83821706D01*
X84224500Y-83810500D01*
X84779548Y-83810500D01*
X84846587Y-83830185D01*
X84867228Y-83846818D01*
X85363786Y-84343377D01*
X85859197Y-84838788D01*
X85869022Y-84851051D01*
X85869243Y-84850869D01*
X85874214Y-84856878D01*
X85895043Y-84876437D01*
X85924635Y-84904226D01*
X85945529Y-84925120D01*
X85951011Y-84929373D01*
X85955443Y-84933157D01*
X85989418Y-84965062D01*
X86006976Y-84974714D01*
X86023235Y-84985395D01*
X86039064Y-84997673D01*
X86081838Y-85016182D01*
X86087056Y-85018738D01*
X86127908Y-85041197D01*
X86147316Y-85046180D01*
X86165717Y-85052480D01*
X86184104Y-85060437D01*
X86227488Y-85067308D01*
X86230119Y-85067725D01*
X86235839Y-85068909D01*
X86280981Y-85080500D01*
X86301016Y-85080500D01*
X86320414Y-85082026D01*
X86340194Y-85085159D01*
X86340195Y-85085160D01*
X86340195Y-85085159D01*
X86340196Y-85085160D01*
X86386584Y-85080775D01*
X86392422Y-85080500D01*
X89452257Y-85080500D01*
X89467877Y-85082224D01*
X89467904Y-85081939D01*
X89475660Y-85082671D01*
X89475667Y-85082673D01*
X89544814Y-85080500D01*
X89574350Y-85080500D01*
X89581228Y-85079630D01*
X89587041Y-85079172D01*
X89633627Y-85077709D01*
X89652869Y-85072117D01*
X89671912Y-85068174D01*
X89691792Y-85065664D01*
X89735122Y-85048507D01*
X89740646Y-85046617D01*
X89744396Y-85045527D01*
X89785390Y-85033618D01*
X89802629Y-85023422D01*
X89820103Y-85014862D01*
X89838727Y-85007488D01*
X89838727Y-85007487D01*
X89838732Y-85007486D01*
X89876449Y-84980082D01*
X89881305Y-84976892D01*
X89921420Y-84953170D01*
X89935589Y-84938999D01*
X89950379Y-84926368D01*
X89966587Y-84914594D01*
X89996299Y-84878676D01*
X90000212Y-84874376D01*
X90226529Y-84648059D01*
X90287849Y-84614577D01*
X90357541Y-84619561D01*
X90413474Y-84661433D01*
X90415782Y-84664619D01*
X90439956Y-84699143D01*
X90600858Y-84860045D01*
X90626973Y-84878331D01*
X90787266Y-84990568D01*
X90993504Y-85086739D01*
X91213308Y-85145635D01*
X91375230Y-85159801D01*
X91439998Y-85165468D01*
X91440000Y-85165468D01*
X91440002Y-85165468D01*
X91496673Y-85160509D01*
X91666692Y-85145635D01*
X91886496Y-85086739D01*
X92092734Y-84990568D01*
X92279139Y-84860047D01*
X92440047Y-84699139D01*
X92570568Y-84512734D01*
X92666739Y-84306496D01*
X92725635Y-84086692D01*
X92742708Y-83891546D01*
X92745468Y-83860001D01*
X92745468Y-83859998D01*
X92738526Y-83780650D01*
X92725635Y-83633308D01*
X92666739Y-83413504D01*
X92570568Y-83207266D01*
X92440047Y-83020861D01*
X92440045Y-83020858D01*
X92279141Y-82859954D01*
X92092734Y-82729432D01*
X92092732Y-82729431D01*
X91886497Y-82633261D01*
X91886488Y-82633258D01*
X91666697Y-82574366D01*
X91666693Y-82574365D01*
X91666692Y-82574365D01*
X91666691Y-82574364D01*
X91666686Y-82574364D01*
X91440002Y-82554532D01*
X91439998Y-82554532D01*
X91213313Y-82574364D01*
X91213302Y-82574366D01*
X90993511Y-82633258D01*
X90993502Y-82633261D01*
X90787267Y-82729431D01*
X90787265Y-82729432D01*
X90600858Y-82859954D01*
X90439954Y-83020858D01*
X90327387Y-83181623D01*
X90272811Y-83225248D01*
X90225812Y-83234500D01*
X90212738Y-83234500D01*
X90197121Y-83232776D01*
X90197094Y-83233062D01*
X90189332Y-83232327D01*
X90120204Y-83234500D01*
X90090650Y-83234500D01*
X90089929Y-83234590D01*
X90083757Y-83235369D01*
X90077945Y-83235826D01*
X90031373Y-83237290D01*
X90031372Y-83237290D01*
X90012129Y-83242881D01*
X89993079Y-83246825D01*
X89973211Y-83249334D01*
X89929884Y-83266488D01*
X89924358Y-83268379D01*
X89879614Y-83281379D01*
X89879610Y-83281381D01*
X89862366Y-83291579D01*
X89844905Y-83300133D01*
X89826274Y-83307510D01*
X89826262Y-83307517D01*
X89788570Y-83334902D01*
X89783687Y-83338109D01*
X89743580Y-83361829D01*
X89729414Y-83375995D01*
X89714624Y-83388627D01*
X89698414Y-83400404D01*
X89698411Y-83400407D01*
X89668710Y-83436309D01*
X89664777Y-83440631D01*
X89312228Y-83793181D01*
X89250905Y-83826666D01*
X89224547Y-83829500D01*
X86670453Y-83829500D01*
X86603414Y-83809815D01*
X86582772Y-83793181D01*
X86153158Y-83363567D01*
X86119673Y-83302244D01*
X86124657Y-83232552D01*
X86166529Y-83176619D01*
X86231993Y-83152202D01*
X86296490Y-83165076D01*
X86499053Y-83266808D01*
X86499059Y-83266810D01*
X86499061Y-83266811D01*
X86811082Y-83380377D01*
X86811088Y-83380378D01*
X86811090Y-83380379D01*
X87134161Y-83456949D01*
X87134168Y-83456950D01*
X87134177Y-83456952D01*
X87463977Y-83495500D01*
X87463984Y-83495500D01*
X87796016Y-83495500D01*
X87796023Y-83495500D01*
X88125823Y-83456952D01*
X88125832Y-83456949D01*
X88125838Y-83456949D01*
X88387130Y-83395021D01*
X88448918Y-83380377D01*
X88760939Y-83266811D01*
X89057666Y-83117789D01*
X89335085Y-82935327D01*
X89589447Y-82721893D01*
X89817310Y-82480371D01*
X90015594Y-82214030D01*
X90181617Y-81926470D01*
X90313133Y-81621581D01*
X90408365Y-81303485D01*
X90466024Y-80976484D01*
X90484615Y-80657290D01*
X90485331Y-80645003D01*
X90485331Y-80644996D01*
X90472808Y-80429992D01*
X90466024Y-80313516D01*
X90439072Y-80160666D01*
X90408368Y-79986532D01*
X90408367Y-79986531D01*
X90408365Y-79986515D01*
X90313133Y-79668419D01*
X90181617Y-79363530D01*
X90015594Y-79075970D01*
X90015593Y-79075968D01*
X89817321Y-78809643D01*
X89817314Y-78809635D01*
X89817310Y-78809629D01*
X89589447Y-78568107D01*
X89427153Y-78431926D01*
X89335087Y-78354674D01*
X89335079Y-78354668D01*
X89057669Y-78172212D01*
X88760946Y-78023192D01*
X88760940Y-78023189D01*
X88448930Y-77909627D01*
X88448909Y-77909620D01*
X88125838Y-77833050D01*
X88125823Y-77833048D01*
X87796023Y-77794500D01*
X87463977Y-77794500D01*
X87175402Y-77828229D01*
X87134176Y-77833048D01*
X87134161Y-77833050D01*
X86811090Y-77909620D01*
X86811069Y-77909627D01*
X86499059Y-78023189D01*
X86499053Y-78023192D01*
X86202330Y-78172212D01*
X85924920Y-78354668D01*
X85924912Y-78354674D01*
X85718936Y-78527508D01*
X85670553Y-78568107D01*
X85442690Y-78809629D01*
X85442687Y-78809632D01*
X85442685Y-78809635D01*
X85442678Y-78809643D01*
X85244406Y-79075968D01*
X85078385Y-79363525D01*
X85078379Y-79363538D01*
X84946866Y-79668419D01*
X84851634Y-79986518D01*
X84851631Y-79986532D01*
X84793977Y-80313504D01*
X84793976Y-80313515D01*
X84774669Y-80644996D01*
X84774669Y-80645003D01*
X84793976Y-80976484D01*
X84793977Y-80976495D01*
X84851631Y-81303467D01*
X84851634Y-81303481D01*
X84851635Y-81303485D01*
X84866704Y-81353818D01*
X84946866Y-81621580D01*
X85078379Y-81926461D01*
X85078385Y-81926474D01*
X85244406Y-82214031D01*
X85368287Y-82380431D01*
X85392531Y-82445960D01*
X85377499Y-82514193D01*
X85327963Y-82563468D01*
X85259651Y-82578139D01*
X85249428Y-82576953D01*
X85233080Y-82574364D01*
X85219866Y-82572271D01*
X85214152Y-82571087D01*
X85169021Y-82559500D01*
X85169019Y-82559500D01*
X85148984Y-82559500D01*
X85129586Y-82557973D01*
X85122162Y-82556797D01*
X85109805Y-82554840D01*
X85109804Y-82554840D01*
X85063416Y-82559225D01*
X85057578Y-82559500D01*
X84224500Y-82559500D01*
X84157461Y-82539815D01*
X84111706Y-82487011D01*
X84100500Y-82435500D01*
X84100500Y-82334997D01*
X84100499Y-82334984D01*
X84090059Y-82232796D01*
X84089999Y-82232203D01*
X84034814Y-82065666D01*
X84015986Y-82035142D01*
X83942713Y-81916348D01*
X83942710Y-81916344D01*
X83818655Y-81792289D01*
X83818651Y-81792286D01*
X83669337Y-81700187D01*
X83669335Y-81700186D01*
X83586065Y-81672593D01*
X83502797Y-81645001D01*
X83502795Y-81645000D01*
X83400015Y-81634500D01*
X83400008Y-81634500D01*
X81699992Y-81634500D01*
X81699984Y-81634500D01*
X81597204Y-81645000D01*
X81597203Y-81645001D01*
X81430664Y-81700186D01*
X81430662Y-81700187D01*
X81281348Y-81792286D01*
X81281344Y-81792289D01*
X81157289Y-81916344D01*
X81157286Y-81916348D01*
X81065187Y-82065662D01*
X81065186Y-82065664D01*
X81010001Y-82232203D01*
X81010000Y-82232204D01*
X80999500Y-82334984D01*
X80999500Y-84035015D01*
X81010000Y-84137795D01*
X81010001Y-84137796D01*
X81065186Y-84304335D01*
X81065187Y-84304337D01*
X81157286Y-84453651D01*
X81157289Y-84453655D01*
X81281344Y-84577710D01*
X81281348Y-84577713D01*
X81426517Y-84667255D01*
X81473242Y-84719203D01*
X81484463Y-84788165D01*
X81456620Y-84852247D01*
X81426517Y-84878331D01*
X81281660Y-84967680D01*
X81281656Y-84967683D01*
X81157684Y-85091655D01*
X81065643Y-85240876D01*
X81065641Y-85240881D01*
X81010494Y-85407303D01*
X81010493Y-85407310D01*
X81000000Y-85510014D01*
X81000000Y-86110000D01*
X82055148Y-86110000D01*
X82006441Y-86247047D01*
X81996123Y-86397886D01*
X82026884Y-86545915D01*
X82060090Y-86610000D01*
X81000000Y-86610000D01*
X81000000Y-87209985D01*
X81010493Y-87312689D01*
X81010494Y-87312696D01*
X81065641Y-87479118D01*
X81065643Y-87479123D01*
X81157684Y-87628344D01*
X81281655Y-87752315D01*
X81426517Y-87841667D01*
X81473241Y-87893615D01*
X81484464Y-87962578D01*
X81456620Y-88026660D01*
X81426518Y-88052744D01*
X81281345Y-88142288D01*
X81157289Y-88266344D01*
X81157286Y-88266348D01*
X81065187Y-88415662D01*
X81065186Y-88415664D01*
X81010001Y-88582203D01*
X81010000Y-88582204D01*
X80999500Y-88684984D01*
X80999500Y-90385015D01*
X81010000Y-90487795D01*
X81010001Y-90487796D01*
X81065186Y-90654335D01*
X81065187Y-90654337D01*
X81157286Y-90803651D01*
X81157289Y-90803655D01*
X81281344Y-90927710D01*
X81281348Y-90927713D01*
X81426041Y-91016962D01*
X81472766Y-91068910D01*
X81483987Y-91137873D01*
X81456144Y-91201954D01*
X81426041Y-91228038D01*
X81281348Y-91317286D01*
X81281344Y-91317289D01*
X81157289Y-91441344D01*
X81157286Y-91441348D01*
X81065187Y-91590662D01*
X81065186Y-91590664D01*
X81010001Y-91757203D01*
X81010000Y-91757204D01*
X80999500Y-91859984D01*
X80999500Y-93560015D01*
X81010000Y-93662795D01*
X81010001Y-93662797D01*
X81037593Y-93746065D01*
X81065186Y-93829335D01*
X81065187Y-93829337D01*
X81157286Y-93978651D01*
X81157289Y-93978655D01*
X81281344Y-94102710D01*
X81281348Y-94102713D01*
X81426041Y-94191962D01*
X81472766Y-94243910D01*
X81483987Y-94312873D01*
X81456144Y-94376954D01*
X81426041Y-94403038D01*
X81281348Y-94492286D01*
X81281344Y-94492289D01*
X81157289Y-94616344D01*
X81157286Y-94616348D01*
X81065187Y-94765662D01*
X81065186Y-94765664D01*
X81010001Y-94932203D01*
X81010000Y-94932204D01*
X80999500Y-95034984D01*
X80999500Y-96735015D01*
X81010000Y-96837795D01*
X81010001Y-96837796D01*
X81065186Y-97004335D01*
X81065187Y-97004337D01*
X81157286Y-97153651D01*
X81157289Y-97153655D01*
X81281344Y-97277710D01*
X81281348Y-97277713D01*
X81426041Y-97366962D01*
X81472766Y-97418910D01*
X81483987Y-97487873D01*
X81456144Y-97551954D01*
X81426041Y-97578038D01*
X81281348Y-97667286D01*
X81281344Y-97667289D01*
X81157289Y-97791344D01*
X81157286Y-97791348D01*
X81065187Y-97940662D01*
X81065186Y-97940664D01*
X81010001Y-98107203D01*
X81010000Y-98107204D01*
X80999500Y-98209984D01*
X80999500Y-99910015D01*
X81010000Y-100012795D01*
X81010001Y-100012796D01*
X81065186Y-100179335D01*
X81065187Y-100179337D01*
X81157286Y-100328651D01*
X81157289Y-100328655D01*
X81281344Y-100452710D01*
X81281348Y-100452713D01*
X81426041Y-100541962D01*
X81472766Y-100593910D01*
X81483987Y-100662873D01*
X81456144Y-100726954D01*
X81426041Y-100753038D01*
X81281348Y-100842286D01*
X81281344Y-100842289D01*
X81157289Y-100966344D01*
X81157286Y-100966348D01*
X81065187Y-101115662D01*
X81065186Y-101115664D01*
X81010001Y-101282203D01*
X81010000Y-101282204D01*
X80999500Y-101384984D01*
X80999500Y-103085015D01*
X81010000Y-103187795D01*
X81010001Y-103187797D01*
X81031867Y-103253784D01*
X81065186Y-103354335D01*
X81065187Y-103354337D01*
X81157286Y-103503651D01*
X81157289Y-103503655D01*
X81281344Y-103627710D01*
X81281348Y-103627713D01*
X81426041Y-103716962D01*
X81472766Y-103768910D01*
X81483987Y-103837873D01*
X81456144Y-103901954D01*
X81426041Y-103928038D01*
X81281348Y-104017286D01*
X81281344Y-104017289D01*
X81157289Y-104141344D01*
X81157286Y-104141348D01*
X81065187Y-104290662D01*
X81065186Y-104290664D01*
X81010001Y-104457203D01*
X81010000Y-104457204D01*
X80999500Y-104559984D01*
X80999500Y-106260015D01*
X81010000Y-106362795D01*
X81010001Y-106362797D01*
X81029290Y-106421007D01*
X81065186Y-106529335D01*
X81065187Y-106529337D01*
X81157286Y-106678651D01*
X81157289Y-106678655D01*
X81281344Y-106802710D01*
X81281348Y-106802713D01*
X81426041Y-106891962D01*
X81472766Y-106943910D01*
X81483987Y-107012873D01*
X81456144Y-107076954D01*
X81426041Y-107103038D01*
X81281348Y-107192286D01*
X81281344Y-107192289D01*
X81157289Y-107316344D01*
X81157286Y-107316348D01*
X81065187Y-107465662D01*
X81065186Y-107465664D01*
X81010001Y-107632203D01*
X81010000Y-107632204D01*
X80999500Y-107734984D01*
X80999500Y-109435015D01*
X80010500Y-109435015D01*
X80010500Y-76324500D01*
X80030185Y-76257461D01*
X80082989Y-76211706D01*
X80134500Y-76200500D01*
X126240500Y-76200500D01*
X126307539Y-76220185D01*
G37*
%TD.AperFunction*%
%TD*%
M02*
